<svg width="277" height="277" viewBox="0 0 277 277" fill="none" xmlns="http://www.w3.org/2000/svg">
<g filter="url(#filter0_d_36_387)">
<circle cx="138.5" cy="134.5" r="113.5" fill="#FEF5E0"/>
</g>
<path d="M112.627 110.053C117.525 108.921 122.151 107.852 126.777 106.785C142.084 103.255 157.399 99.7342 172.692 96.1646C173.326 96.0165 174.322 95.4424 174.348 95.0141C174.507 92.575 174.425 90.1199 174.425 87.3965C153.613 92.1907 133.133 96.908 112.627 101.633C112.627 104.425 112.627 107.032 112.627 110.053V110.053ZM179 67C179 67.9898 179 68.6189 179 69.248C178.991 100.6 179.035 131.952 178.866 163.304C178.853 165.761 177.87 168.534 176.495 170.608C171.524 178.128 160.257 181.172 151.932 177.607C144.373 174.368 142.161 166.562 146.904 159.876C152.41 152.122 164.599 149.32 172.968 153.885C173.326 154.082 173.692 154.268 174.274 154.574C174.274 137.411 174.274 120.452 174.274 103.128C153.673 107.874 133.15 112.601 112.549 117.347C112.549 118.401 112.549 119.247 112.549 120.094C112.549 137.33 112.351 154.57 112.635 171.802C112.765 179.825 108.957 184.793 102.123 187.929C96.8115 190.368 91.2538 190.765 85.7435 188.518C77.7325 185.251 75.6371 177.072 80.8713 170.216C85.8772 163.658 98.0016 159.393 107.849 165.417C107.918 164.818 108.026 164.308 108.026 163.799C108.039 138.051 108.048 112.303 108.043 86.5547C108.043 83.2108 108.017 83.2438 111.333 82.482C133.094 77.4829 154.846 72.4675 176.598 67.462C177.275 67.3074 177.957 67.1992 179 67V67Z" fill="#181E21"/>
<defs>
<filter id="filter0_d_36_387" x="0" y="0" width="277" height="277" filterUnits="userSpaceOnUse" color-interpolation-filters="sRGB">
<feFlood flood-opacity="0" result="BackgroundImageFix"/>
<feColorMatrix in="SourceAlpha" type="matrix" values="0 0 0 0 0 0 0 0 0 0 0 0 0 0 0 0 0 0 127 0" result="hardAlpha"/>
<feOffset dy="4"/>
<feGaussianBlur stdDeviation="12.5"/>
<feComposite in2="hardAlpha" operator="out"/>
<feColorMatrix type="matrix" values="0 0 0 0 0 0 0 0 0 0 0 0 0 0 0 0 0 0 0.4 0"/>
<feBlend mode="normal" in2="BackgroundImageFix" result="effect1_dropShadow_36_387"/>
<feBlend mode="normal" in="SourceGraphic" in2="effect1_dropShadow_36_387" result="shape"/>
</filter>
</defs>
</svg>
