<svg width="3840" height="2160" viewBox="0 0 3840 2160" fill="none" xmlns="http://www.w3.org/2000/svg">
<rect width="3840" height="2160" fill="#FEF5E0"/>
<g filter="url(#filter0_d_1_3)">
<rect x="406" width="3028" height="2160" fill="white"/>
</g>
<g opacity="0.8">
<path fill-rule="evenodd" clip-rule="evenodd" d="M3283.25 1242.28C3285.72 1239.54 3287.91 1236.8 3290.37 1234.34C3291.1 1235.07 3292.05 1235.59 3292.83 1236.27L3292.84 1236.26C3292.01 1235.44 3290.92 1234.89 3290.1 1234.07C3287.91 1236.8 3285.44 1239.54 3283.25 1242.28V1242.28ZM3277.92 1151.55C3280.89 1149.13 3284.13 1146.7 3287.63 1144C3283.86 1146.7 3280.88 1149.13 3277.92 1151.55ZM3287.66 1144.31C3288.05 1149.71 3286.46 1151.84 3280.96 1151.85C3286.65 1151.86 3288.05 1149.73 3287.66 1144.31ZM3273.21 1137.85L3270.94 1136.34C3273.65 1131.73 3276.36 1127.39 3279.33 1122.79L3279.15 1122.65C3276.41 1127.31 3273.67 1131.69 3270.66 1136.34C3271.48 1136.89 3272.3 1137.43 3273.13 1137.98L3273.21 1137.85ZM3347.04 1012.6C3345.93 1012.7 3344.85 1012.79 3343.78 1012.89C3344.89 1012.8 3345.98 1012.7 3347.04 1012.6ZM3337.34 1010.43C3337.34 1010.09 3337.37 1009.87 3337.46 1009.87C3340.47 1009.05 3343.48 1008.77 3346.49 1008.5C3346.54 1008.69 3346.58 1008.89 3346.63 1009.11C3346.59 1008.81 3346.55 1008.51 3346.49 1008.22C3343.48 1008.77 3340.47 1009.05 3337.46 1009.59C3337.35 1009.59 3337.33 1009.93 3337.34 1010.43V1010.43ZM3247.86 1070.68C3246.94 1071.3 3245.98 1071.85 3244.93 1072.28C3243.29 1073.1 3240.55 1072.28 3238.63 1071.46C3237.95 1071.23 3237.08 1069.3 3236.96 1068.5C3236.82 1068.97 3237.85 1071.47 3238.63 1071.73C3240.55 1072.56 3243.29 1073.38 3244.93 1072.56C3245.93 1072.01 3246.9 1071.37 3247.86 1070.68ZM3251.81 1063.67C3252.33 1064.72 3253.01 1065.58 3253.69 1066.26C3252.98 1065.31 3252.47 1064.56 3251.81 1063.67ZM3254.79 1093.25C3254.96 1084.84 3261.17 1080.72 3271.21 1082.68C3261.16 1080.5 3254.95 1084.76 3254.79 1093.25ZM3271.21 1082.68C3266.01 1088.71 3261.35 1093.91 3255.88 1100.48C3261.35 1094.18 3266.01 1088.98 3271.21 1082.68ZM3315.78 1284.19C3314.74 1284.72 3312.59 1286.13 3310.99 1286.11C3312.35 1286.54 3314.68 1284.76 3315.78 1284.19ZM3293.83 1255.79C3295.33 1255.9 3298.47 1257.58 3300.5 1258.7C3302.14 1259.8 3303.24 1261.99 3304.88 1263.08C3313.81 1268.79 3315.55 1270.9 3315.79 1280.82C3315.55 1270.9 3313.84 1268.79 3305.15 1263.08C3303.51 1261.99 3302.42 1259.8 3300.77 1258.7C3298.61 1257.5 3295.19 1255.67 3293.83 1255.79V1255.79ZM3342.45 1045.97C3343.9 1056.63 3348.55 1063.59 3357.71 1067.63C3358.81 1068.18 3359.36 1072.01 3358.81 1074.2C3358.65 1075.34 3357.9 1076.38 3356.98 1077.32C3358.03 1076.31 3358.9 1075.17 3359.08 1073.92C3359.63 1071.73 3359.08 1067.9 3357.99 1067.35C3348.83 1063.85 3343.91 1056.63 3342.45 1045.97V1045.97ZM3308.05 1056.98C3314.93 1069.82 3326.87 1070.39 3337.73 1073.1C3340.19 1073.65 3343.48 1071.19 3346.22 1069.82L3346.12 1069.7C3343.46 1070.88 3340.36 1073.35 3338 1072.83C3327.05 1070.37 3315.01 1069.54 3308.16 1056.4C3308.13 1056.61 3308.09 1056.8 3308.05 1056.98V1056.98ZM3332.46 1056.68C3333.37 1055.32 3334.26 1053.96 3335.15 1052.6C3334.23 1053.96 3333.33 1055.32 3332.46 1056.68ZM3338.51 1047.71C3339.17 1047.15 3340.03 1046.83 3341.44 1046.02C3339.86 1046.92 3339.01 1047.18 3338.55 1047.64L3338.51 1047.71V1047.71ZM3366.75 1168.64C3369.48 1166.45 3371.95 1163.71 3374.96 1161.8C3375.23 1161.52 3377.7 1164.26 3379.07 1165.36C3376.05 1167.55 3373.04 1170.01 3370.03 1172.2C3368.94 1171.11 3367.84 1169.74 3366.75 1168.64ZM3334.17 948.274C3318.57 946.905 3310.35 929.386 3316.92 912.139C3313.64 928.564 3321.58 939.788 3334.17 948.274ZM3259.99 962.783C3255.06 956.213 3252.87 948.548 3253.42 940.609C3253.69 938.419 3256.97 936.503 3258.89 934.587C3261.35 937.324 3266.28 940.062 3266.01 942.525C3265.19 949.369 3262.18 955.665 3259.99 962.783ZM3177.04 1193.01C3185.53 1195.74 3191.27 1208.06 3201.95 1202.04C3210.44 1197.11 3215.64 1189.17 3216.73 1179.04C3218.65 1189.17 3214.54 1197.39 3207.7 1204.23C3202.5 1209.43 3194.83 1209.7 3186.62 1205.6C3177.04 1200.67 3176.49 1199.85 3177.04 1193.01V1193.01ZM3239.73 1012.33C3233.98 1001.11 3233.43 1000.56 3223.3 1009.87C3218.38 1014.25 3215.09 1020.27 3210.44 1025.2C3208.52 1027.11 3205.51 1027.93 3203.05 1029.3C3203.32 1026.57 3202.77 1022.46 3204.41 1021.09C3213.45 1013.15 3222.76 1005.76 3232.34 998.37C3236.99 994.537 3240.82 997.549 3243.56 1001.38C3246.02 1005.21 3244.66 1008.5 3239.73 1012.33ZM3434.19 863.327C3420.81 866.631 3408.78 872.436 3402.61 888.323C3402.06 889.692 3400.42 890.787 3397.13 891.608C3397.41 889.144 3397.13 886.407 3397.95 884.217C3402.61 871.077 3414.11 865.328 3425.88 861.496C3428.59 860.615 3431.37 859.851 3434.19 859.184V863.327ZM3434.19 1169.14C3432.88 1168.99 3431.57 1168.82 3430.26 1168.64C3420.68 1167.27 3411.37 1164.54 3402.06 1162.35C3400.69 1162.07 3398.78 1160.16 3398.78 1159.61C3399.32 1157.69 3400.42 1154.95 3401.79 1154.68C3411.37 1152.76 3421.5 1149.48 3431.08 1150.57C3432.12 1150.68 3433.16 1150.81 3434.19 1150.96V1169.14V1169.14ZM3329.52 1508.64C3344.03 1510.01 3358.53 1511.65 3373.32 1512.74C3393.72 1514.12 3413.97 1512.26 3434.19 1509.38V1517.25C3406.79 1522.78 3379.17 1522.23 3351.14 1518.49C3341.84 1517.4 3332.25 1517.94 3322.95 1518.22C3314.73 1518.77 3308.71 1522.87 3304.88 1530.54C3303.79 1532.45 3301.32 1533.55 3299.41 1534.92C3299.13 1532.18 3298.04 1529.17 3298.86 1526.98C3303.24 1516.03 3314.73 1509.46 3329.52 1508.64V1508.64ZM3220.84 1837.68C3223.58 1836.04 3226.31 1834.67 3229.05 1833.03C3235.07 1829.2 3240 1830.84 3240.28 1837.68C3240.28 1843.7 3238.91 1850.27 3236.17 1855.75C3229.6 1868.89 3222.21 1881.76 3214.82 1894.62C3213.17 1897.36 3210.71 1899.82 3207.43 1901.74C3209.07 1882.85 3218.38 1866.7 3228.5 1849.45C3224.4 1849.73 3222.48 1849.45 3221.11 1850C3216.19 1852.19 3212.35 1850.55 3209.34 1846.44C3206.33 1842.34 3204.96 1838.23 3208.25 1833.3C3213.72 1825.64 3218.92 1817.42 3224.4 1809.76C3235.9 1793.61 3239.18 1776.91 3235.07 1756.65C3231.24 1737.22 3227.41 1734.48 3204.69 1735.03C3192.37 1735.3 3180.32 1740.78 3168.01 1743.79C3164.99 1744.61 3162.26 1745.43 3158.97 1746.52C3158.15 1739.41 3162.53 1736.94 3166.64 1735.3C3175.4 1731.74 3184.43 1728.46 3193.46 1725.72C3221.11 1717.51 3241.92 1731.74 3244.93 1760.49C3247.94 1786.77 3239.73 1809.21 3222.48 1828.92C3220.84 1830.84 3219.74 1833.03 3218.38 1834.94C3219.47 1836.04 3220.02 1836.86 3220.84 1837.68ZM3427.25 1183.7C3429.18 1183.99 3431.56 1184.28 3434.19 1184.63V1236.5C3432.4 1236.21 3430.57 1235.93 3428.89 1235.44C3424.51 1234.07 3419.03 1233.25 3416.3 1230.23C3411.64 1225.31 3408.36 1219.56 3400.42 1218.46C3398.78 1218.19 3396.31 1212.44 3396.31 1209.43C3396.31 1193.28 3406.99 1183.7 3427.25 1183.7V1183.7ZM3274.77 1579.26C3261.08 1572.69 3249.58 1562.84 3239.45 1551.34C3216.73 1525.61 3214.82 1494.95 3217.01 1462.92C3218.65 1440.2 3219.47 1417.75 3220.02 1395.03C3220.57 1377.24 3218.1 1359.17 3220.29 1341.65C3222.48 1324.68 3228.5 1307.98 3233.98 1291.55C3235.9 1285.81 3242.19 1281.43 3246.57 1277.05C3247.67 1275.95 3250.4 1276.77 3252.32 1276.5C3252.05 1278.41 3252.32 1280.6 3251.5 1281.97C3234.8 1305.24 3229.05 1331.52 3229.05 1359.44C3229.05 1383.81 3229.33 1407.9 3229.05 1432.26C3229.05 1441.29 3228.23 1450.33 3226.59 1459.09C3220.02 1491.94 3226.31 1521.5 3247.39 1547.51C3256.43 1558.19 3265.73 1568.59 3274.77 1579.26V1579.26ZM3229.33 2147.84C3233.43 2136.89 3236.17 2127.03 3240.82 2118.27C3251.77 2097.74 3263.54 2078.03 3274.77 2057.78C3276.68 2054.22 3277.51 2049.84 3278.87 2045.73C3274.77 2046.55 3270.11 2046.28 3266.83 2048.19C3255.33 2055.31 3244.66 2063.25 3233.43 2070.92C3231.79 2072.01 3230.42 2073.65 3228.78 2073.93C3226.86 2074.47 3224.95 2073.65 3223.03 2073.65C3223.58 2071.46 3223.03 2068.73 3224.4 2067.63C3229.33 2062.98 3234.53 2058.32 3240.28 2054.76C3251.77 2047.65 3263.54 2039.98 3275.86 2034.51C3285.99 2029.85 3292.84 2036.42 3289.82 2047.1C3287.91 2053.67 3284.62 2060.51 3280.52 2065.99C3265.46 2086.52 3254.51 2109.51 3244.93 2132.78C3244.11 2134.7 3244.11 2137.16 3243.83 2139.35C3246.57 2139.08 3249.86 2139.9 3251.77 2138.53C3260.81 2132.24 3270.11 2125.94 3278.6 2118.82C3287.63 2111.43 3295.85 2103.22 3304.06 2095.28C3308.16 2091.17 3312.27 2089.8 3316.92 2094.73C3319.94 2098.02 3322.4 2096.37 3324.32 2093.09C3334.44 2076.12 3336.63 2058.6 3330.06 2039.98C3329.24 2037.52 3329.79 2034.78 3329.79 2032.32C3332.25 2033.96 3335.81 2034.78 3336.63 2036.97C3344.3 2053.94 3347.58 2071.19 3337.73 2088.71C3333.62 2096.1 3329.79 2103.49 3325.68 2110.88C3322.67 2116.36 3318.29 2118 3313.64 2112.8C3308.44 2106.78 3304.33 2107.6 3298.58 2112.8C3287.63 2122.93 3275.59 2132.24 3264.37 2142.36C3254.51 2150.85 3243.01 2147.84 3229.33 2147.84V2147.84ZM3434.19 1470.05C3433.56 1469.62 3433.04 1469.14 3432.72 1468.67C3431.63 1466.75 3431.9 1463.47 3432.17 1460.73C3432.43 1458.18 3433.4 1455.63 3434.19 1452.86V1470.05ZM3434.19 1452.24C3431.51 1452.24 3428.84 1452.25 3426.42 1452.52C3420.68 1453.34 3420.13 1449.23 3419.31 1445.13C3417.94 1437.74 3415.47 1436.37 3410.27 1441.29C3397.95 1453.34 3377.42 1452.24 3368.94 1432.26C3366.2 1425.69 3362.64 1422.95 3355.52 1423.23C3347.86 1423.5 3335.54 1410.36 3335.54 1402.7C3335.27 1385.18 3322.4 1375.6 3312.27 1364.37C3310.63 1362.46 3306.52 1362.18 3303.51 1361.91C3295.85 1360.81 3290.64 1356.98 3288.18 1349.86C3285.99 1343.29 3289.28 1332.34 3295.03 1329.33C3297.76 1327.69 3301.87 1328.78 3305.43 1328.51C3307.89 1328.24 3310.08 1327.14 3312.27 1326.59C3311.45 1324.68 3310.35 1322.76 3309.81 1320.57C3309.26 1318.38 3308.44 1315.92 3308.71 1313.73C3308.99 1311.54 3310.9 1309.62 3311.72 1307.43C3313.64 1303.33 3316.65 1298.95 3310.63 1295.93C3305.43 1293.47 3300.5 1290.19 3295.57 1297.3C3287.36 1309.62 3278.33 1321.12 3270.11 1333.71C3258.34 1352.05 3261.63 1367.93 3278.6 1382.71C3285.99 1389.28 3293.11 1396.4 3300.23 1403.24C3301.87 1404.89 3302.69 1407.08 3304.33 1409.81C3302.14 1409.81 3300.77 1410.36 3300.5 1410.09C3287.91 1399.41 3274.22 1389.83 3263.27 1377.51C3250.4 1363.28 3250.95 1346.85 3261.9 1330.97C3270.94 1317.56 3280.52 1304.69 3289.55 1291.55C3290.92 1289.64 3290.92 1285.53 3290.1 1283.34C3286.81 1275.95 3282.71 1269.11 3278.6 1261.99C3276.96 1259.25 3275.32 1256.51 3273.4 1254.05C3270.11 1249.67 3266.56 1249.4 3262.72 1253.5C3260.81 1255.69 3258.89 1258.16 3256.43 1259.53C3254.24 1260.62 3250.4 1261.72 3249.04 1260.35C3247.39 1258.98 3246.85 1254.6 3247.67 1252.96C3252.05 1245.29 3257.25 1237.9 3262.18 1230.23C3263.27 1228.59 3265.19 1226.95 3265.46 1225.03C3266.01 1223.12 3266.01 1219.83 3264.64 1218.74C3263.54 1217.64 3259.99 1217.37 3258.34 1218.46C3252.87 1221.2 3247.94 1224.76 3242.47 1227.5C3234.53 1231.33 3226.04 1232.97 3218.92 1226.4C3216.73 1224.49 3214.82 1220.65 3214.82 1217.64C3214.82 1211.89 3230.42 1199.03 3236.17 1199.57C3237.54 1199.85 3239.73 1200.94 3239.73 1201.76C3239.73 1203.41 3238.91 1205.32 3237.54 1206.42C3234.53 1208.88 3230.69 1210.25 3227.68 1212.99C3226.04 1214.36 3224.4 1217.92 3225.22 1219.56C3226.04 1221.47 3229.87 1223.66 3231.24 1223.12C3238.91 1220.11 3246.57 1216.55 3253.96 1212.71C3254.78 1212.44 3254.51 1207.79 3253.42 1206.97C3243.56 1199.3 3246.85 1189.72 3249.04 1180.14C3249.86 1177.4 3249.86 1174.39 3250.13 1171.65C3247.12 1171.38 3244.38 1171.38 3241.37 1171.1C3238.36 1171.1 3235.62 1171.1 3232.61 1170.83C3233.16 1168.09 3233.43 1164.81 3234.8 1162.34C3238.36 1156.32 3237.26 1153.31 3230.42 1151.94C3221.11 1150.03 3214.54 1156.32 3214 1168.91C3209.07 1165.9 3204.41 1163.44 3200.58 1160.16C3196.48 1156.32 3200.03 1153.86 3203.32 1152.76C3209.89 1150.57 3216.46 1148.93 3223.03 1147.02C3225.49 1146.19 3228.5 1145.65 3230.15 1144C3232.34 1141.81 3235.9 1137.43 3235.07 1136.07C3233.43 1132.78 3229.6 1128.67 3226.31 1128.4C3217.01 1127.85 3214.82 1122.1 3214.27 1114.71C3213.72 1107.32 3214.27 1099.66 3202.5 1097.47C3210.16 1093.09 3214.27 1095.28 3217.28 1099.93C3218.92 1102.39 3219.47 1105.68 3220.57 1108.69C3222.48 1114.99 3226.31 1116.08 3230.97 1111.43C3238.63 1103.49 3241.37 1093.91 3239.18 1083.23C3238.63 1080.77 3235.9 1078.58 3233.71 1077.21C3227.96 1073.65 3224.67 1069 3225.22 1062.15C3226.59 1049.29 3223.03 1035.33 3233.16 1024.65C3234.8 1022.73 3236.72 1020.82 3238.91 1019.17C3244.11 1015.34 3250.13 1012.6 3254.78 1008.22C3261.35 1002.2 3268.47 1001.65 3276.14 1003.3C3284.62 1005.21 3288.18 1012.88 3285.44 1021.09C3282.71 1029.03 3280.24 1037.24 3271.48 1039.98C3268.2 1041.07 3263.82 1039.43 3259.99 1038.88C3260.53 1035.33 3260.26 1031.49 3261.9 1028.21C3264.09 1023.55 3267.65 1019.45 3274.22 1020C3275.59 1020 3278.6 1016.71 3278.33 1015.62C3277.78 1013.7 3275.32 1010.69 3273.95 1010.69C3270.39 1010.69 3266.56 1011.51 3263.55 1013.43C3249.86 1022.46 3238.63 1033.41 3235.08 1050.66C3233.71 1057.23 3236.44 1058.87 3241.37 1057.5C3246.3 1056.13 3250.68 1052.57 3255.61 1050.93C3258.34 1050.11 3261.63 1050.66 3264.64 1050.93C3267.93 1051.2 3271.48 1052.85 3274.22 1052.02C3285.99 1048.47 3292.29 1040.25 3295.85 1028.21C3298.59 1018.9 3303.79 1010.14 3309.81 1002.2C3314.19 996.453 3312.55 994.263 3307.89 991.252C3301.32 986.872 3294.48 982.766 3288.46 977.838C3284.9 975.101 3282.16 971.542 3279.7 967.709C3273.13 956.759 3275.32 949.916 3286.54 943.62C3287.64 943.072 3288.73 942.251 3290.1 941.156C3287.91 937.597 3285.99 934.312 3284.08 931.301C3284.62 930.754 3284.9 930.206 3285.45 929.659C3287.09 930.48 3289.28 931.301 3290.65 932.396C3298.59 939.24 3306.52 946.357 3313.91 953.475C3315.56 955.117 3316.38 957.855 3317.47 960.319C3315.01 960.045 3312.27 960.592 3310.36 959.497C3305.7 957.581 3301.87 954.022 3296.94 952.654C3293.38 951.559 3289 952.654 3284.9 952.927C3285.17 956.76 3284.08 961.687 3285.99 964.699C3296.67 980.029 3312.55 989.062 3330.07 993.716C3342.93 997.275 3356.62 997.549 3369.76 998.643C3372.77 998.917 3376.06 997.001 3379.07 995.906C3377.97 993.168 3377.42 989.61 3375.78 987.42C3364.01 972.364 3374.69 956.76 3391.39 951.011C3381.8 960.866 3374.14 969.626 3380.16 981.945C3382.08 985.777 3385.09 990.157 3388.92 991.526C3405.89 997.549 3411.64 996.18 3414.11 986.325C3410.27 987.694 3406.72 988.789 3402.34 990.431C3402.88 987.42 3403.16 985.504 3403.43 983.314C3401.24 983.04 3398.78 983.314 3397.13 982.219C3395.49 981.124 3393.58 978.66 3393.58 977.017C3394.12 968.531 3409.73 960.319 3417.39 963.604C3419.58 964.425 3424.24 963.056 3425.88 961.414C3428.89 958.402 3430.26 954.023 3433.82 948C3433.96 948.738 3434.08 949.438 3434.19 950.104V1013.81C3432.97 1016.35 3430.83 1017.91 3426.7 1018.08C3424.24 1018.08 3421.5 1020 3419.03 1020C3412.46 1019.72 3404.25 1021.36 3399.32 1018.08C3386.46 1009.59 3375.23 1013.43 3363.46 1018.9C3362.64 1019.17 3362.09 1019.72 3361.55 1020C3352.51 1025.2 3352.79 1024.92 3360.18 1031.77C3364.56 1035.87 3367.84 1041.07 3371.68 1046C3372.5 1047.1 3372.5 1049.01 3372.22 1050.38C3370.31 1057.5 3368.39 1064.62 3366.47 1071.46C3362.37 1085.15 3351.97 1091.17 3338 1088.98C3333.9 1088.43 3329.52 1087.89 3325.41 1087.34C3320.48 1086.79 3316.65 1088.71 3315.56 1093.91C3324.32 1099.38 3324.32 1099.38 3313.91 1107.6C3320.48 1111.7 3322.13 1116.63 3313.64 1121.28C3319.39 1125.66 3321.31 1130.04 3315.01 1134.97C3313.91 1135.79 3314.74 1139.62 3315.83 1141.81C3319.12 1149.48 3324.32 1156.6 3321.03 1165.36C3319.39 1170.01 3316.38 1174.39 3314.19 1179.04C3311.72 1183.97 3309.26 1188.62 3307.62 1193.55C3307.07 1195.47 3308.44 1199.03 3310.08 1200.12C3321.58 1207.24 3323.5 1218.46 3320.21 1229.41C3317.2 1240.36 3320.48 1249.67 3322.67 1259.52C3324.04 1265.27 3327.33 1270.75 3328.97 1276.5C3329.79 1279.51 3329.79 1283.89 3328.15 1286.35C3323.77 1292.37 3325.96 1294.02 3331.98 1294.84C3338.55 1295.66 3342.38 1300.59 3341.56 1306.34C3339.1 1320.57 3348.13 1329.06 3355.25 1338.64C3357.17 1341.1 3359.9 1343.29 3361.27 1346.03C3364.56 1352.33 3367.84 1355.88 3373.32 1346.3C3375.23 1348.77 3377.15 1350.41 3377.7 1352.33C3379.89 1357.8 3381.8 1363 3389.47 1359.17C3390.56 1358.62 3393.3 1359.99 3394.4 1361.09C3401.24 1367.66 3408.36 1374.5 3408.08 1384.9C3408.08 1387.64 3406.17 1390.65 3404.53 1393.11C3400.97 1397.77 3397.13 1402.7 3401.51 1407.9C3405.62 1412.82 3411.37 1416.66 3419.03 1412.55C3421.5 1411.18 3424.78 1411.73 3427.79 1411.46C3427.52 1414.47 3426.97 1417.2 3426.7 1420.22C3426.42 1422.68 3425.06 1426.24 3426.42 1427.33C3428.07 1428.98 3431.35 1429.25 3434.09 1429.52C3434.12 1429.57 3434.16 1429.61 3434.19 1429.65V1452.24V1452.24Z" fill="#EBEBEB"/>
</g>
<g opacity="0.8">
<path fill-rule="evenodd" clip-rule="evenodd" d="M3530.17 1367.38C3523.61 1366.83 3521.96 1361.36 3520.32 1356.71C3516.21 1344.66 3505.54 1337 3492.95 1337.27C3485.83 1337.27 3475.97 1321.94 3479.26 1315.92C3481.72 1311.26 3485.28 1311.81 3489.39 1314.27C3500.06 1320.84 3510.74 1326.87 3521.42 1333.44C3533.46 1340.83 3544.41 1334.81 3544.96 1320.84C3545.23 1313.18 3546.05 1305.52 3546.33 1297.85C3546.33 1295.93 3546.6 1292.65 3545.51 1291.83C3534.56 1284.16 3537.57 1271.57 3536.2 1261.72C3533.19 1240.36 3533.19 1218.74 3531.54 1197.11C3531.27 1194.37 3529.35 1191.91 3528.53 1189.17C3525.8 1180.69 3529.63 1176.58 3538.11 1176.03C3550.98 1175.48 3563.57 1175.21 3573.97 1165.08C3579.18 1160.15 3587.11 1157.69 3594.23 1155.23C3604.36 1151.67 3607.92 1147.29 3603.81 1137.43C3599.98 1128.13 3593.96 1119.64 3589.03 1110.61C3587.94 1108.42 3587.66 1105.95 3586.84 1103.49C3589.85 1104.04 3593.68 1103.49 3595.33 1105.13C3601.9 1112.52 3612.85 1116.63 3613.12 1128.67C3613.12 1129.77 3614.22 1131.41 3615.04 1131.96C3617.77 1133.88 3621.61 1137.16 3622.98 1136.34C3627.36 1133.88 3630.64 1128.95 3626.53 1124.57C3616.41 1113.34 3605.46 1102.39 3594.23 1092.27C3591.77 1090.08 3586.02 1091.72 3581.64 1091.72C3580.54 1091.72 3579.18 1093.36 3578.08 1093.36C3573.7 1093.09 3569.6 1092.54 3565.21 1092.27C3567.4 1089.25 3569.32 1085.7 3572.33 1083.23C3589.85 1068.72 3601.62 1050.93 3603.27 1027.66C3603.54 1025.47 3603.27 1022.46 3602.17 1020.82C3600.25 1017.81 3597.52 1015.34 3595.33 1012.88C3593.14 1015.34 3590.13 1017.26 3588.76 1020C3577.81 1040.53 3561.93 1056.68 3541.95 1068.18C3530.18 1075.02 3517.31 1079.95 3504.44 1084.87C3501.98 1085.7 3497.33 1084.05 3495.14 1082.14C3492.4 1079.4 3490.48 1078.58 3487.2 1080.77C3485.55 1081.86 3483.09 1081.04 3480.9 1081.32C3481.45 1079.13 3481.45 1076.94 3482.54 1075.02C3483.64 1073.1 3486.1 1071.73 3487.47 1069.82C3488.84 1067.63 3489.66 1065.16 3490.76 1062.7C3488.02 1062.7 3485.01 1061.61 3482.54 1062.43C3477.07 1064.07 3471.87 1066.81 3466.67 1069C3464.75 1069.82 3463.11 1071.19 3460.92 1071.73C3459 1072.01 3457.08 1071.46 3455.17 1071.19C3455.99 1069.27 3456.26 1066.26 3457.91 1065.44C3466.39 1061.33 3475.15 1057.23 3483.91 1053.94C3488.29 1052.3 3493.22 1052.3 3497.87 1051.48C3506.36 1049.83 3508.27 1052.02 3505.54 1060.51C3505.26 1061.33 3505.26 1062.43 3504.99 1065.16C3508 1063.8 3510.74 1063.52 3512.11 1062.15C3521.69 1053.12 3531 1043.81 3540.03 1034.23C3545.23 1028.76 3541.95 1019.45 3533.46 1016.71C3521.41 1013.15 3509.1 1009.87 3496.78 1007.95C3493.22 1007.4 3488.84 1011.51 3484.73 1013.43C3482 1014.79 3478.44 1017.53 3477.07 1016.71C3474.88 1015.62 3473.51 1011.78 3473.24 1008.77C3472.14 996.18 3480.08 988.241 3488.02 980.576C3503.35 965.52 3522.51 958.676 3542.77 954.296C3547.69 953.201 3550.16 956.76 3549.34 963.056C3548.24 971.268 3549.06 971.816 3557 969.352C3562.48 967.709 3567.68 965.793 3573.15 964.151C3573.15 963.33 3573.15 962.782 3573.15 961.961C3571.51 961.413 3569.87 960.592 3567.95 960.045C3566.04 959.497 3564.12 959.497 3561.66 957.033C3567.95 955.391 3574.52 953.475 3580.82 951.832C3596.42 947.726 3611.2 942.251 3618.6 926.1C3624.34 913.781 3622.15 908.854 3610.11 903.105C3604.63 900.367 3598.89 897.63 3598.06 888.87C3600.8 889.691 3602.72 889.691 3603.81 890.513C3609.01 893.797 3613.94 897.083 3619.14 900.367C3627.63 905.569 3629.82 911.317 3627.08 921.172C3624.07 932.67 3616.68 940.335 3606.82 946.357C3605.18 947.178 3603.27 948 3602.17 949.369C3600.8 951.285 3599.71 953.475 3598.61 955.391C3601.08 955.665 3604.09 957.033 3606.28 956.212C3616.68 952.927 3626.81 947.726 3637.48 945.81C3665.13 940.608 3692.51 940.061 3716.87 958.402C3722.07 962.234 3724.26 966.888 3721.8 972.637C3719.34 978.112 3720.16 981.671 3726.18 983.313C3723.44 987.419 3720.7 991.252 3718.24 994.811C3718.79 995.358 3719.06 995.905 3719.61 996.727C3728.37 993.989 3737.13 991.526 3746.16 988.788C3748.35 1007.68 3735.49 1016.98 3725.08 1030.4C3730.56 1029.85 3733.57 1029.85 3736.86 1029.3C3746.98 1027.93 3756.84 1027.93 3763.14 1037.79C3765.05 1040.8 3766.42 1046.55 3764.78 1049.01C3758.21 1059.69 3750.82 1069.82 3743.43 1079.95C3741.51 1082.68 3738.5 1084.87 3736.58 1087.61C3735.49 1089.25 3735.76 1091.72 3735.49 1093.91C3737.68 1093.91 3740.14 1094.18 3742.06 1093.36C3744.79 1092.26 3746.71 1089.25 3749.45 1088.71C3753.01 1088.16 3757.39 1088.43 3760.4 1090.07C3761.77 1090.9 3760.95 1095.55 3762.04 1098.01C3765.87 1108.14 3760.95 1115.81 3754.92 1123.2C3754.38 1123.75 3754.65 1124.84 3754.38 1125.39C3753.28 1130.04 3751.64 1134.7 3745.89 1134.15C3739.87 1133.33 3740.41 1128.13 3740.41 1123.47C3740.41 1117.18 3740.96 1110.61 3733.3 1108.42C3730.83 1107.59 3726.45 1108.96 3724.81 1110.88C3720.16 1116.35 3721.25 1134.97 3725.91 1140.17C3727.27 1141.54 3730.01 1142.09 3732.2 1142.36C3745.07 1143.18 3751.91 1150.85 3754.65 1163.44C3757.93 1177.67 3753.55 1186.71 3740.96 1193.28C3735.76 1196.02 3731.38 1201.22 3727.27 1205.87C3726.18 1206.96 3726.73 1209.98 3726.73 1212.17C3726.45 1214.63 3726.45 1217.09 3726.18 1219.56C3723.44 1218.74 3719.61 1218.74 3717.97 1217.09C3714.96 1214.08 3714.41 1207.24 3708.39 1211.07C3703.18 1214.36 3706.74 1219.01 3707.84 1223.66C3708.93 1228.04 3707.29 1233.24 3707.29 1237.9C3707.29 1241.18 3707.02 1245.29 3708.39 1247.75C3712.22 1254.32 3711.67 1257.61 3705.1 1261.99C3699.35 1265.82 3693.88 1270.47 3688.4 1274.31C3687.03 1275.4 3685.12 1277.04 3683.75 1276.77C3676.36 1275.13 3674.44 1280.06 3671.98 1285.26C3668.69 1292.1 3664.86 1298.67 3660.48 1305.24C3658.29 1308.8 3658.56 1310.44 3661.85 1313.18C3673.07 1322.49 3672.8 1333.44 3661.03 1342.47C3655.28 1346.85 3655.28 1351.23 3660.48 1355.34C3668.14 1361.63 3671.43 1368.2 3666.78 1378.06C3665.13 1381.34 3666.23 1386.54 3667.32 1390.38C3670.61 1402.97 3664.86 1412.28 3651.99 1412.82C3644.6 1413.1 3642.69 1414.47 3646.79 1421.58C3650.35 1427.88 3649.53 1434.45 3643.23 1439.38C3635.84 1445.4 3628.18 1450.6 3629 1462.1C3629.27 1467.03 3624.07 1469.49 3619.69 1465.66C3612.85 1459.63 3607.1 1452.52 3600.53 1446.22C3598.61 1444.3 3595.33 1442.94 3593.14 1443.21C3587.12 1444.03 3586.84 1441.29 3588.21 1436.91C3590.4 1429.25 3592.32 1421.31 3595.33 1413.92C3596.42 1410.91 3599.71 1407.9 3602.45 1406.53C3611.21 1402.15 3616.68 1389.83 3614.49 1380.52C3612.03 1370.67 3610.66 1360.54 3609.02 1350.41C3607.92 1342.74 3606 1334.81 3606.83 1327.14C3607.37 1320.3 3609.56 1312.63 3613.4 1307.16C3616.41 1302.78 3616.95 1300.86 3614.76 1296.21C3612.85 1292.1 3610.66 1286.63 3611.75 1282.25C3613.34 1274.32 3616.23 1266.78 3619.04 1259.29C3620.86 1257.3 3622.54 1255.2 3624.43 1252.95C3626.59 1250.38 3629.03 1247.62 3630.61 1244.65C3632.2 1241.69 3632.93 1238.51 3632.52 1236.03C3632.12 1233.55 3630.57 1231.77 3628.87 1231.56C3627.16 1231.36 3625.29 1232.74 3624.15 1234.81C3623.01 1236.89 3622.6 1239.65 3619.11 1241.69C3616.52 1243.19 3612.23 1244.3 3608.41 1245.69C3601.58 1245.78 3595.48 1244.21 3589.03 1239.27C3583.01 1234.61 3574.25 1230.78 3565.22 1235.98C3564.82 1235.3 3564.44 1234.64 3564.06 1233.98C3564.03 1232.7 3564.01 1231.45 3564.03 1230.21C3564.07 1227.14 3564.33 1224.16 3564.5 1221.17C3564.67 1218.19 3564.76 1215.2 3565.31 1212.43C3565.86 1209.66 3566.89 1207.1 3568.59 1203.99C3570.3 1200.88 3572.68 1197.21 3575.58 1194.49C3575.7 1194.38 3575.81 1194.28 3575.92 1194.17C3581.95 1190.46 3588.97 1188.37 3596.68 1186.98C3592.8 1187.5 3589.05 1187.84 3585.47 1188.9C3582.16 1189.89 3579 1191.49 3576.25 1193.88C3582.21 1190.25 3589.11 1188.2 3596.68 1186.98C3600.56 1186.47 3604.57 1185.79 3608.66 1185.02C3612.75 1184.26 3616.93 1183.4 3620.85 1181.83C3624.78 1180.25 3628.44 1177.95 3630.7 1176.07C3632.96 1174.2 3633.81 1172.75 3633.68 1171C3633.56 1169.25 3632.45 1167.21 3630.49 1166.23C3628.53 1165.24 3625.71 1165.33 3622.52 1165.93C3619.32 1166.52 3615.74 1167.63 3612.33 1168.65C3608.92 1169.68 3605.68 1170.62 3603.12 1171.04C3600.56 1171.47 3598.69 1171.38 3596.77 1171.3C3594.85 1171.21 3592.89 1171.13 3591.01 1171.81C3589.14 1172.49 3587.35 1173.94 3584.88 1175.65C3582.4 1177.35 3579.25 1179.31 3576.31 1181.14C3573.37 1182.98 3570.64 1184.68 3567.53 1186.34C3564.42 1188.01 3560.92 1189.63 3558.7 1191.67C3556.49 1193.72 3555.55 1196.19 3555.21 1199.64C3554.87 1203.1 3555.12 1207.53 3554.99 1214.05C3554.87 1220.57 3554.36 1229.19 3553.67 1237.45C3553.41 1240.63 3553.12 1243.76 3552.81 1246.68C3552.66 1247.4 3552.5 1248.12 3552.35 1248.85C3551.06 1254.22 3549.94 1259.6 3548.59 1264.97C3548.26 1265.48 3547.93 1265.92 3547.62 1266.36C3546.51 1267.89 3545.57 1269.34 3545.57 1271.17C3545.57 1272.04 3545.78 1272.99 3546.24 1273.77C3544.96 1279.47 3545.19 1284.72 3551.53 1289.09C3553.72 1290.73 3554.54 1294.02 3555.91 1296.48C3559.47 1303.05 3561.38 1310.44 3569.32 1314.27C3574.25 1316.74 3573.15 1321.12 3568.77 1324.13C3558.65 1330.97 3547.7 1337 3541.4 1348.49C3540.58 1349.86 3539.48 1350.96 3538.11 1352.05C3531 1359.72 3531 1359.72 3530.17 1367.38V1367.38ZM3604.83 1195.85C3604.22 1197.07 3603.77 1198.72 3604.4 1199.98C3605.03 1201.24 3605.76 1201.2 3607.1 1201.62C3608.45 1202.05 3609.36 1201.91 3610.58 1201.34C3611.8 1200.77 3612.04 1200.69 3612.78 1199.63C3613.51 1198.57 3613.93 1198.13 3613.45 1196.89C3612.96 1195.65 3612.35 1195.02 3610.89 1194.43C3609.42 1193.84 3608.2 1193.72 3606.84 1194.26C3605.48 1194.81 3605.44 1194.63 3604.83 1195.85V1195.85ZM3604.24 1222.78C3604.02 1220.91 3602.33 1218.47 3603.11 1216.58C3603.89 1214.69 3602.02 1213.47 3604.77 1211.6C3607.51 1209.73 3611.58 1211.24 3612.92 1211.52C3614.26 1211.81 3615.07 1212.7 3615.52 1213.66C3615.97 1214.61 3616.05 1215.63 3615.87 1216.79C3615.68 1217.94 3615.24 1219.24 3614.48 1220.57C3613.73 1221.89 3612.67 1223.23 3611.74 1224.33C3610.8 1225.42 3609.99 1226.28 3609.24 1226.77C3608.49 1227.25 3607.8 1227.38 3606.79 1226.73C3605.78 1226.08 3604.46 1224.65 3604.24 1222.78V1222.78ZM3591.72 1219.62C3590.48 1220.57 3588.85 1221.02 3587.55 1220.39C3586.25 1219.76 3585.27 1218.05 3584.87 1216.61C3584.46 1215.17 3584.62 1213.99 3585.29 1213.11C3585.97 1212.24 3587.14 1211.67 3588.34 1211.49C3589.54 1211.3 3590.76 1211.51 3591.7 1211.91C3592.63 1212.32 3593.28 1212.93 3593.73 1213.6C3594.18 1214.27 3594.42 1215 3594.12 1216.1C3593.81 1217.2 3592.96 1218.66 3591.72 1219.62V1219.62ZM3743.91 1976.49C3742.63 1977.34 3741.36 1978.16 3740.14 1978.94C3739.63 1978.17 3738.88 1977.17 3738.34 1976.37L3738.22 1976.47C3738.77 1977.29 3739.59 1978.39 3740.14 1979.21C3741.39 1978.3 3742.64 1977.39 3743.91 1976.49ZM3570.14 1634.56C3568.8 1636.57 3567.97 1638.59 3567.09 1640.09C3568.06 1638.59 3568.94 1636.63 3570.14 1634.56ZM3565.21 1642.23C3554.71 1648.96 3544.2 1655.17 3533.69 1661.63C3544.2 1655.17 3554.97 1648.96 3565.21 1642.23ZM3532.49 1662.06C3531.99 1662.05 3531.3 1661.94 3530.3 1661.94C3531.17 1661.95 3531.93 1662.06 3532.49 1662.06ZM3652.54 1363.55C3653.35 1364.9 3654.16 1365.98 3654.97 1367.06C3654.16 1365.97 3653.35 1364.63 3652.54 1363.55ZM3721.53 1156.6C3718.57 1157.67 3715.62 1158.75 3712.4 1159.82C3712.44 1159.86 3712.47 1159.88 3712.49 1159.88C3715.5 1159.06 3718.51 1157.97 3721.53 1156.6ZM3719.94 1152.86C3720.26 1153.4 3720.53 1153.93 3720.76 1154.45C3720.58 1153.91 3720.4 1153.36 3720.16 1152.76L3719.94 1152.86V1152.86ZM3697.37 1123.7C3701.68 1122.63 3705.99 1121.81 3710.58 1120.74C3710.83 1122.02 3711.09 1123.06 3711.34 1124.31L3711.4 1124.29C3711.12 1122.93 3710.85 1121.83 3710.58 1120.46C3705.99 1121.54 3701.68 1122.62 3697.37 1123.7V1123.7ZM3697.75 1126.16C3697.51 1125.25 3697.33 1124.44 3697.16 1123.75C3697.33 1124.61 3697.51 1125.37 3697.75 1126.16ZM3604.31 1092.39C3603 1091.31 3601.73 1090.18 3600.53 1088.98C3599.22 1087.67 3599.41 1085.36 3598.95 1083.24L3598.89 1083.23C3599.43 1085.15 3599.16 1087.89 3600.53 1089.25C3601.73 1090.36 3603 1091.38 3604.31 1092.39V1092.39ZM3613.03 1095.67C3612.49 1096.43 3611.72 1096.96 3611.2 1097.74C3611.75 1097.19 3612.57 1096.37 3613.12 1095.82L3613.03 1095.67ZM3723.98 1167.22C3727.07 1163.84 3729.13 1161.35 3731.65 1159.33C3732.74 1158.25 3735.44 1157.16 3736.29 1157.68C3736.2 1157.59 3736.12 1157.5 3736.03 1157.42C3735.49 1156.87 3732.75 1157.97 3731.38 1159.06C3729.11 1161.33 3727.07 1163.84 3723.98 1167.22V1167.22ZM3543.31 1007.4C3543.31 1007.16 3548.03 1003.76 3549.94 1003.74C3548 1003.75 3543.07 1007.16 3543.31 1007.4H3543.31V1007.4ZM3552.04 1019.46C3551.22 1019.73 3550.15 1020 3549.34 1020.54C3550.15 1020.27 3551.22 1019.74 3552.04 1019.46ZM3691.69 1146.47C3698.94 1142.97 3705.28 1139.92 3711.54 1137.13C3704.96 1139.74 3698.88 1142.99 3691.69 1146.47ZM3713.72 1136.3C3714.59 1136.38 3715.86 1137.28 3716.32 1137.98C3716.6 1138.53 3716.32 1139.9 3715.78 1140.72C3713.86 1144.28 3697.71 1148.93 3691.69 1146.47C3697.71 1149.21 3713.86 1144.28 3716.05 1140.72C3716.6 1139.9 3716.87 1138.26 3716.6 1137.98C3715.83 1137.22 3714.36 1136.22 3713.72 1136.3ZM3678.98 1075.4C3688.11 1071.91 3696.21 1068.94 3705.37 1065.44C3696.21 1068.67 3688.11 1071.91 3678.98 1075.4ZM3702.27 1070.97C3696.67 1077.79 3686.53 1080 3678.55 1075.57C3686.58 1080.25 3696.61 1078.03 3702.27 1070.97ZM3521.96 1069C3526.84 1058.03 3538.66 1049.66 3548.35 1049.51C3538.62 1049.66 3526.6 1058.02 3521.96 1069ZM3678.84 997.401C3678.65 997.545 3678.46 997.685 3678.27 997.822C3673.07 1001.93 3670.33 997.822 3667.87 993.99C3666.11 991.352 3666.31 989.656 3667.43 988.439C3666.08 989.673 3665.7 991.422 3667.6 994.264C3670.06 998.096 3672.8 1002.2 3678 998.096C3678.28 997.867 3678.56 997.635 3678.84 997.401ZM3672.99 985.642C3676.15 984.614 3679.51 983.323 3684.57 981.397C3679.65 983.271 3676.14 984.343 3672.99 985.642ZM3696.61 1156.6C3700.99 1163.17 3704.28 1167.27 3706.47 1171.93C3706.48 1171.95 3706.48 1171.97 3706.48 1171.99C3706.52 1171.85 3706.52 1171.73 3706.47 1171.65C3704.55 1167.55 3701.27 1163.44 3696.61 1156.6ZM3688.25 1169.82C3690.63 1166.12 3692.78 1162.63 3696.44 1156.88C3692.7 1162.73 3690.28 1166.23 3688.13 1169.74L3688.25 1169.82V1169.82ZM3705.62 1100.04C3705.31 1100.37 3704.96 1100.61 3704.55 1100.75C3696.34 1104.31 3687.85 1107.6 3679.37 1110.88C3679.33 1110.89 3679.29 1110.9 3679.25 1110.91C3679.4 1110.92 3679.53 1110.92 3679.64 1110.88C3688.13 1107.87 3696.61 1104.31 3704.83 1100.75C3705.1 1100.61 3705.36 1100.37 3705.62 1100.04ZM3702.19 1093.38C3703.63 1093.4 3705.39 1094.01 3707.48 1094.46C3705.33 1093.99 3703.54 1093.36 3702.19 1093.38ZM3517.04 994.264L3517.04 994.257L3517.03 994.264H3517.04V994.264ZM3544.53 985.318C3546.65 985.32 3548.79 985.473 3550.97 985.776C3548.8 985.466 3546.66 985.313 3544.53 985.318ZM3676.94 1259.8C3679.65 1253.5 3678.55 1247.72 3674.71 1241.73C3673.39 1239.61 3674.89 1235.18 3675.48 1232.17L3675.26 1232.15C3674.99 1235.44 3673.07 1239.82 3674.44 1242.01C3678.51 1247.75 3679.65 1253.5 3676.94 1259.8ZM3697.39 1235.56C3695.3 1236.39 3693.22 1237.63 3691.14 1237.63C3687.01 1237.75 3684.25 1238.51 3682.82 1240.07C3684.32 1238.69 3686.98 1238.02 3690.87 1237.9C3693.06 1237.9 3695.25 1236.53 3697.44 1235.71C3697.42 1235.66 3697.4 1235.61 3697.39 1235.56ZM3684.5 1257.11C3683.75 1259.36 3681.19 1260.77 3675.99 1262.4C3681.32 1260.74 3683.87 1259.38 3684.5 1257.11ZM3557.79 1038.75C3558.57 1037.07 3559.46 1035.43 3560.56 1033.96C3559.41 1035.36 3558.56 1037 3557.79 1038.75ZM3570.11 997.811C3570.12 996.064 3571.25 994.122 3571.76 992.176C3571.24 994.136 3570.1 995.882 3570.11 997.811ZM3571.78 992.073C3573.67 993.421 3576.35 994.238 3577.74 996.091C3576.36 994.238 3573.94 993.421 3571.78 992.073ZM3578.96 1004.46C3576.57 1019.17 3570.12 1031.87 3560.83 1043.54C3570.12 1032.13 3576.57 1019.19 3578.96 1004.46ZM3537.02 967.163C3533.52 971.744 3531.6 976.324 3528.41 978.033C3531.6 976.333 3533.52 972.013 3537.02 967.163ZM3492.67 994.811C3491.86 995.081 3490.79 995.085 3489.71 995.346C3490.79 995.093 3491.86 995.35 3492.67 994.811ZM3494.17 987.612C3494.72 987.014 3495.31 986.411 3495.94 985.807C3495.31 986.411 3494.72 987.014 3494.17 987.612ZM3499.39 982.779C3500.13 982.176 3500.91 981.575 3501.71 980.981C3500.91 981.575 3500.13 982.176 3499.39 982.779ZM3503.34 979.8C3503.9 979.409 3504.47 979.022 3505.04 978.639C3504.47 979.022 3503.9 979.409 3503.34 979.8ZM3505.91 978.069C3506.5 977.69 3507.09 977.317 3507.69 976.949C3507.09 977.317 3506.5 977.69 3505.91 978.069ZM3510.44 975.335C3511.37 974.811 3512.32 974.303 3513.27 973.813C3512.32 974.303 3511.37 974.811 3510.44 975.335ZM3698.73 960.396C3698.08 960.131 3697.31 959.944 3696.41 959.842C3697.3 959.962 3698.07 960.147 3698.73 960.396ZM3694.39 959.716C3692.04 959.706 3689.53 960.28 3687.01 960.317L3687.03 960.319C3689.34 960.319 3691.85 959.733 3694.39 959.716ZM3678.41 950.367C3678.64 950.383 3678.87 950.414 3679.09 950.464C3689.5 952.654 3699.63 955.392 3709.75 958.129C3715.23 959.498 3716.32 963.604 3715.78 968.532C3715.23 973.185 3711.67 972.638 3708.11 972.912C3704.62 972.912 3701.4 974.754 3697.92 975.858L3697.98 975.923C3701.54 974.828 3704.83 973.185 3708.39 972.911C3712.22 972.911 3715.5 973.459 3716.05 968.531C3716.6 963.604 3715.5 959.498 3710.03 958.129C3699.9 955.391 3689.77 952.654 3679.37 950.464C3679.06 950.395 3678.73 950.365 3678.41 950.367V950.367ZM3733.92 1056.66C3732.46 1055.19 3730.5 1053.51 3727.82 1051.2C3727.71 1051.11 3727.61 1051.03 3727.51 1050.94C3727.7 1051.12 3727.89 1051.3 3728.09 1051.48C3730.64 1053.66 3732.51 1055.26 3733.92 1056.66V1056.66ZM3755 1039.36C3757.57 1041.23 3758.48 1044.64 3756.84 1049.01C3754.06 1057.59 3750.36 1065.48 3742.07 1070.3C3750.36 1065.48 3754.08 1057.62 3757.11 1049.29C3758.61 1044.79 3757.67 1041.19 3755 1039.36V1039.36ZM3652.37 963.323C3651.58 963.348 3650.79 963.378 3650 963.413C3650.79 963.378 3651.58 963.348 3652.37 963.323ZM3598.89 973.451C3608.59 964.292 3618.56 955.93 3632.96 955.41C3618.56 955.922 3608.59 964.023 3598.89 973.451ZM3633.93 955.39C3639.86 955.34 3645.78 953.733 3651.44 952.655C3645.52 953.732 3639.6 955.338 3633.93 955.39ZM3651.45 952.652C3652.57 952.449 3653.64 952.347 3654.65 952.338C3653.63 952.342 3652.57 952.443 3651.45 952.652ZM3643.64 1094.87C3640.68 1092.16 3637.98 1088.95 3634.47 1087.06C3632.83 1085.97 3629.82 1086.52 3627.36 1086.52L3627.36 1086.52C3629.82 1086.79 3632.56 1085.97 3634.47 1087.06C3637.71 1089.22 3640.68 1092.17 3643.64 1094.87V1094.87ZM3627.36 1086.52C3627.9 1088.43 3628.18 1090.9 3629.54 1092.54C3628.45 1090.9 3628.18 1088.43 3627.36 1086.52ZM3638.38 1103.92C3639.93 1107.18 3639.4 1111.49 3639.4 1115.26C3639.67 1111.49 3639.94 1107.18 3638.38 1103.92ZM3635.85 1118.82L3635.84 1118.82C3635.02 1119.09 3633.1 1117.45 3632.28 1116.36L3630.75 1114.1L3632.28 1116.36C3633.1 1117.45 3635.02 1119.09 3635.84 1118.82L3635.85 1118.82ZM3626.31 1107.57C3625.57 1106.47 3624.83 1105.37 3624.1 1104.26C3624.83 1105.37 3625.57 1106.47 3626.31 1107.57ZM3623.22 1102.94C3622.85 1102.38 3622.49 1101.83 3622.13 1101.28C3622.49 1101.83 3622.85 1102.38 3623.22 1102.94ZM3621.91 1100.94L3621.27 1099.94C3621.48 1100.28 3621.7 1100.61 3621.91 1100.94ZM3621.27 1099.94C3621.05 1099.61 3620.84 1099.28 3620.62 1098.95C3620.84 1099.28 3621.05 1099.61 3621.27 1099.94ZM3619.78 1097.61C3619.43 1097.06 3619.08 1096.5 3618.73 1095.94C3619.08 1096.5 3619.43 1097.06 3619.78 1097.61ZM3618.73 1095.94L3618.32 1095.28C3616.93 1092.84 3615.31 1090.4 3615.31 1087.75C3615.28 1090.48 3616.92 1092.99 3618.32 1095.28L3618.73 1095.94ZM3615.86 1076.66C3615.58 1074.75 3615.58 1072.56 3616.13 1070.91C3615.31 1072.56 3615.58 1074.75 3615.86 1076.66ZM3629.2 1076.31L3630.28 1077.08C3629.92 1076.82 3629.56 1076.57 3629.2 1076.31ZM3646.24 1093.63L3646.24 1093.63L3646.24 1093.63L3646.24 1093.63V1093.63ZM3456.54 1044.09C3452.7 1047.37 3448.87 1050.93 3444.77 1053.67C3444.22 1054.21 3440.93 1051.75 3439.84 1050.11C3439.29 1049.56 3441.21 1046.55 3442.58 1045.73C3445.31 1043.81 3448.32 1041.9 3451.34 1040.8C3452.7 1040.25 3454.62 1041.35 3456.26 1041.9C3456.26 1042.44 3456.26 1043.26 3456.54 1044.09V1044.09ZM3523.61 871.898C3541.95 857.116 3561.11 859.306 3576.16 877.647C3567.68 874.362 3559.47 869.161 3550.71 868.34C3541.95 867.518 3532.64 870.53 3523.61 871.898V871.898ZM3839.78 1531.08C3837.59 1534.1 3836.23 1539.3 3833.49 1540.12C3827.74 1541.76 3813.78 1530.81 3815.97 1528.89C3820.62 1524.51 3826.64 1520.68 3832.94 1519.86C3840.61 1518.49 3837.05 1525.88 3839.78 1531.08V1531.08ZM3738.77 1395.85C3752.18 1396.4 3763.13 1402.15 3773.26 1410.63C3784.49 1420.22 3795.71 1429.8 3807.76 1438.28C3815.15 1443.48 3824.18 1445.95 3832.67 1449.51C3834.31 1450.33 3835.95 1451.15 3837.59 1454.16C3835.95 1454.43 3833.76 1455.8 3832.39 1455.26C3825 1452.52 3817.06 1450.6 3811.04 1446.22C3794.34 1433.9 3778.74 1420.22 3762.04 1407.9C3754.65 1402.7 3746.44 1399.68 3738.77 1395.85V1395.85ZM3679.92 1697.25C3678.82 1687.39 3678.27 1677.54 3676.36 1667.96C3673.62 1654.54 3669.79 1641.4 3666.5 1628.26C3666.23 1627.44 3665.95 1626.62 3665.41 1626.08C3662.4 1623.06 3659.38 1619.78 3656.37 1616.77C3654.18 1620.33 3652.27 1624.16 3649.8 1627.72C3648.43 1629.63 3646.52 1630.73 3644.88 1632.37C3644.6 1630.18 3643.78 1628.26 3643.78 1626.08C3643.78 1623.89 3644.33 1621.69 3645.15 1620.05C3646.79 1617.04 3648.43 1611.84 3650.62 1611.57C3654.73 1611.02 3661.03 1611.84 3663.22 1614.85C3667.6 1620.05 3669.79 1627.17 3672.8 1633.47C3682.65 1653.45 3681.83 1675.08 3682.93 1696.7C3681.83 1696.7 3680.74 1696.98 3679.92 1697.25V1697.25ZM3510.74 874.909C3497.05 882.848 3486.38 874.909 3476.52 867.518C3469.4 862.317 3462.29 857.937 3453.25 859.58C3446.91 860.795 3440.41 861.792 3434.19 863.327V859.184C3442.78 857.157 3451.79 856.023 3460.64 855.199C3464.75 854.652 3469.68 857.389 3473.78 859.58C3485.28 866.697 3495.14 877.373 3510.74 874.909V874.909ZM3484.73 851.915C3495.14 840.965 3507.45 837.68 3521.42 839.87C3532.91 841.786 3544.41 842.607 3555.91 843.702C3565.21 844.523 3570.69 848.082 3572.06 854.652C3543.04 851.367 3514.3 844.25 3484.73 851.915V851.915ZM3707.84 1806.2C3706.47 1805.11 3704.55 1803.74 3702.64 1802.37C3704.01 1800.45 3705.1 1797.44 3707.02 1796.62C3718.24 1792.24 3729.46 1787.04 3741.24 1784.85C3747.26 1783.75 3754.65 1787.86 3761.22 1789.78C3761.49 1789.78 3761.49 1794.43 3760.67 1794.98C3757.93 1796.62 3754.37 1797.99 3751.09 1798.54C3736.85 1801 3722.89 1803.46 3707.84 1806.2V1806.2ZM3530.72 945.537C3476.52 956.213 3451.34 992.621 3437.65 1042.72C3437.65 1038.06 3437.37 1034.78 3437.65 1031.49C3440.93 1000.56 3460.1 979.755 3482 960.045C3491.85 951.012 3503.35 945.81 3515.67 941.704C3520.59 940.062 3525.52 939.514 3530.72 945.537V945.537ZM3786.68 1879.84C3783.39 1882.85 3782.02 1884.22 3780.38 1885.31C3777.1 1887.23 3776 1889.42 3778.46 1892.98C3781.75 1897.36 3779.29 1899.55 3774.63 1899C3757.11 1897.63 3739.59 1896.26 3722.07 1894.35C3719.06 1894.07 3716.32 1890.79 3713.59 1889.15C3716.6 1887.5 3719.61 1884.22 3722.89 1884.22C3741.78 1884.49 3760.67 1884.77 3779.01 1879.29C3780.65 1878.47 3782.57 1879.29 3786.68 1879.84V1879.84ZM3739.32 1853.56C3731.11 1852.46 3720.16 1850.82 3709.21 1849.73C3707.02 1849.45 3704.55 1850.55 3702.36 1850.55C3700.72 1850.55 3699.35 1849.45 3697.71 1848.91C3698.53 1847.54 3699.35 1845.89 3700.45 1844.53C3700.72 1843.98 3701.82 1843.98 3702.64 1843.7C3717.15 1839.87 3731.38 1835.22 3746.16 1832.21C3757.93 1829.74 3767.24 1836.86 3776.27 1843.43C3780.38 1846.44 3777.64 1851.1 3771.62 1851.64C3761.49 1852.46 3751.91 1852.74 3739.32 1853.56V1853.56ZM3474.6 1173.02C3460.19 1171.53 3447.13 1170.72 3434.19 1169.14V1150.96C3446.26 1152.71 3458.12 1157.15 3470.22 1160.43C3472.69 1160.98 3475.43 1162.35 3477.07 1164.26C3478.44 1165.63 3479.53 1168.64 3478.98 1170.56C3478.44 1171.93 3475.43 1172.47 3474.6 1173.02V1173.02ZM3434.19 1509.38C3442.19 1508.24 3450.19 1506.94 3458.18 1505.63C3463.11 1504.8 3468.31 1506.45 3473.24 1507.82C3474.6 1508.09 3475.15 1511.1 3475.97 1512.74C3474.06 1513.29 3471.87 1514.66 3470.5 1514.11C3463.11 1510.83 3455.72 1511.65 3448.32 1513.84C3443.62 1515.16 3438.91 1516.3 3434.19 1517.25V1509.38V1509.38ZM3718.79 1708.75C3715.5 1712.85 3712.22 1716.69 3709.48 1721.07C3704.01 1729.55 3701.54 1730.37 3694.42 1723.26C3689.77 1718.6 3686.49 1712.85 3682.65 1707.65C3683.47 1707.1 3684.3 1706.28 3685.39 1705.74C3688.13 1709.29 3690.87 1712.58 3693.6 1716.14C3696.89 1720.52 3699.9 1719.97 3704.01 1716.41C3713.86 1707.65 3724.26 1699.71 3734.67 1691.5C3736.31 1690.41 3739.32 1690.95 3741.78 1690.68C3740.96 1693.14 3740.96 1696.15 3739.59 1697.52C3725.91 1709.84 3722.07 1725.99 3722.62 1743.51C3722.89 1752.27 3724.81 1753.64 3732.75 1750.08C3737.4 1747.89 3742.33 1745.7 3747.26 1743.79C3752.73 1741.6 3757.93 1742.42 3759.85 1748.17C3764.5 1760.76 3775.18 1767.33 3785.03 1774.45C3793.25 1780.47 3801.46 1785.94 3809.12 1792.24C3811.86 1794.43 3813.23 1797.99 3815.42 1801C3821.99 1810.31 3828.56 1819.89 3835.13 1829.2C3836.5 1831.39 3837.59 1833.85 3837.59 1836.86C3827.47 1831.93 3819.53 1824.82 3815.42 1814.69C3808.85 1798.81 3797.35 1787.86 3782.84 1779.37C3772.99 1773.63 3763.96 1767.05 3758.76 1756.38C3756.02 1750.63 3750.82 1747.89 3744.25 1750.9C3737.13 1754.19 3730.01 1756.93 3723.17 1760.49C3717.15 1763.5 3716.32 1759.94 3716.87 1755.83C3718.51 1741.32 3720.43 1726.81 3722.07 1712.31C3722.07 1711.76 3721.8 1711.21 3721.8 1710.94C3720.43 1710.12 3719.61 1709.57 3718.79 1708.75V1708.75ZM3837.87 1877.1C3830.75 1870.53 3825.28 1865.6 3819.8 1860.68C3819.25 1861.22 3818.71 1861.5 3818.16 1862.05C3821.72 1874.09 3836.77 1879.84 3836.5 1894.35C3829.66 1887.23 3823.09 1880.11 3816.24 1873C3815.42 1873.27 3814.87 1873.27 3814.05 1873.54C3814.05 1876.55 3814.05 1879.57 3814.05 1882.58C3814.05 1888.33 3814.33 1894.07 3814.05 1899.82C3814.05 1901.19 3811.31 1902.29 3809.67 1903.38C3808.58 1901.74 3807.21 1900.37 3806.93 1898.45C3804.47 1888.6 3802.83 1878.74 3799.82 1868.89C3798.17 1863.14 3795.71 1858.21 3800.91 1853.01C3802.28 1851.64 3802.83 1848.36 3802.01 1846.44C3799.27 1839.87 3795.98 1833.58 3792.43 1827.55C3791.6 1826.19 3788.32 1825.64 3786.13 1825.09C3784.21 1824.54 3782.3 1824.27 3780.38 1824C3781.2 1821.81 3781.75 1819.89 3782.3 1817.7C3783.39 1814.14 3783.94 1810.86 3785.03 1807.3C3785.58 1805.11 3786.68 1802.92 3787.5 1800.73C3789.69 1802.37 3792.7 1803.46 3793.79 1805.38C3799.54 1816.88 3804.47 1828.65 3810.49 1840.15C3812.14 1843.16 3815.69 1845.35 3818.98 1846.99C3824.18 1849.45 3829.66 1850.82 3835.13 1853.01C3836.23 1853.56 3837.59 1855.2 3837.59 1856.57C3837.87 1862.59 3837.87 1868.62 3837.87 1877.1V1877.1ZM3748.08 1514.39C3763.41 1511.65 3778.46 1508.64 3793.79 1506.17C3806.39 1504.26 3819.25 1502.89 3832.12 1501.79C3834.04 1501.52 3835.95 1504.26 3837.87 1505.35C3835.95 1506.72 3834.31 1508.91 3832.12 1509.18C3809.4 1512.74 3786.95 1516.85 3764.23 1519.59C3751.91 1520.95 3739.59 1519.59 3727.27 1520.95C3714.68 1522.32 3701.82 1524.51 3689.5 1528.07C3682.38 1529.99 3675.81 1534.92 3669.79 1539.57C3657.74 1548.6 3655 1567.22 3662.4 1580.36C3664.31 1583.92 3665.41 1591.58 3664.59 1591.86C3658.56 1594.05 3656.65 1588.57 3654.46 1584.74C3642.14 1564.48 3650.35 1547.23 3662.94 1536.01C3678.55 1522.32 3696.61 1514.66 3717.42 1514.11C3727.55 1513.84 3737.4 1513.02 3747.53 1512.74C3747.8 1513.02 3747.8 1513.84 3748.08 1514.39V1514.39ZM3434.19 1184.63C3439 1185.27 3444.66 1186.11 3449.97 1187.53C3454.62 1188.9 3459.55 1192.18 3462.83 1196.02C3465.3 1198.75 3465.02 1203.95 3465.84 1208.06C3462.29 1207.79 3458.18 1208.33 3455.17 1206.97C3447.5 1203.68 3445.86 1204.5 3446.13 1212.71C3446.13 1214.36 3446.13 1216 3445.86 1217.37C3444.22 1225.85 3445.04 1226.68 3453.53 1225.85C3453.8 1225.85 3454.07 1225.85 3454.35 1225.85C3458.45 1226.4 3462.56 1227.22 3466.39 1227.77C3463.93 1231.33 3462.01 1235.71 3459 1238.72C3454.07 1243.37 3448.87 1245.02 3442.3 1239.27C3440.38 1237.52 3437.35 1237 3434.19 1236.5V1184.63V1184.63ZM3529.9 1399.68C3521.96 1396.95 3514.3 1394.21 3506.91 1392.29C3504.99 1391.75 3501.71 1392.02 3500.34 1393.39C3495.96 1397.77 3491.58 1396.95 3486.65 1394.76C3478.71 1391.2 3470.5 1388.19 3462.56 1384.63C3460.1 1383.53 3458.73 1380.25 3456.81 1378.06C3459.55 1376.96 3462.29 1375.32 3465.02 1375.05C3471.32 1374.77 3477.62 1374.77 3483.91 1375.32C3488.29 1375.87 3492.67 1376.96 3496.78 1378.61C3503.07 1380.8 3508.82 1383.81 3515.12 1386C3518.13 1387.09 3521.42 1386.82 3524.43 1387.37C3524.7 1386.54 3525.25 1386 3525.52 1385.18C3524.15 1383.81 3523.33 1382.44 3521.69 1381.34C3519.5 1379.7 3516.76 1379.15 3515.12 1377.24C3513.75 1375.87 3513.75 1373.4 3512.93 1371.49C3514.85 1371.76 3517.04 1371.49 3518.68 1372.31C3521.14 1373.4 3523.06 1375.05 3525.25 1376.69C3530.45 1380.52 3534.56 1379.7 3539.21 1375.59C3543.86 1371.76 3549.34 1369.3 3554.81 1366.84C3556.73 1366.01 3560.56 1366.56 3561.93 1367.93C3567.95 1373.68 3572.06 1370.67 3576.99 1366.56C3578.9 1364.92 3581.37 1364.37 3583.56 1363.55C3584.38 1366.01 3585.75 1368.2 3585.75 1370.67C3587.39 1390.1 3578.63 1404.89 3564.67 1417.48C3551.8 1429.25 3537.57 1438.56 3520.59 1443.21C3518.13 1444.03 3515.39 1444.85 3512.93 1444.58C3506.91 1444.03 3504.44 1439.1 3507.45 1433.9C3509.1 1430.89 3511.83 1428.43 3513.48 1425.42C3514.57 1423.5 3514.57 1420.76 3514.85 1418.3C3512.66 1418.03 3510.47 1417.75 3508.28 1417.75C3503.9 1417.2 3498.69 1417.75 3495.14 1415.84C3490.21 1413.1 3491.58 1407.08 3497.05 1406.25C3502.53 1405.43 3508.55 1406.25 3514.02 1407.35C3522.24 1408.99 3526.62 1407.62 3529.9 1399.68V1399.68ZM3575.62 2147.29C3574.25 2146.74 3572.61 2146.47 3571.78 2145.38C3561.38 2130.87 3549.88 2116.91 3540.85 2101.58C3535.1 2091.72 3532.37 2080.22 3528.81 2069C3520.32 2041.35 3514.57 2013.15 3516.21 1984.14C3517.58 1956.76 3527.44 1932.95 3547.15 1913.51C3553.17 1907.76 3559.19 1905.85 3567.13 1909.68C3569.05 1910.77 3573.97 1909.4 3575.34 1907.49C3580 1901.19 3584.65 1894.62 3587.66 1887.5C3596.15 1868.62 3604.36 1849.45 3609.01 1829.2C3610.93 1821.26 3615.31 1813.59 3618.87 1806.2C3621.61 1801 3631.46 1797.99 3638.58 1800.18C3637.76 1801.27 3636.94 1802.64 3636.12 1802.92C3629.82 1805.38 3630.64 1808.94 3633.38 1814.14C3639.13 1824.27 3636.94 1838.5 3627.63 1844.53C3628.18 1840.15 3629 1837.13 3628.72 1834.12C3628.72 1829.2 3629.27 1823.99 3627.63 1819.61C3625.44 1814.14 3620.79 1814.69 3618.87 1820.16C3615.58 1828.65 3612.85 1837.68 3609.84 1846.17C3603.54 1863.96 3597.24 1882.03 3590.4 1899.55C3584.92 1913.78 3578.63 1927.75 3572.33 1941.71C3570.69 1945.27 3568.23 1949.1 3564.94 1951.56C3558.37 1956.22 3555.91 1954.3 3553.72 1946.63C3552.9 1943.08 3550.16 1940.06 3548.24 1936.78C3545.51 1938.97 3542.22 1940.89 3540.03 1943.62C3524.97 1964.15 3525.25 1987.7 3527.44 2011.79C3529.9 2036.97 3535.1 2061.33 3544.96 2084.6C3551.25 2099.11 3559.19 2112.8 3566.58 2126.76C3569.87 2133.06 3573.43 2139.35 3576.99 2145.65C3576.71 2146.2 3576.16 2146.74 3575.62 2147.29V2147.29ZM3747.26 1954.57C3734.94 1957.31 3721.8 1954.57 3710.58 1962.79C3702.91 1968.81 3694.7 1974.56 3688.4 1981.95C3680.46 1990.98 3673.35 2000.84 3667.32 2011.24C3662.4 2019.45 3659.38 2029.03 3655.83 2038.07C3649.53 2053.67 3638.03 2063.25 3621.33 2066.26C3614.22 2067.63 3607.1 2069.82 3599.71 2071.46C3595.33 2072.56 3590.67 2073.11 3585.75 2072.56C3593.14 2065.71 3602.17 2061.06 3611.75 2060.24C3632.01 2058.32 3642.96 2045.18 3648.98 2028.21C3654.18 2013.7 3654.73 1997.82 3658.84 1983.04C3661.3 1974.56 3658.84 1963.61 3669.24 1957.31C3675.26 1964.43 3671.98 1972.64 3671.98 1980.03C3679.37 1973.73 3686.76 1967.44 3694.97 1960.32C3687.58 1957.86 3680.74 1955.67 3674.17 1953.2C3671.7 1952.38 3669.24 1950.74 3667.32 1948.82C3666.5 1948 3667.6 1944.17 3668.14 1944.17C3670.61 1943.9 3673.35 1943.9 3675.54 1944.72C3687.31 1950.47 3699.9 1949.37 3711.94 1947.46C3717.42 1946.63 3722.89 1941.43 3727 1936.78C3731.11 1932.13 3734.66 1930.48 3740.69 1931.85C3755.2 1935.14 3769.7 1933.22 3782.84 1926.65C3788.59 1923.91 3792.7 1918.44 3797.63 1914.06C3799.54 1912.42 3802.01 1911.32 3804.2 1909.95C3804.2 1912.96 3805.29 1916.25 3803.92 1918.44C3800.36 1925.01 3796.81 1931.58 3791.88 1936.78C3777.92 1952.66 3763.13 1967.99 3748.9 1983.86C3744.25 1989.06 3738.77 1990.16 3732.47 1989.06C3727 1988.24 3721.52 1987.7 3716.05 1986.33C3713.59 1985.51 3710.3 1983.32 3710.03 1981.13C3709.48 1979.21 3711.94 1975.65 3714.13 1974.56C3722.07 1970.18 3730.56 1966.62 3738.77 1962.51C3741.78 1961.14 3745.07 1959.5 3748.08 1957.86C3748.08 1957.04 3747.8 1955.94 3747.26 1954.57V1954.57ZM3546.33 1521.78C3540.3 1522.32 3537.84 1519.31 3534.83 1513.84C3531.27 1507.82 3524.43 1503.98 3519.77 1498.23C3515.12 1492.21 3511.01 1485.37 3507.45 1478.52C3506.91 1477.43 3508.55 1474.14 3510.19 1472.5C3515.39 1466.75 3521.14 1461.28 3526.89 1455.8C3528.53 1454.43 3531.27 1453.89 3533.46 1453.07C3533.46 1455.26 3534.01 1457.72 3533.46 1459.64C3530.45 1468.12 3534.01 1473.32 3542.77 1471.95C3547.69 1471.13 3552.07 1467.57 3556.45 1465.11C3563.02 1461.55 3569.32 1457.17 3576.44 1454.43C3579.18 1453.34 3584.38 1454.98 3586.02 1457.17C3587.39 1459.09 3586.57 1464.02 3585.2 1467.03C3582.19 1473.6 3584.92 1488.38 3590.67 1492.76C3591.77 1493.58 3593.14 1494.95 3593.96 1494.95C3607.1 1491.66 3608.19 1503.44 3612.03 1510.28C3616.95 1520.13 3622.15 1530.54 3623.52 1541.21C3625.44 1555.72 3624.07 1570.5 3623.8 1585.29C3623.8 1587.75 3623.8 1590.21 3622.98 1592.4C3621.61 1595.96 3619.96 1601.71 3617.5 1601.98C3613.67 1602.53 3606.82 1600.89 3605.46 1598.15C3600.8 1588.57 3591.22 1586.11 3584.1 1580.36C3581.09 1577.9 3579.18 1573.79 3576.99 1570.23C3575.89 1568.31 3575.62 1565.58 3574.52 1563.66C3566.86 1553.53 3558.92 1543.4 3551.25 1533.27C3548.52 1530.26 3547.97 1526.16 3546.33 1521.78V1521.78ZM3516.76 1647.7C3531 1638.67 3545.5 1630.18 3559.47 1620.87C3566.86 1615.95 3576.99 1615.4 3583.56 1620.87C3585.2 1622.24 3585.75 1627.17 3584.65 1629.36C3581.91 1634.01 3580.54 1637.57 3584.1 1642.23C3584.92 1643.32 3585.2 1646.06 3584.65 1647.43C3580.82 1655.37 3586.02 1660.02 3591.49 1661.66C3612.3 1668.23 3626.81 1683.29 3641.59 1697.8C3646.52 1702.72 3651.72 1707.1 3656.65 1711.76C3657.74 1712.85 3658.02 1714.77 3657.74 1717.78C3651.45 1714.77 3645.15 1711.21 3638.85 1708.47C3633.1 1706.01 3626.81 1703.55 3620.79 1701.9C3620.24 1701.9 3617.23 1706.28 3617.77 1708.2C3619.42 1718.05 3626.53 1724.62 3634.47 1729.28C3648.43 1737.76 3663.22 1744.88 3677.72 1752.55C3680.74 1754.19 3684.84 1754.19 3689.77 1755.01C3685.94 1765.14 3673.62 1760.48 3667.32 1768.7C3671.98 1770.61 3676.08 1771.71 3679.91 1773.62C3682.65 1774.99 3685.12 1777.46 3687.58 1779.37C3685.39 1781.84 3683.47 1784.85 3680.74 1786.22C3671.98 1790.6 3662.94 1794.43 3654.18 1798.26C3652.27 1799.08 3649.8 1798.81 3647.61 1799.08C3647.34 1798.26 3647.06 1797.71 3646.79 1796.89C3655.28 1792.24 3663.76 1787.59 3671.98 1783.21C3671.7 1781.84 3671.15 1780.74 3670.88 1779.37C3666.23 1779.37 3661.57 1779.37 3656.92 1779.37C3650.62 1779.65 3644.33 1780.47 3638.03 1780.19C3635.84 1780.19 3633.38 1777.46 3631.19 1776.09C3633.1 1774.72 3635.02 1773.35 3637.21 1772.53C3646.79 1768.97 3656.65 1765.69 3666.23 1761.85C3671.98 1759.66 3671.15 1756.1 3666.78 1753.37C3661.03 1749.81 3654.73 1746.8 3648.43 1743.79C3634.2 1737.22 3620.79 1729.83 3613.12 1714.77C3612.03 1712.85 3608.47 1710.94 3606 1710.94C3598.89 1710.39 3594.51 1706.56 3592.86 1700.26C3587.11 1679.46 3571.51 1669.33 3550.16 1670.7C3544.41 1670.97 3538.66 1670.97 3532.64 1670.7C3523.88 1670.42 3517.86 1665.77 3514.02 1658.1C3511.29 1652.63 3509.37 1646.88 3506.63 1641.68C3505.54 1639.49 3503.07 1637.3 3500.88 1635.93C3494.59 1632.37 3494.31 1631 3499.79 1625.8C3506.36 1619.5 3512.93 1613.21 3520.05 1606.64C3511.83 1600.34 3508.55 1608.55 3501.98 1612.11C3501.98 1608.55 3501.7 1606.09 3501.98 1603.9C3503.62 1580.36 3505.26 1556.82 3507.18 1533C3507.45 1531.08 3508.82 1529.17 3509.92 1527.25C3512.11 1528.89 3515.67 1530.26 3515.94 1531.9C3516.21 1540.66 3515.67 1549.7 3515.67 1558.73C3515.67 1561.47 3516.49 1564.48 3517.03 1567.22C3519.5 1566.12 3521.96 1564.75 3524.43 1563.93C3526.34 1563.39 3529.08 1562.56 3530.72 1563.39C3541.95 1569.68 3553.17 1575.98 3564.12 1582.55C3565.76 1583.64 3567.68 1586.38 3567.4 1588.02C3567.13 1589.39 3564.12 1591.03 3562.2 1591.58C3552.07 1594.05 3548.52 1602.81 3554.54 1610.74C3559.47 1616.77 3554.54 1618.96 3550.43 1621.69C3542.49 1626.62 3534.01 1631.28 3526.34 1636.75C3522.51 1639.21 3519.5 1643.05 3516.21 1646.06C3515.67 1646.61 3516.21 1647.15 3516.76 1647.7V1647.7ZM3439.29 1429.52C3437.37 1438.01 3442.03 1441.57 3447.23 1444.85C3448.87 1445.95 3449.97 1449.51 3449.42 1451.7C3448.32 1456.9 3446.41 1461.83 3444.22 1466.48C3443.4 1468.67 3441.21 1471.41 3439.29 1471.68C3437.93 1471.88 3435.74 1471.1 3434.19 1470.05V1452.86C3434.25 1452.65 3434.31 1452.45 3434.36 1452.24H3434.19V1429.65C3435.04 1430.57 3436.66 1430.05 3439.29 1429.52V1429.52ZM3434.19 950.104C3434.75 953.387 3435.1 955.853 3436.01 958.129C3437.1 961.414 3438.74 964.699 3440.11 967.984C3443.12 966.341 3446.68 964.972 3449.15 962.782C3454.62 957.581 3459 950.737 3465.02 946.357C3470.22 942.525 3477.07 940.335 3483.64 938.145C3485.56 937.324 3488.29 938.693 3492.67 939.24C3489.39 941.43 3488.29 942.799 3487.2 943.072C3466.67 949.369 3450.52 960.319 3445.04 982.766C3444.49 985.229 3441.76 987.146 3440.93 989.336C3439.02 995.358 3436.83 1001.38 3435.73 1007.68C3435.41 1010.06 3435 1012.15 3434.19 1013.81V950.104V950.104ZM3668.69 976.196C3668.47 976.046 3668.24 975.902 3668 975.762C3667.77 975.623 3667.53 975.488 3667.28 975.359C3667.03 975.229 3666.77 975.104 3666.51 974.984C3666.25 974.864 3665.98 974.749 3665.71 974.639C3665.43 974.529 3665.15 974.423 3664.87 974.323C3664.58 974.222 3664.29 974.126 3663.99 974.035V974.035C3663.7 973.943 3663.39 973.857 3663.09 973.775C3662.78 973.693 3662.46 973.615 3662.15 973.542C3661.83 973.469 3661.5 973.401 3661.18 973.337V973.337C3660.85 973.273 3660.51 973.213 3660.18 973.158V973.158C3659.84 973.103 3659.5 973.052 3659.15 973.005C3658.8 972.959 3658.45 972.916 3658.1 972.878C3657.74 972.84 3657.38 972.807 3657.02 972.777V972.777C3656.65 972.747 3656.28 972.722 3655.91 972.701V972.7C3655.54 972.679 3655.17 972.662 3654.79 972.648C3654.41 972.635 3654.03 972.626 3653.64 972.621V972.62C3653.25 972.615 3652.86 972.614 3652.47 972.616C3652.08 972.618 3651.69 972.625 3651.29 972.635C3650.89 972.645 3650.49 972.659 3650.08 972.677V972.677C3649.68 972.695 3649.27 972.716 3648.87 972.741C3648.46 972.766 3648.05 972.795 3647.63 972.827V972.827C3647.22 972.86 3646.8 972.895 3646.38 972.935C3645.97 972.974 3645.55 973.017 3645.13 973.063C3644.71 973.11 3644.28 973.16 3643.86 973.213C3643.43 973.266 3643.01 973.323 3642.58 973.382C3642.15 973.442 3641.72 973.506 3641.29 973.572V973.572C3640.86 973.638 3640.43 973.708 3640 973.781V973.781C3639.57 973.854 3639.13 973.93 3638.7 974.009C3638.27 974.088 3637.83 974.17 3637.4 974.255V974.255C3636.96 974.341 3636.53 974.429 3636.09 974.52C3635.66 974.611 3635.22 974.705 3634.79 974.802V974.802C3634.35 974.899 3633.92 974.999 3633.48 975.101C3633.05 975.204 3632.61 975.309 3632.18 975.417V975.418C3631.74 975.526 3631.31 975.637 3630.87 975.75C3630.44 975.864 3630.01 975.98 3629.58 976.099C3629.14 976.218 3628.71 976.339 3628.28 976.463C3627.85 976.587 3627.43 976.714 3627 976.843C3626.57 976.972 3626.14 977.103 3625.72 977.237C3625.3 977.371 3624.87 977.507 3624.45 977.645V977.645C3624.03 977.784 3623.61 977.925 3623.19 978.068C3622.78 978.211 3622.36 978.356 3621.95 978.503C3621.54 978.651 3621.13 978.8 3620.72 978.952C3620.31 979.104 3619.9 979.258 3619.5 979.413C3619.1 979.569 3618.7 979.727 3618.3 979.887C3617.9 980.046 3617.51 980.208 3617.11 980.372C3616.72 980.536 3616.33 980.701 3615.95 980.868V980.869C3615.56 981.036 3615.18 981.205 3614.8 981.376C3614.43 981.547 3614.05 981.719 3613.68 981.894C3613.31 982.068 3612.94 982.244 3612.58 982.421C3612.22 982.599 3611.86 982.778 3611.5 982.959C3611.15 983.14 3610.8 983.322 3610.45 983.506C3610.11 983.689 3609.76 983.874 3609.43 984.061V984.061C3609.09 984.247 3608.76 984.435 3608.43 984.624C3608.1 984.814 3607.78 985.004 3607.46 985.196C3607.15 985.388 3606.83 985.581 3606.53 985.775C3606.22 985.97 3605.92 986.165 3605.62 986.361C3605.33 986.558 3605.04 986.755 3604.75 986.954C3604.47 987.153 3604.19 987.352 3603.92 987.553C3603.64 987.754 3603.38 987.955 3603.12 988.158C3602.86 988.36 3602.6 988.563 3602.36 988.767C3602.11 988.972 3601.87 989.176 3601.63 989.382C3601.4 989.588 3601.17 989.795 3600.95 990.002C3600.73 990.209 3600.51 990.417 3600.31 990.625C3600.1 990.834 3599.9 991.043 3599.71 991.252L3600.39 991.188L3601.07 991.126L3601.76 991.063L3602.45 991.002L3603.15 990.94L3603.84 990.88L3604.54 990.82L3605.25 990.76L3605.95 990.701L3606.66 990.641L3607.37 990.583L3608.08 990.524H3608.08L3608.8 990.465H3608.8L3609.52 990.407L3610.24 990.348L3610.96 990.29L3611.69 990.231H3611.69L3612.41 990.173H3612.41L3613.14 990.114L3613.88 990.054L3614.61 989.995H3614.61L3615.35 989.935L3616.08 989.874H3616.08L3616.82 989.814L3617.56 989.752H3617.57L3618.31 989.69H3618.31L3619.05 989.627H3619.05L3619.8 989.564H3619.8L3620.55 989.5L3621.3 989.435L3622.05 989.369H3622.05L3622.8 989.302H3622.8L3623.56 989.234H3623.56L3624.31 989.165H3624.31L3625.07 989.095L3625.83 989.024L3626.59 988.951L3627.35 988.878L3628.11 988.802L3628.88 988.726L3629.64 988.648L3630.4 988.569L3631.17 988.488L3631.94 988.405L3632.7 988.321L3633.47 988.235L3634.24 988.147L3635.01 988.057L3635.78 987.966L3636.55 987.872L3637.32 987.777L3638.09 987.679L3638.86 987.579L3639.63 987.477L3640.4 987.373L3641.17 987.266L3641.94 987.158L3642.71 987.046L3643.49 986.933L3644.26 986.816L3645.03 986.698L3645.8 986.576L3646.57 986.452L3647.34 986.325C3647.45 986.303 3647.56 986.281 3647.67 986.258C3647.78 986.235 3647.89 986.211 3648 986.186C3648.12 986.161 3648.23 986.136 3648.34 986.109C3648.45 986.083 3648.56 986.056 3648.67 986.028V986.028C3648.78 985.999 3648.89 985.971 3649 985.941C3649.11 985.911 3649.22 985.881 3649.33 985.85C3649.44 985.819 3649.55 985.787 3649.66 985.754C3649.77 985.722 3649.88 985.688 3649.99 985.654C3650.1 985.62 3650.2 985.585 3650.31 985.549C3650.42 985.514 3650.53 985.478 3650.64 985.441V985.44C3650.75 985.403 3650.86 985.366 3650.97 985.327L3651.3 985.21C3651.4 985.171 3651.51 985.13 3651.62 985.089L3651.95 984.965V984.964L3652.27 984.836L3652.6 984.704L3652.93 984.568V984.568L3653.25 984.429L3653.58 984.287V984.287L3653.9 984.141L3654.23 983.993L3654.55 983.841L3654.88 983.686L3655.2 983.529V983.529L3655.53 983.369V983.369L3655.85 983.207L3656.18 983.042L3656.5 982.875V982.875L3656.83 982.705V982.705L3657.16 982.534L3657.48 982.36V982.36L3657.81 982.185L3658.14 982.007V982.007L3658.47 981.828L3658.79 981.648L3659.12 981.465L3659.45 981.282L3659.78 981.097L3660.11 980.911V980.911L3660.44 980.724L3660.78 980.536L3661.11 980.348L3661.44 980.158V980.158L3661.78 979.968V979.968L3662.11 979.777L3662.45 979.586L3662.78 979.395V979.395L3663.12 979.203L3663.46 979.011L3663.8 978.82V978.82L3664.14 978.628L3664.48 978.437L3664.83 978.246L3665.17 978.055L3665.52 977.865L3665.87 977.676L3666.21 977.487V977.487L3666.56 977.299L3666.91 977.112L3667.27 976.927L3667.62 976.742L3667.98 976.559L3668.33 976.377L3668.69 976.196V976.196ZM3625.71 1307.43C3625.8 1307.35 3625.88 1307.28 3625.97 1307.19C3626.05 1307.11 3626.13 1307.03 3626.22 1306.95C3626.3 1306.86 3626.38 1306.77 3626.46 1306.69C3626.54 1306.6 3626.62 1306.51 3626.69 1306.41C3626.77 1306.32 3626.85 1306.23 3626.93 1306.13C3627 1306.04 3627.08 1305.94 3627.15 1305.84C3627.22 1305.74 3627.3 1305.64 3627.37 1305.54V1305.54C3627.44 1305.44 3627.51 1305.33 3627.58 1305.23C3627.65 1305.12 3627.72 1305.01 3627.79 1304.9C3627.86 1304.79 3627.93 1304.68 3627.99 1304.57V1304.57C3628.06 1304.46 3628.12 1304.35 3628.19 1304.23C3628.25 1304.12 3628.32 1304 3628.38 1303.88C3628.44 1303.77 3628.5 1303.65 3628.56 1303.53V1303.53C3628.62 1303.41 3628.68 1303.29 3628.74 1303.16V1303.16C3628.8 1303.04 3628.85 1302.92 3628.91 1302.79V1302.79C3628.97 1302.66 3629.02 1302.54 3629.08 1302.41V1302.41C3629.13 1302.28 3629.18 1302.15 3629.23 1302.02C3629.29 1301.89 3629.34 1301.76 3629.39 1301.63V1301.63C3629.44 1301.5 3629.49 1301.36 3629.53 1301.23V1301.23C3629.58 1301.1 3629.63 1300.96 3629.67 1300.82V1300.82C3629.72 1300.69 3629.76 1300.55 3629.81 1300.41C3629.85 1300.27 3629.89 1300.13 3629.93 1299.99C3629.98 1299.85 3630.02 1299.71 3630.05 1299.57V1299.57C3630.09 1299.43 3630.13 1299.29 3630.17 1299.15C3630.21 1299 3630.24 1298.86 3630.28 1298.71C3630.31 1298.57 3630.35 1298.42 3630.38 1298.28V1298.28C3630.41 1298.13 3630.44 1297.99 3630.47 1297.84V1297.84C3630.5 1297.69 3630.53 1297.54 3630.56 1297.39C3630.59 1297.25 3630.62 1297.1 3630.64 1296.95V1296.95C3630.67 1296.8 3630.69 1296.65 3630.72 1296.5V1296.5C3630.74 1296.35 3630.76 1296.2 3630.78 1296.05V1296.05C3630.81 1295.9 3630.83 1295.74 3630.85 1295.59V1295.59C3630.87 1295.44 3630.88 1295.29 3630.9 1295.14V1295.14C3630.92 1294.98 3630.93 1294.83 3630.95 1294.68V1294.68C3630.96 1294.52 3630.98 1294.37 3630.99 1294.22V1294.22C3631 1294.06 3631.01 1293.91 3631.02 1293.76V1293.76C3631.03 1293.6 3631.04 1293.45 3631.05 1293.3V1293.3C3631.06 1293.14 3631.06 1292.99 3631.07 1292.83C3631.07 1292.68 3631.08 1292.53 3631.08 1292.37V1292.37C3631.08 1292.22 3631.09 1292.06 3631.09 1291.91C3631.09 1291.76 3631.09 1291.6 3631.08 1291.45V1291.45C3631.08 1291.3 3631.08 1291.14 3631.08 1290.99C3631.07 1290.84 3631.07 1290.68 3631.06 1290.53C3631.05 1290.38 3631.05 1290.22 3631.04 1290.07V1290.07C3631.03 1289.92 3631.02 1289.77 3631.01 1289.62V1289.62C3631 1289.46 3630.98 1289.31 3630.97 1289.16V1289.16C3630.96 1289.01 3630.94 1288.86 3630.92 1288.71V1288.71C3630.91 1288.56 3630.89 1288.41 3630.87 1288.26V1288.26C3630.85 1288.11 3630.83 1287.96 3630.81 1287.81V1287.81C3630.79 1287.67 3630.77 1287.52 3630.74 1287.37C3630.72 1287.23 3630.7 1287.08 3630.67 1286.93C3630.64 1286.79 3630.62 1286.64 3630.59 1286.5V1286.5C3630.56 1286.35 3630.53 1286.21 3630.5 1286.07C3630.47 1285.92 3630.43 1285.78 3630.4 1285.64C3630.37 1285.5 3630.33 1285.36 3630.29 1285.22C3630.26 1285.08 3630.22 1284.94 3630.18 1284.8C3630.14 1284.67 3630.1 1284.53 3630.06 1284.39V1284.39C3630.02 1284.26 3629.98 1284.12 3629.93 1283.99C3629.89 1283.85 3629.84 1283.72 3629.8 1283.59V1283.59C3629.75 1283.46 3629.7 1283.33 3629.65 1283.2C3629.6 1283.07 3629.55 1282.94 3629.5 1282.81C3629.45 1282.68 3629.4 1282.56 3629.34 1282.43C3629.29 1282.31 3629.23 1282.18 3629.17 1282.06C3629.12 1281.94 3629.06 1281.82 3629 1281.7L3628.95 1282.12L3628.9 1282.54L3628.84 1282.96L3628.79 1283.37L3628.74 1283.79L3628.74 1283.79L3628.69 1284.2L3628.64 1284.61L3628.59 1285.02H3628.59L3628.54 1285.42L3628.48 1285.83V1285.83L3628.43 1286.23L3628.43 1286.23L3628.38 1286.63L3628.33 1287.03L3628.28 1287.43L3628.28 1287.43L3628.23 1287.83L3628.23 1287.83L3628.18 1288.22V1288.22L3628.13 1288.62L3628.07 1289.01L3628.07 1289.01L3628.02 1289.4L3627.97 1289.8L3627.92 1290.19H3627.92L3627.87 1290.58V1290.58L3627.82 1290.97V1290.97L3627.77 1291.36H3627.77L3627.71 1291.75L3627.71 1291.75L3627.66 1292.13L3627.61 1292.52V1292.52L3627.56 1292.91L3627.56 1292.91L3627.51 1293.3L3627.46 1293.69L3627.41 1294.07L3627.41 1294.07L3627.36 1294.46L3627.3 1294.85L3627.25 1295.24L3627.2 1295.63L3627.2 1295.63L3627.15 1296.02L3627.1 1296.41L3627.05 1296.8H3627.05L3627 1297.19V1297.19L3626.94 1297.58L3626.89 1297.97L3626.84 1298.37H3626.84L3626.79 1298.76L3626.74 1299.16L3626.69 1299.56L3626.69 1299.56L3626.64 1299.95L3626.59 1300.35L3626.53 1300.75L3626.48 1301.16L3626.43 1301.56L3626.38 1301.97L3626.33 1302.37H3626.33L3626.28 1302.78L3626.23 1303.2L3626.17 1303.61L3626.12 1304.02L3626.07 1304.44L3626.02 1304.86L3625.97 1305.28L3625.92 1305.71L3625.87 1306.14L3625.82 1306.56L3625.76 1307L3625.71 1307.43V1307.43Z" fill="#BAA989"/>
</g>
<defs>
<filter id="filter0_d_1_3" x="386" y="-16" width="3068" height="2200" filterUnits="userSpaceOnUse" color-interpolation-filters="sRGB">
<feFlood flood-opacity="0" result="BackgroundImageFix"/>
<feColorMatrix in="SourceAlpha" type="matrix" values="0 0 0 0 0 0 0 0 0 0 0 0 0 0 0 0 0 0 127 0" result="hardAlpha"/>
<feOffset dy="4"/>
<feGaussianBlur stdDeviation="10"/>
<feComposite in2="hardAlpha" operator="out"/>
<feColorMatrix type="matrix" values="0 0 0 0 0 0 0 0 0 0 0 0 0 0 0 0 0 0 0.3 0"/>
<feBlend mode="normal" in2="BackgroundImageFix" result="effect1_dropShadow_1_3"/>
<feBlend mode="normal" in="SourceGraphic" in2="effect1_dropShadow_1_3" result="shape"/>
</filter>
</defs>
</svg>
