<svg width="3840" height="2160" viewBox="0 0 3840 2160" fill="none" xmlns="http://www.w3.org/2000/svg">
<g filter="url(#filter0_d_20_1126)">
<rect width="3840" height="2160" fill="#FEF5E0"/>
<g filter="url(#filter1_d_20_1126)">
<rect x="406" width="3028" height="2160" fill="white"/>
</g>
<g opacity="0.75">
<path d="M3656.23 1921.43C3654.51 1918.93 3652.86 1916.54 3651.21 1914.16C3651 1914.27 3650.79 1914.38 3650.58 1914.49C3651.26 1917.84 3651.93 1921.2 3652.73 1925.17C3654.18 1923.62 3655.15 1922.58 3656.23 1921.43ZM3439.63 1511.3C3439 1517.13 3438.17 1521.98 3435.17 1526.15C3434.79 1526.68 3434.41 1527.13 3434 1527.52V1515.58L3439.63 1511.3ZM3434 1491.87C3434.83 1492.44 3435.59 1493.09 3436.26 1493.83C3435.52 1495.41 3434.78 1497 3434 1498.59V1491.87ZM3470.02 1263.51C3474.4 1256.98 3482.21 1252.19 3489.91 1251.43C3486.18 1255.31 3482.16 1258.16 3478.82 1261.54C3481.52 1267.26 3481.52 1267.26 3480.53 1268.92C3477.12 1267.16 3473.68 1265.39 3470.02 1263.51ZM3609.93 1881.51C3611.9 1881.42 3612.34 1882.24 3612.6 1883.47C3613.99 1889.84 3610.66 1895.17 3603.57 1897.09C3604.71 1894.26 3605.7 1891.72 3606.73 1889.2C3607.79 1886.63 3608.87 1884.07 3609.93 1881.51ZM3459.93 1722.61C3460.4 1723.58 3460.84 1724.44 3461.24 1725.32C3461.8 1726.56 3461.68 1727.59 3460.6 1728.59C3457.82 1731.15 3455.16 1733.84 3452.37 1736.38C3451.9 1736.81 3451 1736.77 3450.3 1736.95C3450.13 1736.73 3449.96 1736.52 3449.78 1736.3C3450.43 1735.06 3451.07 1733.81 3451.74 1732.58C3453.2 1729.9 3454.72 1727.26 3456.15 1724.57C3456.9 1723.14 3457.83 1722.19 3459.93 1722.61ZM3450.59 1796.03C3448.88 1795.26 3447.77 1794.79 3446.7 1794.27C3442.56 1792.25 3442.43 1792.01 3444.14 1787.6C3445.1 1785.12 3446.23 1782.71 3447.28 1780.27C3446.23 1778.71 3445.26 1777.27 3444.17 1775.66C3446.87 1775.23 3448.95 1776.36 3451.75 1779.45C3451.24 1783.29 3448.12 1785.88 3446.65 1789.1C3447.56 1791.54 3450.22 1792.64 3450.59 1796.03ZM3446.56 1710.01C3449.91 1707.89 3453.26 1705.77 3457 1703.4C3457 1708.58 3457 1713.17 3457 1717.66C3453.44 1719.46 3452.51 1719.53 3450.08 1717.06C3446.26 1713.18 3442.66 1709.08 3438.93 1705.03C3440.06 1704.88 3441.56 1704.67 3443.5 1704.41C3442.5 1702.98 3441.64 1701.75 3440.5 1700.12C3443.4 1698.9 3446.14 1697.76 3448.77 1696.65C3451.99 1699.39 3452.19 1700.96 3449.8 1703.75C3449 1704.68 3448.03 1705.46 3447.32 1706.44C3446.67 1707.34 3446.25 1708.41 3445.72 1709.41C3446 1709.61 3446.28 1709.81 3446.56 1710.01ZM3523.25 1849.29C3521.06 1846.58 3519.08 1844.14 3516.89 1841.44C3523.23 1835.23 3529.46 1829.13 3536.18 1822.54C3536.18 1825.03 3536.18 1826.78 3536.18 1828.91C3538 1829.07 3539.63 1829.21 3541.6 1829.38C3540.1 1831.95 3539.17 1834.54 3535.82 1835C3534.94 1835.12 3534.07 1836.21 3533.45 1837.04C3532.36 1838.5 3531.64 1840.24 3530.46 1841.6C3528.25 1844.17 3525.83 1846.56 3523.25 1849.29ZM3604.23 1857.66C3604.23 1855.28 3604.23 1853.27 3604.23 1851.32C3611.55 1850.67 3614.74 1845.58 3617.56 1840.1C3617.88 1839.46 3617.93 1838.69 3618.11 1837.97C3619.45 1832.73 3620.41 1831.94 3625.89 1831.63C3626.7 1831.59 3627.52 1831.63 3629.02 1831.63C3627.82 1833.09 3627.02 1834.09 3626.18 1835.07C3625.32 1836.09 3624.44 1837.08 3623.49 1838.17C3623.98 1838.83 3624.39 1839.39 3625.03 1840.24C3621.71 1844.98 3618.32 1849.82 3614.74 1854.93C3616.22 1855.21 3617.27 1855.42 3618.7 1855.69C3618.28 1858.79 3617.89 1861.77 3617.45 1864.74C3617.14 1866.79 3616.82 1868.84 3616.37 1870.87C3615.96 1872.74 3616.09 1874.29 3618.4 1875.12C3616.16 1877.4 3614.04 1879.08 3610.78 1879.11C3605.81 1879.17 3604.75 1880.54 3605.29 1885.39C3605.34 1885.83 3605.36 1886.28 3605.41 1886.88C3602.4 1884.79 3601.86 1883.02 3603.76 1880.5C3605.21 1878.57 3607.09 1876.96 3609.14 1874.83C3606.89 1873.68 3604.7 1872.57 3602.09 1871.24C3600.26 1875.16 3598.53 1878.86 3596.76 1882.66C3594.92 1882.62 3593.93 1882.01 3594.12 1880.06C3594.25 1878.73 3594.2 1877.37 3594.29 1876.04C3594.53 1872.71 3596.13 1870.33 3599.17 1868.84C3600.68 1868.1 3602.23 1867.26 3603.43 1866.12C3606.03 1863.62 3608.56 1861.18 3613.14 1862.17C3612.06 1859.87 3611.29 1858.25 3610.46 1856.49C3608.34 1856.89 3606.39 1857.26 3604.23 1857.66ZM3541.12 1853.39C3542.58 1854.89 3543.54 1853.89 3544.49 1853.55C3547.12 1852.6 3549.68 1851.42 3552.36 1850.61C3553.42 1850.29 3555.13 1850.22 3555.78 1850.84C3556.83 1851.84 3557.56 1853.44 3557.83 1854.9C3558.13 1856.51 3556.55 1857.19 3555.28 1857.54C3546.51 1859.93 3541.45 1865.77 3539.41 1874.67C3535.49 1874.67 3531.65 1874.67 3527.73 1874.67C3528.71 1867.46 3529.99 1860.53 3535.85 1855.34C3534.41 1853.51 3533.16 1851.92 3531.75 1850.13C3534.56 1848.19 3537.25 1846.33 3540 1844.43C3539.47 1842.88 3539 1841.52 3538.65 1840.5C3540.81 1838.45 3542.84 1836.58 3544.81 1834.63C3547.91 1831.58 3549.78 1831.52 3553.45 1834.64C3553.01 1835.4 3552.59 1836.25 3552.07 1837.01C3548.96 1841.54 3545.81 1846.04 3542.71 1850.57C3542.07 1851.5 3541.59 1852.54 3541.12 1853.39ZM3586.8 1840.17C3588.17 1841.42 3589.74 1842.73 3591.14 1844.19C3591.54 1844.61 3591.71 1845.56 3591.57 1846.16C3590.71 1849.71 3589.85 1853.27 3588.74 1856.75C3588.24 1858.34 3587.95 1859.71 3588.63 1861.32C3589.92 1864.42 3589.61 1867.56 3588.32 1870.59C3586.94 1873.84 3585.51 1877.09 3583.92 1880.24C3583.4 1881.27 3582.35 1882.06 3581.45 1882.85C3580.55 1883.64 3579.55 1884.3 3578.4 1885.15C3579.55 1886.64 3580.57 1887.94 3581.96 1889.73C3580.57 1890.15 3579.55 1890.54 3578.48 1890.76C3578.05 1890.85 3577.54 1890.54 3577.06 1890.47C3570.48 1889.43 3567.19 1891.19 3564.84 1897.49C3563.87 1900.1 3562.46 1902.17 3560.47 1904.07C3559.1 1905.38 3558.24 1907.23 3557.24 1908.89C3556.51 1910.11 3555.9 1911.42 3555.14 1912.87C3552.9 1909.61 3552.17 1906.53 3552.83 1902.89C3553.83 1897.38 3554.37 1891.78 3555.12 1886.22C3555.53 1883.15 3554.68 1882.33 3551.74 1883.02C3551.04 1883.18 3550.37 1883.47 3549.57 1883.75C3549.01 1883.22 3548.49 1882.74 3547.97 1882.25C3547.46 1881.78 3546.97 1881.29 3546.16 1880.52C3545.62 1882.39 3545.2 1883.87 3544.71 1885.53C3542.3 1885.53 3539.9 1885.53 3537.12 1885.53C3537.42 1882.36 3538.94 1880.03 3541.71 1878.74C3543.55 1877.87 3545.64 1877.5 3547.65 1877.03C3550.14 1876.45 3552.69 1876.12 3555.15 1875.42C3556.47 1875.04 3557.63 1874.12 3558.87 1873.45C3558.8 1873.16 3558.73 1872.88 3558.66 1872.6C3556.62 1872.78 3554.59 1872.96 3551.95 1873.2C3555.28 1865.5 3556.58 1857.32 3563.53 1852.05C3564.6 1851.25 3565.22 1849.72 3565.79 1848.42C3566.63 1846.53 3567.06 1844.45 3567.99 1842.61C3569.9 1838.82 3575.56 1837.81 3578.69 1840.71C3579.34 1841.32 3579.66 1842.71 3579.51 1843.63C3579.3 1844.91 3578.6 1846.14 3577.93 1847.29C3573.72 1854.51 3572.07 1862.14 3573.33 1870.51C3574.1 1875.64 3573 1880.25 3567.58 1882.74C3565.03 1883.91 3565.02 1886.63 3564.05 1889.09C3564.89 1889.21 3565.59 1889.54 3565.96 1889.32C3568.47 1887.83 3571.09 1886.43 3573.31 1884.58C3576.12 1882.24 3577.73 1879.21 3577.36 1875.25C3576.95 1870.81 3578.1 1866.52 3579.48 1862.33C3581.86 1855.04 3584.29 1847.77 3586.8 1840.17ZM3456.7 1767.9L3454.11 1769.7L3456.71 1767.9L3456.74 1767.95C3456.74 1767.94 3456.75 1767.89 3456.75 1767.87C3456.71 1768.79 3456.34 1769.86 3456.69 1770.58C3457.99 1773.27 3459.53 1775.85 3461.18 1778.85C3462.02 1777.15 3462.64 1775.91 3463.46 1774.24C3464.72 1776.31 3465.75 1778.02 3466.98 1780.06C3464.57 1780.24 3462.72 1780.38 3460.57 1780.54C3462.09 1783.7 3463.33 1786.47 3465.41 1789.19C3466.16 1787.03 3466.7 1785.45 3467.33 1783.61C3469.63 1784.28 3471.68 1784.88 3474.06 1785.57C3472.78 1787.3 3471.71 1788.73 3470.54 1790.32C3471.8 1791.88 3473.01 1793.37 3474.4 1795.09C3475.77 1793.64 3476.88 1792.36 3478.11 1791.2C3479.23 1790.14 3479.96 1788.5 3482.32 1788.01C3479.74 1793 3481.59 1796.21 3485.3 1798.82C3486 1799.31 3486.62 1799.9 3487.33 1800.38C3489.98 1802.19 3491.28 1802.11 3492.59 1799.31C3494.53 1795.22 3498.1 1794.16 3502.18 1793.11C3502.34 1794.4 3502.44 1795.46 3502.61 1796.51C3502.78 1797.49 3503.03 1798.46 3503.26 1799.55C3505.84 1798.63 3506.01 1796.67 3506.51 1794.96C3508.03 1789.82 3508.11 1789.76 3513.11 1791.54C3514.88 1788.6 3516.68 1785.61 3518.39 1782.77C3520.09 1782.95 3520.4 1783.66 3520.04 1784.84C3519.55 1786.47 3519.03 1788.1 3518.68 1789.77C3517.67 1794.54 3516.71 1799.33 3515.8 1804.12C3515.26 1806.92 3513.77 1808.88 3510.95 1809.45C3509.19 1809.8 3508.61 1810.78 3508.21 1812.37C3507.87 1813.68 3508.15 1815.33 3506.75 1816.33C3504.42 1815.64 3505.05 1812.9 3503.18 1811.63C3502.94 1812.64 3502.68 1813.53 3502.5 1814.43C3501.19 1821.38 3499.12 1822.6 3492.34 1820.39C3492.25 1820.36 3492.21 1820.22 3492 1819.93C3492.49 1819.03 3493.03 1818.03 3493.87 1816.51C3492.67 1816.62 3491.82 1816.45 3491.51 1816.78C3489.59 1818.88 3488.55 1821.25 3489.85 1824.12C3490.5 1825.57 3490.93 1827.15 3491.76 1828.48C3492.92 1830.31 3492.82 1832.05 3492.3 1834.03C3490.61 1840.4 3488.94 1846.79 3487.52 1853.22C3486.9 1856.05 3485.98 1858.31 3483.04 1858.94C3481.53 1864.64 3482.65 1864.97 3474 1864.24C3474 1865.94 3473.77 1867.66 3474.04 1869.31C3475.23 1876.72 3473.1 1883.29 3469.37 1889.57C3467.26 1893.13 3465.26 1896.79 3463.49 1900.54C3460.4 1907.12 3459.29 1914.11 3460.56 1921.27C3462.26 1930.78 3466.41 1939.33 3471.72 1947.33C3472.11 1947.91 3472.68 1948.37 3473.27 1949.01C3475.37 1947.55 3477.33 1946.18 3479.44 1944.7C3481.39 1947.41 3483.15 1949.89 3484.96 1952.34C3486.77 1954.81 3488.07 1957.67 3490.45 1959.94C3490.98 1958.41 3491.4 1957.21 3491.95 1955.62C3496.92 1961.01 3501.6 1966.09 3506.61 1971.54C3508.7 1967.86 3504.77 1966.43 3504.92 1963.45C3511.45 1964.74 3517.91 1966.01 3524.56 1967.32C3523.13 1970.7 3520.23 1972.66 3519.19 1976.05C3524.32 1975.49 3529.1 1974.97 3534.43 1974.39C3533.85 1972.22 3533.6 1970.28 3532.84 1968.56C3531.35 1965.22 3529.62 1961.98 3527.91 1958.74C3527.14 1957.27 3527.16 1956.23 3529.06 1955.66C3531.17 1957.01 3533.31 1958.38 3535.36 1959.68C3536.61 1959.1 3537.66 1958.61 3538.86 1958.05C3540.46 1966.1 3540.99 1974.05 3542.79 1982.02C3544.5 1980.41 3545.84 1979.18 3547.14 1977.91C3548.5 1976.58 3549.82 1975.21 3551.15 1973.87C3551.99 1974.42 3552.54 1974.71 3553 1975.09C3555.71 1977.37 3555.96 1979.09 3553.95 1982.05C3553.13 1983.26 3552.04 1984.3 3551.27 1985.53C3550.62 1986.58 3550.26 1987.8 3549.78 1988.94C3555.69 1991.43 3555.8 1991.41 3559.83 1986.77C3558.98 1998.16 3566.24 2004.59 3573.14 2011.54C3575.32 2006.44 3575.89 2006.15 3580.74 2007.27C3582.04 2007.57 3583.35 2007.76 3584.72 2008.01C3584.64 2008.38 3584.63 2008.76 3584.48 2009.07C3582.52 2013.12 3582.69 2014.33 3585.52 2017.6C3587.39 2019.75 3589.2 2021.96 3591.09 2024.21C3593.35 2021.47 3594.78 2018.32 3595.01 2014.64C3595.24 2011.03 3594.51 2007.59 3593.2 2004.26C3592.31 2002.01 3591.34 1999.79 3590.29 1997.24C3593.69 1995.35 3596.96 1993.54 3600.52 1991.56C3601.9 1995.85 3603.18 1999.84 3604.58 2004.22C3607.56 2001.76 3610.15 1999.62 3613.02 1997.23C3610.73 1995.31 3608.83 1993.72 3606.93 1992.12C3605.81 1993.31 3604.96 1994.2 3604.1 1995.1C3603.91 1994.98 3603.72 1994.87 3603.53 1994.75C3604.13 1992.85 3604.74 1990.94 3605.32 1989.09C3615.33 1988.43 3621.63 1983.15 3625.4 1974.45C3626.16 1974.51 3626.83 1974.4 3627.34 1974.63C3632.23 1976.86 3635.42 1974.39 3638.71 1971.06C3641.82 1967.9 3642.82 1964.58 3641.45 1960.43C3640.86 1958.63 3640.38 1956.79 3639.79 1954.79C3641.9 1954.47 3643.61 1954.22 3645.95 1953.87C3643.51 1952.44 3641.67 1951.36 3639.74 1950.22C3640.98 1947.08 3642.09 1944.24 3643.22 1941.41C3644.07 1939.26 3644.32 1937.37 3642.5 1935.35C3640.74 1933.39 3641.04 1932.19 3642.84 1930.24C3643.17 1929.88 3643.57 1929.58 3643.91 1929.23C3646.26 1926.84 3646.28 1926.39 3644.15 1923.75C3643.85 1923.37 3643.56 1922.98 3643.27 1922.62C3644.37 1920.03 3644.58 1884.8 3643.46 1880.96C3641.34 1880.96 3639.13 1880.96 3636.6 1880.96C3638.16 1884.42 3639.58 1887.58 3641.19 1891.16C3633.35 1892.35 3625.97 1893.48 3618.07 1894.68C3620.21 1882.31 3622.22 1870.58 3624.32 1858.41C3623.96 1858.09 3623.19 1857.41 3622.23 1856.56C3626.27 1854.06 3630.05 1851.72 3634.39 1849.03C3631.82 1848.11 3629.94 1847.43 3627.51 1846.56C3630.6 1843.7 3633.4 1841.12 3636.19 1838.54C3636.47 1838.63 3636.75 1838.73 3637.02 1838.83C3637.02 1844.71 3637.02 1850.59 3637.02 1857.26C3642.06 1854.29 3646.32 1851.73 3650.81 1848.9C3648.76 1847.58 3647.18 1846.66 3645.7 1845.59C3641.94 1842.88 3641.32 1840.73 3642.98 1836.46C3643.49 1835.14 3644.05 1833.85 3644.57 1832.62C3642.36 1831.05 3639.34 1832.14 3637.41 1829.64C3639.86 1829.28 3641.96 1828.97 3644.36 1828.62C3643.05 1824.9 3641.92 1821.69 3640.58 1817.91C3638.45 1821.38 3636.74 1824.17 3634.7 1827.5C3632.8 1820.46 3632.11 1813.94 3630.05 1807.28C3627.76 1809.89 3625.85 1812.06 3623.73 1814.47C3620.98 1809.94 3620.77 1805.37 3621.71 1800.76C3622.72 1795.74 3624.09 1790.79 3625.27 1785.8C3625.88 1783.21 3625.9 1780.6 3625.69 1777.23C3624.58 1778.36 3624.04 1778.96 3623.45 1779.5C3620.86 1781.85 3619.3 1781.75 3617.01 1779.08C3615.75 1777.61 3614.52 1776.11 3613.18 1774.5C3614.61 1773.87 3616.03 1773.25 3617.47 1772.61C3617.4 1772.11 3617.45 1771.7 3617.28 1771.43C3615.08 1768.02 3615.87 1764.86 3617.59 1761.46C3620.12 1756.46 3622.6 1751.39 3624.5 1746.12C3628.66 1734.64 3632.44 1723.03 3636.36 1711.46C3636.53 1710.96 3636.47 1710.38 3636.52 1709.71C3629.23 1712.28 3625.24 1717.01 3624.4 1724.56C3624.06 1727.65 3623.08 1730.11 3621 1732.39C3619.72 1733.8 3618.69 1735.63 3618.14 1737.44C3617.2 1740.58 3616.83 1743.88 3616.03 1747.07C3615.48 1749.28 3614.8 1751.49 3613.83 1753.55C3613.45 1754.35 3612.19 1754.99 3611.22 1755.21C3609.08 1755.68 3603.28 1754.32 3600.81 1752.97C3603.05 1752.19 3605.15 1751.46 3607.65 1750.59C3604.76 1747.44 3602.21 1744.68 3599.44 1741.66C3601.56 1739.79 3603.49 1738.09 3606.14 1735.75C3606.14 1739.12 3606.14 1741.54 3606.14 1743.94C3606.39 1743.97 3606.64 1743.99 3606.89 1744.01C3607.38 1742.28 3608.06 1740.58 3608.34 1738.81C3609.39 1732.34 3612.65 1727.2 3617.64 1723.1C3620.85 1720.47 3621.19 1716.73 3622.22 1712.54C3619.11 1714.56 3616.56 1716.22 3613.48 1718.23C3614.09 1713.39 3614.6 1709.34 3615.13 1705.18C3613.51 1704.92 3612.35 1704.73 3610.66 1704.46C3611.72 1703.13 3612.52 1702.1 3613.36 1701.1C3615.39 1698.66 3617.46 1696.25 3619.47 1693.79C3620.52 1692.51 3621.18 1691.09 3620.41 1689.4C3619.25 1686.86 3620.07 1684.63 3621.5 1682.51C3622.45 1681.09 3623.53 1679.74 3624.36 1678.26C3625.23 1676.7 3625.84 1675 3624.33 1672.64C3623.15 1674.9 3621.88 1676.61 3621.33 1678.52C3619.55 1684.67 3616.23 1689.83 3611.91 1694.45C3607.89 1698.76 3604.52 1703.54 3601.8 1708.78C3601.38 1709.58 3600.77 1710.27 3600 1711.36C3598.02 1708.84 3601.09 1707.34 3600.43 1705.15C3598.26 1704.08 3595.9 1702.9 3593.24 1701.59C3589.81 1708.72 3586.5 1715.59 3583.01 1722.84C3580.71 1720.71 3578.79 1718.93 3576.83 1717.12C3579.27 1713.49 3581.38 1710.2 3583.65 1707.02C3584.75 1705.47 3584.96 1704.09 3584.21 1702.28C3582.39 1697.88 3580.79 1693.39 3579.08 1688.95C3578.79 1688.2 3578.35 1687.51 3577.73 1686.3C3575.76 1692.07 3573.97 1697.31 3572.12 1702.7C3568.83 1702.07 3565.88 1701.51 3562.9 1700.94C3558.34 1710.96 3553.93 1720.67 3549.26 1730.93C3547.37 1727.91 3545.91 1725.56 3544.09 1722.66C3544.81 1722.21 3545.45 1721.86 3546.05 1721.43C3549.11 1719.22 3551.05 1716.16 3552.65 1712.81C3555.13 1707.63 3557.71 1702.5 3560.3 1697.38C3562.06 1693.9 3564.27 1691.04 3568.57 1690.36C3571.23 1689.94 3572.65 1687.91 3572.99 1685.17C3573.33 1682.44 3573.82 1679.72 3574.25 1676.96C3571.4 1676.21 3569.18 1677.19 3566.89 1678.97C3551.64 1690.84 3537.2 1703.61 3523.24 1716.98C3516.16 1723.76 3510.31 1731.27 3505.62 1739.77C3505.18 1740.57 3504.9 1741.46 3504.46 1742.51C3509.92 1743.29 3513.51 1746.15 3515.9 1750.64C3516.53 1751.82 3517.07 1753.06 3517.81 1754.18C3519.53 1756.79 3521.34 1759.33 3523.62 1762.64C3525.69 1769.06 3522.59 1775.07 3518.39 1780.9C3512.89 1776.43 3508.09 1771.64 3504.74 1765.51C3501.87 1760.26 3498.7 1755.16 3495.95 1749.85C3488.68 1735.83 3479.19 1723.49 3467.95 1712.46C3464.32 1708.91 3461.56 1704.79 3459.66 1700.07C3457.13 1693.8 3453.17 1688.37 3449.6 1682.74C3445.49 1683.51 3447.78 1687.42 3445.95 1689.4C3445.62 1688.91 3445.37 1688.53 3445.13 1688.16C3443.01 1684.89 3441.59 1684.54 3438.19 1686.47C3437.44 1686.89 3436.77 1687.47 3435.98 1687.77C3435.38 1688 3434.75 1688.17 3434 1688.35V1596.21L3436.53 1595.65C3436.26 1598.03 3436.04 1600.01 3435.74 1602.73C3439.02 1600.18 3441.49 1597.91 3443.53 1595.16C3444.4 1593.99 3444.68 1592.83 3443.95 1591.43C3442.84 1589.28 3443.33 1587.17 3444.39 1585.12C3445.07 1583.82 3445.74 1582.52 3446.3 1581.17C3447.49 1578.25 3449.83 1576.79 3452.75 1576.41C3454.38 1576.19 3456.21 1576.33 3457.76 1576.86C3460.47 1577.78 3462.74 1577.41 3464.97 1575.7C3467.1 1574.07 3469.31 1572.54 3471.52 1571.01C3472.14 1570.58 3472.87 1570.32 3473.74 1569.89C3473.52 1576.63 3472.22 1582.95 3472.42 1589.77C3476.61 1588.44 3479.63 1586.25 3482.38 1583.66C3482.88 1583.19 3483.22 1582.41 3483.32 1581.72C3484.75 1572.01 3485.64 1562.38 3477.72 1554.49C3479.66 1550.31 3481.54 1546.25 3483.69 1541.61C3484.54 1543.82 3485.14 1545.35 3485.73 1546.88C3494.56 1543.66 3501.64 1532.35 3500.73 1522.8C3498.29 1524.44 3495.95 1526.02 3493.51 1527.65C3492.84 1525.96 3492.36 1524.75 3491.9 1523.61C3490.32 1523.44 3488.98 1523.36 3487.67 1523.13C3482.92 1522.33 3478.5 1522.99 3474.25 1525.41C3466.4 1529.88 3458.46 1534.18 3450.55 1538.55C3449.28 1539.25 3448.01 1539.94 3446.65 1540.68C3445.89 1539.52 3445.25 1538.56 3444.56 1537.52C3442.88 1538.75 3441.42 1539.82 3440.24 1540.68C3438.93 1538.61 3437.72 1536.69 3436.5 1534.75C3437.32 1534.61 3438.15 1534.47 3439.4 1534.26C3440.19 1527.94 3443.06 1522.72 3446.16 1517.57C3446.95 1516.26 3447.41 1514.63 3447.59 1513.1C3447.85 1510.84 3448.37 1508.94 3450.21 1507.32C3451.91 1505.83 3451.93 1504.09 3450.37 1502.49C3448.43 1500.49 3446.25 1498.72 3444.07 1496.98C3442.95 1496.09 3441.6 1495.49 3439.96 1494.52C3441.45 1493.76 3442.5 1493.18 3443.59 1492.69C3450.28 1489.72 3456.99 1486.79 3463.67 1483.79C3465.16 1483.12 3466.98 1482.71 3467.29 1480.53C3466.98 1480.15 3466.74 1479.69 3466.36 1479.43C3461.66 1476.16 3455.45 1475.56 3451.49 1470.98C3447.28 1469.66 3443.13 1469.76 3438.89 1471.04C3436.52 1471.75 3435.11 1473.24 3434 1475.42V1396.31C3434.17 1396.76 3434.29 1397.25 3434.35 1397.78C3434.47 1398.74 3434.45 1399.72 3434.51 1400.88C3436.7 1400.6 3437.53 1398.88 3438.42 1397.42C3441.31 1392.65 3442.79 1387.36 3443.85 1381.94C3444.71 1377.61 3444.99 1373.26 3444.54 1368.71C3442.66 1368.47 3440.9 1368.26 3438.9 1368.01C3439.15 1361.25 3438.66 1354.86 3434.91 1348.66C3437.75 1348.2 3439.99 1347.84 3442.23 1347.49C3447.36 1346.67 3448.59 1345.36 3449.6 1340.36C3450.12 1337.77 3450.85 1335.16 3451.89 1332.72C3453.91 1327.98 3454.26 1323.21 3452.32 1318.47C3450.94 1315.1 3449.25 1311.8 3447.36 1308.68C3439.54 1295.83 3438.42 1282.33 3443.09 1268.18C3446.19 1258.81 3444.59 1255.29 3435.53 1251.13C3435.21 1250.98 3434.95 1250.7 3434.42 1250.3C3434.42 1245.7 3434.41 1240.95 3434.42 1236.2C3434.43 1235.36 3434.54 1234.52 3434.63 1233.31C3436.33 1233.1 3437.98 1232.88 3439.63 1232.71C3444.2 1232.21 3444.84 1231.46 3444.55 1226.92C3444.51 1226.21 3444.55 1225.49 3444.55 1225.38C3447.62 1223.07 3450.26 1220.99 3453 1219.06C3453.85 1218.45 3454.94 1217.95 3455.97 1217.85C3459 1217.55 3461.59 1216.27 3464.05 1214.63C3465.98 1213.35 3467.86 1211.98 3469.8 1210.71C3472.41 1209 3475.28 1208.28 3478.42 1207.99C3485.22 1207.37 3492 1206.48 3498.78 1205.59C3502.42 1205.11 3505.97 1204.5 3509.65 1205.63C3511.99 1206.36 3513.59 1205.7 3514.39 1203.38C3515.35 1200.6 3517.33 1200.52 3519.56 1200.4C3525.77 1200.06 3531.99 1199.71 3538.2 1199.34C3538.8 1199.31 3539.39 1199.19 3540.14 1199.09C3540.51 1198.07 3540.88 1197.08 3541.29 1195.98C3542.13 1196.09 3542.84 1196.16 3543.55 1196.27C3547.88 1196.92 3551.48 1195.48 3554.5 1192.42C3554.85 1192.07 3555.24 1191.76 3555.51 1191.36C3560.15 1184.47 3566.82 1179.99 3573.81 1175.89C3574.43 1175.52 3575 1175.06 3575.89 1174.43C3574.58 1172.06 3573.3 1169.75 3571.84 1167.11C3574.16 1165.02 3576.49 1162.94 3579.29 1160.42C3576.65 1159.52 3574.43 1158.76 3571.85 1157.87C3572.98 1156.21 3573.98 1154.74 3575.31 1152.8C3572.93 1152.09 3570.8 1151.46 3568.11 1150.67C3570.49 1147.03 3572.71 1143.64 3575.12 1139.95C3573.19 1139.05 3571.37 1138.2 3569.16 1137.16C3573.11 1134.28 3577.47 1132.68 3581.07 1129.95C3580.99 1129.66 3580.91 1129.37 3580.82 1129.08C3578.48 1129.08 3576.13 1129.08 3572.82 1129.08C3574.46 1126.69 3575.57 1125.03 3576.72 1123.39C3577.9 1121.71 3579.12 1120.05 3580.69 1117.88C3580.96 1119.47 3581.14 1120.51 3581.38 1121.89C3584.05 1118.78 3585.15 1115.45 3585.54 1111.54C3583.6 1112.23 3581.81 1112.88 3579.87 1113.57C3579.06 1111.95 3579.8 1110.55 3580.59 1109.5C3582.12 1107.48 3583.92 1105.65 3585.71 1103.83C3587.3 1102.21 3589.03 1100.72 3590.95 1098.93C3589.19 1097.9 3587.89 1097.13 3585.89 1095.96C3588 1095.12 3589.49 1094.04 3591.02 1093.98C3598.66 1093.68 3601.41 1091.81 3603.99 1084.63C3604.1 1084.32 3604.12 1083.97 3604.31 1082.95C3602.75 1084.35 3601.59 1085.32 3600.5 1086.37C3597.58 1089.16 3594.3 1090.12 3590.43 1088.58C3588.85 1087.95 3587.22 1087.44 3584.84 1086.61C3587.53 1085.59 3589.53 1084.84 3592.12 1083.86C3590.36 1082.66 3588.95 1081.7 3587.04 1080.39C3593.3 1076.51 3599.54 1073.28 3605.85 1069.5C3604.92 1064.72 3608.85 1059.91 3605.31 1054.87C3606.95 1054.12 3608.45 1053.44 3610.58 1052.47C3608.29 1051.69 3606.56 1051.11 3604.2 1050.31C3606.51 1048.96 3608.32 1047.9 3610.08 1046.87C3610.08 1044.76 3609.99 1042.81 3610.1 1040.87C3610.43 1034.74 3609.97 1033.88 3604.24 1031.18C3605 1029.08 3605.77 1026.94 3606.59 1024.67C3605.23 1023.81 3604.01 1023.05 3602.47 1022.08C3602.87 1020.42 3603.25 1018.67 3603.73 1016.95C3604.96 1012.58 3603.84 1010.12 3599.68 1008.22C3596.9 1006.96 3594.11 1005.71 3591.33 1004.46C3591.11 1004.36 3590.86 1004.35 3590.16 1004.2C3589.22 1005.44 3588.16 1006.85 3586.5 1009.04C3589.94 1008.55 3592.58 1008.17 3595.59 1007.74C3595.59 1015.63 3595.59 1023.17 3595.59 1030.64C3597.35 1031.6 3598.82 1032.41 3601.08 1033.64C3597.77 1034.49 3595.18 1035.16 3592.37 1035.88C3594.66 1041.98 3598.76 1047.89 3592.07 1053.68C3593.63 1054.64 3594.95 1055.44 3596.32 1056.28C3596.32 1058.29 3596.32 1060.23 3596.32 1062.78C3599.52 1060.82 3601.34 1057.87 3604.24 1056.16C3603.22 1065.43 3597.06 1070.93 3589.45 1076.44C3589.87 1073.57 3590.18 1071.47 3590.48 1069.37C3590.31 1069.28 3590.13 1069.2 3589.96 1069.12C3588.34 1071.64 3586.7 1074.15 3585.11 1076.68C3584.4 1077.79 3583.68 1078.73 3581.79 1077.58C3582.29 1074.81 3582.66 1071.82 3583.42 1068.93C3583.95 1066.95 3583.52 1065.73 3581.9 1064.57C3580.41 1063.51 3579.06 1062.25 3577.77 1060.96C3575.39 1058.59 3574.56 1055.78 3575.79 1052.57C3576.93 1049.63 3578.19 1046.74 3579.31 1044.01C3579.91 1043.91 3580.15 1043.79 3580.37 1043.84C3584.2 1044.7 3585.05 1044.37 3586.68 1040.86C3587.73 1038.59 3588.63 1036.29 3591.61 1036.32C3591.44 1034.39 3590.63 1033.72 3588.91 1033.93C3586.88 1034.18 3584.83 1034.19 3582.11 1034.34C3583.73 1031.98 3585 1030.12 3586.46 1027.97C3584.46 1027.53 3582.75 1027.15 3581.17 1026.81C3582.9 1021.06 3584.57 1015.47 3586.29 1009.74C3582.34 1009.6 3579.43 1013.55 3575.02 1011.6C3576.95 1007.54 3578.71 1003.86 3580.46 1000.19C3576.44 1001.45 3574.05 1004.78 3570.2 1007.04C3569.93 1004.21 3570.04 1001.74 3570.13 999.018C3570.66 998.992 3571.1 998.914 3571.53 998.957C3575.39 999.344 3576.44 998.633 3577.57 994.845C3578.51 991.671 3577 989.173 3573.71 988.868C3571.53 988.666 3569.29 988.683 3567.13 989.005C3564.59 989.384 3562.3 989.043 3559.86 987.699C3560.16 986.916 3560.47 986.098 3560.87 985.079C3559.72 984.248 3558.53 983.418 3557.39 982.53C3554.32 980.161 3552.04 977.304 3553.03 973.161C3553.97 969.184 3556.04 965.97 3560.31 964.775C3560.76 964.648 3561.18 964.424 3561.63 964.241C3561.01 962.44 3559.84 961.948 3558.17 962.261C3555.68 962.726 3553.18 963.119 3550.65 963.55C3549.91 961.291 3550.94 960.076 3552.47 959.086C3555.62 957.038 3559.17 956.135 3562.85 955.82C3569.33 955.263 3575.47 956.261 3581.07 959.931C3583.81 961.732 3586.87 963.053 3589.71 964.728C3594.76 967.705 3599.77 970.739 3604.74 973.835C3609.05 976.526 3612.05 976.428 3616.2 973.11C3613.04 969.871 3609.72 967.286 3604.78 968.04C3602.47 968.393 3600.43 967.853 3599.31 965.564C3600.12 962.975 3602.64 962.873 3604.63 961.861C3604.42 958.45 3603.69 955.28 3602.03 952.399C3599.88 948.674 3599.08 945.004 3601.31 940.955C3601.98 939.746 3601.86 938.103 3602.13 936.663C3602.4 935.173 3601.91 934.151 3600.59 933.3C3595.71 930.157 3592.72 926.013 3594.48 918.922C3592.59 920.561 3591.46 921.548 3590.3 922.552C3589.03 919.853 3589.03 919.853 3590.91 911.694C3588.19 909.875 3585.16 908.288 3581.89 908.281C3578.73 908.275 3575.57 909.328 3572.19 909.956C3574.45 907.095 3578.93 907.187 3580.39 903.833C3580.21 903.515 3580.03 903.197 3579.84 902.879C3578.29 902.982 3576.74 903.067 3575.19 903.192C3573.61 903.321 3572.03 903.458 3570.46 903.648C3567.05 904.057 3564.14 903.231 3562.09 900.319C3560.75 898.426 3558.99 898.36 3556.91 898.683C3549.31 899.864 3541.69 900.933 3534.08 902.03C3533.37 902.132 3532.64 902.118 3531.03 902.21C3534.65 898.542 3538.11 895.75 3541.75 892.154C3537.91 890.953 3534.65 889.69 3531.28 888.951C3527.8 888.187 3526.84 888.972 3525.66 892.357C3524 897.101 3521.84 898.068 3517.29 896.011C3514.96 894.96 3512.68 893.795 3510.4 892.64C3510.12 892.496 3509.96 892.1 3509.48 891.479C3511.36 891.147 3513.03 890.853 3515.42 890.431C3510.4 887.181 3506.02 884.348 3501.34 881.317C3503.58 879.257 3505.61 877.397 3507.63 875.536C3507.53 875.337 3507.44 875.141 3507.34 874.943C3506.4 875.235 3505.4 875.434 3504.51 875.842C3502.95 876.548 3501.46 877.388 3499.93 878.163C3497.55 879.377 3495.1 879.888 3492.61 878.536C3490.29 880.088 3489.51 882.458 3488.25 884.502C3487.14 886.283 3487.46 889.14 3484.04 889.999C3484.37 887.511 3484.65 885.431 3484.96 883.072C3482.04 883.828 3479.37 884.583 3478.59 887.56C3477.78 890.668 3478.31 893.465 3481.06 895.778C3486.9 900.677 3489.48 907.248 3490.17 914.62C3486.84 916.911 3484.74 916.956 3481.83 914.483C3479.14 912.201 3476.66 909.681 3473.8 906.996C3475.28 906.814 3476.62 906.652 3477.96 906.489C3476.69 900.784 3476.69 900.784 3468.74 899.69C3468.82 897.92 3470.33 897.07 3471.22 895.866C3472.09 894.7 3473.07 893.615 3474.31 892.111C3470.91 890.581 3467.77 889.168 3464.42 887.659C3465.12 886.516 3465.72 885.63 3466.22 884.69C3467.77 881.79 3467.55 879.768 3465.24 877.377C3464.15 876.245 3462.82 875.334 3461.58 874.341C3455.11 869.137 3448.62 863.949 3442.16 858.726C3441.52 858.211 3441.05 857.486 3440.16 856.458C3442.8 855.964 3444.97 855.713 3447.2 856.529C3452.88 858.614 3458.8 859.071 3464.8 859.534C3468.84 859.846 3472.89 861.345 3476.7 862.887C3483.97 865.832 3491.42 867.245 3499.24 866.807C3502.1 866.645 3504.71 867.247 3507.28 868.704C3513.89 872.438 3521.09 874.064 3528.68 874.32C3534.4 874.512 3540.1 875.261 3545.82 875.525C3549.96 875.715 3554.12 875.71 3558.24 875.405C3560.35 875.251 3562.3 875.38 3564.36 875.764C3569.24 876.67 3573.31 879.024 3577.62 881.383C3584.93 885.388 3591.94 889.6 3598.16 895.195C3600.57 897.351 3603.74 898.649 3607 900.6C3606.01 901.871 3605.03 903.145 3603.6 904.988C3604.14 905.39 3604.76 905.861 3605.55 906.451C3607.23 904.685 3608.64 903.194 3610.21 901.546C3612.86 902.181 3615.5 902.817 3618.84 903.617C3612.76 908.086 3606.33 910.49 3600.47 913.798C3601.26 916.456 3601.29 916.523 3603.48 915.774C3607.87 914.278 3612.23 912.691 3616.62 911.166C3617.74 910.772 3618.91 910.471 3620.5 909.996C3620.01 911.27 3619.69 912.111 3619.3 913.121C3619.83 913.121 3620.32 913.256 3620.69 913.1C3622.98 912.136 3625.14 911.396 3627.65 912.822C3630.17 914.257 3631.2 916.765 3632.63 918.959C3633 919.525 3632.34 920.758 3632.12 921.857C3633.21 922.547 3634.3 923.33 3635.47 923.958C3640.02 926.403 3643.29 929.964 3645.45 934.683C3646.3 936.518 3647.03 938.523 3649.72 939.045C3650.85 939.261 3651.6 941.415 3652.55 942.737C3650.37 945.305 3647.73 944.228 3645.36 944.105C3643.88 945.628 3645.13 946.234 3646.09 947.013C3649.31 949.621 3652.53 952.234 3655.67 954.932C3656.58 955.716 3657.44 956.69 3657.98 957.749C3659.19 960.105 3660.64 962.047 3663.24 963.07C3663.98 963.362 3664.53 964.471 3664.91 965.322C3670.44 977.738 3674.67 990.607 3678.06 1003.76C3678.44 1005.26 3678.32 1006.9 3678.42 1008.48C3678.65 1012.15 3679.29 1015.61 3681.27 1018.93C3682.72 1021.36 3684.05 1024.4 3681.68 1027.64C3683.34 1028.72 3684.17 1030.33 3684.57 1032.51C3687.67 1049.46 3690.01 1066.52 3691.77 1083.66C3696.49 1129.93 3698 1176.34 3697.3 1222.82C3696.99 1243.35 3695.95 1263.87 3695.14 1284.39C3695.07 1286.41 3694.3 1288.41 3693.84 1290.41C3693.59 1291.48 3693.04 1292.55 3693.11 1293.59C3693.37 1297.88 3692.79 1301.8 3690.98 1305.9C3688.57 1311.37 3691.23 1318.35 3695.81 1322.03C3698.37 1324.08 3700.8 1326.31 3703.12 1328.62C3706.34 1331.84 3709.81 1334.35 3714.92 1333.91C3715.64 1335.24 3716.43 1336.6 3717.13 1338C3734.5 1372.46 3754.73 1405.15 3778.04 1435.9C3788.85 1450.17 3800.83 1463.36 3814.73 1474.72C3822.89 1481.39 3831.6 1487.22 3840.95 1492.1C3870.39 1507.49 3900 1522.54 3930.4 1535.97C3931.06 1536.26 3931.69 1536.59 3932.41 1537.25C3927.76 1537.31 3924.83 1540.25 3921.76 1542.97C3903.49 1559.18 3892.49 1579.63 3886.7 1603.12C3883.35 1616.7 3881.57 1630.51 3880.88 1644.44C3880 1662.51 3879.38 1680.59 3878.75 1698.67C3878.08 1718.03 3875.13 1737.1 3871.08 1755.99C3860.97 1803.19 3846.57 1849.03 3827.24 1893.27C3822.74 1903.56 3817.68 1913.62 3812.49 1923.58C3802.41 1942.88 3788.4 1959.12 3772.47 1973.79C3753.08 1991.67 3731.6 2006.75 3709.4 2020.87C3685.58 2036.02 3661.03 2049.94 3636.35 2063.62C3615.99 2074.9 3596.63 2087.62 3578.75 2102.55C3578.29 2102.94 3577.79 2103.27 3577 2103.85C3573.92 2098.93 3569.26 2095.48 3567.17 2089.85C3564.98 2083.94 3560.78 2079.24 3556.16 2074.94C3554.68 2073.56 3553.54 2071.8 3552.31 2070.17C3549.54 2066.46 3546.8 2062.74 3544.07 2059.01C3542.86 2057.35 3541.45 2055.78 3540.6 2053.95C3537.4 2047.05 3532.89 2041.25 3526.98 2036.47C3525.6 2035.34 3524.34 2033.93 3523.42 2032.4C3519.84 2026.44 3515.25 2021.48 3509.57 2017.46C3508.21 2016.49 3506.93 2015.27 3505.99 2013.9C3502 2008.05 3497.04 2003.28 3491.01 1999.56C3489.7 1998.76 3488.49 1997.63 3487.56 1996.4C3483.71 1991.39 3479.14 1987.26 3473.73 1983.99C3472.31 1983.14 3471 1981.93 3469.96 1980.64C3466.72 1976.6 3463 1973.13 3458.76 1970.16C3457.2 1969.06 3455.76 1967.66 3454.63 1966.14C3451.54 1961.98 3448.15 1958.1 3443.78 1955.32C3440.54 1953.27 3438.58 1950.33 3436.29 1946.87C3438.37 1946.87 3440.06 1946.87 3442.62 1946.87C3439.9 1944.17 3437.98 1941.79 3435.62 1939.99C3435.02 1939.54 3434.48 1939.06 3434 1938.57V1928.81L3435.54 1929.22C3436.41 1925.8 3435.79 1922.38 3434 1919.39V1832.56C3435.75 1834.62 3437.49 1836.69 3439.23 1838.76C3440.38 1840.14 3441.42 1841.66 3442.28 1843.24C3443.37 1845.23 3444.22 1847.35 3445.37 1849.85C3447.61 1847.4 3449.43 1845.4 3451.46 1843.17C3449.08 1842.07 3447.25 1841.09 3445.31 1840.38C3443.19 1839.6 3442.01 1838.25 3441.28 1836.08C3439.35 1830.34 3437.33 1824.64 3434 1819.5V1791.25C3435.33 1792.89 3436.85 1794.43 3438.57 1795.52C3441.07 1797.09 3442.43 1799.11 3443.21 1801.79C3443.81 1803.87 3444.53 1805.91 3445.17 1807.84C3454.27 1807.83 3459.24 1812.25 3459.03 1820.03C3461.06 1820.96 3463.17 1821.89 3465.27 1822.86C3466.41 1823.39 3467.4 1824.01 3467.31 1825.55C3467.2 1827.56 3468.41 1828.53 3470.25 1828.48C3473.11 1828.41 3475.03 1830.13 3476.99 1831.74C3478.39 1832.89 3479.06 1834.44 3478.68 1836.31C3478.54 1836.99 3478.46 1837.68 3478.34 1838.5C3478.83 1838.36 3479.09 1838.36 3479.23 1838.23C3482.33 1835.32 3482.56 1830.12 3478.7 1827.35C3474.84 1824.59 3473.86 1821.38 3474.14 1817.17C3474.15 1817 3473.87 1816.81 3473.72 1816.63C3468.98 1817.16 3468.63 1816.91 3467.38 1811.84C3466.65 1812.38 3466 1812.87 3465.33 1813.34C3464.65 1813.82 3463.96 1814.28 3463.35 1814.7C3459.46 1812.54 3459.01 1811.18 3461.15 1807.68C3462.68 1805.19 3464.23 1802.72 3466.98 1801.23C3467.71 1800.83 3468.52 1799.32 3468.29 1798.68C3468.01 1797.93 3466.72 1797.34 3465.76 1797.08C3464.73 1796.81 3463.57 1797.1 3462.48 1796.99C3459.61 1796.69 3458.84 1795.56 3459.54 1792.82C3459.67 1792.35 3459.82 1791.88 3460.03 1791.44C3460.94 1789.58 3460.49 1788.01 3459.36 1786.34C3456.9 1782.69 3454.62 1778.93 3452.26 1775.22C3451.36 1773.82 3450.44 1772.43 3449.55 1771.06C3447.54 1772.1 3445.99 1773.1 3444.3 1773.75C3441.89 1774.67 3439.47 1773.55 3438.81 1771.07C3437.26 1765.19 3435.91 1759.25 3434.46 1753.27C3436.15 1751.94 3437.62 1750.79 3439.3 1749.46C3439.99 1751.06 3440.48 1752.17 3440.95 1753.29C3442.16 1756.22 3443.32 1759.18 3444.6 1762.08C3444.87 1762.68 3445.57 1763.09 3446.06 1763.58C3446.34 1763.47 3446.62 1763.36 3446.89 1763.25C3446.89 1759.43 3446.89 1755.61 3446.89 1751.73C3449.37 1751.46 3451.35 1751.25 3453.23 1751.05C3454.34 1756.33 3451.23 1760.04 3449.44 1764.9C3451.5 1763.28 3452.89 1762.19 3454.52 1760.91C3455 1764.69 3458.66 1763.3 3460.36 1765.43C3460.26 1766.68 3460.13 1768.17 3460.02 1769.48C3458.72 1768.87 3457.73 1768.4 3456.73 1767.96L3456.7 1767.9ZM3512.77 919.11C3515.58 920.926 3518.17 922.488 3520.6 924.257C3521.27 924.739 3521.89 925.917 3521.76 926.643C3521.67 927.182 3520.38 927.69 3519.55 927.887C3518.14 928.221 3516.68 928.425 3515.23 928.46C3512.86 928.517 3511.64 927.393 3511.28 925.084C3511.01 923.35 3511.34 921.873 3512.77 919.11ZM3437.98 920.545C3443.15 922.971 3447.74 925.125 3453.06 927.619C3449.55 929.362 3446.59 930.826 3443.29 932.469C3441.42 929.469 3439.56 926.663 3437.95 923.724C3437.55 923.009 3437.94 921.861 3437.98 920.545ZM3491.66 918.179C3492.27 916.951 3492.78 915.869 3493.35 914.824C3495.68 910.555 3496.33 910.328 3500.72 912.632C3502.42 913.522 3503.98 914.674 3505.88 915.883C3504.83 918.037 3503.9 919.959 3502.81 922.211C3501.69 921.598 3500.76 921.129 3499.87 920.593C3497.85 919.37 3496.01 917.544 3493.29 918.985C3493 919.137 3492.31 918.519 3491.66 918.179ZM3443.85 897.322C3446 897.49 3447.67 897.622 3449.92 897.799C3448.6 894.477 3447.43 891.544 3446.24 888.557C3446.95 888.291 3447.44 887.964 3447.58 888.075C3452.58 892.044 3457.55 896.054 3462.57 900.099C3457.49 904.951 3448.86 903.64 3443.85 897.322ZM3567.49 949.945C3566.77 951.058 3566.22 951.855 3565.72 952.685C3564.91 954.026 3563.77 954.415 3562.29 954.055C3558.26 953.079 3554.14 952.399 3550.24 951.044C3548.44 950.416 3546.73 948.732 3545.62 947.092C3544.08 944.818 3543.15 942.133 3542.45 939.093C3546.41 941.237 3550.26 943.658 3554.37 945.451C3558.46 947.231 3562.83 948.38 3567.49 949.945ZM3777.61 1599.51C3780.49 1597.6 3779.05 1595.5 3778.86 1593.72C3775.11 1593.88 3773.17 1590.94 3769.95 1589.15C3769.86 1590.37 3769.43 1591.53 3769.81 1591.92C3772.32 1594.55 3774.99 1597 3777.61 1599.51ZM3620.75 936.927C3617.1 930.564 3614.9 929.513 3609.91 932.282C3614.51 933.022 3614.67 937.034 3616.67 940.032C3618.21 938.861 3619.41 937.941 3620.75 936.927ZM3453.57 1515.41C3455.26 1518.3 3456.7 1520.76 3458.19 1523.31C3459.15 1522.95 3459.86 1522.79 3460.47 1522.44C3463.29 1520.82 3463.53 1518.94 3461.25 1516.67C3459.21 1514.64 3456.81 1514.63 3453.57 1515.41ZM3714.84 1857.05C3711.37 1859.64 3708.29 1861.93 3704.76 1864.57C3706.95 1865.77 3708.61 1866.68 3710.62 1867.78C3712.47 1864.68 3714.23 1861.81 3715.87 1858.87C3716.01 1858.61 3715.34 1857.9 3714.84 1857.05ZM3552.56 1528.37C3550.58 1523.43 3549.02 1519.53 3547.39 1515.49C3543.55 1519.28 3543.43 1521.65 3546.61 1524.98C3547.53 1525.95 3548.37 1527.02 3549.44 1527.8C3550.01 1528.22 3550.97 1528.11 3552.56 1528.37ZM3606.92 1071.01C3606.67 1071.06 3606.42 1071.1 3606.17 1071.15C3605.85 1073.27 3605.29 1075.07 3603.15 1076.24C3601.38 1077.21 3601.41 1078.26 3602.66 1079.84C3603.31 1080.66 3604.16 1081.32 3605 1082.13C3607.7 1080.44 3610.21 1078.87 3613.22 1076.99C3611.55 1076.78 3610.62 1076.67 3609.79 1076.56C3608.77 1074.59 3607.84 1072.8 3606.92 1071.01ZM3509.6 1716.46C3506.57 1716.27 3504.39 1716.9 3502.34 1718.03C3500.35 1719.12 3499.42 1720.9 3499.41 1723.17C3499.39 1725.46 3501.34 1725.68 3503.06 1726.66C3505.18 1723.36 3507.25 1720.12 3509.6 1716.46ZM3708.31 1599.53C3706.47 1599.11 3705.3 1599.25 3705.06 1600.87C3704.48 1604.69 3703.99 1608.52 3703.4 1612.78C3704.78 1612.17 3705.73 1611.68 3706.72 1611.33C3708.9 1610.54 3709.67 1609.05 3709.3 1606.8C3708.91 1604.42 3708.64 1602.02 3708.31 1599.53ZM3531.64 1248.99C3528.68 1253.28 3526.07 1257.1 3523.41 1260.89C3522.34 1262.41 3522.78 1263.27 3524.26 1263.86C3529.63 1260.5 3533.92 1256.76 3531.64 1248.99ZM3558.97 1495.5C3561.62 1494.53 3563.82 1493.8 3565.95 1492.93C3568.02 1492.09 3570.37 1491.8 3572.23 1490C3571.71 1489.33 3571.28 1488.33 3570.88 1488.34C3568.12 1488.39 3565.37 1488.7 3563.05 1490.52C3561.04 1489.79 3559.05 1489.07 3556.34 1488.08C3557.34 1490.89 3558.09 1493 3558.97 1495.5ZM3562.37 1508.95C3558.44 1509.69 3554.6 1509.73 3550.96 1511.43C3551.97 1512.22 3552.99 1512.81 3554.05 1512.91C3557.77 1513.23 3558.12 1513.6 3557.69 1517.43C3557.62 1518.12 3557.62 1518.82 3557.58 1519.5C3561.85 1519.98 3562.84 1519.19 3562.73 1515.54C3562.66 1513.48 3562.51 1511.43 3562.37 1508.95ZM3735.32 1656.02C3732.91 1647.04 3727.65 1640.69 3720.11 1636.05C3720.02 1636.71 3720.1 1637.31 3720.43 1637.67C3724.25 1641.82 3727.35 1646.4 3729.42 1651.7C3730.33 1654.06 3732.25 1655.61 3735.32 1656.02ZM3764.71 1506.35C3765.34 1507.07 3765.94 1507.81 3766.62 1508.48C3769.04 1510.9 3769.35 1511.02 3772.27 1509.36C3775.13 1507.73 3777.92 1505.97 3780.63 1504.12C3783.78 1501.96 3783.79 1501.68 3782.49 1496.88C3780.58 1498.68 3778.83 1500.28 3777.14 1501.93C3773.76 1505.24 3770.12 1507.69 3764.71 1506.35ZM3771.09 1655.87C3771.3 1655.74 3771.51 1655.61 3771.72 1655.47C3770.44 1651.07 3769.16 1646.66 3767.8 1641.97C3764.51 1643.55 3761.76 1644.87 3758.5 1646.44C3763.03 1649.83 3767.06 1652.85 3771.09 1655.87ZM3577.84 1537.15C3578.05 1537.41 3578.25 1537.66 3578.47 1537.92C3585.4 1535.49 3592.34 1533.06 3599.28 1530.63C3596.61 1529.28 3593.94 1528.55 3591.24 1528C3590.63 1527.88 3589.8 1528.23 3589.23 1528.61C3585.65 1530.94 3582.11 1533.33 3578.59 1535.76C3578.2 1536.03 3578.08 1536.68 3577.84 1537.15ZM3593 1668.45C3584.9 1665.79 3576.35 1668.94 3573.95 1675.41C3576.43 1674.45 3578.74 1673.55 3581.02 1672.67C3581.71 1674.01 3582.23 1675.03 3582.85 1676.24C3586.33 1673.57 3589.57 1671.09 3593 1668.45ZM3835.99 1606.7C3835.57 1605.76 3835.39 1605.2 3835.09 1604.7C3833.48 1601.97 3831.91 1599.22 3830.18 1596.57C3829.39 1595.36 3828.36 1594.25 3827.24 1593.35C3825.41 1591.89 3823.67 1592.05 3822.02 1593.72C3821.23 1594.53 3820.67 1595.55 3819.81 1596.76C3823.08 1597.71 3825.85 1598.51 3828.82 1599.37C3828.82 1601.82 3828.82 1604.08 3828.82 1606.7C3831.23 1606.7 3833.35 1606.7 3835.99 1606.7ZM3507.33 1439.92C3511.38 1438.63 3515.13 1437.44 3519.6 1436.02C3514.31 1432.67 3509.72 1429.77 3505.13 1426.86C3504.91 1427 3504.7 1427.14 3504.48 1427.29C3505.41 1431.38 3506.33 1435.48 3507.33 1439.92ZM3683.51 1895.8C3684.4 1895.29 3685.37 1895.06 3685.74 1894.46C3687.95 1890.95 3690.04 1887.35 3692.13 1883.76C3692.79 1882.61 3692.22 1882 3691 1881.62C3689.86 1883.08 3688.77 1884.47 3687.51 1886.06C3686.12 1884.02 3684.92 1882.26 3683.73 1880.5C3678.86 1883.89 3678.73 1890.44 3683.27 1899.33C3683.36 1898.03 3683.43 1897 3683.51 1895.8ZM3438.28 1431.31C3437.62 1435.83 3437.81 1451.56 3438.55 1454.01C3442.25 1450.49 3445.06 1445.42 3445.66 1441.17C3446.37 1436.21 3443.42 1432.27 3438.28 1431.31ZM3455.02 1510.39C3459.43 1509.67 3462.67 1511.48 3465.79 1513.82C3467.26 1514.92 3468.75 1516.01 3470.37 1516.84C3473.01 1518.19 3475.68 1518.1 3478.79 1516.18C3472.95 1511.18 3467.44 1506.46 3461.62 1501.47C3459.33 1504.57 3457.17 1507.48 3455.02 1510.39ZM3533.3 1504.73C3534.98 1505.1 3535.71 1505.44 3536.43 1505.4C3539.46 1505.21 3542.49 1504.89 3545.52 1504.69C3546.36 1504.63 3547.22 1504.82 3548.25 1504.91C3547.2 1507.79 3543.7 1507.89 3543.08 1511.11C3545.61 1510.99 3547.84 1510.89 3550.11 1510.79C3551.33 1506.3 3552.45 1502.14 3553.63 1497.79C3550.92 1497.09 3548.7 1496.48 3546.45 1495.98C3545.92 1495.86 3545.17 1495.91 3544.75 1496.21C3541.15 1498.82 3537.61 1501.51 3533.3 1504.73ZM3659.94 1827.57C3659.61 1827.53 3659.28 1827.49 3658.95 1827.46C3657.46 1829.05 3655.88 1830.55 3654.55 1832.26C3653.94 1833.03 3653.44 1834.24 3653.58 1835.15C3654.44 1840.89 3655.5 1846.6 3656.56 1852.75C3658.46 1851.54 3660.12 1850.73 3661.44 1849.54C3662.22 1848.83 3663.01 1847.46 3662.88 1846.51C3662.04 1840.17 3660.95 1833.88 3659.94 1827.57ZM3731.25 1616.73C3734.16 1617.68 3736.73 1618.51 3739.74 1619.48C3738.7 1613.07 3735.99 1608.21 3731.76 1604.37C3728.06 1601.03 3723.94 1598.16 3720.01 1595.09C3718.3 1593.76 3716.91 1594.22 3715.46 1596C3716.46 1597.29 3717.25 1598.71 3718.41 1599.71C3720.43 1601.46 3722.63 1603.01 3724.85 1604.51C3729.02 1607.35 3732.06 1610.77 3731.25 1616.73ZM3752.79 1646.06C3750.63 1640.82 3748.57 1635.84 3746.35 1630.43C3749.95 1630.43 3752.91 1630.43 3756.19 1630.43C3754.47 1627.3 3752.22 1625.49 3749.09 1624.6C3748.68 1624.97 3748.31 1625.28 3747.98 1625.62C3744.27 1629.48 3742.74 1629.56 3738.79 1626.1C3738.24 1625.62 3737.72 1625.09 3737.15 1624.65C3736.05 1623.8 3735.08 1622.69 3733.22 1622.63C3733.49 1623.36 3733.61 1623.8 3733.82 1624.2C3737.12 1630.6 3740.44 1636.98 3743.75 1643.37C3745.64 1647.02 3747.6 1647.68 3752.79 1646.06ZM3655.87 1891.68C3657.97 1892.55 3659.86 1893.33 3662.05 1894.23C3662.77 1892.05 3663.3 1890.06 3664.07 1888.17C3664.79 1886.39 3664.65 1884.99 3663.33 1883.5C3662.12 1882.14 3661.22 1880.52 3660.26 1878.96C3659.02 1876.93 3658.8 1874.97 3660.34 1872.85C3662.21 1870.28 3662.89 1867.26 3662.22 1864.13C3661.39 1860.29 3659.45 1856.97 3656.59 1853.5C3656.23 1855.46 3655.74 1856.86 3655.75 1858.26C3655.76 1862.04 3656.01 1865.82 3656.11 1869.61C3656.22 1874.24 3656.3 1878.88 3656.31 1883.51C3656.31 1884.23 3655.88 1884.94 3655.48 1886.17C3654.6 1884.75 3654.04 1883.86 3653.48 1882.97C3653.24 1883.04 3653 1883.11 3652.75 1883.18C3652.95 1886.86 3653.15 1890.54 3653.36 1894.33C3651.69 1894.55 3650.33 1894.73 3648.47 1894.98C3650.16 1897.81 3651.62 1900.25 3653.43 1903.27C3655.85 1899.34 3654.36 1895.42 3655.87 1891.68ZM3738.4 1782.95C3737.65 1780.3 3738.69 1777.85 3737.14 1775.72C3736.35 1777.94 3735.67 1780.17 3735.66 1782.42C3735.64 1787.92 3735.87 1793.42 3733.58 1798.63C3733.29 1799.28 3733.3 1800.06 3733.19 1800.79C3732.27 1807.02 3735.81 1811.58 3742.09 1812.25C3745.52 1812.62 3747.82 1809.94 3746.94 1806.59C3746.6 1805.3 3746.24 1804 3745.83 1802.72C3743.98 1797.04 3741.78 1791.44 3741.38 1785.39C3741.25 1783.43 3739.83 1783.19 3738.4 1782.95ZM3792.92 1612.16C3800.14 1619.7 3806.86 1626.71 3813.77 1633.92C3816.06 1631.91 3818.12 1630.11 3820.17 1628.31C3823.35 1630.51 3826.22 1632.5 3828.92 1634.37C3831 1633.36 3831.4 1632.17 3830.84 1630.3C3829.93 1627.27 3828.27 1625.32 3825.18 1624.22C3814.99 1620.59 3804.46 1617.77 3795.15 1611.95C3794.68 1611.66 3793.78 1612.06 3792.92 1612.16ZM3791.43 1572.78C3791.57 1572.52 3791.71 1572.26 3791.84 1572C3789.5 1570.22 3787.15 1568.43 3784.16 1566.15C3788.09 1565.47 3791.13 1564.94 3794.12 1564.42C3794.59 1566.02 3794.92 1567.14 3795.3 1568.4C3799.9 1568.06 3804.26 1567.5 3808.63 1567.48C3813.84 1567.46 3816.22 1563.6 3819.96 1560.51C3817.7 1559.96 3816.18 1559.58 3814.7 1559.22C3811.08 1564.12 3806.86 1564.78 3797.64 1563.46C3800.9 1562.73 3803.33 1562.18 3806.63 1561.44C3799.75 1557.27 3793.56 1553.51 3787.44 1549.8C3783.09 1552.49 3779.68 1556.21 3774.46 1557.04C3774.04 1555.11 3773.65 1553.38 3773.22 1551.43C3771.6 1551.65 3770.14 1551.71 3768.76 1552.08C3768.05 1552.27 3767.24 1552.88 3766.89 1553.52C3764.24 1558.45 3761.7 1563.43 3758.92 1568.77C3763.99 1570.26 3768.73 1571.65 3773.49 1573.05C3773.89 1572.56 3774.13 1572.3 3774.34 1572.01C3776.73 1568.8 3777.74 1568.44 3781.45 1569.57C3782.62 1569.92 3783.74 1570.41 3784.9 1570.78C3787.07 1571.46 3789.25 1572.12 3791.43 1572.78ZM3766.71 1729.61C3770.21 1728.23 3772.24 1725.83 3773.33 1722.49C3774.21 1719.83 3775.02 1717.11 3776.29 1714.63C3777.34 1712.58 3777.76 1710.57 3777.72 1708.32C3777.61 1702.67 3778.13 1702.12 3784.08 1701.49C3780.29 1693.81 3776.55 1686.24 3772.7 1678.45C3772.15 1679.08 3771.84 1679.31 3771.7 1679.62C3770.22 1682.89 3770.9 1686.05 3772.21 1689.19C3773.09 1691.29 3773.93 1693.4 3775.04 1696.12C3770.84 1695.71 3767.31 1695.37 3763.71 1695.02C3765.98 1685.94 3762.88 1678.74 3755.35 1675.53C3755 1678.26 3754.57 1680.88 3754.34 1683.52C3753.6 1692.07 3753.32 1700.6 3755.48 1709.01C3757.49 1716.84 3761.21 1723.72 3766.71 1729.61ZM3805.78 1673.99C3807.03 1670.23 3809.46 1667.55 3811.76 1664.69C3818.9 1655.77 3817.66 1642.53 3809.16 1634.91C3804.64 1630.85 3799.44 1627.98 3793.54 1626.5C3789.57 1625.51 3785.54 1624.9 3781.39 1625.75C3782.6 1633.19 3785.03 1639.85 3789.45 1645.75C3792.01 1649.16 3794.42 1652.69 3796.75 1656.26C3797.73 1657.77 3798.85 1659.48 3799 1661.18C3799.46 1666.41 3802.95 1669.91 3805.78 1673.99ZM3660.78 1803.78C3669.42 1798.13 3673.02 1793.38 3675.63 1784.34C3674.56 1783.7 3673.45 1783.03 3671.95 1782.12C3675.11 1780.37 3677.91 1778.71 3680.8 1777.24C3682.53 1776.36 3683.63 1775.14 3684.38 1773.34C3687.17 1766.65 3689.17 1759.75 3690 1752.55C3690.42 1748.92 3690.69 1745.24 3689.51 1741.54C3687.96 1745.08 3686.41 1748.62 3684.74 1752.43C3679.35 1741.83 3679.74 1731.23 3683.01 1720.55C3678.97 1719.66 3677.06 1720.43 3675.56 1723.65C3674.63 1725.63 3674.1 1727.8 3673.22 1729.81C3672.42 1731.64 3671.59 1733.59 3668.85 1733.96C3669.53 1727.59 3670.17 1721.44 3670.87 1714.82C3667.78 1716.36 3664.66 1716.62 3663.09 1719.83C3661.71 1722.67 3660.14 1725.48 3658.2 1727.95C3651.61 1736.35 3649.22 1745.91 3649.75 1756.39C3649.87 1758.58 3650.09 1760.78 3650.05 1762.97C3649.99 1766.14 3650.3 1769.46 3649.45 1772.43C3648.15 1776.96 3647.4 1781.2 3648.88 1785.89C3649.84 1788.92 3648.19 1791.29 3645.3 1792.73C3644.34 1793.21 3643.33 1793.58 3642 1794.16C3642.59 1794.98 3643.01 1796.11 3643.5 1796.15C3646.45 1796.35 3649.41 1796.33 3652.37 1796.31C3652.81 1796.31 3653.25 1795.9 3653.69 1795.72C3654.35 1795.45 3655.02 1795.2 3655.88 1794.87C3657.52 1797.85 3659.09 1800.7 3660.78 1803.78ZM3708.94 1735.04C3708.46 1736.72 3708.1 1737.72 3707.89 1738.74C3703.59 1759.17 3698.72 1779.47 3693.49 1799.68C3691.14 1808.77 3688.3 1817.78 3687.58 1827.22C3687.19 1832.31 3685.93 1837.04 3683.36 1841.47C3682.33 1843.24 3681.64 1845.26 3681.08 1847.24C3679.46 1853.03 3680.15 1858.54 3683.39 1863.83C3685.45 1863.13 3687.34 1862.48 3689.43 1861.77C3689.53 1866.9 3686.01 1871.56 3689.27 1876.8C3690.91 1875.98 3692.63 1875.36 3694.04 1874.33C3695.95 1872.93 3695.97 1871.49 3694.36 1869.69C3693.34 1868.55 3692.2 1867.52 3690.75 1866.1C3693.18 1865.68 3695.05 1865.35 3696.99 1865.02C3696.07 1862.87 3694.92 1860.96 3694.46 1858.89C3694.01 1856.84 3695.68 1855.4 3698.83 1854.51C3698.83 1856.17 3698.83 1857.8 3698.83 1859.43C3699.01 1859.49 3699.19 1859.56 3699.36 1859.62C3701.72 1855.32 3704.09 1851.01 3706.47 1846.66C3704.4 1845.54 3701.5 1848.86 3700.36 1844.86C3702.78 1842.19 3705.25 1839.5 3707.67 1836.76C3710.11 1833.99 3712.81 1831.42 3715.26 1828.12C3711.96 1827.82 3709.27 1827.57 3706.79 1827.34C3708.92 1821.95 3711.19 1817.07 3712.79 1811.98C3715.14 1804.47 3715.93 1796.66 3715.84 1788.81C3715.75 1780.02 3715.42 1771.22 3715.22 1762.43C3715.17 1760.65 3715.21 1758.87 3715.21 1756.89C3718.28 1757.36 3720.84 1757.76 3723.76 1758.22C3722.79 1752.51 3721.93 1747.38 3721.03 1742.06C3718.39 1742.29 3716.13 1742.48 3713.93 1742.66C3712.29 1740.16 3710.78 1737.85 3708.94 1735.04ZM3697.71 1656.88C3698.26 1659.9 3698.67 1662.02 3699.04 1664.13C3701.02 1675.52 3702.95 1686.92 3712.91 1694.83C3711.27 1697.45 3711.74 1700 3712.22 1702.69C3712.64 1705.05 3712.68 1707.57 3712.35 1709.95C3711.75 1714.3 3710.86 1718.61 3709.88 1722.89C3709.19 1725.9 3710.07 1728.37 3711.83 1731.11C3714.23 1730.02 3716.83 1729.34 3718.75 1727.82C3720.74 1726.24 3722.07 1723.84 3724.03 1721.36C3726.03 1730.37 3727.92 1738.88 3729.87 1747.71C3731.48 1746.7 3732.69 1745.95 3734.11 1745.06C3736.97 1749.35 3739.72 1753.49 3742.62 1757.83C3741.71 1758.14 3741.13 1758.27 3740.6 1758.52C3738.55 1759.51 3738.31 1760.19 3739.3 1762.24C3739.52 1762.68 3739.79 1763.08 3740.05 1763.5C3742.16 1766.8 3743.77 1770.12 3739.58 1773.64C3746.26 1773.86 3750.96 1771.39 3754.93 1766.39C3751.61 1764.61 3748.54 1762.96 3746.03 1761.62C3745.81 1759.51 3746.19 1757.55 3745.38 1756.65C3742.65 1753.59 3742.12 1750.23 3742.85 1746.42C3743.21 1744.56 3742.76 1743.05 3740.77 1742.15C3738.86 1742.86 3736.9 1743.6 3734.36 1744.55C3736.18 1740.46 3737.72 1737.14 3739.14 1733.77C3740.71 1730.06 3741.71 1729.69 3745.1 1731.77C3747.33 1733.14 3749.57 1734.5 3752.37 1736.21C3751.85 1732.7 3751.47 1729.94 3751.04 1727.2C3750.59 1724.33 3750.09 1721.47 3749.61 1718.63C3748.22 1718.34 3747.18 1718.12 3746 1717.87C3745.14 1719.7 3744.34 1721.39 3743.16 1723.87C3740.46 1715.01 3738.04 1706.96 3735.55 1698.93C3734.47 1695.43 3733.29 1691.97 3732.07 1688.52C3730.8 1684.98 3728.41 1682.53 3724.83 1681.24C3723.5 1680.76 3722.23 1680.12 3720.9 1679.54C3721.35 1678.59 3721.64 1677.98 3722.1 1677C3720.13 1677.47 3718.51 1677.86 3716.98 1678.23C3717.78 1675.96 3719.18 1673.98 3718.97 1672.2C3718.29 1666.39 3717.01 1660.65 3715.94 1654.9C3715.89 1654.63 3715.55 1654.41 3715.24 1654.04C3714.12 1655.01 3713.12 1655.88 3712.1 1656.75C3711.12 1657.58 3710.13 1658.41 3708.6 1659.69C3708.98 1657 3709.28 1655.09 3709.49 1653.17C3709.57 1652.48 3709.67 1651.64 3709.36 1651.08C3707.22 1647.11 3701.58 1646.82 3699 1650.53C3698.31 1651.51 3697.78 1652.61 3697.02 1653.93C3696.63 1653.03 3696.27 1652.41 3696.08 1651.74C3694.98 1647.86 3694.08 1643.92 3692.8 1640.11C3691.58 1636.5 3690.92 1633.09 3693.35 1629.7C3693.89 1628.94 3694.11 1627.9 3694.32 1626.95C3695.28 1622.85 3694.07 1619.35 3691.47 1616.23C3684.32 1619.58 3677.35 1626.29 3675.98 1631.04C3679.77 1630.45 3680.41 1630.54 3684 1632.25C3683.75 1634.39 3683.54 1636.68 3683.17 1638.93C3683.1 1639.34 3682.35 1639.95 3681.96 1639.92C3681.55 1639.88 3680.96 1639.25 3680.85 1638.78C3680.53 1637.41 3680.41 1635.99 3680.22 1634.6C3674.1 1635.51 3672.67 1637.52 3673.82 1643.06C3674.05 1644.14 3674.37 1645.2 3674.51 1646.29C3674.63 1647.24 3674.92 1648.4 3674.52 1649.15C3673.6 1650.91 3674.56 1651.88 3675.55 1653C3678.04 1655.83 3680.5 1658.69 3683.21 1661.83C3680.69 1663.12 3678.46 1664.26 3676.11 1665.46C3676.72 1667.49 3677.25 1669.21 3677.75 1670.84C3679.57 1668.76 3681.03 1666.44 3683.09 1664.92C3685.56 1663.08 3688.17 1664.98 3690.77 1666.02C3692.95 1663.15 3695.05 1660.38 3697.71 1656.88ZM3593.58 1314.26C3596.42 1311.49 3599.08 1309.45 3602.2 1307.94C3607.91 1305.17 3610.33 1300.46 3609.81 1294.18C3609.75 1293.45 3609.66 1292.72 3609.61 1291.99C3609.5 1290.3 3609.93 1288.79 3611.4 1287.82C3614.46 1285.8 3615 1282.86 3614.76 1279.48C3614.6 1277.18 3614.57 1274.84 3614.83 1272.56C3615.68 1265.31 3613.04 1262.55 3605.73 1263.28C3605.24 1263.33 3604.76 1263.4 3604.28 1263.51C3599.88 1264.52 3595.48 1265.53 3591.09 1266.58C3590.46 1266.73 3589.87 1267.08 3589.26 1267.34C3589.26 1267.59 3589.27 1267.84 3589.27 1268.08C3590.37 1268.35 3591.47 1268.65 3592.58 1268.89C3593.79 1269.16 3595.45 1268.77 3595.38 1271.2C3593.75 1271.05 3592.19 1270.89 3590.64 1270.77C3579.59 1269.93 3570.72 1273.61 3564.86 1283.34C3564.14 1284.54 3563.62 1286.02 3563.55 1287.4C3563.4 1290.61 3561.73 1292.61 3559.04 1293.97C3556.57 1295.22 3553.92 1295.42 3551.2 1295.38C3545.34 1295.3 3539.47 1295.31 3533.61 1295.31C3532.67 1295.31 3531.74 1295.48 3530.64 1295.58C3530.53 1297.79 3530.43 1299.79 3530.32 1301.99C3527.62 1301.32 3525.16 1301.79 3522.63 1300.27C3524.27 1299.34 3525.53 1298.63 3527.48 1297.53C3523.42 1297.48 3520.07 1299.6 3516.78 1297.18C3517.66 1296.1 3518.81 1295.28 3519.12 1294.21C3520.45 1289.69 3523.8 1289.2 3527.69 1289.47C3528.66 1289.54 3529.64 1289.44 3530.62 1289.38C3535.47 1289.09 3540.33 1288.79 3545.55 1288.48C3545.55 1287.23 3545.86 1286.07 3545.48 1285.21C3544.72 1283.45 3540.85 1282.01 3538.85 1282.31C3537.18 1282.55 3535.37 1282.99 3533.82 1282.58C3530.37 1281.68 3527.05 1280.31 3523.67 1279.13C3523.67 1278.86 3523.67 1278.58 3523.67 1278.31C3526.55 1277.39 3529.43 1276.48 3532.3 1275.56C3535.78 1274.45 3539.35 1273.55 3542.72 1272.16C3547.01 1270.4 3549.74 1266.98 3551.29 1262.64C3551.54 1261.94 3551.48 1261.13 3551.6 1260.06C3544.36 1262.47 3537.56 1264.84 3530.7 1267C3526.87 1268.21 3522.98 1269.29 3519.04 1270.05C3515.07 1270.82 3511.54 1269.54 3508.73 1266.56C3505.59 1263.22 3503.45 1259.22 3501.79 1255.01C3500.63 1252.04 3501.63 1250.41 3504.77 1249.6C3506.21 1249.22 3507.7 1249.03 3509.17 1248.76C3502.96 1245.18 3497.21 1247.04 3491.29 1250.28C3491.29 1248.05 3491.29 1246.4 3491.29 1244.25C3486.28 1244.25 3481.5 1244.25 3476.71 1244.25C3476.62 1243.96 3476.52 1243.66 3476.43 1243.37C3477.56 1242.58 3478.59 1241.55 3479.83 1241.03C3484.68 1239.01 3489.56 1237.09 3494.48 1235.25C3499.58 1233.35 3504.86 1232.85 3510.32 1233.01C3514.67 1233.14 3519.23 1233.05 3523.36 1231.86C3531.56 1229.51 3539.6 1226.57 3547.53 1223.42C3551.67 1221.78 3555.35 1220.62 3558.89 1224.52C3561.15 1222.45 3563.19 1220.58 3565.46 1218.49C3560.81 1212.89 3556.33 1207.51 3551.75 1202C3551.07 1202.74 3550.74 1203.09 3550.44 1203.46C3545.74 1209.09 3542.64 1209.79 3536.06 1206.77C3534.74 1206.17 3533.31 1205.79 3531.96 1205.24C3530.47 1204.64 3529.01 1203.97 3527.42 1203.28C3527.35 1203.45 3527.03 1204 3526.96 1204.58C3526.41 1208.97 3523.7 1211.15 3519.63 1212.18C3517.39 1212.75 3515.14 1213.46 3513.06 1214.45C3501.71 1219.86 3490.39 1225.33 3479.11 1230.88C3476.1 1232.36 3473.75 1234.69 3472.18 1237.73C3470.68 1240.66 3469.06 1243.54 3467.66 1246.52C3464.36 1253.56 3462.2 1260.91 3462.26 1268.77C3462.29 1272.12 3463.22 1274.98 3466.45 1276.73C3470.41 1278.88 3473.16 1282.28 3475.82 1285.85C3479.16 1290.35 3482.84 1294.61 3486.27 1299.05C3487.45 1300.56 3488.84 1302.22 3489.16 1303.99C3489.43 1305.55 3488.34 1307.35 3487.8 1309.22C3488.87 1310.1 3490.12 1311.13 3491.67 1312.41C3488.47 1313.61 3485.78 1314.62 3482.8 1315.73C3484.43 1318.24 3485.86 1320.44 3487.45 1322.88C3486.72 1323.47 3486.09 1323.87 3485.59 1324.39C3482.81 1327.33 3482.99 1328.83 3486.44 1331.04C3487.85 1331.95 3489.35 1332.72 3491.27 1333.81C3489.82 1334.9 3488.67 1335.76 3487.59 1336.57C3489.16 1340.73 3490.66 1344.46 3491.97 1348.25C3496.04 1360.01 3502.38 1370.28 3511.45 1378.87C3513.65 1380.95 3515.69 1383.31 3517.33 1385.86C3518.82 1388.17 3520.2 1390.81 3520.67 1393.48C3521.43 1397.8 3522.09 1401.91 3526.51 1404.13C3522.76 1406.14 3525.05 1409.21 3524.95 1411.41C3524.69 1417.5 3530.71 1415.92 3534.2 1417.69C3533.94 1418.95 3533.71 1420.06 3533.44 1421.34C3535.62 1421.89 3537.6 1422.61 3539.63 1422.86C3542.01 1423.15 3543.24 1424.42 3544.18 1426.49C3545.88 1430.24 3547.79 1433.9 3549.63 1437.63C3552.06 1437.15 3554.18 1436.73 3556.51 1436.27C3556.6 1437.7 3556.62 1438.91 3556.75 1440.1C3557.11 1443.43 3558.64 1444.95 3561.94 1445.03C3564.01 1445.09 3566.09 1444.78 3568.16 1444.78C3569.67 1444.78 3571.18 1445.01 3572.9 1445.16C3572.39 1447.24 3572 1448.85 3571.5 1450.88C3574.72 1450.2 3576.25 1448.27 3577.36 1445.94C3579.2 1442.09 3579.45 1437.96 3579.38 1433.76C3579.34 1431.63 3578.51 1430.37 3576.42 1429.77C3575.14 1429.4 3573.9 1428.8 3572.76 1428.11C3569.31 1426.03 3568.91 1423.38 3571.48 1419.94C3574.9 1420.82 3576.11 1423.87 3577.7 1426.66C3579.14 1425.85 3580.38 1425.15 3581.82 1424.33C3580.2 1420.41 3578.67 1416.71 3577.07 1412.86C3575.13 1414.01 3573.41 1415.03 3571.24 1416.32C3571.39 1413.6 3571.51 1411.47 3571.64 1409.19C3573.5 1409.3 3574.92 1409.39 3577.02 1409.51C3571.13 1404.54 3566.38 1407.43 3561.5 1410.59C3560.79 1406.83 3560.14 1403.42 3559.44 1399.74C3556.19 1400.84 3553.25 1401.84 3550.03 1402.94C3552.97 1396.25 3551.99 1389.73 3551.83 1383.18C3551.66 1376.13 3547.81 1370.87 3544.2 1365.51C3546.79 1363.46 3547.39 1363.33 3549.19 1364.85C3550.55 1366.01 3551.68 1367.44 3553.18 1369.02C3554.51 1367.26 3555.73 1365.65 3557.16 1363.76C3551.94 1361.05 3546.42 1359.63 3541 1356.71C3545.6 1354.84 3549.53 1353.23 3554.08 1351.38C3550.79 1349.94 3548.06 1348.74 3545.32 1347.54C3548.39 1341.38 3551.52 1340.28 3557.28 1343.09C3558.71 1343.78 3560.08 1344.59 3561.5 1345.3C3562.3 1345.7 3563.15 1346 3563.97 1346.35C3560.75 1343.37 3562.11 1339.83 3562.1 1336.29C3563.34 1335.79 3564.53 1335.3 3565.92 1334.74C3566.27 1335.99 3566.52 1336.89 3566.77 1337.78C3572.13 1336.95 3573.29 1336.28 3573.32 1333.79C3572.36 1334.47 3571.53 1335.07 3570.47 1335.83C3569.8 1334.04 3568.89 1332.67 3568.99 1330.79C3572.28 1331.18 3575.27 1331.55 3578.44 1331.93C3578.61 1330.86 3578.75 1330.04 3578.87 1329.22C3579.53 1324.78 3580.26 1324.21 3584.58 1324.83C3585.19 1324.92 3585.77 1325.14 3586.38 1325.19C3589.88 1325.51 3593.38 1325.8 3597.19 1326.13C3596.74 1323.94 3595.73 1321.99 3596.19 1320.5C3596.69 1318.91 3598.58 1317.76 3600.03 1316.25C3597.98 1315.62 3596.04 1315.02 3593.58 1314.26Z" fill="#BAA989"/>
</g>
<g opacity="0.7">
<path d="M3434.04 1527.87C3432.04 1529.78 3429.58 1530.09 3425.78 1529.06C3428.38 1526.89 3430.75 1524.92 3433.22 1522.86C3432.11 1521.48 3431.21 1520.35 3430.08 1518.95L3434.04 1515.94V1527.87ZM3429.79 1494.73C3426.22 1497.73 3422.99 1500.45 3419.55 1503.34C3415.69 1500.98 3411.88 1498.64 3408.02 1496.28C3415.37 1489.17 3427.1 1487.52 3434.04 1492.23V1498.94C3432.92 1501.2 3431.71 1503.43 3430.24 1505.58C3429.16 1502.11 3430.46 1498.68 3429.79 1494.73ZM3418.99 1731.7C3417.09 1723.69 3420.05 1717.85 3427.11 1715.49C3424.5 1721.02 3421.87 1725.95 3418.99 1731.7ZM3403.74 1746.81C3405.08 1749.42 3404.76 1751.39 3404.61 1753.2C3404.4 1755.77 3405.34 1757.24 3407.68 1758.24C3409.89 1759.19 3411.95 1760.51 3414.53 1761.91C3411.61 1764.22 3409 1766.29 3406.13 1768.55C3404.02 1764.51 3402.11 1760.86 3400.22 1757.21C3400.05 1756.89 3399.82 1756.5 3399.88 1756.19C3400.44 1753.02 3401.84 1750.23 3403.74 1746.81ZM3434.04 1688.7C3433.48 1688.84 3432.85 1688.99 3432.11 1689.18C3432.75 1687.62 3433.1 1686.76 3433.46 1685.89C3434.48 1683.38 3434.19 1682.83 3431.62 1681.81C3430.54 1681.39 3429.18 1680.95 3428.6 1680.08C3427.08 1677.79 3426 1675.23 3425.59 1672.41C3427.22 1671.91 3428.65 1671.47 3430.58 1670.87C3427.04 1668.25 3423.95 1665.96 3420.8 1663.63C3421.8 1661.84 3422.61 1660.4 3423.54 1658.74C3420.72 1657.12 3418.14 1655.64 3415.45 1654.1C3414.86 1655.06 3414.45 1655.66 3414.1 1656.29C3409.72 1664.12 3402.82 1667.1 3394.15 1666.46C3386.85 1665.92 3386.85 1665.86 3383.88 1659.04C3381.74 1654.13 3379.59 1649.22 3377.42 1644.26C3376.45 1644.37 3375.7 1644.33 3375.04 1644.55C3370.64 1646.04 3366.34 1645.37 3362.12 1643.89C3354.56 1641.23 3347.75 1642.67 3341.29 1647.55C3337.8 1644.66 3334.27 1641.74 3330.74 1638.81C3330.59 1640.02 3330.96 1640.87 3331.29 1641.72C3332.07 1643.77 3332.9 1645.8 3333.61 1647.88C3334.95 1651.8 3336.11 1655.78 3337.54 1659.67C3339.23 1664.25 3341.09 1668.77 3342.96 1673.29C3343.96 1675.71 3344.19 1678.19 3344.26 1680.79C3344.32 1683.19 3344.63 1685.68 3345.41 1687.92C3347.92 1695.07 3350.72 1702.1 3353.37 1709.2C3355.16 1714 3357.27 1718.73 3358.56 1723.67C3362.09 1737.23 3367.76 1749.66 3376.7 1760.49C3381 1765.68 3384.89 1771.12 3388.31 1776.94C3390.07 1779.96 3392.26 1782.92 3394.88 1785.2C3398.58 1788.42 3401.27 1792.21 3403.5 1796.46C3404.92 1799.16 3406.25 1801.94 3407.93 1804.46C3409.69 1807.09 3411.97 1809.23 3415.46 1809.05C3416.3 1810.69 3416.88 1812.52 3418.01 1813.88C3423.31 1820.26 3428.68 1826.58 3434.04 1832.91V1919.75C3431.62 1915.72 3427.06 1912.5 3421.12 1911.17C3422.43 1913.82 3423.55 1916.12 3424.7 1918.42C3425.88 1920.8 3427.08 1923.17 3428.24 1925.47C3426.69 1927.12 3425.7 1926.27 3424.76 1925.15C3422.8 1922.8 3420.82 1920.48 3418.89 1918.1C3403.11 1898.64 3407.19 1905.23 3394.98 1879.75C3394.35 1878.42 3393.85 1877.04 3393.23 1875.71C3391.69 1872.45 3390.53 1869.16 3391.8 1865.5C3391.94 1865.11 3391.78 1864.61 3391.72 1863.52C3390.27 1865.51 3389.16 1867.04 3388.1 1868.49C3386.37 1868.41 3385.41 1867.54 3386.11 1866.15C3388.28 1861.8 3386.26 1858.2 3384.53 1854.4C3381.69 1848.18 3379.11 1841.84 3376.28 1835.62C3374.84 1832.43 3374.7 1832.49 3370.41 1832.83C3370.61 1835.33 3370.65 1837.87 3371.05 1840.35C3371.38 1842.4 3370.84 1843.85 3369.27 1845.16C3367.29 1846.8 3365.46 1848.6 3363.58 1850.34C3360.51 1853.19 3359.92 1856.58 3361.56 1860.35C3362.63 1862.81 3363.85 1865.21 3364.97 1867.65C3365.63 1869.1 3365.6 1869.11 3364.36 1871.1C3360.82 1867.92 3357.32 1864.79 3353.66 1861.51C3352.39 1862.83 3351.29 1863.98 3350.01 1865.31C3349.06 1862.62 3348.92 1857.16 3349.54 1853.69C3349.65 1853.09 3349.85 1852.51 3349.95 1851.9C3350.74 1847.14 3349.1 1845.03 3344.24 1844.57C3343.51 1844.5 3342.78 1844.51 3342.05 1844.44C3337.87 1844.02 3335.83 1842.24 3335.36 1838.03C3335.01 1834.86 3333.81 1832.17 3331.95 1829.67C3329.98 1827.02 3328.14 1824.31 3327.68 1820.88C3327.54 1819.84 3326.87 1818.85 3326.38 1817.87C3323.67 1812.4 3320.93 1806.94 3318.22 1801.46C3317.9 1800.83 3317.69 1800.15 3317.25 1799.04C3322.99 1798.67 3328.41 1798.32 3334.27 1797.94C3333.64 1797.13 3333.22 1796.49 3332.7 1795.95C3330.6 1793.79 3329.18 1791.29 3328.68 1788.29C3327.79 1783.04 3329.46 1778.91 3334.05 1776.11C3333.98 1775.8 3334.02 1775.52 3333.89 1775.41C3329.15 1771.24 3328.66 1769.48 3330.57 1763.57C3330.72 1763.13 3330.72 1762.64 3330.8 1762.17C3330.79 1762.17 3330.9 1762.27 3330.9 1762.27C3327.85 1761.4 3324.81 1760.53 3321.77 1759.67C3322.45 1756.9 3323.5 1754.27 3323.64 1751.6C3323.77 1748.87 3323.01 1746.1 3322.56 1742.7C3325.17 1743.98 3327.4 1745.07 3329.92 1746.3C3331.12 1743.93 3330.91 1741.52 3331.12 1738.84C3327.52 1738.36 3324.13 1739.31 3320.36 1739.77C3320.36 1742.77 3320.36 1745.66 3320.36 1748.44C3316.33 1749.72 3315.3 1749.1 3314.96 1745.51C3314.86 1744.44 3314.79 1743.36 3314.68 1741.94C3312.32 1742.62 3310.24 1743.22 3307.5 1744C3309.11 1739.01 3310.58 1734.46 3312.16 1729.55C3310.16 1728.89 3308.36 1728.3 3306.48 1727.68C3305.78 1729.66 3305.19 1731.46 3304.44 1733.18C3304.35 1733.4 3303.35 1733.21 3302.42 1733.21C3301.32 1726.42 3300.24 1719.73 3299.16 1713.05C3300.71 1712.31 3301.98 1711.86 3303.1 1711.16C3305.07 1709.94 3305.3 1708.48 3304.01 1706.53C3303.8 1706.23 3303.55 1705.96 3303.31 1705.68C3301.09 1703.13 3298.88 1700.57 3296.4 1697.71C3292.4 1698.44 3287.91 1699.27 3283.4 1700.01C3283.14 1700.06 3282.76 1699.36 3282.14 1698.68C3283.91 1696.82 3285.63 1695.01 3287.09 1693.48C3285.99 1689.57 3285.19 1685.9 3283.92 1682.4C3282.43 1678.28 3280.71 1674.21 3278.74 1670.29C3276.68 1666.19 3275.19 1661.99 3274.84 1657.41C3274.13 1648.28 3273.08 1639.15 3272.88 1630.01C3272.71 1621.91 3274.56 1614.01 3277.63 1606.46C3277.8 1606.03 3278.14 1605.67 3278.37 1605.32C3280.42 1605.36 3280.18 1606.67 3280.07 1607.91C3279.85 1610.32 3279.64 1612.72 3279.39 1615.57C3283.26 1615.35 3283.45 1612.06 3285.28 1610.28C3284.06 1607.96 3282.89 1605.73 3281.51 1603.12C3284.26 1603.12 3286.69 1603.12 3289.31 1603.12C3284.99 1596.59 3278.59 1594.69 3272.81 1597.95C3271.39 1598.76 3270.33 1599.73 3269.78 1601.41C3268.79 1604.42 3267.58 1607.36 3266.35 1610.29C3264.25 1615.29 3261.51 1619.87 3257.65 1623.76C3256.85 1624.57 3256.29 1625.76 3255.96 1626.87C3254.76 1630.97 3253.71 1635.12 3252.58 1639.24C3252.4 1639.91 3252.13 1640.55 3251.68 1641.85C3247.22 1635.91 3243.19 1630.47 3241.68 1623.63C3241.11 1621.02 3241.63 1618.49 3243.43 1616.39C3244.36 1615.31 3244.69 1614.38 3244.67 1612.74C3244.64 1610.31 3246 1607.85 3246.81 1605.42C3247.11 1604.51 3247.5 1603.62 3247.89 1602.64C3249.89 1602.36 3251.79 1602.1 3254.05 1601.78C3254.05 1598.3 3254.2 1595.03 3254.01 1591.77C3253.81 1588.61 3252.06 1586.09 3250.12 1583.65C3248.54 1581.67 3246.87 1579.56 3246.04 1577.23C3243.96 1571.4 3241.07 1566.1 3237.2 1561.3C3236.67 1560.64 3236.25 1559.88 3235.57 1558.86C3237.43 1555.04 3239.25 1551.05 3241.28 1547.18C3243.26 1543.44 3246.4 1540.96 3250.5 1539.86C3254.5 1538.79 3258.54 1537.88 3262.31 1536.96C3261.4 1535.67 3260.06 1534.44 3259.55 1532.93C3257.45 1526.72 3254.18 1521.18 3250.34 1515.92C3248.53 1513.46 3246.91 1510.87 3245.23 1508.32C3240.98 1501.87 3239.89 1494.78 3241.04 1487.25C3241.5 1484.23 3242.02 1481.22 3242.29 1478.18C3242.49 1475.97 3243.34 1474.5 3245.54 1473.91C3245.98 1473.79 3246.35 1473.44 3246.79 1473.17C3246.62 1472.9 3246.54 1472.62 3246.42 1472.6C3240.8 1471.72 3238.06 1468.17 3236.96 1462.83C3236.35 1459.88 3235.28 1457.02 3234.28 1453.67C3235.87 1451.85 3237.76 1449.66 3239.71 1447.42C3238.68 1446.47 3237.85 1445.76 3237.07 1445C3233.44 1441.45 3233.26 1438.5 3236.93 1434.93C3239.54 1432.4 3241.3 1429.4 3242.98 1426.27C3243.72 1424.89 3243.73 1423.71 3243.33 1422.14C3242.08 1417.14 3241.76 1411.99 3242.79 1406.91C3243.11 1405.34 3244.24 1403.88 3245.19 1402.5C3246.01 1401.31 3247.21 1400.36 3248.05 1399.18C3249.49 1397.16 3249.95 1395.02 3248.04 1392.45C3247.47 1394.03 3247.02 1395.31 3246.47 1396.84C3244.98 1396.43 3243.64 1396.07 3242.19 1395.67C3242.45 1393.94 3242.65 1392.55 3242.86 1391.16C3242.67 1391.08 3242.49 1390.99 3242.3 1390.9C3241.46 1392.2 3240.61 1393.48 3239.79 1394.78C3237.53 1398.36 3236.17 1398.71 3232.11 1396.66C3231.86 1389.69 3231.61 1382.64 3231.34 1374.92C3230.08 1375.77 3229.36 1376.26 3228.63 1376.75C3226.15 1378.42 3224.59 1378.42 3222.4 1376.35C3220.73 1374.76 3219.3 1372.92 3217.49 1370.89C3218.85 1369.68 3220.44 1368.27 3222.5 1366.45C3223.11 1368.97 3223.6 1371.02 3224.17 1373.39C3225.92 1372.95 3227.5 1372.55 3229.08 1372.16C3227.27 1371.4 3226.14 1370.52 3225.79 1368.64C3225.45 1366.85 3224.58 1365.15 3224.35 1363.35C3224.16 1361.83 3224.33 1360.18 3224.74 1358.69C3225.35 1356.49 3226.46 1355.8 3228.8 1355.78C3230.11 1355.76 3231.43 1355.94 3232.88 1356.04C3233.58 1358.84 3234.16 1361.44 3234.9 1364C3236.24 1368.61 3237.28 1369.1 3241.75 1367.48C3242.43 1367.24 3243.12 1367.03 3244.3 1366.63C3244.5 1368.1 3244.76 1369.34 3244.8 1370.58C3244.83 1371.55 3244.5 1372.52 3244.47 1373.49C3244.38 1376.28 3245.13 1377.17 3247.93 1377.7C3248.62 1377.83 3249.33 1377.85 3250.23 1377.93C3249.95 1380.19 3249.71 1382.2 3249.42 1384.56C3251.11 1384.3 3252.49 1384.1 3254.4 1383.81C3253.37 1386.27 3252.47 1388.43 3251.45 1390.89C3253.19 1391.83 3254.87 1392.75 3257.04 1393.92C3255.26 1395.42 3253.66 1396.77 3251.63 1398.47C3253.26 1399.05 3254.49 1399.46 3255.7 1399.91C3257.18 1400.46 3258.74 1400.91 3260.12 1401.66C3262.33 1402.87 3262.72 1405.17 3261.22 1407.21C3261 1407.51 3260.74 1407.76 3260.51 1408.05C3257 1412.31 3256.76 1413.05 3257.1 1418.85C3253.29 1420.75 3249.28 1422.74 3245.29 1424.72C3246.4 1427.34 3246.64 1427.49 3248.5 1426.4C3250.45 1425.24 3252.36 1424.02 3254.22 1422.73C3257.43 1420.53 3262.06 1421.68 3263.3 1425.54C3264.45 1429.09 3265.41 1432.97 3265.21 1436.63C3264.97 1441.13 3266.7 1444.63 3268.54 1448.46C3273.43 1448.3 3277.18 1445.42 3281.42 1444.12C3284.02 1446.09 3284.1 1446.69 3282.12 1449.39C3279.74 1452.63 3277.47 1458.86 3277.22 1463.44C3280.68 1458.56 3283.25 1453.72 3287.72 1450.13C3287.49 1451.61 3287.18 1453.07 3287.03 1454.56C3286.75 1457.28 3287.32 1458.1 3289.93 1457.86C3292.36 1457.63 3294.1 1458.59 3295.95 1459.89C3298.83 1461.92 3301.86 1463.73 3305.04 1465.77C3305.3 1468.96 3305.71 1472.47 3305.84 1476C3305.94 1478.7 3306.81 1480.72 3309.36 1481.87C3309.78 1482.06 3310.1 1482.45 3310.68 1482.92C3309.04 1484.83 3307.49 1486.63 3305.72 1488.68C3310.45 1490.83 3314.86 1492.85 3319.64 1493.82C3323.01 1494.5 3325.94 1493.11 3327.48 1490.43C3332.41 1481.85 3332.48 1481.77 3340.59 1475.63C3338.09 1475.63 3336.06 1475.63 3333.52 1475.63C3334.68 1472.92 3335.63 1470.71 3336.72 1468.18C3336 1467.63 3335.23 1467.05 3334.27 1466.32C3336.23 1464.58 3338.01 1462.98 3340.02 1461.19C3339.04 1459.52 3338.15 1457.95 3337.22 1456.41C3334.37 1451.66 3336.55 1447.11 3342.15 1446.85C3344.62 1446.73 3346.23 1445.76 3347.89 1444.23C3351.18 1441.18 3354.57 1438.23 3358.08 1435.09C3359.26 1436.7 3360.23 1438.01 3361.45 1439.68C3362.12 1438.37 3362.61 1437.55 3362.97 1436.68C3364.68 1432.55 3367.78 1430.14 3372.19 1429.97C3375.11 1429.85 3376.8 1428.52 3378.37 1426.27C3381.49 1421.78 3384.82 1417.43 3388.29 1412.72C3389.15 1413.97 3389.81 1414.91 3390.49 1415.9C3392.36 1416.05 3393.24 1414.93 3393.82 1413.52C3394.28 1412.4 3394.54 1411.19 3394.88 1410.02C3395.59 1407.55 3396.59 1405.37 3399.92 1405.56C3399.87 1405.3 3399.82 1405.05 3399.78 1404.8C3397.54 1404.4 3395.3 1403.99 3393.07 1403.6C3391.14 1403.26 3389.17 1403.12 3387.31 1402.58C3384.09 1401.65 3382.27 1399.34 3381.55 1396.08C3381.19 1394.41 3381.63 1393.33 3383.18 1392.48C3389.53 1389.01 3395.78 1389.08 3401.96 1392.86C3404.94 1394.68 3407.06 1397.36 3409.06 1400.17C3413.25 1406.08 3414.54 1406.14 3419.07 1400.57C3421.28 1397.85 3423.9 1395.74 3426.98 1394.15C3429.98 1392.6 3432.97 1393.78 3434.04 1396.67V1475.77C3433.79 1476.25 3433.56 1476.77 3433.34 1477.32C3429.75 1476.76 3426.17 1476.17 3422.57 1475.66C3419.61 1475.24 3417 1474.28 3414.69 1472.18C3411.97 1469.69 3408.45 1469.63 3405.63 1471.89C3401.82 1474.95 3398.1 1478.13 3394.52 1481.45C3390.21 1485.46 3388.23 1490.4 3389.5 1496.33C3389.92 1498.31 3389.33 1499.95 3388.08 1501.41C3387.28 1502.34 3386.49 1503.37 3385.02 1502.88C3383.53 1502.39 3382.02 1502.05 3381.53 1500.1C3380.98 1497.86 3380.12 1495.69 3379.33 1493.52C3378.23 1490.49 3378.03 1487.56 3380.01 1484.79C3381.07 1483.31 3381.02 1481.9 3379.94 1480.49C3377.52 1480.34 3375.4 1480.41 3374.14 1482.83C3373.92 1483.27 3373.16 1483.52 3372.61 1483.67C3369 1484.64 3367.3 1487.31 3366.21 1490.61C3365.3 1493.37 3364.29 1496.1 3363.24 1499.09C3363.82 1500.01 3364.6 1501.1 3365.22 1502.27C3367.78 1507.12 3369.52 1511.97 3364.53 1516.56C3367.51 1519.07 3367.34 1521.97 3366.14 1525.04C3366 1525.38 3365.89 1525.73 3365.75 1526.07C3364.3 1529.67 3364.48 1533.23 3366.08 1536.74C3366.73 1538.18 3367.55 1539.56 3368.11 1541.04C3369.19 1543.87 3370.09 1546.78 3371.16 1549.61C3371.47 1550.43 3371.98 1551.26 3372.61 1551.86C3378.43 1557.43 3384.3 1562.96 3390.21 1568.54C3388.81 1570.36 3389.89 1571.51 3391 1572.97C3392.55 1571.08 3393.9 1569.42 3395.37 1567.63C3397.53 1569.56 3395.74 1571.19 3395.44 1572.74C3395.08 1574.6 3394.4 1576.38 3393.81 1578.35C3396.89 1579.17 3399.53 1579.87 3402.67 1580.71C3400.44 1582.65 3398.63 1584.22 3396.9 1585.74C3397.01 1586.17 3397.01 1586.46 3397.15 1586.63C3399.26 1589.17 3401.33 1591.73 3403.53 1594.19C3404.74 1595.55 3405.34 1596.94 3405.22 1598.81C3405.12 1600.43 3405.49 1602.07 3405.65 1603.72C3407.92 1603.99 3409.67 1604.2 3411.67 1604.45C3411.44 1603.65 3411.41 1603.26 3411.23 1602.98C3409.02 1599.55 3408.66 1597.41 3412.65 1593.25C3413.66 1592.19 3414.78 1591.24 3415.9 1590.3C3417.4 1589.05 3418.99 1587.9 3420.46 1586.61C3423.26 1584.17 3424.98 1581.19 3424.85 1577.34C3424.83 1576.93 3424.97 1576.51 3425.12 1575.64C3428.21 1577.65 3430.92 1579.4 3433.62 1581.15C3431.57 1586.86 3429.65 1592.17 3427.55 1597.99L3434.04 1596.56V1688.7ZM3434.04 1819.86C3432.39 1817.31 3430.42 1814.91 3427.99 1812.71C3429.04 1812.19 3429.78 1811.84 3430.19 1811.63C3427.35 1807.54 3424.08 1804.25 3422.58 1800.28C3421.09 1796.33 3421.39 1791.71 3420.89 1787.2C3418.05 1785.85 3415.56 1783.76 3415.37 1780.24C3415.13 1775.69 3415.34 1771.12 3415.35 1766.56C3415.65 1766.48 3415.94 1766.4 3416.23 1766.33C3419.2 1770.54 3422.17 1774.75 3425.23 1779.09C3423.93 1779.83 3423.02 1780.35 3421.33 1781.32C3427.89 1781.83 3430.2 1786.51 3433.2 1790.51C3433.47 1790.88 3433.75 1791.24 3434.04 1791.6V1819.86ZM3434.04 1938.92C3431.29 1936.1 3430.31 1932.58 3430.49 1928.23L3434.04 1929.16V1938.92ZM3384.09 859.931C3383.51 860.536 3382.93 861.141 3382.19 861.919C3382.05 860.253 3382.05 860.253 3384.09 859.931ZM3206.31 1256.6C3206.9 1259.89 3207.48 1263.19 3208.07 1266.48C3207.87 1266.59 3207.68 1266.69 3207.48 1266.79C3206.95 1265.75 3206.41 1264.71 3205.89 1263.66C3205.31 1262.47 3204.43 1261.3 3204.29 1260.05C3204.16 1258.93 3204.86 1257.71 3205.19 1256.53C3205.56 1256.55 3205.94 1256.57 3206.31 1256.6ZM3225.88 1695.19C3227.09 1698.38 3224.96 1699.71 3223.38 1701.96C3222.66 1700.94 3221.73 1700.23 3221.74 1699.54C3221.78 1696.95 3222.3 1694.33 3224.17 1692.44C3224.98 1691.61 3226.55 1691.09 3227.74 1691.16C3230.41 1691.31 3232.79 1692.45 3234.73 1694.26C3231.79 1694.57 3228.93 1694.87 3225.88 1695.19ZM3227.9 1433.34C3222.89 1423.96 3227.21 1418.47 3233.82 1419.12C3231.84 1423.87 3229.92 1428.47 3227.9 1433.34ZM3312.28 1847.16C3313.26 1852.12 3316.8 1856.02 3314.6 1861.19C3311.06 1861.26 3309.7 1858.9 3308.7 1856.23C3307.49 1852.99 3308.38 1850.58 3312.28 1847.16ZM3287.36 1725.38C3284.31 1714.9 3287.38 1707.21 3294.37 1704.81C3292.04 1711.64 3289.83 1718.13 3287.36 1725.38ZM3291.29 2040.97C3295.9 2043.78 3297.24 2046.74 3295.92 2050.21C3295.49 2051.34 3294.89 2052.19 3293.61 2052.15C3291.46 2052.09 3289.32 2051.93 3286.65 2051.79C3287.61 2047.62 3289.76 2044.59 3291.29 2040.97ZM3377.18 1363.68C3377.09 1373.81 3372.14 1381.12 3365.15 1387.43C3363.76 1386.91 3362.98 1386.21 3363.63 1384.66C3366.25 1378.35 3368.82 1372.01 3371.46 1365.71C3372.52 1363.16 3374.81 1363.9 3377.18 1363.68ZM3284.93 2023.47C3285.45 2024.24 3285.91 2024.92 3286.49 2025.77C3284.98 2026.84 3283.62 2027.8 3282.04 2028.91C3284.08 2032.05 3286.06 2035.09 3288.29 2038.51C3286 2040.19 3283.81 2041.79 3281.26 2043.66C3278.02 2035.43 3274.96 2027.65 3271.82 2019.69C3272.98 2018.8 3273.89 2018.1 3275.17 2017.12C3276.2 2020.22 3277.1 2022.94 3278.08 2025.89C3280.54 2025.02 3282.68 2024.26 3284.93 2023.47ZM3417.1 868.446C3417.69 867.272 3418.18 866.306 3418.8 865.059C3415.06 864.578 3412.4 862.249 3409.61 860.118C3407.29 858.341 3404.69 857.473 3401.72 858.019C3401.2 858.115 3400.64 858.033 3399.69 858.033C3400.72 855.726 3402.24 855.515 3403.96 855.89C3407.18 856.586 3410.38 857.383 3413.6 858.057C3414.66 858.277 3415.85 858.558 3416.82 858.271C3420.02 857.325 3422.51 858.633 3425.03 860.279C3427.85 862.119 3430.76 863.827 3433.91 865.77C3432.31 868.209 3430.46 871.007 3428.49 874.013C3424.59 872.107 3420.91 870.308 3417.1 868.446ZM3342.83 881.174C3342.83 879.122 3342.83 877.583 3342.83 875.638C3340.86 876.886 3339.16 877.962 3337.46 879.039C3337.33 878.925 3337.2 878.812 3337.07 878.697C3337.64 878.087 3338.2 877.475 3338.77 876.868C3341.43 874.027 3344.06 871.145 3346.79 868.37C3347.87 867.277 3349.12 866.305 3350.42 865.505C3351.56 864.815 3352.93 864.532 3354.12 863.924C3357.27 862.314 3360.52 861.929 3364.04 862.44C3366.27 862.764 3368.59 862.501 3371.53 862.501C3370.46 863.162 3369.89 863.619 3369.24 863.903C3365.55 865.504 3361.82 867.032 3358.14 868.649C3355.45 869.83 3353.52 871.374 3353.43 874.851C3353.34 878.453 3351.49 879.996 3347.91 880.563C3346.37 880.807 3344.82 880.939 3342.83 881.174ZM3237.55 1725.07C3235.23 1726.83 3233.63 1728.05 3231.37 1729.77C3231.37 1727.92 3231.57 1726.82 3231.31 1725.85C3231.08 1725.03 3230.46 1724.15 3229.76 1723.66C3228.78 1722.98 3227.94 1723.69 3227.3 1724.53C3225.21 1727.24 3223.13 1729.96 3221.03 1732.66C3220.74 1733.04 3220.41 1733.4 3219.93 1733.95C3219.1 1733.6 3218.27 1733.24 3217.57 1732.94C3217.57 1732.42 3217.49 1732.15 3217.58 1731.96C3220.56 1725.53 3223.35 1719.01 3228.16 1713.62C3229.82 1711.75 3230.7 1709.6 3230.17 1706.88C3229.64 1704.18 3230.94 1702.13 3233.47 1700.98C3235.21 1700.19 3237 1699.49 3239.26 1698.53C3238.66 1700.61 3238.22 1702.22 3237.73 1703.81C3237.31 1705.21 3236.82 1706.6 3236.41 1708C3234.77 1713.75 3232.22 1719.53 3237.55 1725.07ZM3182.55 1658.39C3182.92 1651.64 3183.26 1645.22 3184.57 1638.92C3185.14 1636.19 3186.1 1635.76 3189.01 1635.57C3196.95 1635.05 3199.3 1640.91 3197.85 1646.28C3197.38 1648.04 3196.5 1649.74 3196.33 1651.52C3196 1654.88 3193.91 1655.92 3191.04 1656.45C3188.33 1656.95 3185.66 1657.67 3182.55 1658.39ZM3223.39 1775.55C3220.33 1774.02 3219.13 1771.74 3218.68 1769.03C3217.94 1764.63 3219.17 1760.61 3221.1 1756.68C3222.27 1754.3 3223.08 1751.74 3223.94 1749.21C3225 1746.1 3223.97 1743.47 3221.85 1741.15C3220.64 1739.83 3219.47 1738.48 3217.86 1736.66C3222.48 1736.54 3226.42 1736.89 3230.2 1738.21C3233.09 1739.21 3233.82 1740.97 3232.86 1744C3232.49 1745.16 3231.97 1746.27 3231.46 1747.38C3230.38 1749.75 3229.76 1752.13 3230.25 1754.82C3230.81 1757.81 3230.02 1760.44 3227.04 1761.91C3225.61 1762.62 3225.45 1763.88 3225.23 1765.25C3224.7 1768.58 3224.05 1771.89 3223.39 1775.55ZM3323.65 2080.83C3322.63 2082.95 3322.01 2084.23 3321.28 2085.74C3317.29 2083.68 3313.27 2082.08 3310.68 2078.22C3309.61 2076.62 3308.24 2075.08 3306.68 2073.97C3303.43 2071.66 3301.79 2068.27 3300.03 2064.95C3299.61 2064.16 3299.26 2063.01 3299.52 2062.24C3300.97 2058.01 3302.61 2053.85 3304.38 2049.16C3310.35 2052.99 3315.95 2056.57 3321.92 2060.4C3320.74 2063.07 3319.86 2065.74 3318.46 2068.09C3315.66 2072.78 3317.07 2077.43 3317.75 2082.13C3318.04 2082.16 3318.33 2082.19 3318.62 2082.23C3318.76 2081.25 3319.01 2080.28 3319.03 2079.31C3319.07 2076.3 3320.01 2073.57 3321.29 2070.9C3322.07 2069.26 3323.15 2069.25 3324.95 2070.25C3324.65 2073.23 3324.33 2076.35 3323.98 2079.72C3325.62 2080.43 3325.7 2082.03 3325.95 2083.79C3326.54 2088 3327.5 2092.16 3328.35 2096.33C3328.56 2097.36 3328.9 2098.37 3329.22 2099.51C3326.61 2098.93 3325.49 2097.57 3325.19 2094.69C3324.85 2091.54 3324.61 2088.38 3324.29 2085.22C3324.17 2084.05 3323.95 2082.88 3323.65 2080.83ZM3247.91 1799.42C3245.19 1799.64 3242.9 1799.91 3240.61 1799.99C3237.69 1800.09 3236.39 1798.64 3236.71 1795.72C3236.8 1794.89 3237.34 1794.11 3237.45 1793.29C3237.61 1792.13 3237.94 1790.79 3237.54 1789.81C3235.38 1784.61 3235.73 1779.32 3236.54 1773.97C3237.28 1769.04 3238.03 1764.11 3238.65 1759.16C3239.09 1755.68 3241.33 1753.21 3243.26 1750.6C3243.7 1750.01 3244.96 1750.04 3246.28 1749.66C3248.94 1766.32 3249.86 1782.61 3247.91 1799.42ZM3183.68 1598.84C3180.66 1598.1 3177.76 1597.39 3174.52 1596.59C3176.65 1592.53 3178.71 1588.6 3180.88 1584.47C3179.34 1584.07 3178.2 1583.78 3177.09 1583.49C3177.71 1577.29 3179.63 1576.07 3185.56 1578.1C3185.76 1577.28 3186.01 1576.49 3186.12 1575.67C3186.23 1574.85 3186.22 1574.01 3186.28 1572.67C3180.9 1572.67 3175.72 1572.67 3170.54 1572.67C3170.05 1569.75 3172.34 1569.68 3173.53 1568.75C3174.84 1567.74 3176.33 1566.97 3178.19 1565.81C3175.43 1563.97 3173.12 1562.43 3170.85 1560.92C3171.91 1558.44 3185.64 1541.68 3189.78 1537.75C3192.72 1538.76 3192.78 1538.79 3192.1 1541.43C3190.72 1546.75 3189.26 1552.04 3187.88 1557.36C3187.59 1558.46 3186.75 1559.69 3188.49 1560.88C3192.98 1557.15 3197.56 1553.36 3202.48 1549.28C3204.25 1552.3 3205.95 1555.09 3207.5 1557.96C3207.86 1558.64 3207.97 1559.68 3207.74 1560.41C3206.72 1563.66 3205.68 1566.93 3204.32 1570.06C3203.73 1571.44 3202.5 1572.65 3201.34 1573.69C3198.22 1576.46 3196.72 1579.75 3196.74 1584C3196.74 1586 3195.64 1588.01 3194.98 1590.22C3197.03 1589.84 3199.14 1589.45 3201.62 1588.99C3201.48 1590.05 3201.45 1590.84 3201.28 1591.6C3200.36 1595.64 3199.24 1599.65 3198.51 1603.74C3197.89 1607.2 3197.69 1610.74 3197.33 1614.24C3197.27 1614.85 3197.35 1615.47 3197.3 1616.08C3196.77 1622.41 3194.38 1625.65 3187.33 1624.1C3186.98 1624.02 3186.62 1624.03 3185.95 1623.98C3183.37 1629.4 3180.76 1634.88 3178.03 1640.61C3176.92 1640.19 3175.96 1639.83 3174.69 1639.35C3176.53 1634.12 3178.29 1629.09 3180 1624.22C3179.84 1623.79 3179.82 1623.51 3179.67 1623.35C3176.41 1619.94 3176.15 1618.07 3178.08 1613.49C3179.79 1609.45 3181.41 1605.37 3183.03 1601.29C3183.3 1600.63 3183.4 1599.9 3183.68 1598.84ZM3208.45 1207.27C3204.72 1206.95 3204.01 1209.85 3202.27 1211.45C3206 1213.46 3208.68 1216.13 3209.04 1220.35C3209.44 1225.03 3207.15 1228.46 3203.06 1231.77C3202.21 1225.58 3201.76 1219.91 3200.6 1214.39C3199.42 1208.85 3197.53 1203.45 3195.71 1197.19C3194.37 1200.24 3193.39 1202.47 3192.4 1204.71C3192.09 1204.61 3191.77 1204.51 3191.46 1204.4C3191.69 1203.31 3191.87 1202.2 3192.17 1201.12C3193.7 1195.72 3195.25 1190.33 3196.8 1184.93C3197 1184.23 3197.34 1183.52 3197.34 1182.82C3197.35 1182.35 3196.96 1181.59 3196.58 1181.47C3196.19 1181.35 3195.35 1181.69 3195.14 1182.07C3194.36 1183.44 3193.77 1184.93 3193.08 1186.36C3192.82 1186.87 3192.49 1187.35 3191.85 1188.41C3191.04 1185.02 3190.3 1182.25 3189.78 1179.43C3189.65 1178.74 3190.14 1177.82 3190.57 1177.15C3191.34 1175.96 3192.27 1174.87 3192.76 1173.14C3189.57 1173.67 3186.38 1174.21 3183.65 1174.66C3182.96 1177.1 3182.47 1179.19 3181.75 1181.2C3180.3 1185.26 3180.88 1186.44 3185.07 1187.42C3185.89 1187.61 3186.71 1187.8 3187.83 1188.06C3186.47 1190.94 3185.19 1193.64 3183.66 1196.89C3182.37 1194.79 3181.39 1193.17 3180.26 1191.31C3178.58 1192.23 3176.96 1193.11 3174.85 1194.27C3176.07 1188.99 3177.16 1184.28 3178.29 1179.4C3176.63 1179.05 3175.14 1178.74 3173.25 1178.34C3174.92 1176.68 3176.32 1175.29 3177.72 1173.91C3177.57 1173.64 3177.43 1173.37 3177.28 1173.1C3175.29 1173.69 3173.31 1174.27 3171.02 1174.94C3170.55 1172.85 3170.08 1170.99 3169.7 1169.1C3168.73 1164.2 3167.85 1159.27 3166.82 1154.37C3166.33 1152.05 3166.62 1149.95 3168.24 1148.22C3170.72 1145.56 3173.31 1143.01 3175.99 1140.29C3175.3 1139.71 3174.4 1138.95 3173.3 1138.02C3173.19 1132.8 3175.53 1128.38 3178.99 1123.55C3179.44 1126.59 3179.79 1129 3180.13 1131.29C3182.44 1131.97 3184.11 1128.86 3186.8 1130.86C3185.07 1133.16 3183.41 1135.34 3181.59 1137.76C3182.85 1138.21 3183.92 1138.6 3185.02 1138.99C3182.23 1143.29 3181.33 1143.61 3176.41 1142.02C3175.91 1142.93 3175.39 1143.86 3174.53 1145.41C3177.43 1145.47 3179.91 1145.53 3182.38 1145.56C3184.94 1145.58 3187.49 1145.56 3190.32 1144.96C3189.01 1144.12 3187.7 1143.27 3185.92 1142.13C3189.41 1137.94 3192.61 1133.82 3196.11 1129.98C3198.32 1127.55 3199.68 1127.72 3203.06 1130.06C3201.62 1132.62 3200.16 1135.22 3198.51 1138.14C3200.01 1138.14 3201.15 1138.14 3202.64 1138.14C3203.53 1143.26 3204.3 1148.26 3201.71 1153.01C3202.64 1154.56 3203.78 1155.88 3204.27 1157.41C3204.73 1158.87 3204.6 1160.55 3204.62 1162.14C3204.66 1165.55 3204.63 1168.96 3204.63 1172.6C3207.73 1173.53 3210.46 1174.35 3213.46 1175.25C3212.9 1176.16 3212.55 1176.77 3212.17 1177.35C3209.68 1181.12 3208.41 1185.29 3208.36 1189.79C3208.31 1194.18 3208.42 1198.58 3208.45 1202.98C3208.46 1204.31 3208.45 1205.65 3208.45 1207.27ZM3194.04 1846.68C3192.77 1847.8 3191.96 1848.51 3190.83 1849.5C3196.54 1852.8 3197.96 1858.3 3199.14 1864.03C3199.75 1866.99 3200.83 1869.87 3201.81 1872.75C3202.34 1874.33 3203.48 1875.21 3205.19 1875.73C3212.86 1878.07 3218.57 1883.12 3223.27 1889.41C3223.92 1890.28 3224.65 1891.29 3224.78 1892.31C3225.22 1895.55 3227.35 1897.73 3229.22 1900.1C3232.16 1903.84 3235.11 1907.57 3238.11 1911.36C3237.08 1912.55 3236.2 1913.55 3235.11 1914.8C3236.22 1916.57 3237.37 1918.39 3238.86 1920.78C3240.55 1917.53 3242 1914.72 3243.48 1911.87C3248.37 1916.4 3248.67 1917.73 3245.78 1922.25C3246.68 1922.78 3247.59 1923.29 3248.48 1923.82C3251.42 1925.6 3251.69 1927 3249.6 1929.69C3249.23 1930.17 3248.78 1930.59 3248.66 1930.72C3248.75 1934.19 3248.94 1937.32 3248.9 1940.46C3248.85 1943.79 3249.61 1946.65 3252.1 1949.09C3253.05 1950.02 3253.37 1951.61 3253.95 1952.91C3254.05 1953.12 3253.98 1953.4 3254.03 1953.63C3254.86 1958.14 3255.26 1962.49 3249.6 1964.71C3249.73 1964.95 3249.87 1965.19 3250 1965.43C3251.92 1965.57 3253.84 1965.71 3256.21 1965.89C3255.11 1968.97 3254.1 1971.78 3252.92 1975.11C3254.83 1974.72 3256.31 1974.43 3258.14 1974.06C3261.14 1979.77 3264.2 1985.44 3267.08 1991.21C3267.5 1992.04 3267.24 1993.36 3266.95 1994.35C3265.58 1999.03 3266.38 2003.09 3270.21 2006.27C3271.64 2007.46 3271.88 2008.85 3271.59 2010.51C3268.32 2011.45 3267.28 2011.19 3262.02 2008.06C3262.17 2007.44 3262.31 2006.75 3262.49 2006.07C3262.68 2005.37 3262.92 2004.68 3263.24 2003.6C3261.25 2003.06 3259.3 2002.53 3257.09 2001.93C3256.9 1999.69 3256.63 1997.41 3256.52 1995.13C3256.34 1991.3 3255.29 1988.1 3250.53 1987C3251.81 1984.45 3252.92 1982.23 3254.45 1979.18C3251.73 1980.3 3249.72 1981.13 3247.41 1982.08C3246.46 1979.43 3245.26 1976.99 3244.81 1974.43C3244.57 1973.09 3245.65 1971.52 3246.16 1969.96C3246.11 1969.9 3245.98 1969.54 3245.85 1969.54C3242.25 1969.5 3240.43 1967.13 3239.02 1964.28C3238.43 1963.09 3238.02 1961.8 3237.5 1960.56C3235.39 1955.51 3233.28 1950.46 3230.98 1944.96C3231.04 1944.93 3231.69 1944.61 3232.77 1944.07C3230.79 1943.01 3229.35 1942.23 3228.02 1941.52C3227.61 1940.09 3227.4 1938.67 3226.81 1937.43C3224.27 1932.14 3221.6 1926.93 3219.04 1921.65C3218.37 1920.27 3217.51 1919.33 3216.04 1918.68C3214.62 1918.06 3213.3 1917.08 3212.16 1916.02C3209.63 1913.67 3208.72 1910.77 3209.96 1907.21C3204.92 1904.49 3201.35 1901.06 3204.77 1894.57C3202.76 1893.7 3201.02 1892.95 3199.08 1892.11C3199.64 1882.93 3194.61 1875.63 3190.96 1867.84C3189.51 1864.75 3187.99 1861.69 3186.52 1858.61C3184.73 1854.85 3182.94 1851.12 3179.7 1848.3C3177.87 1846.72 3177.37 1844.67 3178.28 1842.32C3178.89 1840.75 3179.34 1839.11 3179.91 1837.37C3179.21 1836.89 3178.64 1836.47 3178.03 1836.09C3174.03 1833.6 3171.77 1829.89 3171.13 1825.35C3170.46 1820.64 3170.13 1815.88 3169.79 1811.13C3169.74 1810.39 3170.42 1809.6 3170.76 1808.83C3171.07 1808.81 3171.38 1808.79 3171.69 1808.77C3173.41 1811.66 3175.31 1814.47 3176.82 1817.47C3180.84 1825.42 3184.73 1833.44 3188.57 1841.49C3189.66 1843.77 3190.88 1845.76 3194.04 1846.68ZM3303.26 1221.18C3308.6 1216.77 3313.34 1212.84 3318.44 1208.63C3319.4 1210.34 3320.21 1211.79 3321.3 1213.75C3334.54 1213.15 3348.03 1212.54 3362.02 1211.91C3361.33 1213.31 3360.84 1214.31 3360.16 1215.7C3362.61 1216.43 3364.97 1217.29 3367.4 1217.82C3373.65 1219.2 3379.52 1221.4 3385.02 1224.77C3390.41 1228.07 3396.32 1229.95 3402.78 1229.59C3403.79 1229.53 3404.78 1229.58 3405.02 1231.27C3404.39 1231.7 3403.65 1232.22 3402.88 1232.71C3399.89 1234.61 3396.75 1236.3 3393.93 1238.42C3387.8 1243.03 3385.25 1247.16 3382.47 1256.24C3378.75 1256.24 3374.9 1256.24 3370.53 1256.24C3372.68 1262.34 3369.91 1266.33 3365.79 1269.57C3363.04 1271.74 3359.89 1271.37 3356.57 1269.95C3356.26 1266.82 3355.95 1263.69 3355.58 1259.93C3354.12 1260.86 3352.9 1261.52 3351.82 1262.36C3347.37 1265.84 3347.03 1265.85 3342.75 1262.09C3341.94 1263.15 3341.15 1264.2 3340.33 1265.23C3338.44 1267.6 3336.05 1269.59 3333.05 1269.75C3329.68 1269.94 3327.53 1271.21 3326.47 1274.37C3322.57 1274.6 3319.62 1273.01 3317.47 1270.16C3316.1 1268.34 3315.2 1266.16 3314.13 1264.11C3312.85 1261.65 3311.63 1259.16 3310.32 1256.57C3309.08 1256.97 3308.2 1257.06 3307.54 1257.49C3303.67 1260.02 3299.86 1262.62 3296.03 1265.2C3295.12 1265.81 3294.3 1266.63 3293.31 1267.02C3287.52 1269.28 3281.68 1271.45 3275.85 1273.63C3275.56 1273.74 3275.17 1273.61 3274.45 1273.57C3276.79 1267.51 3280.04 1262.34 3284.65 1258.06C3289.3 1253.75 3294.77 1250.86 3300.66 1248.64C3310.08 1245.1 3319.93 1243.27 3329.78 1241.51C3336.62 1240.28 3343.53 1239.39 3350.43 1238.57C3353.46 1238.21 3355.73 1236.99 3357.69 1233.98C3339.77 1229.54 3321.96 1225.69 3303.26 1221.18ZM3183.27 991.859C3182.55 989.333 3181.91 987.122 3181.29 984.959C3181.68 984.748 3181.91 984.509 3182.07 984.551C3187.01 985.859 3190.5 983.902 3193.39 979.944C3195.09 977.618 3197.33 975.677 3199.49 973.379C3197.7 972.972 3195.79 972.541 3193.73 972.075C3197.46 970.571 3201.01 969.304 3204.4 967.707C3206.8 966.575 3209.2 965.231 3210.23 962.444C3210.43 961.912 3210.95 961.457 3211.42 961.078C3215.1 958.072 3218.8 955.092 3223.06 952.44C3222.22 954.19 3221.37 955.938 3220.41 957.94C3222.86 958.875 3224.89 958.422 3226.66 957.039C3234.17 951.191 3242.45 946.317 3248.97 939.246C3250.54 937.54 3252.14 935.856 3253.79 934.091C3257.03 935.398 3259.12 933.878 3260.86 931.627C3262.21 929.89 3263.47 928.088 3264.73 926.283C3265.98 924.483 3267.59 923.367 3269.83 923.1C3272.33 922.8 3274.42 921.652 3276.17 919.771C3280.97 914.594 3285.88 909.587 3290.1 903.814C3293.31 899.432 3296.98 894.95 3302.11 891.739C3303.34 893.875 3304.46 895.839 3305.65 897.905C3306.42 897.661 3307.08 897.451 3307.77 897.234C3307.63 895.639 3307.45 894.186 3307.39 892.728C3307.26 889.743 3308.92 887.379 3311.91 887.198C3319.9 886.72 3327.19 884.188 3334.16 880.439C3334.46 880.275 3334.82 880.204 3335.4 880.359C3334.85 880.846 3334.34 881.384 3333.75 881.812C3330.68 884.031 3327.54 886.158 3324.54 888.461C3323.65 889.138 3322.51 890.333 3322.57 891.213C3322.73 893.353 3321.38 893.913 3319.76 894.864C3319.04 893.773 3318.34 892.719 3317.49 891.435C3314.45 893.666 3311.55 895.855 3308.58 897.939C3307.41 898.754 3306.15 899.521 3304.82 899.981C3302.01 900.956 3299.33 902.155 3297.36 904.432C3295.8 906.247 3294.01 907.541 3291.68 908.126C3290.86 908.331 3290 908.617 3289.34 909.115C3288.9 909.45 3288.79 910.223 3288.53 910.799C3289.08 910.918 3289.71 911.277 3290.15 911.117C3292.1 910.409 3293.97 909.453 3296.66 910.324C3295.13 913.256 3293.76 916.201 3292.09 918.959C3290.69 921.264 3288.34 922.597 3285.71 922.843C3282.81 923.117 3281.07 924.764 3279.52 926.881C3278.36 928.454 3277.22 930.046 3276.08 931.629C3274.78 933.426 3273.14 934.64 3270.81 934.193C3269.31 933.909 3268.5 934.792 3267.72 935.713C3260.75 943.922 3251.68 949.609 3243.26 956.062C3241.33 957.543 3239.29 959.002 3236.05 957.929C3237 955.872 3237.92 953.9 3238.84 951.928C3238.66 951.777 3238.47 951.626 3238.28 951.474C3234 955.874 3228.32 958.559 3224.62 963.763C3223.23 965.724 3220.75 967.11 3218.5 968.214C3215.46 969.709 3212.16 970.681 3208.46 972.067C3210.72 972.575 3212.56 972.984 3214.34 973.382C3212.96 974.905 3211.59 976.383 3210.26 977.905C3208.98 979.38 3207.81 980.949 3206.5 982.392C3203.81 985.338 3200.48 985.178 3196.43 984.036C3197.13 986.737 3197.74 989.125 3198.4 991.662C3195.09 993.447 3190.95 993.744 3188.65 997.124C3186.31 1000.58 3187.15 1004.38 3187.66 1008.42C3185.81 1009.71 3183.84 1011.07 3181.63 1012.61C3182.64 1013.55 3183.49 1014.33 3184.5 1015.27C3182.85 1017.84 3181.27 1020.29 3179.7 1022.75C3178.22 1025.05 3177.09 1027.49 3177.54 1030.32C3178.27 1034.87 3176.71 1038.46 3173.13 1041.25C3172.86 1041.46 3172.71 1041.82 3172.43 1042.22C3174.96 1046.64 3174.68 1051.43 3173.49 1056.05C3171.92 1062.18 3169.81 1068.18 3167.9 1074.23C3167.5 1075.49 3166.98 1076.72 3166.42 1078.22C3167.95 1078.64 3169.29 1079.01 3171.08 1079.51C3170.56 1082.83 3169.93 1086.15 3169.56 1089.49C3169.2 1092.81 3168.41 1095.71 3164.84 1096.97C3164.32 1097.16 3163.92 1097.68 3163.14 1098.3C3165.7 1099.44 3167.81 1097.65 3170.31 1098.16C3169.83 1099.15 3169.44 1100.09 3168.95 1100.98C3163.14 1111.58 3159.6 1122.96 3157.23 1134.75C3156.91 1136.37 3156.27 1138.28 3159.09 1138.62C3159.43 1134.91 3162.96 1134.45 3165.52 1131.86C3165.52 1135.51 3165.52 1138.4 3165.52 1141.51C3164.29 1140.95 3163.25 1140.36 3162.13 1139.98C3160.11 1139.3 3158.91 1139.77 3157.7 1141.47C3156.3 1143.44 3154.96 1145.47 3153.42 1147.32C3151.5 1149.65 3150.82 1152.07 3151.52 1155.11C3152.39 1158.84 3152.81 1162.66 3152.87 1166.61C3150.94 1163.69 3148.97 1160.79 3147.1 1157.83C3146.73 1157.24 3146.64 1156.44 3146.58 1155.72C3146.13 1150.52 3145.71 1145.31 3145.26 1139.84C3146.93 1139.26 3148.23 1141.04 3150.14 1141.47C3150.14 1138.52 3150.14 1135.68 3150.14 1132.24C3147.9 1133.68 3145.92 1134.96 3143.84 1136.3C3142.15 1134.87 3142.23 1133.11 3142.63 1131.31C3144.81 1121.5 3147.79 1111.98 3152.48 1103.04C3153.18 1101.73 3154.47 1100.4 3153.17 1098.38C3151.63 1098.49 3149.93 1098.61 3148.23 1098.73C3148.16 1098.54 3148.08 1098.36 3148.01 1098.17C3148.71 1097.62 3149.34 1096.86 3150.14 1096.55C3152.77 1095.51 3153.64 1093.45 3153.98 1090.87C3154.48 1087.04 3155.13 1083.22 3155.74 1079.23C3154.12 1078.9 3152.83 1078.63 3151.14 1078.28C3151.88 1076.26 3152.61 1074.37 3153.29 1072.46C3155.49 1066.25 3157.68 1060.06 3158.76 1053.51C3159.43 1049.5 3159.12 1045.78 3156.8 1041.63C3157.51 1041.18 3158.31 1040.79 3158.96 1040.23C3161.67 1037.9 3162.86 1034.86 3162.3 1031.38C3161.74 1027.96 3162.86 1025.15 3164.63 1022.42C3166.15 1020.07 3167.67 1017.72 3169.25 1015.27C3168.31 1014.38 3167.54 1013.64 3166.71 1012.85C3166.89 1012.57 3167 1012.1 3167.26 1011.99C3171.33 1010.22 3172.83 1007.47 3171.99 1002.86C3171.22 998.658 3173.62 995.637 3177.57 994.013C3179.36 993.276 3181.2 992.64 3183.27 991.859ZM3155.96 1175.15C3157.28 1174.66 3158.28 1174.29 3159.21 1173.95C3161.25 1176.01 3158.74 1176.69 3158.27 1177.94C3158.37 1178.14 3158.42 1178.47 3158.56 1178.52C3162.62 1179.86 3162.73 1180.06 3161.76 1184.16C3161 1187.34 3160.29 1190.53 3159.41 1194.31C3161.51 1193.17 3163.13 1192.28 3164.96 1191.29C3165.29 1193.46 3164.27 1194.87 3163.25 1196.17C3162.2 1197.5 3162.19 1198.72 3162.74 1200.24C3164.46 1204.97 3165.6 1209.75 3165.11 1214.91C3164.9 1217.13 3165.88 1219.45 3166.3 1221.72C3167.07 1225.89 3167.56 1230.01 3164.38 1233.41C3165.22 1235.05 3166.25 1236.46 3166.64 1238.03C3167.03 1239.52 3166.81 1241.19 3166.75 1242.77C3166.55 1248.13 3166.17 1253.49 3166.14 1258.86C3166.12 1261.95 3164.83 1264.22 3162.74 1266.24C3162.15 1266.82 3161.62 1267.45 3161.05 1268.07C3161.43 1268.37 3161.6 1268.62 3161.77 1268.62C3168.68 1268.8 3172.69 1272.9 3175.26 1278.76C3176.24 1280.98 3176.99 1283.36 3177.4 1285.74C3178.14 1290.01 3179.77 1293.92 3181.48 1297.85C3183.12 1301.64 3184.41 1305.58 3185.91 1309.42C3186.21 1310.18 3186.62 1311.16 3187.25 1311.46C3189.77 1312.63 3190.19 1314.95 3190.61 1317.21C3191.74 1323.2 3192.55 1329.26 3193.83 1335.21C3195.14 1341.29 3196.89 1347.27 3198.39 1353.3C3199.17 1356.45 3201.08 1358.73 3203.68 1360.51C3204.99 1361.4 3206.3 1362.32 3207.69 1363.07C3215.26 1367.13 3217.91 1373.99 3217.96 1381.98C3217.99 1387.38 3218.32 1392.7 3219.23 1398.01C3219.53 1399.74 3220.25 1400.84 3221.68 1401.8C3223.79 1403.23 3225.73 1404.9 3227.84 1406.54C3228.72 1405.04 3229.49 1403.73 3230.39 1402.21C3231.11 1404.68 3230.08 1412.14 3228.42 1416.79C3226.28 1414.41 3224.26 1412.18 3222.6 1410.34C3220.42 1410.31 3218.44 1410.82 3217.06 1410.12C3215.72 1409.44 3215 1407.54 3213.85 1405.96C3203.8 1416.1 3192.35 1425.09 3186.95 1439.11C3185.68 1442.41 3183.91 1445.51 3182.37 1448.7C3179.92 1453.79 3176.29 1457.87 3171.49 1460.8C3165.28 1464.59 3161.61 1470.11 3159.86 1477.04C3158.43 1482.72 3157.04 1488.41 3155.59 1494.09C3154.73 1497.5 3153.18 1500.41 3150.06 1502.41C3148.88 1503.16 3147.96 1504.46 3147.24 1505.7C3146.9 1506.28 3147.32 1507.3 3147.46 1508.77C3151.42 1506.16 3154.75 1503.96 3158.47 1501.51C3158.12 1504.76 3157.08 1507.31 3155.48 1509.53C3148.48 1519.25 3141.51 1529 3134.28 1538.54C3129.18 1545.27 3122.44 1549.66 3114.03 1551.49C3111.23 1552.1 3108.53 1553.47 3105.97 1554.84C3101.84 1557.05 3097.68 1559.03 3092.76 1559.13C3092.03 1561.62 3090.12 1562.28 3087.83 1562.76C3081.15 1564.15 3075.15 1567.09 3069.76 1571.29C3066.17 1574.08 3062.04 1575.21 3057.52 1575.4C3053.63 1575.57 3049.76 1576.08 3045.87 1576.44C3045.04 1576.52 3044.2 1576.64 3043.21 1576.77C3042.74 1575.71 3042.29 1574.73 3041.89 1573.74C3039.73 1568.34 3036.64 1563.56 3032.74 1559.25C3031.54 1557.93 3030.5 1556.34 3029.83 1554.7C3027.69 1549.43 3024.76 1544.7 3021.02 1540.42C3019.93 1539.18 3019.21 1537.62 3018.07 1535.8C3019.4 1535.35 3020.24 1534.98 3021.12 1534.78C3043.35 1529.56 3065.58 1524.27 3087.3 1517.19C3096.92 1514.05 3106.32 1510.22 3115.8 1506.66C3117.17 1506.15 3118.43 1505.36 3119.77 1504.77C3127.76 1501.24 3133.24 1495.58 3136.3 1487.19C3139.97 1477.1 3144.22 1467.21 3148.45 1457.33C3152.4 1448.1 3157.25 1439.34 3163.69 1431.55C3167.37 1427.09 3171.56 1423.2 3176.23 1419.79C3188.2 1411.06 3199.58 1401.65 3209.88 1390.97C3211.33 1389.48 3212.8 1387.99 3214.01 1386.31C3217.17 1381.91 3216.52 1377.47 3211.89 1374.7C3208.9 1372.92 3205.45 1371.83 3202.1 1370.77C3200.49 1370.26 3199.42 1369.54 3198.33 1368.25C3196.79 1366.42 3194.99 1364.68 3192.97 1363.42C3184.54 1358.12 3184.21 1358.26 3181.86 1348.64C3179.41 1338.58 3177.57 1328.37 3175.49 1318.22C3174.93 1315.47 3174.77 1312.6 3171.67 1311.19C3171.15 1310.95 3170.87 1310.04 3170.62 1309.38C3169.13 1305.53 3167.82 1301.6 3166.19 1297.8C3164.44 1293.76 3162.85 1289.72 3162.05 1285.34C3161.2 1280.61 3159.45 1276.14 3156.03 1272.6C3155.06 1271.59 3154.72 1270.67 3154.97 1269.35C3156.31 1262.26 3155.85 1255.26 3154.02 1248.29C3153.72 1247.16 3153.88 1245.89 3153.91 1244.69C3154.1 1238.34 3154.81 1232.06 3155.49 1225.75C3156.03 1220.68 3156.59 1215.56 3156.87 1210.48C3157.38 1200.89 3157.06 1191.25 3156.96 1181.63C3156.94 1179.58 3156.34 1177.54 3155.96 1175.15ZM3417.03 1612.88C3418.79 1617.01 3420.32 1620.93 3422.69 1624.51C3424.38 1619.74 3420.74 1615.35 3422.68 1610.29C3420.48 1611.3 3418.86 1612.04 3417.03 1612.88ZM3269.95 1598.86C3267.51 1595.93 3265.74 1593.79 3263.82 1591.48C3262.39 1592.15 3261.03 1592.66 3259.8 1593.42C3259.16 1593.81 3258.45 1594.56 3258.3 1595.26C3257.5 1599.12 3256.87 1603.03 3256.17 1606.92C3256.4 1607.05 3256.63 1607.18 3256.86 1607.3C3258.22 1605.97 3259.79 1604.78 3260.91 1603.27C3262.98 1600.46 3265.26 1598.28 3269.95 1598.86ZM3243.9 1450.78C3245.96 1448.14 3247.8 1445.87 3249.54 1443.54C3251.29 1441.19 3253.39 1439.06 3255.05 1435.89C3252.33 1436.82 3250.22 1437.55 3247.98 1438.32C3247.38 1435.95 3246.9 1434.05 3246.34 1431.8C3240.1 1436.53 3243.34 1442.28 3243.79 1447.49C3242.8 1447.67 3242.07 1447.8 3240.96 1448.01C3242.06 1449.04 3242.83 1449.77 3243.9 1450.78ZM3343.33 1474.52C3349.98 1474.76 3353.46 1472.58 3355.87 1466.84C3356.01 1466.5 3356.09 1466.14 3356.24 1465.81C3357.71 1462.73 3359.47 1461.93 3362.71 1463.07C3365.22 1463.95 3367.66 1465 3370.45 1466.11C3370.78 1463.75 3371.19 1461.73 3371.31 1459.68C3371.44 1457.69 3372.06 1456.45 3374.28 1456.34C3377.15 1456.2 3379.21 1454.77 3380.91 1452.4C3385.74 1445.65 3390.78 1439.05 3395.65 1432.33C3397.15 1430.27 3399.01 1428.43 3401.36 1428C3403.6 1427.58 3404.68 1426.32 3405.8 1424.76C3406.88 1423.26 3407.92 1421.74 3408.98 1420.23C3405.64 1420.43 3403.28 1419.21 3401.01 1417.67C3400.61 1417.39 3400.17 1417.17 3399.72 1416.98C3397.19 1415.95 3396.04 1416.49 3395.54 1419.15C3395.18 1421.06 3395.05 1423.02 3394.82 1424.96C3394.56 1427.3 3393.33 1428.76 3390.99 1429.24C3390.15 1429.41 3389.33 1429.65 3388.49 1429.79C3384.93 1430.42 3382.13 1432.19 3380.18 1435.25C3378.47 1437.93 3376.9 1440.7 3375.04 1443.26C3373.7 1445.08 3371.98 1446.62 3370.26 1448.47C3367.82 1446.14 3366.09 1446.92 3364.44 1448.91C3362.89 1450.76 3361.09 1452.41 3359.54 1454.27C3358.29 1455.79 3356.91 1456.77 3354.85 1456.51C3354.17 1456.43 3353.47 1456.5 3352.55 1456.5C3352.22 1458.83 3352.13 1461.04 3351.56 1463.11C3350.96 1465.26 3349.42 1466.71 3346.66 1467.31C3347.65 1464.2 3348.5 1461.53 3349.35 1458.86C3348.98 1458.6 3348.62 1458.35 3348.25 1458.09C3347.84 1458.79 3347.46 1459.5 3347.03 1460.19C3345.53 1462.56 3344.17 1465.05 3342.46 1467.26C3340.84 1469.36 3340.86 1471.18 3342.44 1473.16C3342.74 1473.53 3342.97 1473.96 3343.33 1474.52Z" fill="#EBEBEB"/>
</g>
</g>
<defs>
<filter id="filter0_d_20_1126" x="-4" y="0" width="3989.6" height="2173" filterUnits="userSpaceOnUse" color-interpolation-filters="sRGB">
<feFlood flood-opacity="0" result="BackgroundImageFix"/>
<feColorMatrix in="SourceAlpha" type="matrix" values="0 0 0 0 0 0 0 0 0 0 0 0 0 0 0 0 0 0 127 0" result="hardAlpha"/>
<feOffset dy="4"/>
<feGaussianBlur stdDeviation="2"/>
<feComposite in2="hardAlpha" operator="out"/>
<feColorMatrix type="matrix" values="0 0 0 0 0 0 0 0 0 0 0 0 0 0 0 0 0 0 0.25 0"/>
<feBlend mode="normal" in2="BackgroundImageFix" result="effect1_dropShadow_20_1126"/>
<feBlend mode="normal" in="SourceGraphic" in2="effect1_dropShadow_20_1126" result="shape"/>
</filter>
<filter id="filter1_d_20_1126" x="386" y="-16" width="3068" height="2200" filterUnits="userSpaceOnUse" color-interpolation-filters="sRGB">
<feFlood flood-opacity="0" result="BackgroundImageFix"/>
<feColorMatrix in="SourceAlpha" type="matrix" values="0 0 0 0 0 0 0 0 0 0 0 0 0 0 0 0 0 0 127 0" result="hardAlpha"/>
<feOffset dy="4"/>
<feGaussianBlur stdDeviation="10"/>
<feComposite in2="hardAlpha" operator="out"/>
<feColorMatrix type="matrix" values="0 0 0 0 0 0 0 0 0 0 0 0 0 0 0 0 0 0 0.3 0"/>
<feBlend mode="normal" in2="BackgroundImageFix" result="effect1_dropShadow_20_1126"/>
<feBlend mode="normal" in="SourceGraphic" in2="effect1_dropShadow_20_1126" result="shape"/>
</filter>
</defs>
</svg>
