<svg width="3840" height="2160" viewBox="0 0 3840 2160" fill="none" xmlns="http://www.w3.org/2000/svg">
<rect width="3840" height="2160" fill="#FEF5E0"/>
<g filter="url(#filter0_d_20_755)">
<rect x="406" width="3028" height="2160" fill="white"/>
</g>
<g opacity="0.7">
<path d="M3677.85 1055.2C3676.95 1051.74 3676.25 1049.07 3675.45 1045.97C3677.72 1047.5 3679.53 1048.72 3681.55 1050.08C3680.48 1051.57 3679.4 1053.05 3677.85 1055.2ZM3837.06 1645.84C3835.76 1648.28 3834.47 1650.73 3833.18 1653.17C3836.28 1651.56 3838.01 1649.32 3837.05 1645.84L3837.05 1645.84L3827.27 1637.34C3828.44 1636.74 3829.43 1636.28 3830.36 1635.73C3833.59 1633.83 3834.99 1631.03 3834.23 1627.36C3833.7 1624.81 3832.82 1622.34 3832.02 1619.58C3834.79 1619.51 3835.55 1622.45 3837.99 1623.19C3837.52 1621.34 3837.13 1619.77 3836.62 1617.78C3838.12 1618.01 3839.43 1618.21 3841.05 1618.45C3844.19 1609.61 3844.44 1600.85 3841.21 1591.73C3839.81 1592.22 3838.62 1592.63 3837.06 1593.17C3837.34 1588.27 3837.61 1583.67 3837.89 1578.74C3840.2 1579.57 3842.22 1580.3 3844.45 1581.1C3844.42 1580.43 3844.49 1579.98 3844.36 1579.6C3842.18 1573.29 3841.36 1566.72 3840.37 1560.17C3840.09 1558.31 3840.37 1555.89 3837.71 1555.19C3836.04 1551.52 3833.43 1548.23 3833.21 1543.97C3833.18 1543.24 3832.93 1542.46 3832.56 1541.83C3829.95 1537.34 3827.28 1532.9 3824.47 1528.17C3822.69 1528.3 3820.86 1528.44 3818.55 1528.61C3819.12 1527.52 3819.53 1526.71 3819.97 1525.92C3821.71 1522.75 3821.55 1521.79 3818.81 1519.37C3817.93 1518.59 3817.01 1517.83 3815.77 1516.77C3817.4 1516.28 3818.61 1515.92 3820.18 1515.44C3817.46 1510.58 3814.86 1505.89 3812.18 1501.25C3811.95 1500.86 3811.14 1500.79 3810.61 1500.58C3810.47 1501.15 3810.08 1501.81 3810.25 1502.28C3810.83 1503.92 3811.6 1505.5 3812.43 1507.41C3810.81 1507.49 3809.56 1507.56 3807.88 1507.65C3809.18 1513.95 3811.66 1519.8 3812.51 1526.17C3810.35 1523.35 3808.18 1520.52 3805.87 1517.51C3806.2 1516.8 3806.72 1515.71 3807.35 1514.38C3805.59 1513.61 3803.9 1512.87 3801.89 1511.99C3801.89 1510.45 3801.95 1508.81 3801.88 1507.17C3801.81 1505.67 3802.21 1504.63 3803.42 1503.49C3804.79 1502.18 3805.71 1500.28 3806.49 1498.49C3807.94 1495.21 3809.82 1492.72 3814.11 1493.12C3814.54 1490.95 3814.85 1488.9 3815.38 1486.9C3816.4 1483.07 3817.33 1479.2 3818.7 1475.49C3820.38 1470.93 3820.45 1470.57 3816.48 1467.72C3819.15 1460.24 3820.72 1452.3 3825.69 1445.63C3827.71 1442.92 3829.03 1439.68 3830.61 1436.65C3832.04 1433.91 3833.33 1431.09 3834.78 1428.37C3835.77 1426.52 3836.86 1424.76 3839.02 1423.91C3839.68 1423.65 3840.27 1422.68 3840.49 1421.92C3842.26 1415.54 3844 1409.15 3845.58 1402.72C3845.83 1401.68 3845.61 1400.22 3845.04 1399.32C3841.01 1393 3840.51 1386.28 3842.46 1379.26C3843.64 1375.01 3845.03 1370.82 3846.26 1366.58C3846.99 1364.08 3849.05 1363.04 3851.22 1361.68C3852.38 1364.52 3852.45 1367.31 3852.2 1370.13C3851.74 1375.37 3850.01 1380.25 3847.87 1385C3847.01 1386.92 3846.07 1388.79 3845.2 1390.7C3843.69 1394.01 3843.87 1394.38 3847.64 1395.65C3847.97 1394.89 3848.36 1394.13 3848.63 1393.33C3851.13 1385.91 3853.62 1378.48 3856.08 1371.04C3858.22 1364.58 3859.01 1357.89 3859.12 1351.14C3859.16 1348.49 3859.54 1346.31 3862.48 1345.21C3862.19 1343.6 3862.28 1341.89 3861.56 1340.65C3860.48 1338.79 3860.62 1336.9 3860.39 1334.95C3860.01 1331.79 3859.46 1328.62 3858.61 1325.57C3857.93 1323.14 3856.89 1320.76 3855.64 1318.57C3853.2 1314.27 3851.51 1309.84 3851.49 1304.8C3851.48 1302.96 3851.01 1301.07 3850.48 1299.28C3849.32 1295.39 3847.57 1294.32 3843.59 1294.81C3842.72 1294.92 3841.87 1295.13 3840.19 1295.44C3841.5 1294.24 3842.3 1293.5 3843.12 1292.77C3843.99 1291.97 3844.88 1291.19 3845.94 1290.24C3844.59 1289.28 3843.45 1288.46 3842.03 1287.45C3843.4 1285.2 3844.73 1283 3846.08 1280.77C3849.03 1281.75 3850.5 1283.73 3851.28 1286.25C3851.94 1288.35 3852.42 1290.51 3852.88 1292.67C3853.63 1296.16 3855.05 1299.17 3858.47 1300.86C3858.58 1302.09 3858.68 1303.27 3858.82 1304.93C3860.11 1304.64 3861.2 1304.4 3862.57 1304.09C3859.26 1296.51 3856.09 1289.25 3852.92 1281.98C3852.52 1281.07 3852.05 1280.19 3851.69 1279.27C3850.51 1276.19 3848.99 1273.42 3845.22 1272.44C3845.71 1271.43 3846.07 1270.7 3846.46 1269.9C3845.94 1269.37 3845.17 1268.91 3844.87 1268.24C3842.55 1263.01 3840.33 1257.73 3837.79 1251.79C3840.07 1252.8 3841.79 1253.55 3843.76 1254.43C3843.94 1251.09 3843.94 1248.15 3842.2 1245.35C3839.82 1241.55 3839.55 1237.23 3839.63 1232.88C3839.69 1230.01 3839.86 1227.13 3839.81 1224.26C3839.74 1220.36 3838.74 1219.02 3834.88 1217.94C3832.93 1217.4 3832.44 1215.88 3831.79 1214.38C3826.95 1203.24 3822.12 1192.1 3817.29 1180.96C3816.69 1179.58 3816.11 1178.19 3815.32 1176.34C3817.3 1176.82 3818.75 1177.17 3820.52 1177.59C3820.4 1176.75 3820.4 1176.13 3820.22 1175.57C3818.17 1169.36 3815.46 1163.55 3811.46 1158.24C3803.66 1147.89 3800.45 1135.75 3798.85 1123.11C3798.33 1119.02 3797.34 1115.17 3795.2 1111.54C3793.82 1109.2 3792.94 1106.49 3792.31 1103.83C3791.42 1100.11 3789.72 1097.31 3785.35 1096.24C3786.76 1095.15 3787.87 1094.3 3789.2 1093.27C3786.56 1088.01 3784.15 1083.22 3781.75 1078.43C3781.31 1077.55 3780.87 1076.66 3780.49 1075.75C3779.32 1073.01 3778.09 1070.29 3777.05 1067.5C3776.53 1066.09 3776.15 1064.57 3776.09 1063.08C3776.02 1061.32 3775.64 1060.2 3773.72 1059.69C3771.85 1059.2 3771.58 1058.49 3772.45 1056.56C3773.4 1054.48 3773 1052.68 3771.77 1050.96C3768.3 1046.12 3764.81 1041.28 3761.26 1036.5C3760.65 1035.68 3759.69 1035.12 3758.66 1034.24C3758.82 1033.58 3759.09 1032.55 3759.36 1031.48C3753.9 1027 3750.72 1021.55 3752 1014.06C3751.46 1013.99 3750.93 1013.88 3750.41 1013.88C3747.96 1013.89 3746.48 1012.53 3745.72 1010.38C3745 1008.3 3744.37 1006.17 3743.88 1004.02C3743.3 1001.47 3742.16 999.297 3740.33 997.421C3736.3 993.318 3732.24 989.249 3728.39 984.984C3724.48 980.64 3720.66 976.19 3717.06 971.587C3711.68 964.715 3706.53 957.663 3701.27 950.701C3700.4 949.548 3699.6 948.519 3699.86 946.836C3700.01 945.894 3699.35 944.769 3698.89 943.808C3698.61 943.24 3698.04 942.79 3697.55 942.358C3688.46 934.46 3679.52 926.4 3670.25 918.727C3656.55 907.386 3642.59 896.353 3628.79 885.131C3621.56 879.257 3613.5 875.21 3604.47 872.811C3596.59 870.717 3588.89 867.969 3581.08 865.619C3579.03 865.002 3576.85 864.789 3574.15 864.281C3574.19 864.364 3573.92 863.789 3573.62 863.223C3572.07 860.233 3571.08 859.901 3567.8 860.864C3566.83 861.15 3565.65 861.082 3564.64 860.856C3560.44 859.914 3556.21 859.048 3552.1 857.789C3543.59 855.183 3534.79 854.418 3526.02 853.403C3517.79 852.451 3509.56 851.498 3501.36 850.355C3493.67 849.282 3485.99 848.743 3478.25 849.743C3476.5 849.969 3474.72 849.949 3472.95 849.976C3469.85 850.025 3467.2 851.432 3464.54 852.748C3463.19 853.41 3463.87 854.322 3464.44 855.317C3468.5 854.595 3472.5 853.885 3477.17 853.055C3476.11 855.491 3475.26 857.422 3474.17 859.926C3498.61 857.062 3521.55 860.736 3543.31 871.919C3543.41 870.992 3543.47 870.452 3543.52 869.913C3543.57 869.48 3543.61 869.047 3543.7 868.203C3545.56 868.394 3547.36 868.577 3549.48 868.793C3549.23 869.83 3549.02 870.63 3548.86 871.441C3548.31 874.218 3549.16 875.623 3551.91 876.337C3552.76 876.555 3553.66 876.564 3554.53 876.667C3555.29 876.757 3556.06 876.844 3557.12 876.968C3556.82 877.947 3556.55 878.797 3556.25 879.753C3565.49 886.252 3573.73 893.858 3580.76 902.912C3581.27 902.586 3581.63 902.383 3581.97 902.146C3584.74 900.189 3586.27 900.377 3588.43 903.035C3590.66 905.775 3592.88 908.523 3595.02 911.331C3595.52 911.982 3595.97 912.892 3595.95 913.672C3595.84 918.589 3598.16 922.351 3601.46 925.658C3603.22 927.416 3605.08 929.067 3607.43 931.27C3603.8 931.27 3600.87 931.27 3597.73 931.27C3597.63 933.543 3598.61 934.832 3600.13 935.92C3601.93 935.358 3603.27 932.782 3605.38 934.054C3606.97 935.014 3608.07 936.784 3609.38 938.19C3611.44 937.557 3613.58 936.62 3615.82 936.263C3620.1 935.577 3623.77 937.355 3627.33 939.548C3631.46 942.088 3635.61 944.622 3639.93 946.808C3644.85 949.296 3649.08 952.553 3652.67 956.681C3656.87 961.499 3661.86 965.233 3667.6 968.037C3669.49 968.958 3671.24 969.608 3673.34 967.914C3674.09 969.15 3674.8 970.231 3675.41 971.369C3677.32 974.939 3679.84 977.959 3683.23 980.212C3686.54 982.404 3689.02 985.123 3690.22 989.108C3690.86 991.257 3692.47 993.126 3693.7 995.09C3694.46 996.307 3695.29 997.476 3696.12 998.648C3698.8 1002.43 3699.43 1006.46 3697.92 1010.89C3697.36 1012.53 3696.74 1013.71 3694.45 1013.34C3692.55 1010.27 3690.54 1007.01 3688.41 1003.56C3686.51 1005.48 3684.82 1007.19 3682.99 1009.05C3678.59 1006.42 3674.2 1003.79 3669.11 1000.75C3670.69 1006.67 3672.07 1011.81 3673.45 1016.96C3673.23 1017.09 3673.02 1017.23 3672.81 1017.36C3671.24 1015.83 3669.67 1014.29 3668.11 1012.76C3667.92 1012.88 3667.74 1013.01 3667.55 1013.13C3667.59 1013.73 3667.47 1014.4 3667.69 1014.91C3670.07 1020.25 3672.44 1025.59 3674.97 1030.86C3675.42 1031.81 3676.61 1032.41 3677.45 1033.17C3677.67 1033.05 3677.88 1032.94 3678.1 1032.83C3677.58 1028.12 3677.06 1023.4 3676.56 1018.87C3678.63 1017.63 3679.32 1018.65 3679.91 1020C3681.71 1024.15 3683.53 1028.3 3685.34 1032.45C3686.78 1035.78 3688.22 1039.11 3689.73 1042.6C3688.72 1043.42 3687.79 1044.17 3686.62 1045.11C3684.23 1042.65 3683.02 1039.54 3680.9 1036.47C3680.7 1037.9 3680.58 1038.82 3680.45 1039.74C3671.81 1038.11 3663.9 1033.06 3658.03 1025.22C3657.3 1028.88 3657.25 1032.08 3657.89 1035.3C3658.97 1040.8 3661.93 1045.3 3665.71 1049.28C3668.09 1051.79 3668.72 1054.73 3668.75 1058.1C3659.12 1053.63 3653.35 1045.58 3648.13 1037.1C3644.8 1037.57 3646.29 1040.27 3645.32 1042.3C3642.62 1038.46 3640.08 1034.84 3637.54 1031.23C3637.32 1031.27 3637.11 1031.31 3636.89 1031.35C3636.99 1032.56 3636.93 1033.8 3637.21 1034.97C3637.63 1036.68 3638.21 1038.36 3638.84 1040.01C3640.55 1044.43 3641.16 1048.78 3637.53 1053.57C3638.67 1054.34 3639.78 1054.91 3640.66 1055.73C3644.69 1059.47 3643.78 1058.03 3642.8 1063.04C3642.29 1065.64 3641.64 1068.22 3641.43 1070.85C3641.31 1072.43 3641.67 1074.16 3642.24 1075.66C3643.06 1077.82 3644.48 1079.75 3645.26 1081.91C3646.03 1084.06 3646.32 1086.39 3646.87 1088.86C3647.61 1088.74 3648.33 1088.62 3649.05 1088.51C3651.52 1088.12 3652.21 1088.69 3652.29 1091.26C3652.33 1092.48 3652.17 1093.7 3652.26 1094.91C3652.32 1095.8 3652.63 1096.68 3652.89 1097.81C3655.24 1095.99 3654.57 1092.58 3657.82 1091.37C3659.58 1099.58 3661.29 1107.58 3662.98 1115.46C3662.61 1115.78 3662.46 1116.03 3662.3 1116.04C3656.94 1116.4 3654.79 1119.99 3653.56 1124.59C3651.52 1132.27 3648.18 1137.23 3641.36 1142.57C3640.56 1141.31 3639.79 1140.07 3638.74 1138.4C3640.35 1138.49 3641.51 1138.56 3643.07 1138.65C3642.83 1136.73 3642.6 1134.85 3642.33 1132.72C3643.68 1133.37 3644.74 1133.88 3646.41 1134.69C3645.66 1128.95 3644.98 1123.72 3644.3 1118.48C3644.08 1118.44 3643.86 1118.4 3643.64 1118.35C3638.09 1129.46 3632.55 1140.57 3626.74 1152.22C3624.73 1149.22 3622.99 1146.62 3621.36 1144.17C3619.63 1144.14 3618.84 1144.84 3618.36 1146.14C3617.03 1149.77 3615.56 1153.35 3614.32 1157C3614 1157.94 3614.11 1159.18 3614.44 1160.14C3615.67 1163.69 3616.08 1167.12 3614.65 1170.79C3613.47 1173.79 3614.04 1176.93 3615.55 1179.77C3616.64 1181.81 3617.91 1183.75 3619.15 1185.71C3621.47 1189.35 3621.07 1190.77 3617.14 1192.58C3616.65 1192.81 3616.17 1193.07 3615.7 1193.34C3615.62 1193.39 3615.59 1193.52 3615.33 1193.97C3615.69 1194.5 3616.07 1195.25 3616.62 1195.83C3617.07 1196.29 3617.73 1196.54 3618.29 1196.89C3621.29 1198.79 3621.4 1199.15 3620 1202.74C3620.9 1202.74 3621.7 1202.73 3622.5 1202.74C3624.97 1202.79 3625.62 1203.61 3625.08 1206.08C3624.91 1206.83 3624.65 1207.57 3624.37 1208.28C3624.18 1208.78 3623.89 1209.23 3623.67 1209.65C3617.47 1209.4 3617.47 1209.4 3616.35 1211.15C3620.77 1213.22 3623.14 1216.79 3623.36 1221.95C3619.74 1221.63 3616.55 1219.48 3612.29 1218.76C3619.47 1224.32 3621.37 1231.65 3621.88 1239.6C3622.12 1243.42 3622.5 1247.23 3622.87 1251.64C3621.62 1250.13 3620.74 1249.05 3619.61 1247.68C3616.8 1249.5 3613.98 1251.32 3610.88 1253.33C3612.97 1255.48 3614.93 1257.39 3616.76 1259.41C3618.39 1261.2 3619.96 1263.07 3621.44 1264.99C3622.51 1266.38 3622.81 1268.04 3622.04 1269.69C3619.73 1274.58 3617.4 1279.46 3615 1284.3C3614.29 1285.73 3613.23 1286.86 3611.12 1286.01C3613.01 1281.47 3614.86 1277.03 3616.84 1272.27C3615.08 1271.32 3613.51 1270.47 3611.27 1269.26C3611.82 1270.79 3612.16 1271.56 3612.39 1272.38C3613.12 1275.02 3612.41 1275.99 3609.57 1276.22C3608.95 1276.28 3608.32 1276.23 3607.44 1276.23C3609.11 1277.94 3610.54 1279.4 3612.23 1281.13C3610.55 1282.27 3609.17 1283.32 3607.68 1284.19C3606.31 1284.99 3605.71 1286.05 3605.55 1287.63C3605.03 1292.46 3604.37 1297.27 3603.78 1302.09C3603.61 1303.42 3603.67 1304.93 3601.22 1304.33C3600.9 1300.75 3600.58 1297.06 3600.26 1293.44C3595.66 1292.39 3593.04 1293.85 3592.35 1298.08C3591.9 1300.9 3591.72 1303.72 3588.97 1306.34C3591.04 1306.34 3592.33 1306.3 3593.61 1306.34C3597.73 1306.47 3598.91 1307.39 3599.85 1311.31C3600.2 1312.77 3600.39 1314.28 3600.72 1316.21C3598.64 1315.6 3597.01 1315.13 3595.15 1314.58C3594.24 1317.19 3593.79 1319.73 3593.86 1322.34C3593.86 1322.65 3594.62 1322.94 3595.21 1323.36C3596.17 1321.71 3597.03 1320.24 3598.1 1318.4C3600.37 1322.64 3602.44 1326.5 3604.56 1330.46C3601.76 1333.01 3601.65 1336.04 3602.47 1339.37C3603.04 1341.71 3603.35 1344.12 3603.73 1346.5C3604.09 1348.7 3604.3 1350.74 3607.14 1351.52C3608.34 1351.84 3609.34 1353.56 3610.03 1354.86C3610.9 1356.49 3611.37 1358.35 3612.12 1360.42C3610.71 1360.58 3609.37 1360.73 3607.84 1360.91C3608 1362.95 3609.24 1364.28 3610.62 1365.52C3611.93 1366.68 3613.38 1367.71 3614.55 1369C3617.42 1372.18 3617.67 1372.34 3621.75 1371.5C3622.32 1373.01 3622.85 1374.56 3623.47 1376.07C3625.01 1379.82 3625.93 1380.42 3629.93 1380.38C3631.04 1380.37 3632.14 1380.38 3633.12 1380.38C3633.29 1380.13 3633.36 1380.05 3633.4 1379.96C3633.45 1379.86 3633.53 1379.72 3633.49 1379.65C3630.65 1374.3 3627.79 1368.95 3624.81 1363.36C3626.3 1362.38 3627.72 1361.44 3629.35 1360.36C3629.81 1362.32 3630.19 1363.91 3630.52 1365.31C3631.42 1365.52 3632.42 1365.47 3632.94 1365.95C3636.98 1369.7 3641.05 1373.45 3644.88 1377.42C3647.17 1379.8 3648.8 1382.72 3649.71 1386.17C3648.34 1387.7 3646.96 1389.25 3645.52 1390.86C3643.98 1390.23 3642.59 1389.66 3640.7 1388.88C3641.34 1392.37 3641.9 1395.45 3642.55 1399C3644.07 1397.84 3645.24 1396.9 3646.47 1396.03C3649.15 1394.1 3650.34 1394.12 3653.01 1396.1C3653.98 1396.82 3654.91 1397.59 3656.16 1398.57C3657.05 1396.64 3657.86 1394.86 3658.68 1393.08C3658.96 1393.16 3659.23 1393.23 3659.51 1393.31C3659.82 1397.51 3658.45 1401.64 3658.48 1405.97C3659.67 1406.64 3660.9 1407.32 3662.88 1408.42C3658.89 1409.13 3655.64 1409.71 3652.31 1410.3C3654.86 1413.88 3654.87 1413.9 3650.9 1416.21C3649.54 1417.01 3648.68 1417.96 3648.91 1419.66C3649.31 1422.63 3647.58 1424.25 3645.08 1425.08C3640.12 1426.73 3634.95 1427.64 3629.76 1427.28C3621.45 1426.72 3613.15 1419.2 3611.23 1411.04C3610.76 1409.03 3610.36 1407 3609.92 1404.94C3603.28 1407.63 3603.28 1407.63 3597.94 1402.97C3597.57 1406.78 3597.23 1410.31 3596.88 1413.96C3595.79 1414.02 3594.83 1414.06 3593.72 1414.12C3593.09 1415.64 3592.54 1417.18 3591.84 1418.66C3590.34 1421.82 3589.32 1422.06 3586.59 1419.98C3586.17 1419.65 3585.77 1419.29 3585.2 1418.82C3583.55 1420.71 3581.99 1422.51 3580.44 1424.29C3578 1423.55 3577.07 1421.95 3577.14 1419.75C3577.19 1418.21 3577.5 1416.68 3577.64 1415.15C3577.76 1413.89 3577.81 1412.63 3577.89 1411.37C3577.64 1411.26 3577.39 1411.16 3577.14 1411.06C3575.61 1413.14 3573.9 1415.12 3572.63 1417.34C3572.14 1418.2 3572.24 1419.84 3572.75 1420.76C3574.54 1424.03 3576.62 1427.15 3578.6 1430.32C3578.84 1430.69 3579.21 1430.96 3579.49 1431.3C3581.15 1433.31 3581.12 1433.53 3579.03 1435.18C3578.69 1435.45 3578.37 1435.74 3577.92 1436.12C3578.33 1437.85 3580.42 1439.32 3579.17 1441.26C3578.23 1442.7 3576.9 1443.89 3575.61 1445.35C3576.33 1445.35 3577.22 1445.35 3578.11 1445.35C3579.07 1445.35 3580.03 1445.35 3581.17 1445.35C3581.17 1446.73 3581.17 1448 3581.17 1449.43C3579.2 1449.59 3577.36 1449.8 3575.51 1449.87C3573.44 1449.94 3572.98 1449.3 3573.52 1447.26C3573.63 1446.84 3573.86 1446.46 3574.1 1445.91C3573.73 1445.65 3573.41 1445.4 3573.07 1445.19C3570.37 1443.5 3569.98 1442.42 3570.97 1439.43C3571.57 1437.59 3572.14 1435.75 3572.84 1433.54C3570.02 1433.54 3567.76 1433.54 3565.19 1433.54C3566 1437.37 3566.77 1441.01 3567.54 1444.66C3567.73 1445.52 3567.82 1446.42 3568.13 1447.24C3568.69 1448.75 3568.31 1449.93 3567.39 1451.21C3564.81 1454.79 3562.36 1458.45 3559.66 1462.37C3561.69 1463.53 3563.56 1464.6 3565.61 1465.77C3564.86 1459.39 3565.37 1458.74 3572.55 1456.68C3572.99 1458.54 3572.33 1460.25 3571.51 1461.74C3569.83 1464.84 3567.92 1467.8 3566.05 1470.79C3564.29 1473.6 3562.42 1476.33 3560.71 1479.16C3560.06 1480.25 3559.74 1481.55 3559.18 1482.96C3560.53 1483.34 3561.56 1483.63 3562.81 1483.98C3562.08 1485.69 3561.41 1487.26 3560.61 1489.14C3562.17 1489.55 3563.51 1489.91 3565.2 1490.37C3566.15 1486.39 3567.08 1482.55 3567.99 1478.71C3568.9 1474.85 3569.81 1470.99 3570.79 1466.82C3571.82 1467.72 3572.62 1468.41 3573.41 1469.11C3574.93 1468.21 3574.33 1465.84 3576.69 1465.18C3575.71 1473.65 3579.38 1479.47 3586.34 1483.52C3590.5 1478.12 3590.03 1467.48 3585.3 1462.7C3584.82 1466.22 3586.01 1469.74 3584.24 1472.86C3583.92 1473.41 3583.47 1473.89 3582.62 1475.02C3581.07 1468.41 3579.67 1462.4 3578.28 1456.49C3579.74 1455.43 3580.38 1455.94 3580.85 1457.04C3581.81 1459.27 3583.55 1460.75 3585.7 1462.14C3592.15 1459.03 3598.86 1456.79 3606.36 1458.33C3605.9 1461.67 3602.51 1462.19 3600.79 1464.63C3602.53 1464.31 3604.27 1463.99 3606.44 1463.59C3606.74 1465.71 3607.04 1467.81 3607.39 1470.34C3605.47 1469.63 3604 1469.09 3602 1468.35C3602.68 1470.46 3603.2 1472.07 3603.8 1473.94C3608.94 1472.78 3613.85 1471.67 3619.31 1470.43C3618.76 1472.34 3618.19 1473.83 3617.92 1475.38C3617.63 1477.08 3617.38 1478.85 3617.54 1480.55C3618.11 1486.6 3617.78 1492.42 3614.77 1497.93C3614.05 1499.27 3613.99 1501.12 3614.08 1502.71C3614.19 1504.56 3614.71 1506.41 3615.21 1508.21C3617.21 1515.53 3617.54 1523.02 3617.63 1530.55C3617.65 1531.89 3617.62 1533.12 3616.46 1534.16C3615.89 1534.67 3615.56 1535.68 3615.49 1536.49C3614.91 1542.53 3614.42 1548.57 3613.9 1554.57C3616.31 1555.45 3616.22 1555.4 3617.18 1553.55C3619.94 1548.18 3620.38 1542.38 3620.63 1536.51C3620.79 1533 3621.2 1529.51 3621.56 1525.22C3624.21 1528.09 3626.33 1530.38 3628.72 1532.97C3626.03 1534.25 3623.7 1535.36 3620.89 1536.69C3622.61 1537.49 3623.98 1538.09 3625.32 1538.74C3627.77 1539.92 3629.26 1541.65 3629.46 1544.58C3630.1 1553.76 3632.53 1562.41 3637.77 1570.1C3638.7 1571.46 3638.38 1572.75 3638.02 1574.41C3637.08 1573.81 3636.38 1573.36 3635.5 1572.79C3635.54 1573.21 3635.49 1573.51 3635.6 1573.73C3636.7 1575.77 3637.93 1577.74 3638.92 1579.83C3641.57 1585.41 3641.95 1591.07 3639.26 1596.78C3639.09 1597.15 3639 1597.57 3638.85 1598.05C3643.39 1596.96 3645 1595.23 3645.05 1590.87C3645.09 1587.46 3644.7 1584.04 3644.6 1580.62C3644.54 1578.92 3644.7 1577.22 3644.77 1575.52C3645.06 1575.49 3645.35 1575.45 3645.64 1575.42C3646.03 1576.74 3646.51 1578.04 3646.8 1579.38C3646.99 1580.23 3646.9 1581.14 3646.91 1582.02C3647.02 1588.22 3647.12 1588.4 3652.52 1591.56C3651.63 1593.51 3650.74 1595.49 3649.75 1597.68C3648.16 1597.04 3646.71 1596.45 3644.87 1595.72C3645.46 1598.32 3645.97 1600.54 3646.45 1602.65C3646.18 1602.96 3646.08 1603.21 3645.91 1603.27C3642.24 1604.52 3642.23 1604.66 3643.21 1608.49C3643.76 1610.6 3644.02 1612.78 3644.47 1615.25C3645.99 1614.5 3647.34 1613.83 3648.83 1613.09C3648.2 1610.14 3647.61 1607.36 3646.87 1603.87C3649.46 1605.87 3650.66 1608.04 3650.84 1610.49C3651.06 1613.54 3650.83 1616.64 3650.59 1619.71C3650.41 1622.12 3649.9 1624.51 3649.57 1626.92C3649.1 1630.3 3650.31 1632.96 3653.08 1634.95C3653.84 1635.5 3654.53 1636.15 3655.8 1637.22C3653.87 1637.4 3652.59 1637.48 3651.32 1637.66C3650.23 1637.81 3649.14 1638.02 3648.07 1638.29C3646.53 1638.69 3645.86 1639.78 3646.2 1641.29C3646.56 1642.88 3647.13 1644.43 3647.83 1646.7C3648.58 1644.62 3649.07 1643.24 3649.64 1641.67C3652.33 1642.75 3650.4 1645.43 3651.9 1647.02C3653.62 1645.52 3655.32 1644.02 3657.03 1642.53C3655.5 1648.88 3655.17 1656.03 3646.43 1657.05C3646.05 1659.74 3645.69 1662.32 3645.32 1664.89C3645.51 1665 3645.7 1665.11 3645.89 1665.21C3648.81 1662.14 3651.73 1659.07 3654.77 1655.87C3655.51 1656.3 3656.14 1656.66 3656.81 1657.05C3655.7 1660.23 3654.6 1663.29 3653.59 1666.36C3653.51 1666.62 3654.02 1667.07 3654.34 1667.53C3657.7 1664.94 3659.65 1661.34 3663.42 1658.71C3663.19 1662.01 3660.98 1663.69 3660.28 1666.32C3661.29 1667.08 3662.4 1667.92 3663.66 1668.87C3664.19 1668.21 3664.63 1667.65 3664.7 1667.56C3666.9 1667.61 3668.8 1668.06 3670.46 1667.62C3674.06 1666.65 3677.18 1667.36 3680.57 1669.49C3679.25 1670.1 3678.14 1670.61 3676.69 1671.27C3677.26 1672.94 3677.91 1674.64 3678.42 1676.39C3679.49 1680 3678.69 1681.44 3674.74 1682.91C3673.64 1681.23 3672.5 1679.5 3671.05 1677.3C3669.94 1680.95 3668.44 1684.12 3668.12 1687.4C3667.78 1690.84 3668.59 1694.39 3668.4 1698.18C3667.19 1696.45 3665.99 1694.73 3664.75 1692.95C3663.9 1694.96 3663.78 1698.08 3664.39 1702.07C3665.32 1702.18 3666.29 1702.37 3667.26 1702.39C3669.57 1702.44 3671.87 1702.41 3674.59 1702.41C3674.49 1700.68 3674.56 1698.94 3674.25 1697.27C3673.74 1694.54 3674.66 1692.57 3676.86 1691.04C3677.59 1690.54 3678.17 1689.71 3678.96 1689.45C3680.15 1689.06 3681.65 1688.57 3682.66 1688.99C3683.4 1689.29 3684.03 1691.04 3683.91 1692.05C3683.3 1697.19 3682.9 1702.39 3680.51 1707.15C3679.73 1708.72 3679 1710.35 3678.49 1712.03C3677.69 1714.67 3677.91 1717.25 3679.92 1720.03C3682.41 1714.01 3684.78 1708.3 3687.21 1702.41C3689.88 1703.9 3688.69 1706.73 3690.35 1708.69C3692.01 1705.69 3693.57 1702.87 3695.49 1699.42C3697.14 1703.02 3698.63 1706.02 3699.87 1709.12C3700.2 1709.93 3699.87 1711.07 3699.66 1712.02C3698.69 1716.54 3697.65 1721.03 3696.64 1725.52C3700.86 1726.84 3701.61 1729.87 3701.28 1733.53C3701.23 1734.18 3701.36 1734.85 3701.43 1735.87C3703.79 1734.1 3704.2 1731.24 3706.38 1729.22C3708.07 1734.12 3710.22 1738.7 3708.55 1743.9C3708.19 1745.03 3708.24 1745.93 3708.87 1746.99C3716.21 1759.37 3719.07 1773.01 3719.82 1787.17C3720.93 1808.07 3717.18 1828.3 3710.89 1848.13C3708.69 1855.07 3706.21 1861.93 3703.93 1868.84C3703.49 1870.18 3703.19 1871.62 3703.12 1873.03C3702.97 1876.28 3702.37 1879.42 3700.9 1882.3C3693.47 1896.92 3688.48 1912.5 3682.75 1927.79C3671.21 1958.61 3659.43 1989.32 3645.59 2019.2C3641.05 2029.01 3636 2038.58 3631.03 2048.19C3629.31 2051.52 3627.19 2054.65 3625.16 2057.8C3616.44 2071.36 3603.51 2077.8 3587.9 2079.48C3585.31 2079.76 3582.62 2079.25 3579.99 2078.98C3578.87 2078.87 3578.1 2078.3 3577.71 2076.98C3577.28 2075.55 3576.45 2074.17 3575.54 2072.96C3572.82 2069.34 3569.94 2065.84 3567.17 2062.25C3563.57 2057.59 3560.72 2052.54 3558.62 2047C3557.58 2044.26 3556.02 2041.59 3554.18 2039.3C3548.21 2031.85 3543.26 2023.75 3538.61 2015.47C3529.1 1998.52 3519.77 1981.47 3510.23 1964.54C3498.56 1943.84 3489.42 1922.18 3483.83 1899.02C3480.15 1883.76 3474.05 1869.26 3468.55 1854.59C3468.44 1854.29 3468.23 1854.02 3467.86 1853.38C3466.81 1853.83 3465.69 1854.18 3464.68 1854.75C3462.96 1855.74 3461.29 1856.83 3459.63 1857.92C3456.67 1859.85 3453.5 1860.91 3449.92 1860.47C3447.49 1860.17 3445.32 1860.98 3443.28 1862.13C3440.3 1863.8 3437.3 1865.48 3434.46 1867.37C3434.32 1867.46 3434.18 1867.55 3434.05 1867.62V2017.59L3434.1 2017.88C3434.64 2021.02 3435.29 2024.13 3435.93 2027.49C3437.32 2027.19 3438.44 2026.95 3439.83 2026.65C3440.17 2030.9 3440.49 2034.94 3440.82 2039.07C3439.96 2039.53 3439.21 2039.94 3438.18 2040.5L3434.05 2034.83V2114.02C3443.92 2113.82 3453.79 2113.53 3463.66 2113.13C3472.27 2112.78 3480.89 2112.6 3489.5 2112.21C3494.57 2111.98 3499.62 2111.43 3504.69 2111.14C3509.76 2110.84 3514.84 2110.53 3519.92 2110.51C3533.4 2110.49 3546.4 2107.57 3559.4 2104.4C3594.36 2095.9 3629.16 2086.8 3663.41 2075.76C3673.59 2072.47 3683.7 2068.93 3693.68 2065.07C3705.06 2060.66 3716.76 2059.37 3728.81 2060.26C3750.87 2061.89 3771.66 2068.47 3791.96 2076.8C3800.32 2080.23 3808.46 2084.22 3816.7 2087.96C3817.49 2088.32 3818.26 2088.73 3819.34 2089.26C3820.03 2088.21 3820.7 2087.24 3821.31 2086.23C3842.15 2052.05 3857.37 2015.48 3867.67 1976.84C3873.28 1955.82 3877.75 1934.55 3880.82 1913.01C3883.73 1892.62 3885.13 1872.15 3883.58 1851.56C3882.43 1836.1 3879.56 1820.93 3876.06 1805.86C3872.65 1791.13 3869.07 1776.43 3866.19 1761.59C3862.03 1740.17 3860.24 1718.5 3861.18 1696.65C3861.24 1695.33 3861.39 1694.01 3861.48 1692.69C3861.6 1690.82 3862.19 1689.02 3860.46 1687.28C3859.62 1686.44 3859.83 1684.56 3859.47 1682.7C3858.7 1683.31 3858.01 1683.73 3857.5 1684.3C3856.91 1684.95 3856.47 1685.73 3855.82 1686.66C3853.6 1684.75 3851.88 1683.26 3850.06 1681.7C3846.85 1683.15 3843.79 1684.54 3840.09 1686.21C3840.98 1684.09 3841.61 1682.61 3842.35 1680.84C3841.43 1680.22 3840.47 1679.54 3839.47 1678.92C3835.73 1676.56 3831.96 1674.27 3828.25 1671.87C3826.46 1670.71 3825.9 1669.47 3826.82 1668.01C3829.55 1663.69 3828.84 1659.13 3828.24 1654.51C3827.97 1652.43 3827.84 1650.32 3827.91 1648.23C3827.96 1646.73 3828.44 1645.25 3828.82 1643.31C3830.76 1644.13 3832.32 1644.9 3833.96 1645.44C3834.93 1645.76 3836.02 1645.72 3837.06 1645.84ZM3465.81 860.574C3468.2 860.774 3470.37 860.947 3472.52 859.912C3470.25 857.311 3468.96 857.426 3465.81 860.574ZM3434.05 1274.1L3434.19 1273.99L3434.05 1273.97V1274.1ZM3585.14 1418.43C3588.55 1416.2 3589.12 1414.93 3588.43 1411.54C3587.98 1409.31 3587.42 1407.1 3586.84 1404.57C3585.5 1405.45 3584.25 1406.28 3582.79 1407.24C3583.16 1409.07 3583.51 1410.88 3583.89 1412.69C3584.27 1414.49 3584.68 1416.29 3585.14 1418.43ZM3615.39 1379.96C3613.27 1381.94 3611.05 1386.79 3609.24 1392.77C3611.87 1393.45 3614.48 1394.13 3617.6 1394.94C3616.86 1389.9 3616.17 1385.22 3615.39 1379.96ZM3434.05 860.829C3438.58 861.22 3439.51 859.672 3440.09 853.853C3440.16 853.117 3440.23 852.38 3440.32 851.487H3434.05V860.829ZM3640.29 1098.62C3639.71 1099.44 3639.38 1099.99 3638.97 1100.48C3637.54 1102.22 3637.43 1103.82 3638.81 1105.78C3640.55 1108.28 3641.93 1111.03 3643.66 1113.99C3645.69 1112.15 3647.57 1110.65 3649.18 1108.91C3651.33 1106.58 3650.62 1104.16 3647.64 1103.11C3646.81 1102.82 3645.94 1102.64 3645.1 1102.39C3642.62 1101.64 3642.14 1101.28 3640.29 1098.62ZM3505.57 1223.87C3503.49 1225.41 3501.29 1227.03 3498.66 1228.97C3500.96 1230.47 3503 1231.82 3505.06 1233.14C3507.09 1234.44 3509.15 1235.7 3511.19 1236.98C3515.06 1231.8 3512.9 1226.68 3505.57 1223.87ZM3454.43 857.802C3454.75 859.034 3454.93 859.755 3455.15 860.625C3457.16 860.625 3459.08 860.625 3461.41 860.625C3461.02 857.524 3460.65 854.637 3460.24 851.374C3456.71 850.78 3453.28 850.038 3449.82 849.663C3444.99 849.142 3443.32 851.187 3444.39 855.945C3444.51 856.476 3444.69 856.994 3444.92 857.802C3448.02 857.802 3451.16 857.802 3454.43 857.802ZM3442.66 1223.24C3443.3 1224.01 3444.43 1224.72 3444.5 1225.53C3444.73 1228.21 3444.59 1230.93 3444.59 1234.16C3443.57 1233.48 3443.03 1233.17 3442.55 1232.79C3437.47 1228.79 3437.45 1227.99 3442.66 1223.24ZM3434.05 1252.83C3437.41 1252.29 3440.52 1251 3443.23 1248.66C3444.59 1247.49 3445.57 1245.75 3446.39 1244.1C3448.21 1240.45 3449.69 1236.63 3451.54 1233C3453.56 1229 3456.48 1228.08 3460.56 1229.81C3463.2 1230.93 3465.86 1232.01 3468.48 1233.17C3472.04 1234.76 3475.29 1236.81 3477.84 1239.84C3479.91 1242.31 3482.72 1242.53 3486.33 1242.43C3485.02 1240.59 3483.97 1239.13 3482.94 1237.65C3479.05 1232.09 3474.13 1227.89 3467.73 1225.33C3463.86 1223.78 3460.19 1221.68 3456.49 1219.72C3449.06 1215.78 3441.66 1211.79 3434.05 1207.7V1252.83ZM3434.05 1201.96C3434.13 1201.85 3434.21 1201.74 3434.29 1201.63C3434.73 1201.06 3435.74 1200.65 3436.5 1200.63C3439.7 1200.57 3442.94 1200.4 3446.1 1200.8C3448.67 1201.13 3451.33 1201.84 3453.65 1203C3463.21 1207.8 3472.66 1212.83 3482.15 1217.78C3486.45 1220.02 3490.66 1222.47 3495.44 1223.63C3496.9 1223.99 3498.67 1224.9 3499.56 1223.05C3500.38 1221.35 3498.66 1220.33 3497.66 1219.23C3497.3 1218.84 3496.76 1218.6 3496.29 1218.32C3489.09 1214.14 3483.9 1207.73 3478.17 1201.94C3478.05 1201.82 3478.1 1201.54 3478.05 1201.11C3480.43 1200.28 3483.22 1201.16 3485.54 1199.94C3485.56 1199.69 3485.57 1199.44 3485.59 1199.18C3482.33 1198.59 3479.08 1197.99 3475.69 1197.38C3476.34 1193.71 3478.55 1191.78 3481.64 1190.71C3484.01 1189.88 3486.43 1189.21 3488.95 1188.43C3488.71 1186.83 3488.49 1185.43 3488.29 1184.02C3488.1 1182.62 3487.39 1181.67 3486.16 1180.88C3482.45 1178.51 3478.81 1175.99 3475.12 1173.57C3474.59 1173.22 3473.95 1172.94 3473.32 1172.86C3462.91 1171.65 3452.54 1169.88 3442 1170.25C3439.35 1170.35 3436.7 1170.53 3434.05 1170.71V1201.96ZM3434.05 1590.06L3434.53 1590.19L3434.05 1591.81V1637.12C3434.18 1637.09 3434.32 1637.07 3434.45 1637.04C3436.27 1636.7 3436.27 1636.7 3437.54 1634.83C3438.69 1636.12 3439.82 1637.39 3441.14 1638.87C3447.51 1633.71 3453.58 1628.81 3460.05 1623.58C3458.56 1623.08 3457.51 1622.73 3456.39 1622.36C3458.23 1616.16 3461.56 1611.83 3468.79 1611.73C3468.41 1610.93 3468.25 1610.55 3468.05 1610.19C3467.84 1609.82 3467.58 1609.47 3467.31 1609.07C3471.47 1602.8 3475.59 1596.58 3479.76 1590.29C3480.58 1590.85 3481.65 1591.59 3483.13 1592.61C3483.26 1590.05 3483.37 1587.84 3483.5 1585.46C3484.33 1585.52 3484.86 1585.52 3485.38 1585.61C3489.34 1586.27 3489.34 1586.28 3490.65 1582.65C3492.25 1583.33 3493.84 1584.04 3495.46 1584.67C3498.4 1585.81 3501.26 1585.41 3503.52 1583.31C3507.05 1580.02 3510.4 1576.54 3515.18 1574.85C3515.09 1574.56 3515 1574.27 3514.91 1573.99C3513.35 1573.99 3511.79 1574.07 3510.24 1573.96C3508.87 1573.86 3506.94 1574.19 3506.51 1572.6C3505.97 1570.58 3508.23 1570.67 3509.36 1570.1C3511.89 1568.83 3514.54 1567.81 3517.33 1566.6C3517.59 1568.57 3517.8 1570.17 3518.05 1572.08C3521.52 1571.37 3524.73 1570.72 3528.01 1570.05C3528.11 1569.37 3528.34 1568.81 3528.24 1568.32C3527.52 1564.86 3529.17 1562.95 3532.26 1561.9C3532.67 1561.76 3533.03 1561.51 3533.4 1561.32C3534.06 1561.65 3534.64 1561.96 3535.24 1562.22C3538.58 1563.67 3541.32 1563.03 3543.28 1559.93C3544.5 1558 3545.34 1555.79 3546.08 1553.61C3547.14 1550.48 3547.89 1547.24 3548.89 1544.09C3549.66 1541.63 3549.97 1541.4 3552.91 1539.9C3553.85 1541.82 3554.09 1543.77 3553.15 1546.06C3553.84 1545.74 3554.15 1545.64 3554.4 1545.46C3558.34 1542.54 3558.53 1540.48 3554.88 1537.28C3552.81 1535.46 3550.53 1533.87 3548.2 1532.39C3546.75 1531.47 3546 1530.47 3546 1528.69C3545.99 1526.62 3545.65 1524.55 3545.46 1522.62C3544.17 1522.01 3543.53 1522.29 3543.31 1523.44C3542.91 1525.5 3542.54 1527.56 3542.06 1529.6C3541.81 1530.69 3541.37 1531.74 3540.58 1532.78C3538.74 1528.68 3538.02 1524.45 3537.15 1520.14C3538.68 1519.86 3539.89 1519.64 3541.11 1519.42C3541.13 1519.14 3541.14 1518.86 3541.17 1518.59C3536.89 1516.91 3532.19 1516.68 3527.54 1515.19C3528.59 1513.43 3529.54 1511.85 3530.66 1509.99C3529.07 1508.53 3527.47 1507.07 3526.13 1505.85C3526.45 1504.35 3526.94 1503.07 3526.95 1501.79C3526.98 1498.81 3526.82 1495.83 3526.66 1492.85C3526.58 1491.39 3526.51 1491.39 3524.48 1490.64C3523.53 1497.55 3522.58 1504.37 3521.55 1511.88C3519.91 1509.63 3518.65 1507.9 3517.25 1505.99C3516.04 1506.88 3515.03 1507.73 3513.93 1508.43C3511.79 1509.78 3509.6 1511.05 3507.42 1512.33C3506.66 1512.77 3505.85 1513.12 3505.07 1513.55C3501.21 1515.68 3499.26 1518.88 3499.72 1523.35C3500.08 1526.84 3499.22 1530.1 3498.24 1533.71C3494.8 1532.7 3491.58 1531.76 3488.11 1530.74C3489.35 1527.05 3490.49 1523.65 3491.83 1519.66C3489.08 1520.62 3486.86 1521.39 3485.04 1522.03C3483.8 1527.5 3482.71 1532.55 3481.51 1537.59C3480.07 1543.64 3479.74 1549.6 3482.38 1555.84C3480.46 1555.03 3478.54 1554.22 3476.68 1553.43C3475.72 1546.6 3474.8 1540.05 3473.87 1533.49C3473.38 1529.99 3473.29 1529.89 3469.92 1529.53C3466.32 1529.14 3463.79 1527.17 3462.04 1524.14C3460.9 1522.16 3459.93 1520.09 3458.87 1518.03C3457.52 1519.15 3457.52 1519.15 3458.78 1523.19C3459.32 1524.95 3459.86 1526.71 3460.46 1528.67C3458.22 1528.77 3456.84 1526.57 3454.16 1527.21C3455.52 1529.36 3456.66 1531.16 3457.98 1533.24C3455.99 1535.71 3453.96 1538.24 3451.69 1541.06C3449.65 1536.6 3447.83 1532.62 3446 1528.64C3445.8 1528.65 3445.6 1528.66 3445.4 1528.67C3444.38 1532.06 3443.36 1535.44 3442.4 1538.65C3444.17 1540.12 3446.66 1538.51 3447.82 1541.07C3444.25 1544.22 3440.65 1547.32 3436.47 1550.74C3436.3 1547.3 3438.04 1545.09 3438.38 1542.56C3436.66 1542.83 3435.21 1543.39 3434.05 1544.17V1555.27L3438.9 1551.78C3439.91 1554.63 3437.3 1555.77 3437.01 1558.44C3438.26 1559.57 3439.92 1561 3441.51 1562.51C3444.97 1565.8 3447.24 1569.69 3447.98 1574.52C3448.31 1576.65 3449.39 1578.67 3450.36 1581.36C3449.21 1582.1 3447.74 1583.04 3446.38 1583.91C3448.03 1586.88 3450.68 1586.1 3452.62 1587.68C3450.3 1589.38 3448.07 1591.02 3445.86 1592.64C3444.04 1590.82 3438.43 1580.49 3435.74 1574.18C3436.5 1573.14 3437.4 1572.39 3437.68 1571.45C3438.38 1569.16 3438.78 1566.78 3439.28 1564.52C3438.02 1563.47 3437.31 1564.13 3436.64 1564.95L3434.05 1568.09V1590.06ZM3456.23 1583.71C3460.61 1586.38 3461.43 1588.45 3460.11 1592.45C3459.7 1593.69 3459.3 1594.94 3458.87 1596.18C3458.77 1596.46 3458.53 1596.7 3458.37 1596.94C3457.47 1596.94 3456.64 1596.94 3455.59 1596.94C3455.8 1592.57 3456 1588.38 3456.23 1583.71ZM3512.61 1539.62C3513.44 1540.25 3513.95 1540.63 3514.66 1541.17C3511.6 1546.24 3508.63 1551.18 3505.55 1556.28C3504 1555.12 3502.81 1554.23 3501.53 1553.28C3505.33 1548.6 3508.87 1544.24 3512.61 1539.62ZM3434.13 1606.77C3434.54 1602.45 3434.72 1598.37 3435.39 1594.37C3435.75 1592.27 3436.88 1590.26 3437.85 1588.31C3438.44 1587.12 3439.49 1586.9 3440.76 1588.13C3439.47 1594.52 3438.42 1601.09 3436.68 1607.59C3435.69 1607.27 3435.06 1607.07 3434.13 1606.77ZM3451.99 1608.55C3451.74 1608.63 3451.49 1608.71 3451.23 1608.78C3449.2 1606.53 3447.16 1604.27 3445.01 1601.88C3446.98 1599.06 3449.13 1596.03 3451.25 1592.96C3452.14 1591.67 3453.14 1591.23 3454.6 1592.4C3453.73 1597.77 3452.86 1603.16 3451.99 1608.55ZM3533.33 1560.79C3529.61 1559.08 3529.41 1558.36 3531.7 1555.51C3532.18 1554.91 3532.75 1554.35 3533.09 1553.68C3533.39 1553.07 3533.42 1552.34 3533.57 1551.63C3531.06 1551.35 3529.28 1554.09 3526.95 1552.97C3526.83 1552.68 3526.72 1552.38 3526.61 1552.09C3530.23 1549.76 3533.85 1547.43 3537.98 1544.77C3538.38 1547.46 3538.78 1549.58 3539 1551.71C3539.25 1554.14 3538.2 1556.09 3536.05 1557.14C3534.43 1557.93 3533.55 1559.06 3533.33 1560.79ZM3497.6 1539.52C3496.48 1542.61 3494.59 1545.15 3494.62 1548.5C3496.59 1547.63 3498.33 1546.86 3500.79 1545.77C3498.86 1551.18 3497.18 1555.88 3495.53 1560.49C3493.86 1560.9 3492.87 1560.65 3492.98 1558.89C3493.06 1557.68 3493.18 1556.48 3493.3 1555.27C3493.48 1553.36 3493.67 1551.45 3493.85 1549.61C3492.73 1549.41 3492.03 1549.29 3490.79 1549.07C3491.86 1546.8 3492.78 1544.87 3493.75 1542.83C3492.52 1541.64 3491.19 1540.36 3489.89 1539.1C3490.19 1538.01 3490.53 1537.17 3491.7 1537.53C3493.67 1538.13 3495.6 1538.84 3497.6 1539.52ZM3469.57 1576.4C3469.92 1576.28 3470.21 1576.11 3470.5 1576.11C3473.56 1576.14 3473.55 1576.14 3474.09 1573.25C3474.31 1572.14 3474.6 1571.04 3474.85 1569.93C3475.1 1569.91 3475.36 1569.89 3475.61 1569.87C3477.69 1573.34 3479.8 1576.8 3481.82 1580.3C3482.1 1580.79 3482.14 1581.58 3481.97 1582.13C3481.2 1584.51 3480.31 1586.86 3479.39 1589.45C3477.21 1588.64 3475.29 1587.93 3473.24 1587.17C3469.87 1591.54 3466.59 1595.78 3463.18 1600.19C3462.29 1599.52 3461.64 1599.03 3461 1598.54C3462.82 1595.95 3465.02 1593.74 3466.04 1591.07C3467.05 1588.43 3466.85 1585.33 3467.18 1582.45C3468.77 1582.28 3470.15 1582.13 3471.73 1581.97C3470.95 1579.95 3470.27 1578.22 3469.57 1576.4ZM3507.17 1534.19C3506.13 1537.42 3505.25 1540.17 3504.24 1543.3C3501.83 1540.65 3501.16 1538.14 3502.08 1535.27C3502.65 1533.49 3503.54 1531.78 3503.92 1529.97C3504.3 1528.13 3505 1526.74 3506.98 1526.17C3506.32 1522.35 3505.69 1518.7 3505.03 1514.83C3506.16 1514.52 3507.05 1514.28 3508.01 1514.02C3508.94 1515.39 3509.65 1516.64 3510.56 1517.73C3511.31 1518.64 3512.18 1519.85 3513.19 1520.08C3516.41 1520.82 3517.08 1522.92 3516.89 1525.74C3516.83 1526.62 3516.92 1527.51 3516.85 1528.39C3516.5 1533.32 3513.82 1536.03 3508.65 1536.62C3508.28 1536 3507.89 1535.36 3507.17 1534.19ZM3434.05 1855.24C3436.98 1854.7 3439.88 1854.04 3442.71 1853.08C3445.64 1852.09 3447.35 1849.77 3448.1 1846.81C3449.63 1840.73 3449.27 1834.7 3447.02 1828.91C3445.79 1825.74 3444.31 1822.55 3442.3 1819.84C3439.62 1816.21 3436.9 1812.6 3434.05 1809.09V1855.24ZM3609.15 1451.94C3607.96 1452.93 3607.43 1453.45 3606.83 1453.86C3606.11 1454.37 3605.37 1454.86 3604.57 1455.24C3601.07 1456.87 3598.91 1455.65 3597.98 1451.26C3601.5 1451.47 3604.94 1451.68 3609.15 1451.94ZM3660.85 1131.59C3656.87 1127.16 3657.51 1121.89 3663.1 1117.59C3662.33 1122.35 3661.63 1126.74 3660.85 1131.59ZM3842.65 1399.02C3841.05 1401.19 3839.77 1402.98 3838.44 1404.74C3837.16 1406.44 3835.83 1408.11 3834.39 1409.97C3831.96 1404.89 3835.11 1400.79 3842.65 1399.02ZM3625.63 1230.97C3631.47 1229.58 3635.74 1231.91 3632.94 1240.03C3630.47 1236.97 3628.17 1234.12 3625.63 1230.97ZM3821.66 1212.95C3817.15 1213.21 3815.35 1211.74 3815.57 1208.09C3815.71 1205.87 3816.32 1203.67 3816.72 1201.46C3816.96 1201.43 3817.21 1201.41 3817.46 1201.38C3818.82 1205.13 3820.19 1208.89 3821.66 1212.95ZM3659.51 1132.8C3659.77 1132.88 3660.04 1132.97 3660.3 1133.05C3660.04 1137.09 3659.77 1141.13 3659.46 1145.79C3657.34 1144.09 3655.75 1142.82 3654.02 1141.44C3655.92 1138.45 3657.71 1135.63 3659.51 1132.8ZM3808.96 1635.53C3810.4 1631.68 3811.78 1628.03 3813.11 1624.36C3813.7 1622.74 3814.67 1622.84 3815.86 1623.51C3815.57 1632.31 3814.26 1633.84 3808.96 1635.53ZM3610.07 919.562C3608.33 920.172 3607.26 920.876 3606.22 920.832C3604.75 920.77 3599.52 916.671 3598.56 915.266C3603.66 912.545 3602.72 912.177 3607.05 916.352C3607.9 917.171 3608.67 918.07 3610.07 919.562ZM3844.87 1272.12C3844.49 1274.3 3844.13 1276.42 3843.76 1278.64C3841.46 1279.06 3839.46 1279.42 3836.88 1279.89C3838.45 1276.25 3839.76 1273.19 3841.19 1269.88C3842.64 1270.77 3843.65 1271.38 3844.87 1272.12ZM3697.91 993.51C3698.88 991.924 3700.17 991.665 3701.33 992.635C3702.56 993.656 3703.77 994.896 3704.46 996.303C3705.16 997.739 3705.15 999.509 3705.57 1001.1C3706.03 1002.84 3705.26 1003.54 3703.47 1003.8C3702.05 1001.22 3700.61 998.628 3699.19 996.028C3698.72 995.176 3698.31 994.296 3697.91 993.51ZM3646.52 1061.46C3646.52 1058.36 3646.52 1055.75 3646.52 1052.78C3650.47 1054.01 3654.17 1055.17 3657.87 1056.33C3657.88 1056.52 3657.9 1056.72 3657.91 1056.91C3654.27 1058.37 3650.62 1059.82 3646.52 1061.46ZM3657.98 1075.01C3658.37 1078.9 3658.76 1082.7 3659.15 1086.67C3658.08 1086.79 3657.25 1086.88 3656.16 1087C3655.82 1085.01 3655.42 1083.19 3655.21 1081.35C3654.45 1074.75 3654.72 1074.39 3660.21 1071.04C3661.34 1072.4 3662.48 1073.8 3663.74 1075.33C3661.52 1076.95 3660.16 1074.67 3657.98 1075.01ZM3630.25 1200.2C3633.34 1200.85 3634.5 1202.44 3634.42 1205.17C3634.32 1208.67 3634.39 1212.17 3634.39 1215.77C3632.88 1216.57 3631.47 1217.32 3629.45 1218.38C3629.74 1211.98 3629.99 1206.23 3630.25 1200.2ZM3816.82 1644.19C3818.21 1641.94 3819.5 1639.85 3821.1 1637.28C3821.53 1644.27 3819.03 1648.61 3813.9 1650.56C3808.38 1646.9 3808.07 1646.94 3803.04 1652.09C3802.55 1648.59 3803.26 1646.28 3805.45 1645.3C3809.65 1643.42 3812.85 1645.19 3815.78 1648.36C3815.41 1646.6 3815.04 1644.83 3814.6 1642.73C3815.44 1643.28 3815.95 1643.62 3816.82 1644.19ZM3824.78 1539.82C3825.84 1544.62 3827.01 1549.4 3827.93 1554.22C3828.26 1555.97 3827.98 1557.83 3827.98 1559.64C3827.76 1559.71 3827.54 1559.78 3827.33 1559.85C3824.64 1555.99 3821.96 1552.13 3819.05 1547.94C3820.54 1547.94 3821.47 1547.94 3822.74 1547.94C3822.3 1546.69 3821.96 1545.69 3821.6 1544.68C3820.42 1541.29 3821.01 1540.42 3824.78 1539.82ZM3826.74 1258.69C3826.19 1252.71 3825.71 1247.46 3825.24 1242.2C3825.07 1240.34 3824.88 1238.47 3824.73 1236.61C3824.6 1235.05 3825.36 1234.68 3826.95 1235.19C3827.02 1236.12 3827.19 1237.09 3827.16 1238.05C3827.06 1241.23 3827.64 1243.99 3829.99 1246.52C3832.51 1249.23 3832.02 1254.68 3829.44 1257.51C3828.94 1258.06 3827.96 1258.17 3826.74 1258.69ZM3784.85 1539.87C3785 1538.6 3785.12 1537.53 3785.26 1536.46C3785.88 1531.67 3786.68 1526.93 3785.66 1522.04C3784.85 1518.13 3788.3 1514.91 3792.61 1515.1C3792.61 1525.6 3792.61 1536.1 3792.61 1546.78C3791.58 1546.72 3790.87 1546.68 3790.13 1546.64C3789.82 1544.61 3789.53 1542.78 3789.24 1540.92C3787.84 1540.58 3786.56 1540.28 3784.85 1539.87ZM3826.93 1579.92C3827.2 1579.99 3827.47 1580.05 3827.74 1580.12C3827.95 1582.83 3828.12 1585.55 3828.39 1588.26C3828.65 1591 3828.37 1593.8 3829.18 1596.91C3830.58 1595.42 3831.66 1594.27 3832.61 1593.25C3837.27 1598.5 3837.22 1604.34 3835.74 1610.28C3837.24 1610.91 3838.4 1611.39 3839.4 1611.81C3837.61 1618.27 3831.81 1618.43 3827.12 1620.22C3826.5 1620.45 3825.63 1620.04 3824.06 1619.81C3828.31 1616.35 3831.86 1613.47 3835.65 1610.38C3833.13 1608.8 3830.95 1607.43 3828.77 1606.06C3829.92 1604 3833.09 1604.35 3833.37 1601.38C3831.04 1601.38 3828.9 1601.38 3826.7 1601.38C3826.43 1604.43 3825.23 1607 3823.02 1609.01C3820.11 1611.64 3817.11 1614.18 3814.01 1616.89C3813.08 1614.55 3812.18 1612.31 3811.05 1609.48C3809.76 1613.32 3808.2 1616.28 3807.43 1619.91C3809.88 1619.16 3811.85 1618.55 3813.83 1617.95C3814.05 1618.46 3814.37 1618.95 3814.29 1619.02C3812.33 1620.85 3810.32 1622.64 3808.39 1624.37C3806.43 1623.06 3806.42 1623.05 3804.66 1623.86C3801.7 1625.24 3798.77 1626.75 3795.09 1626.96C3794.71 1625.12 3794.17 1623.43 3794.05 1621.7C3793.74 1617.3 3793.66 1612.88 3793.39 1608.48C3793.3 1607.04 3792.93 1605.62 3792.69 1604.19C3792.41 1604.18 3792.13 1604.17 3791.85 1604.15C3791.52 1605.6 3791.16 1607.05 3790.87 1608.51C3790.33 1611.21 3790.01 1613.98 3789.23 1616.6C3788.78 1618.09 3787.87 1619.74 3786.67 1620.64C3784.66 1622.14 3782.19 1622.89 3779.68 1622.99C3777.5 1620.1 3777.37 1619.84 3776.83 1617.57C3781.77 1617.78 3782.64 1616.9 3783.09 1611C3780.41 1611.67 3777.81 1612.33 3775.15 1613C3775.44 1608.33 3777.41 1601.68 3779.21 1599.93C3780.17 1601.98 3781.06 1603.9 3782.05 1606.03C3783.56 1605.63 3785 1605.25 3786.76 1604.79C3786.1 1603.9 3785.76 1603.18 3785.21 1602.74C3783.33 1601.23 3783.34 1599.53 3784.2 1597.46C3785.02 1595.48 3785.54 1593.38 3786.36 1590.8C3783.33 1591.39 3780.89 1591.96 3778.41 1592.29C3777.42 1592.42 3776.15 1592.32 3775.37 1591.79C3773.95 1590.82 3772.81 1589.45 3771.25 1587.97C3773.99 1586.43 3776.42 1585.07 3779.25 1583.48C3778.19 1583.14 3777.68 1582.96 3777.16 1582.81C3773.21 1581.65 3771.91 1580.14 3771.47 1576.1C3771.28 1574.35 3771.02 1572.57 3771.11 1570.82C3771.19 1569.24 3771.7 1567.69 3772.08 1565.86C3777.5 1567.12 3782.49 1568.27 3787.7 1569.47C3787.3 1570.59 3787.02 1571.39 3786.66 1572.41C3783.95 1571.41 3781.42 1570.47 3778.64 1569.44C3777.76 1572.15 3776.98 1574.55 3776.02 1577.51C3777.97 1576.42 3779.28 1575.69 3780.95 1574.77C3783.11 1579.92 3785.17 1584.85 3787.23 1589.76C3790.24 1589.31 3791.16 1587.33 3791.4 1584.64C3792.02 1577.5 3792.42 1570.31 3793.53 1563.24C3794.75 1555.52 3796.67 1547.91 3798.29 1540.26C3798.54 1539.07 3799.23 1538.56 3800.84 1539.24C3801.43 1543.92 3802.05 1548.8 3802.66 1553.6C3798.63 1556.29 3798.18 1557.6 3799.75 1562.24C3800.42 1564.22 3801.24 1566.15 3802 1568.11C3803.46 1571.87 3802.32 1575.17 3800.36 1578.31C3798.79 1578.31 3797.41 1578.31 3795.23 1578.31C3801.81 1584.33 3806.77 1590.66 3807.59 1599.33C3807.33 1599.49 3807.01 1599.85 3806.78 1599.8C3804.67 1599.39 3802.57 1598.91 3800.35 1598.43C3800.35 1603.71 3800.35 1608.94 3800.35 1614.47C3802.71 1614.22 3804.83 1613.99 3807.01 1613.77C3806.81 1609.86 3806.62 1606.36 3806.43 1602.7C3808.8 1602.1 3810.97 1601.55 3813.23 1600.98C3813.77 1602.73 3814.15 1604.11 3814.62 1605.45C3815.05 1606.68 3814.87 1608.24 3816.68 1609.3C3816.68 1607.36 3816.68 1605.8 3816.68 1604.11C3819.89 1603.11 3822.9 1602.17 3826 1601.2C3823.54 1597.83 3823.54 1597.84 3820.58 1600.04C3818.69 1601.44 3816.7 1600.97 3814.76 1600.4C3814.37 1598.98 3815.25 1598.75 3816.08 1598.38C3819.44 1596.93 3821.48 1594.28 3822.66 1590.91C3823.36 1588.93 3823.92 1586.91 3824.67 1584.95C3825.33 1583.24 3826.17 1581.6 3826.93 1579.92Z" fill="#BAA989"/>
</g>
<g opacity="0.75">
<path d="M3433.51 1867.62C3431.76 1868.61 3430.16 1868.45 3428.33 1867.68C3421.82 1864.94 3416.69 1860.59 3412.73 1854.78C3408.19 1848.1 3405.64 1840.61 3403.72 1832.85C3403.49 1831.91 3403.22 1830.98 3402.96 1830C3400.95 1830.02 3401.09 1831.34 3401.11 1832.51C3401.18 1836.27 3401.19 1840.03 3401.38 1843.78C3402.14 1858.58 3400.57 1873.09 3396.17 1887.29C3394.93 1891.28 3394.09 1895.41 3393.24 1899.52C3392.66 1902.3 3392.37 1905.15 3392.4 1908.27C3395.06 1905.55 3397.71 1902.83 3400.58 1899.9C3403.37 1902.82 3406.14 1905.37 3408.48 1908.26C3414.01 1915.07 3414.63 1922.46 3410.32 1930.14C3409.04 1932.43 3407.45 1934.56 3405.79 1937.07C3407.66 1937.41 3409.42 1937.73 3411.4 1938.09C3413.87 1945.58 3416.34 1953.1 3418.96 1961.04C3416.73 1961.24 3414.73 1961.42 3412.44 1961.63C3412.44 1959.67 3412.44 1957.97 3412.44 1956.01C3408.69 1959.53 3409.31 1962.02 3415.27 1968.14C3416.59 1967.15 3417.95 1966.13 3419.38 1965.06C3420.53 1966.07 3420.14 1967.37 3420.26 1968.48C3421.01 1975.84 3421.43 1983.25 3423.57 1990.38C3424.48 1993.43 3425.44 1996.6 3427.11 1999.25C3430.7 2004.92 3432.38 2011.13 3433.51 2017.59V1867.62ZM3433.51 2034.83L3424.26 2022.12C3424.06 2022.18 3423.86 2022.24 3423.66 2022.3C3423.66 2024.55 3423.54 2026.81 3423.69 2029.06C3423.97 2033.23 3423.2 2037.12 3421.51 2040.97C3420.46 2043.35 3419.86 2045.98 3419.43 2048.57C3419.04 2050.89 3419.59 2053.22 3421 2055.19C3422.49 2057.28 3422.96 2059.58 3422.87 2062.47C3419.54 2062.86 3416.22 2063 3412.92 2062.03C3410.93 2061.44 3409.82 2059.88 3409.31 2058.01C3408.65 2055.57 3408.25 2053.06 3407.71 2050.58C3407.19 2048.22 3406.67 2045.85 3406.09 2043.49C3405.48 2041.04 3404.02 2039.42 3400.99 2038.89C3401.07 2040.54 3401.09 2042.13 3401.22 2043.7C3401.77 2050.08 3402.35 2056.45 3402.91 2062.83C3402.97 2063.49 3403.13 2064.18 3403 2064.81C3402.84 2065.58 3402.62 2066.69 3402.08 2066.96C3401.48 2067.25 3400.39 2066.95 3399.7 2066.56C3397.19 2065.14 3395.55 2063.08 3394.94 2060.14C3393.76 2054.42 3392.41 2048.72 3391.11 2043.02C3390.37 2039.8 3389.66 2036.56 3388.8 2033.37C3388.4 2031.89 3388.37 2030.57 3389.12 2029.22C3390.23 2027.23 3390.54 2025.1 3390.37 2022.83C3390.25 2021.29 3390.33 2019.74 3390.34 2018.19C3390.36 2015.64 3391.12 2013.36 3393.16 2011.74C3394.16 2010.95 3394.41 2010.07 3394.4 2008.89C3394.36 2003.58 3394.4 1998.28 3394.37 1992.98C3394.36 1992.23 3394.35 1991.33 3393.96 1990.76C3391.92 1987.72 3391.23 1984.24 3390.73 1980.76C3390.13 1976.62 3389.44 1972.45 3390.31 1968.24C3390.4 1967.81 3390.3 1967.27 3390.52 1966.94C3392.21 1964.45 3391.14 1962.17 3390.1 1959.84C3389.04 1957.49 3388.67 1955.09 3389.02 1952.44C3389.36 1949.95 3389.13 1947.37 3389.03 1944.84C3388.88 1940.99 3389.28 1937.41 3392.03 1934.31C3392.81 1933.43 3392.65 1931.73 3392.88 1930.62C3392.34 1930.17 3392.19 1929.97 3391.99 1929.9C3389.94 1929.11 3389.29 1927.73 3389.64 1925.5C3390.39 1920.61 3390.9 1915.67 3391.28 1910.62C3388.97 1913.73 3386.95 1916.98 3385.77 1920.75C3384.32 1925.38 3382.91 1930.04 3381.13 1934.54C3378.54 1941.08 3374.72 1946.86 3369.69 1951.83C3368.91 1952.61 3368.36 1953.63 3367.35 1955.01C3369.91 1955.01 3371.75 1955.01 3373.65 1955.01C3374.9 1956.83 3376.1 1958.53 3377.24 1960.26C3380.17 1964.74 3379.73 1966.93 3375.11 1970.41C3374.12 1970 3373.01 1969.54 3371.91 1969.08C3370.81 1968.63 3369.71 1968.18 3368.3 1968.05C3368.78 1968.66 3369.24 1969.29 3369.75 1969.88C3375.42 1976.38 3377.33 1983.79 3374.67 1992.06C3373.39 1996.03 3371.47 1999.79 3369.91 2003.67C3369.19 2005.43 3368.07 2006.34 3366.1 2006.04C3365.7 2005.98 3365.25 2006.16 3364.6 2006.26C3364.67 2012.02 3364.38 2017.69 3366.83 2023.16C3370.33 2030.96 3370.68 2039.28 3369.54 2047.56C3367.8 2060.13 3365.49 2072.62 3363.69 2085.18C3362.32 2094.67 3361.37 2104.22 3360.21 2114C3361.48 2114.09 3362.44 2114.21 3363.4 2114.22C3386.77 2114.45 3410.14 2114.49 3433.51 2114.02V2034.83ZM3421.33 1275.91C3424.02 1279.93 3425.1 1280.2 3428.59 1277.8C3430.07 1276.78 3431.47 1275.64 3433.51 1274.1V1273.97L3424.26 1272.11C3425.54 1274.13 3426.46 1275.59 3427.6 1277.39C3425.02 1278.69 3423.62 1276.12 3421.33 1275.91ZM3383.99 1765.12C3383.21 1764.77 3382.55 1764.47 3381.44 1763.98C3379.99 1769.9 3378.6 1775.56 3377.07 1781.78C3379.11 1780.05 3381.53 1773.95 3383.99 1765.12ZM3352.62 2113.97C3352.62 2108.93 3352.64 2104.35 3352.58 2099.78C3352.58 2099.55 3351.96 2099.33 3351.14 2098.78C3349.75 2103.8 3348.46 2108.48 3347.02 2113.67C3349.01 2113.78 3350.68 2113.87 3352.62 2113.97ZM3430.49 860.408C3431.64 860.609 3432.64 860.754 3433.51 860.829V851.487H3431.61C3431.24 854.425 3430.88 857.295 3430.49 860.408ZM3393.02 1930.01C3394.91 1931.17 3396.2 1930.88 3397.31 1929.38C3398.81 1927.34 3400.54 1925.46 3401.89 1923.33C3403.48 1920.82 3402.4 1918.64 3399.57 1917.75C3397.81 1917.2 3396.84 1918.1 3395.96 1919.3C3393.64 1922.47 3393.14 1926.14 3393.02 1930.01ZM3416.63 2043.27C3416.86 2042.94 3417.26 2042.63 3417.28 2042.28C3417.84 2033.95 3418.36 2025.61 3418.89 2017.27C3418.67 2017.19 3418.45 2017.12 3418.24 2017.04C3417.84 2017.85 3417.29 2018.62 3417.07 2019.48C3416.83 2020.42 3416.86 2021.44 3416.8 2022.43C3416.66 2025.23 3415.67 2027.37 3412.6 2027.93C3412.3 2027.99 3412.04 2028.21 3411.56 2028.46C3412.96 2033.42 3414.34 2038.35 3415.73 2043.27C3416.03 2043.27 3416.33 2043.27 3416.63 2043.27ZM3393.48 1262.02C3394.73 1264.14 3395.95 1265.71 3396.61 1267.48C3397.63 1270.22 3399.04 1272.16 3402.37 1271.91C3402.93 1273.3 3403.45 1274.62 3404.18 1276.46C3405.41 1274.5 3406.47 1272.81 3407.78 1270.71C3408.62 1272.65 3409.29 1274.19 3410.13 1276.12C3411.23 1272.25 3414.2 1271.92 3417.23 1271.8C3418.97 1271.73 3420.73 1271.79 3423.14 1271.79C3419.81 1268.23 3416.58 1265.64 3412.22 1264.93C3411.51 1264.81 3410.57 1265.36 3409.9 1265.84C3408.14 1267.12 3406.48 1268.53 3404.56 1269.71C3405.07 1266.85 3407.25 1264.86 3408.26 1262.3C3405.76 1261.52 3395.22 1260.69 3393.99 1261.24C3393.67 1261.38 3393.53 1261.94 3393.48 1262.02ZM3410.34 1237.7C3411.29 1238.74 3412.03 1239.55 3412.76 1240.36C3414.97 1242.83 3417.15 1245.33 3419.37 1247.78C3421.94 1250.6 3424.67 1253.07 3428.85 1253.14C3430.45 1253.17 3432 1253.08 3433.51 1252.83V1207.7L3430.87 1206.28C3431.74 1204.84 3432.52 1203.32 3433.51 1201.96V1170.71C3432.52 1170.77 3431.53 1170.83 3430.55 1170.89C3424.37 1171.24 3418.5 1169.7 3412.69 1167.92C3400.33 1164.12 3387.57 1162.2 3374.91 1159.8C3374.82 1159.78 3374.71 1159.89 3374.38 1160.05C3374.27 1161.96 3374.16 1164 3374.02 1166.32C3372.17 1166.48 3370.44 1166.61 3368.71 1166.77C3364.7 1167.15 3363.27 1169.01 3364.07 1173C3364.68 1176 3366.2 1178.53 3368.67 1180.64C3365.9 1185.09 3363.17 1189.49 3360.44 1193.88C3360.15 1194.35 3359.86 1194.82 3359.58 1195.3C3357.26 1199.18 3357.43 1199.96 3361.17 1202.39C3361.63 1202.69 3362.14 1202.92 3362.6 1203.22C3366.08 1205.52 3369.39 1206.16 3372.32 1202.32C3372.55 1202.01 3373.01 1201.86 3373.84 1201.33C3373.84 1206.35 3373.84 1210.98 3373.84 1216.26C3375.77 1214.87 3377.13 1213.89 3378.81 1212.67C3379.46 1213.75 3380.13 1214.59 3380.5 1215.55C3381.23 1217.39 3382.05 1219.26 3382.38 1221.19C3382.97 1224.69 3384.97 1226.55 3388.29 1227.34C3389.33 1227.59 3390.29 1228.18 3391.56 1228.73C3389 1234.01 3386.54 1239.12 3383.83 1244.72C3385.26 1244.25 3386.17 1243.98 3387.07 1243.66C3391.26 1242.16 3394.87 1242.97 3397.83 1246.38C3398.33 1246.96 3398.91 1247.52 3399.27 1248.18C3401.16 1251.67 3404.45 1253.02 3408.32 1254.27C3407.56 1250.98 3407.07 1247.93 3406.11 1245.04C3405.29 1242.53 3405.7 1240.81 3407.99 1239.49C3408.74 1239.06 3409.38 1238.44 3410.34 1237.7ZM3206.48 1383.29C3204.6 1383.59 3203.25 1383.82 3201.96 1384.03C3200.64 1381.81 3203.3 1381.74 3203.48 1380.35C3201.56 1378.71 3202.3 1376.51 3202.26 1374.22C3203.21 1374.1 3204.01 1374.01 3205.01 1373.9C3205.5 1377.04 3205.95 1379.93 3206.48 1383.29ZM3207.06 1082.2C3206.86 1082.02 3206.66 1081.84 3206.46 1081.66C3206.46 1077.01 3206.46 1072.36 3206.46 1067.69C3207.39 1067.69 3208.1 1067.69 3209.21 1067.69C3208.92 1072.22 3208.67 1076.57 3208.3 1080.9C3208.26 1081.36 3207.49 1081.77 3207.06 1082.2ZM3318.26 1610.59C3319.77 1609.89 3320.6 1610.1 3320.85 1611.63C3321.12 1613.25 3321.49 1614.86 3321.77 1616.48C3322.41 1620.17 3322.19 1620.5 3318.26 1621.86C3318.26 1618.11 3318.26 1614.41 3318.26 1610.59ZM3260.81 1188.98C3264.77 1191.7 3268.17 1194.02 3271.76 1196.48C3266.04 1199.14 3262.56 1196.83 3260.81 1188.98ZM3145.37 1155.07C3143.52 1158.69 3141.84 1161.96 3140.16 1165.24C3138.06 1164.06 3137.67 1162.86 3138.28 1160.21C3139.02 1157.01 3141.14 1155.37 3145.37 1155.07ZM3427.37 1603.12C3428.72 1598.34 3429.97 1593.94 3431.24 1589.42C3432.12 1589.67 3432.76 1589.85 3433.51 1590.06V1568.09L3428.86 1573.74C3430.18 1575.74 3431.43 1577.66 3432.8 1579.74C3430.7 1581.5 3428.69 1583.19 3426.34 1585.17C3422.87 1581.07 3419.48 1577.08 3415.95 1572.91C3414.44 1579.77 3414.3 1579.9 3407.7 1582.04C3406.24 1582.52 3404.83 1583.15 3403.12 1583.82C3401.64 1579.01 3400.17 1574.22 3398.59 1569.1C3396.73 1570.51 3395.19 1571.68 3393.54 1572.93C3392.82 1572.28 3392.18 1571.7 3391.55 1571.12C3389.09 1568.87 3388.26 1569 3386.57 1571.99C3385.97 1573.04 3385.44 1574.13 3384.58 1575.78C3382.69 1571.97 3381.9 1568.22 3380.11 1564.24C3378.26 1569.01 3377.38 1573.57 3375.95 1578.09C3379.94 1581.77 3381.95 1586.12 3380.42 1591.87C3378.12 1590.97 3377.82 1588.48 3375.99 1587.3C3373.52 1589.25 3371.21 1592.23 3367.17 1589.26C3368.5 1588.17 3369.74 1587.13 3370.99 1586.13C3372.15 1585.2 3373.32 1584.3 3374.86 1583.09C3367.98 1582.81 3364.04 1585.69 3363.38 1591.57C3362.89 1595.89 3360.6 1599.1 3358 1602.78C3357.19 1601.17 3356.52 1599.85 3355.62 1598.06C3353.58 1601.7 3351.7 1605.05 3349.43 1609.1C3348.96 1607.35 3348.69 1606.37 3348.39 1605.27C3347.37 1605.66 3346.37 1606.04 3345.07 1606.54C3344.93 1601.84 3348.93 1599.59 3350.96 1595.65C3344.17 1598.13 3337.91 1600.43 3331.38 1602.82C3331.76 1605.11 3332.11 1607.26 3332.47 1609.41C3332.59 1610.17 3332.88 1610.95 3332.81 1611.69C3332.74 1612.49 3332.54 1613.68 3332.03 1613.93C3331.3 1614.29 3330.06 1614.25 3329.33 1613.85C3327.8 1613.01 3326.47 1611.82 3324.94 1610.7C3325.44 1605.36 3325.93 1599.98 3326.44 1594.61C3326.67 1592.19 3326.94 1589.77 3327.15 1587.35C3327.28 1585.9 3327.25 1585.9 3325.3 1584.33C3319.17 1589.89 3312.99 1595.5 3306.81 1601.1C3306.63 1601 3306.45 1600.91 3306.27 1600.81C3306.46 1600.2 3306.53 1599.52 3306.85 1599C3309.09 1595.45 3311.39 1591.94 3313.65 1588.41C3314.22 1587.51 3314.73 1586.58 3314.84 1585.17C3314.28 1585.5 3313.64 1585.74 3313.19 1586.18C3309.36 1589.99 3305.56 1593.85 3301.74 1597.68C3300.98 1598.44 3300.18 1599.16 3299.09 1600.2C3298.2 1596.82 3297.41 1593.86 3296.51 1590.48C3294.12 1590.76 3291.78 1591.03 3289.46 1591.3C3289.31 1593.64 3291.68 1595.31 3290.54 1598.17C3287.92 1596.7 3285.43 1595.38 3283.05 1593.88C3282.64 1593.62 3282.71 1592.59 3282.56 1591.92C3277.31 1591.95 3277.31 1591.95 3276.45 1586.7C3274.26 1589.22 3272.29 1591.48 3269.88 1594.25C3268.59 1589.02 3266.45 1584.54 3266.67 1579.51C3266.78 1577 3267.82 1574.7 3269.7 1573.06C3271.93 1571.12 3272.59 1568.75 3272.5 1565.98C3272.45 1564.55 3272.49 1563.13 3272.49 1561.71C3269.09 1561.4 3267.57 1562.5 3267.23 1565.52C3267.12 1566.51 3267.2 1567.51 3267.08 1568.5C3266.92 1569.97 3266.49 1571.31 3264.51 1572.02C3263.18 1569.74 3261.82 1567.41 3260.39 1564.96C3263.01 1562.05 3265.51 1559.27 3268.1 1556.37C3267.52 1555.72 3267.04 1555.19 3266.32 1554.38C3262.25 1559.66 3256.61 1559.98 3250.95 1560.17C3250.57 1557.31 3250.23 1554.75 3249.9 1552.21C3246.6 1551.39 3243.45 1552.85 3239.95 1551.33C3243.01 1548.59 3245.68 1546.2 3248.56 1543.63C3246.64 1541.1 3244.71 1538.7 3242.95 1536.18C3242.17 1535.05 3241.53 1533.72 3241.18 1532.4C3240.3 1529.08 3238.32 1526.97 3234.99 1526.2C3232.96 1525.73 3230.88 1525.4 3228.83 1524.97C3228 1524.8 3227.18 1524.54 3226.05 1524.24C3226.5 1522.25 3226.83 1520.43 3227.34 1518.66C3228.03 1516.26 3229.73 1514.7 3232.2 1515.01C3235.68 1515.45 3237.8 1513.65 3240.05 1511.15C3237.8 1508.16 3235.24 1511.4 3232.69 1510.59C3234.3 1508.02 3235.88 1505.48 3237.75 1502.49C3234.58 1502.13 3231.8 1501.82 3229.02 1501.5C3226.28 1501.18 3223.55 1500.85 3220.39 1500.48C3218.56 1504.22 3216.69 1508.05 3214.81 1511.92C3212.35 1509.52 3211.97 1508.12 3213.21 1505.26C3214.09 1503.25 3215.18 1501.34 3216.44 1498.87C3212.86 1498.55 3209.57 1498.25 3205.78 1497.91C3209.32 1490.94 3215.51 1492.32 3220.78 1491.71C3225.8 1496.85 3231.68 1498.21 3238.61 1497.16C3238.51 1496.21 3238.45 1495.58 3238.37 1494.96C3238.29 1494.3 3238.2 1493.65 3238.11 1493.02C3239.09 1491.41 3240.32 1491.9 3241.56 1492.5C3245.13 1494.23 3248.73 1495.91 3252.27 1497.71C3254.35 1498.78 3256.14 1498.93 3258.45 1497.86C3261.73 1496.35 3265.34 1495.56 3268.81 1494.46C3269.95 1494.09 3271.09 1493.72 3272.24 1493.35C3272.64 1491.68 3272.18 1490.85 3270.49 1491.01C3268.3 1491.22 3266.11 1491.48 3263.91 1491.67C3262.71 1491.78 3261.51 1491.79 3260.14 1491.86C3257.98 1486.36 3260.05 1482.19 3264.51 1478.23C3260.09 1477.07 3256.67 1474.58 3252.06 1474.89C3247.94 1468.87 3243.64 1462.59 3239.3 1456.26C3239.75 1455.53 3240.24 1454.92 3240.55 1454.24C3242.71 1449.48 3246.61 1447.86 3251.54 1448.01C3253.42 1448.07 3255.34 1447.77 3257.16 1448.08C3259.3 1448.44 3261.63 1448.87 3263.38 1450.02C3267.76 1452.9 3272.43 1453.6 3277.32 1452.44C3287.21 1450.07 3297.19 1449.47 3307.23 1450.64C3311.69 1451.16 3316.12 1452.25 3320.42 1453.57C3326.21 1455.35 3331.87 1457.54 3337.9 1458.48C3339.28 1458.7 3340.71 1459.24 3341.9 1459.98C3345.84 1462.44 3350.13 1463.09 3354.61 1462.64C3356.52 1462.46 3357.99 1462.99 3359.52 1464.02C3363.91 1466.98 3368.36 1469.86 3372.84 1472.68C3374.7 1473.85 3376.67 1474.89 3378.67 1475.79C3382.18 1477.37 3385.65 1476.08 3387.49 1472.64C3387.67 1472.31 3387.57 1471.83 3387.62 1471.18C3391.07 1472.13 3394.41 1473.04 3398.28 1474.11C3396.91 1471.04 3393.91 1470.39 3392.34 1467.6C3394.56 1467.75 3396.34 1468.06 3398.09 1467.92C3399.8 1467.78 3401.48 1467.2 3403.98 1466.62C3402.18 1469.22 3400.78 1471.23 3399.23 1473.47C3402.17 1474.17 3404.44 1473.68 3406.53 1471.68C3408.83 1469.49 3411.2 1467.31 3413.8 1465.49C3417.92 1462.59 3418.15 1462.22 3415.51 1457.3C3417.77 1458.27 3419.24 1459.24 3420.09 1461.14C3421.71 1464.8 3422.36 1464.97 3426.17 1462.94C3424.82 1461.22 3423.49 1459.52 3422.18 1457.85C3423.73 1455.48 3425.22 1457.82 3426.66 1457.6C3425.76 1455.16 3424.24 1454.09 3421.63 1454.22C3420.65 1454.27 3419.6 1454.37 3418.71 1454.74C3414.79 1456.4 3410.69 1455.93 3406.63 1455.92C3403.38 1455.92 3400.65 1454.51 3398.14 1452.63C3397.51 1452.15 3397.14 1451.34 3396.57 1450.58C3394.06 1452.17 3391.56 1453.75 3389.15 1455.26C3386.8 1453.76 3389.09 1452.71 3389.21 1450.96C3384.27 1445.19 3379.06 1439.11 3373.78 1432.94C3371.01 1437.72 3371.07 1438.02 3374.85 1440.04C3371.96 1443.11 3370.1 1443.17 3367.87 1439.85C3365.73 1436.65 3363.95 1433.2 3362.04 1429.84C3361.23 1428.42 3360.49 1426.95 3359.56 1425.19C3357.22 1427.22 3355.09 1429.08 3352.75 1431.12C3352.02 1430.33 3351.33 1429.67 3350.74 1428.93C3347.8 1425.2 3344.9 1421.44 3341.95 1417.72C3341.39 1417.01 3340.87 1415.81 3339.46 1417.14C3340.59 1419.94 3341.76 1422.82 3343.05 1426.02C3339.7 1426.32 3338.44 1422.92 3335.37 1422.94C3335.61 1426.03 3338.09 1427.99 3338.77 1430.96C3336.11 1432.4 3333.43 1433.86 3330.62 1435.39C3327.82 1433.96 3325.92 1431.68 3324.84 1428.86C3323.54 1425.48 3322.6 1421.95 3321.52 1418.48C3320.68 1415.79 3319.86 1413.09 3319.03 1410.4C3318.78 1410.44 3318.54 1410.47 3318.29 1410.51C3317.81 1416.69 3317.34 1422.88 3316.85 1429.2C3315.9 1429.27 3315.17 1429.32 3314.28 1429.38C3311.84 1423.16 3307.96 1417.65 3306.8 1410.98C3306.33 1408.23 3304.43 1407.13 3301.51 1407.41C3300.83 1404.91 3300.2 1402.61 3299.56 1400.3C3299.41 1400.27 3299.25 1400.24 3299.09 1400.2C3298.83 1401.35 3298.56 1402.5 3298.31 1403.66C3298.03 1404.94 3297.77 1406.23 3297.4 1407.95C3296.99 1407.13 3296.65 1406.69 3296.53 1406.2C3295.44 1401.58 3294.32 1396.96 3293.38 1392.32C3293.18 1391.34 3293.48 1390.15 3293.86 1389.19C3294.63 1387.25 3295.61 1385.4 3296.74 1383.01C3295.61 1383.31 3294.92 1383.4 3294.3 1383.66C3288.79 1386 3283.27 1385.92 3277.97 1383.24C3273.65 1381.06 3269.49 1378.54 3265.34 1376.02C3264.64 1375.6 3264.1 1374.5 3263.97 1373.64C3263.75 1372.14 3263.91 1370.58 3263.91 1368.76C3262.16 1368.61 3260.67 1368.48 3258.98 1368.33C3258.81 1367.52 3258.68 1366.68 3258.44 1365.87C3257.92 1364.09 3257.14 1362.67 3254.92 1362.48C3253.93 1362.39 3252.9 1361.7 3252.08 1361.04C3249.65 1359.1 3247.07 1357.57 3244.11 1356.46C3237.66 1354.03 3235.26 1348.1 3237.87 1341.63C3238.81 1339.27 3240.06 1337.04 3240.89 1334.65C3242.57 1329.78 3241.32 1326.01 3237.25 1322.99C3237 1322.8 3236.66 1322.76 3236.07 1322.55C3234.35 1326.24 3232.56 1329.89 3230.94 1333.62C3230.26 1335.17 3229.38 1335.92 3227.73 1336.64C3225.18 1337.76 3222.89 1339.67 3220.78 1341.57C3218.49 1343.63 3216.48 1346.01 3214.43 1348.33C3212.52 1350.49 3210.22 1351.43 3206.88 1351C3208.78 1348.04 3210.57 1345.25 3212.36 1342.46C3212.24 1342.3 3212.11 1342.15 3211.98 1341.99C3209.39 1343.05 3206.8 1344.1 3203.7 1345.37C3204.19 1344 3204.53 1343.06 3204.92 1341.97C3201.5 1338.41 3198.07 1334.85 3194.48 1331.11C3197.3 1327.5 3200.03 1323.99 3202.77 1320.48C3202.64 1320.31 3202.52 1320.15 3202.4 1319.98C3199.62 1321.4 3196.83 1322.82 3193.4 1324.57C3194.46 1318.97 3195.39 1314.05 3196.44 1308.46C3194.15 1309.73 3192.4 1310.77 3190.58 1311.66C3189.87 1312.01 3188.99 1312 3188.19 1312.15C3188.15 1311.35 3187.89 1310.48 3188.11 1309.76C3189.35 1305.75 3190.71 1301.78 3192.02 1297.8C3192.15 1297.4 3192.2 1296.97 3192.34 1296.36C3190.65 1295.45 3189.04 1294.52 3187.38 1293.7C3186.31 1293.17 3185.62 1292.54 3185.51 1291.25C3185 1285.56 3184.01 1279.97 3185.05 1274.14C3185.85 1269.62 3187.1 1265.66 3190.28 1262.36C3190.95 1261.66 3191.44 1260.79 3191.98 1260.03C3191.37 1258.84 3190.69 1258.62 3189.96 1259.67C3189.09 1260.93 3188.3 1262.25 3187.08 1264.16C3185.8 1259.44 3184.69 1255.36 3183.42 1250.69C3187.3 1252.3 3189.36 1250.63 3191.15 1247.86C3192.8 1245.31 3193.47 1245.37 3195.95 1247.1C3199.77 1249.77 3201.61 1253.45 3201.58 1258.16C3202.74 1258.63 3203.56 1258.65 3203.76 1257.2C3204.15 1254.36 3204.53 1251.51 3204.92 1248.67C3205.07 1247.61 3205.26 1246.55 3205.43 1245.43C3215.33 1249.37 3220.41 1247.7 3225.46 1239.05C3216.41 1232.95 3211.96 1223.47 3214.13 1214.61C3216.5 1214.97 3218.39 1215.81 3219.52 1218.2C3221.62 1222.69 3225.29 1225.15 3230.22 1225.35C3234.29 1225.52 3238.41 1225.63 3242.45 1225.21C3248.97 1224.53 3253.2 1215.93 3250.51 1209.44C3249.54 1207.11 3248.72 1204.72 3247.88 1202.34C3247.74 1201.96 3247.81 1201.5 3247.77 1200.76C3248.67 1201.04 3249.38 1201.17 3250.01 1201.47C3254.3 1203.48 3258.58 1205.53 3262.86 1207.56C3264.99 1208.57 3265.94 1210.25 3266.02 1212.57C3266.17 1217.35 3265.51 1221.82 3261.86 1225.37C3260.93 1226.27 3260.28 1227.45 3259.16 1228.96C3261.11 1229.35 3262.64 1229.7 3264.19 1229.96C3265.38 1230.16 3266.61 1230.16 3267.8 1230.38C3271.65 1231.09 3272.61 1232.58 3271.78 1236.42C3271.17 1239.2 3270.54 1241.96 3269.84 1245.14C3268.56 1244.99 3267 1244.8 3264.96 1244.55C3266.19 1241.4 3267.28 1238.6 3268.55 1235.35C3266.8 1235.72 3265.85 1236.77 3264.77 1237.52C3261.21 1239.98 3260.5 1239.96 3257.32 1237.1C3256.83 1236.66 3256.34 1236.25 3255.58 1235.6C3252.88 1239.65 3250.27 1243.57 3247.36 1247.93C3246.97 1246.72 3246.72 1245.96 3246.47 1245.2C3245.31 1241.76 3243.49 1240.64 3239.92 1241.26C3238.62 1241.49 3237.36 1241.93 3236.07 1242.24C3233.61 1242.84 3231.24 1242.91 3229.16 1240.62C3227.65 1242.65 3226.23 1244.55 3224.68 1246.63C3227.32 1248.17 3229.76 1248.17 3232.21 1247.29C3234.17 1246.58 3236.03 1245.58 3237.98 1244.82C3239.37 1244.29 3240.84 1243.93 3242.45 1243.44C3242.74 1246.03 3242.99 1248.19 3243.29 1250.74C3248.54 1248.8 3253.18 1246.18 3258.58 1244.15C3258.02 1247.59 3253.9 1247.66 3254.09 1251.25C3257.97 1250.71 3261.74 1250.18 3266.27 1249.55C3265.32 1251.05 3264.72 1252.01 3264.1 1252.96C3261.84 1256.38 3259.8 1259.92 3258.81 1263.94C3258.06 1266.96 3257.72 1270.03 3258.46 1273.13C3258.7 1274.16 3258.78 1275.22 3259 1276.7C3257.27 1275.41 3255.88 1274.38 3254.28 1273.19C3250.04 1278.21 3245.89 1283.14 3241.49 1288.35C3243.18 1288.89 3244.4 1289.27 3245.9 1289.74C3245.67 1290.54 3245.54 1291.26 3245.26 1291.93C3244.18 1294.52 3243.76 1297.22 3243.91 1300.02C3243.96 1301.01 3243.88 1302.01 3243.83 1303C3243.64 1306.41 3242.21 1309.15 3239.15 1311.11C3239.9 1311.29 3240.41 1311.41 3241.17 1311.6C3240.39 1314.98 3239.6 1318.36 3238.81 1321.76C3243.74 1321.96 3246.65 1319.99 3248.18 1315.99C3250.1 1310.95 3252.1 1305.92 3254.34 1301.02C3256.51 1296.28 3258.48 1291.55 3259.52 1286.4C3260.09 1283.52 3261.12 1280.61 3262.5 1278.02C3267.94 1267.86 3271.87 1257.08 3275.82 1246.3C3276.61 1244.16 3277.86 1242.18 3279.05 1240.22C3282.24 1234.92 3285.58 1229.72 3288.73 1224.4C3291.24 1220.15 3292.04 1215.31 3293 1210.54C3293.34 1208.81 3293.67 1207.07 3293.94 1205.33C3294.35 1202.66 3295.19 1200.31 3297.34 1198.4C3299.42 1196.55 3300 1193.89 3298.82 1191.41C3297.81 1189.29 3298.17 1187.63 3299.24 1185.83C3299.69 1185.08 3300.03 1184.27 3300.54 1183.24C3298.81 1181.29 3297.07 1179.34 3294.93 1176.95C3296.56 1176.66 3297.78 1176.42 3299 1176.22C3300.16 1176.02 3301.33 1175.85 3302.73 1175.63C3302.26 1174.28 3301.95 1173.24 3301.55 1172.24C3300.11 1168.54 3298.35 1164.93 3297.26 1161.13C3296.26 1157.66 3294.08 1156.68 3290.9 1156.66C3288.81 1156.64 3286.71 1156.54 3284.62 1156.45C3281.46 1156.32 3278.83 1155.07 3276.95 1152.5C3275.27 1150.19 3273.34 1149.52 3270.38 1150.01C3268.01 1150.41 3265.37 1149.77 3262.95 1149.16C3260.84 1148.63 3258.89 1147.46 3256.85 1146.64C3254.81 1145.82 3252.8 1144.77 3250.67 1144.36C3247.16 1143.69 3244.12 1142.21 3241.65 1139.78C3235.74 1133.96 3228.64 1132.9 3220.82 1133.86C3211.84 1134.96 3202.84 1135.88 3193.84 1136.8C3192.74 1136.92 3191.58 1136.59 3190.5 1136.46C3190.28 1134.24 3191.52 1133.21 3192.58 1132.13C3193.42 1131.25 3194.38 1130.5 3195.25 1129.65C3196.67 1128.29 3197.15 1126.85 3196.09 1124.92C3195.63 1124.09 3195.67 1122.82 3195.86 1121.82C3196.39 1119.01 3197.14 1116.24 3197.75 1113.45C3198.4 1110.42 3199.64 1109.31 3202.71 1109.2C3203.04 1109.18 3203.37 1109.21 3203.71 1109.2C3207.52 1109.14 3208.17 1108.64 3209.21 1104.75C3210.87 1104.19 3212.63 1103.59 3214.48 1102.96C3215.09 1099.56 3215.69 1096.2 3216.4 1092.22C3218.47 1094.75 3220.25 1096.92 3222.03 1099.09C3222.24 1098.97 3222.45 1098.84 3222.66 1098.72C3222.58 1098.14 3222.62 1097.53 3222.41 1097.01C3221.23 1094.16 3219.92 1091.35 3218.81 1088.47C3218.49 1087.66 3218.29 1086.36 3218.72 1085.77C3222.26 1080.86 3222.7 1075.36 3222.17 1069.62C3222.12 1069.08 3222.16 1068.53 3222.16 1067.64C3224.74 1068.8 3225.86 1071.51 3228.63 1072.78C3228.63 1069.94 3228.67 1067.45 3228.61 1064.96C3228.58 1063.64 3227.79 1063 3226.47 1062.96C3225.15 1062.93 3223.83 1062.84 3221.98 1062.76C3222.55 1061.16 3223.04 1059.79 3223.55 1058.36C3224.37 1058.59 3225 1058.73 3225.6 1058.95C3227.94 1059.79 3229.7 1058.97 3231.04 1057.04C3231.55 1056.32 3231.99 1055.55 3232.44 1054.79C3233.63 1052.77 3234.84 1050.78 3237.41 1050.7C3237.69 1049.21 3237.12 1048.81 3236 1048.89C3234.13 1049.03 3232.25 1049.14 3230.38 1049.26C3228.98 1049.35 3227.57 1049.44 3225.86 1049.55C3226 1047.86 3226.12 1046.49 3226.25 1044.95C3228.13 1045.18 3229.71 1045.38 3231.71 1045.63C3230.7 1042.88 3229.81 1040.48 3228.78 1037.69C3232.78 1038.77 3235.93 1041.1 3239.61 1041.67C3239.78 1041.42 3239.95 1041.17 3240.12 1040.91C3239.41 1040.03 3238.8 1039.04 3237.98 1038.29C3235.49 1036.03 3235.05 1033.5 3235.89 1030.22C3236.73 1026.95 3236.76 1023.48 3237.18 1019.78C3237.85 1019.48 3238.82 1018.95 3239.84 1018.62C3243.4 1017.48 3245.9 1015.16 3247.73 1011.95C3250.35 1007.35 3253.08 1002.8 3255.78 998.239C3256.1 997.685 3256.49 997.166 3257.15 996.181C3257.75 998.45 3258.24 1000.26 3258.89 1002.69C3260.25 1000.31 3260.14 998.434 3259.51 996.714C3257.88 992.264 3256.14 987.849 3254.25 983.501C3253.75 982.346 3252.5 981.533 3251.7 980.487C3249.61 977.776 3249.7 975.798 3252.28 973.563C3253.85 972.207 3255.7 971.173 3257.47 970.055C3258.76 969.237 3260.12 968.523 3261.68 967.63C3260.37 964.558 3259.12 961.648 3257.78 958.506C3259.68 957.238 3261.49 956.025 3263.3 954.809C3265.03 953.644 3266.76 952.475 3268.58 951.242C3268.33 949.784 3268.1 948.424 3267.8 946.686C3269.69 947.216 3271.22 947.649 3273.13 948.186C3274.5 945.956 3276.08 943.823 3277.21 941.472C3282.92 929.621 3290.3 918.927 3299.58 909.643C3312.92 896.299 3328.64 886.749 3346.64 881.002C3348.15 880.519 3349.55 879.692 3351.07 878.993C3352.15 878.935 3353.45 879.077 3354.63 878.762C3357.93 877.884 3361.18 876.849 3364.44 875.813C3367.17 874.943 3369.86 873.949 3372.59 873.076C3375.4 872.178 3378.13 871.426 3380.51 869.312C3382.2 867.814 3384.82 866.85 3387.12 866.65C3394.45 866.013 3401.43 864.078 3408.32 861.678C3410.59 860.885 3412.76 860.694 3415.08 861.479C3416.16 861.846 3417.39 861.78 3418.83 861.94C3418.46 858.892 3417.58 856.417 3416.02 854.315C3412.95 850.185 3407.55 850.889 3405.39 855.582C3405.16 856.078 3404.97 856.589 3404.76 857.084C3402.61 856.501 3400.56 855.657 3398.45 855.433C3393.92 854.953 3389.67 856.046 3385.87 858.596C3383.76 860.009 3381.65 861.44 3379.65 862.998C3377.16 864.94 3374.45 865.176 3371.51 864.463C3369.36 863.945 3367.21 863.469 3365.05 863.02C3360.04 861.977 3355.85 863.303 3352.84 867.564C3351.99 868.752 3351.03 869.398 3349.6 869.51C3348.65 869.583 3347.71 869.818 3346.22 870.073C3347.72 871.062 3348.78 871.764 3350.38 872.821C3349.13 872.997 3348.47 873.152 3347.8 873.177C3342.28 873.379 3337.09 874.689 3332.51 877.874C3331.12 878.842 3329.78 879.125 3328.16 878.649C3326.59 878.183 3324.97 877.864 3323.12 877.421C3323.12 879.523 3323.12 881.432 3323.12 883.477C3320.96 883.477 3319.02 883.477 3316.98 883.477C3316.74 883.922 3316.48 884.399 3316.24 884.885C3314.71 887.914 3313.22 888.846 3309.85 888.147C3307.11 887.581 3304.78 888.212 3302.67 889.744C3291.41 897.905 3280.16 906.09 3268.98 914.35C3266.46 916.212 3264.51 918.553 3264.2 921.958C3264.01 923.987 3262.64 925.331 3260.75 926.058C3256.85 927.562 3253.69 930.009 3251.02 933.228C3249.69 934.826 3247.96 936.087 3246.42 937.517C3244.2 939.592 3242.44 941.943 3242.01 945.08C3241.71 947.268 3240.36 948.702 3238.42 949.494C3233.5 951.502 3230 955.148 3227.18 959.435C3224.27 963.854 3221.5 968.383 3218.93 973.01C3215.98 978.334 3212.9 983.538 3209.04 988.272C3205.82 992.228 3203.41 996.659 3201.29 1001.32C3197.23 1010.26 3192.82 1019.05 3188.56 1027.9C3184.09 1037.16 3180.47 1046.72 3177.71 1056.66C3176.22 1062.04 3173.63 1067.12 3171.45 1072.3C3170.3 1075.02 3168.95 1077.66 3167.51 1080.72C3168.99 1080.72 3170.01 1080.72 3171.74 1080.72C3170.42 1081.87 3169.62 1082.55 3168.83 1083.26C3167.51 1084.44 3166.08 1085.51 3164.93 1086.83C3162.75 1089.31 3161.87 1092.25 3163.02 1095.45C3163.97 1098.09 3163.53 1100.04 3161.28 1101.85C3158.37 1104.18 3156.52 1107.36 3155.27 1110.83C3153.42 1116.03 3151.71 1121.27 3149.96 1126.5C3149.77 1127.09 3149.72 1127.73 3149.48 1128.95C3151.62 1127.38 3153.24 1126.18 3154.86 1124.98C3155.03 1125.12 3155.2 1125.25 3155.36 1125.38C3155.24 1125.94 3155.28 1126.62 3154.98 1127.06C3148.18 1137.25 3142.98 1148.45 3135.31 1158.09C3132.5 1161.62 3130.87 1165.52 3131.14 1170.3C3131.32 1173.44 3130.48 1176.65 3129.91 1179.8C3129.38 1182.71 3127.53 1184.96 3125.77 1187.25C3123.22 1190.57 3120.78 1193.96 3118.16 1197.5C3119.67 1198.59 3120.89 1199.46 3122.27 1200.46C3120.99 1203.08 3118.28 1204.45 3116.53 1207.12C3117.09 1207.19 3117.44 1207.23 3117.79 1207.27C3120.25 1207.53 3120.88 1208.07 3121.26 1210.39C3121.39 1211.14 3121.4 1211.93 3121.41 1212.7C3121.43 1214.41 3121.91 1215.78 3124.11 1216.07C3122.36 1218.84 3120.91 1221.48 3121.25 1224.75C3121.62 1228.25 3123.84 1230.19 3127.05 1231.73C3126.43 1233.7 3125.99 1235.62 3125.24 1237.42C3122.52 1243.94 3119.7 1250.41 3116.93 1256.91C3116.11 1258.84 3115.44 1260.8 3115.64 1263.14C3117.28 1263.28 3118.78 1263.42 3120.24 1263.55C3122.71 1270.73 3120.76 1279.29 3112.95 1280.17C3113.8 1278.64 3114.57 1277.25 3115.47 1275.65C3112.71 1274.64 3112.52 1272.4 3112.92 1269.49C3111.23 1270.95 3110.92 1272.53 3110.81 1274.04C3109.84 1287.04 3109.03 1300.06 3109.62 1313.1C3109.72 1315.25 3110.54 1317.41 3111.27 1319.48C3113.92 1327.08 3116.68 1334.64 3119.39 1342.22C3119.57 1342.72 3119.76 1343.22 3119.99 1343.84C3120.69 1343.7 3121.28 1343.58 3121.87 1343.46C3121.93 1343.7 3122.07 1343.94 3122.01 1344.12C3121.5 1345.74 3121.53 1347.31 3122.04 1348.97C3122.85 1351.61 3123.35 1354.33 3124.13 1356.98C3125.08 1360.23 3126.73 1363.11 3129.52 1365.13C3135.2 1369.23 3137.34 1375.25 3137.81 1381.74C3138.06 1385.37 3138.67 1388.62 3140.42 1391.76C3141.71 1394.07 3142.63 1396.6 3144.06 1398.81C3145.18 1400.53 3146.57 1402.32 3148.28 1403.34C3150.77 1404.81 3152.17 1406.83 3153.13 1409.37C3153.51 1410.4 3153.85 1411.46 3154.32 1412.45C3155.78 1415.59 3157.55 1416.48 3160.96 1415.84C3161.59 1415.73 3162.22 1415.6 3162.89 1415.47C3163.67 1417.14 3162.45 1417.72 3161.58 1418.46C3160.67 1419.22 3159.78 1419.99 3158.66 1420.93C3160.08 1421.78 3161.19 1422.44 3162.71 1423.35C3159.82 1425 3157.2 1426.49 3154.63 1427.95C3156.71 1433.77 3156.14 1435.13 3150.62 1438.02C3149.86 1438.42 3149.11 1438.81 3148.38 1439.74C3149.18 1439.79 3149.98 1439.85 3150.78 1439.89C3154.96 1440.13 3157.99 1442.17 3159.25 1446.14C3160.12 1448.9 3161.8 1450.34 3164.41 1451.15C3167.05 1451.95 3169.59 1453.08 3172.25 1453.78C3174.39 1454.34 3175.76 1455.4 3176.39 1457.52C3176.62 1458.33 3177.12 1459.06 3177.77 1460.37C3179.08 1458.15 3180.16 1456.31 3181.4 1454.2C3182.78 1456.15 3183.47 1458.03 3183.21 1460.14C3182.43 1466.59 3184.33 1472.37 3187.52 1477.84C3189.07 1480.51 3190.68 1483.15 3192.3 1485.78C3193.26 1487.33 3193.71 1488.82 3193.21 1490.76C3192.48 1493.6 3192.88 1496.55 3194.18 1499.17C3197.94 1506.71 3198.55 1515.09 3200.73 1523.05C3201.99 1527.64 3201.4 1532.25 3198.75 1536.58C3199.83 1537.21 3200.76 1537.74 3202.03 1538.48C3201.25 1543.7 3200.67 1549.07 3199.55 1554.33C3199.14 1556.22 3197.66 1558.06 3196.25 1559.52C3193.92 1561.94 3190.87 1563.32 3187.57 1564.06C3183.59 1564.94 3179.56 1565.65 3175.63 1566.72C3173.22 1567.38 3170.79 1568.29 3168.66 1569.58C3121.29 1598.29 3073.95 1627.07 3026.61 1655.84C3022.27 1658.47 3017.94 1661.13 3013.53 1663.64C3008.94 1666.25 3005.14 1669.71 3001.88 1673.81C2996.27 1680.86 2991.93 1688.66 2988.18 1696.81C2978.36 1718.1 2972.03 1740.44 2968.4 1763.58C2967.7 1768.05 2967.24 1772.55 2966.65 1777.04C2965.92 1782.59 2966.85 1788.07 2967.41 1793.55C2970.38 1822.76 2977.56 1851.12 2984.64 1879.51C2989.66 1899.64 2994.75 1919.76 2998.58 1940.16C3001.46 1955.49 3003.5 1970.91 3004 1986.51C3004.28 1995.58 3003.77 2004.62 3002.43 2013.6C3002.32 2014.35 3002.31 2015.12 3002.25 2015.92C3004.78 2017.24 3007.25 2018.45 3009.63 2019.81C3016.86 2023.93 3023.51 2028.9 3029.56 2034.56C3038.19 2042.66 3048.16 2048.66 3058.55 2054.08C3075.14 2062.75 3092.71 2068.93 3110.53 2074.42C3140.26 2083.58 3170.34 2091.41 3200.55 2098.76C3202.8 2099.31 3205.16 2099.52 3207.3 2100.32C3209.06 2100.97 3210.8 2099.83 3212.63 2101.01C3214.13 2101.98 3216.31 2101.92 3218.19 2102.28C3220.14 2102.65 3222.1 2102.98 3224.06 2103.3C3226.57 2103.71 3229.08 2104.06 3231.58 2104.48C3232.66 2104.65 3233.59 2104.77 3234.7 2104.1C3235.42 2103.67 3237.37 2103.86 3237.64 2104.38C3238.41 2105.81 3239.58 2105.66 3240.7 2105.79C3252.1 2107.1 3263.49 2108.46 3274.9 2109.66C3281.6 2110.36 3288.32 2110.83 3295.03 2111.36C3297.55 2111.56 3300.08 2111.63 3302.8 2111.78C3303.84 2108.37 3303.9 2104.68 3306.74 2101.68C3307.72 2105.28 3309.89 2108.22 3309.17 2112.17C3310.37 2112.23 3311.54 2112.29 3312.97 2112.36C3313.66 2109.83 3314.32 2107.42 3315.05 2104.77C3316.24 2105.22 3317.32 2105.62 3318.71 2106.14C3318.3 2104.05 3317.88 2102.16 3317.57 2100.26C3315.69 2088.71 3316.86 2077.34 3319.87 2066.14C3321.47 2060.18 3323.46 2054.32 3325.32 2048.43C3326.42 2044.95 3326.45 2043.38 3325.26 2040.28C3324.92 2040.64 3324.58 2040.91 3324.36 2041.26C3316.53 2053.16 3310.9 2066.04 3306.92 2079.69C3305.75 2083.69 3305.6 2087.74 3305.85 2091.84C3306.01 2094.55 3306.17 2097.26 3306.36 2100.38C3304.64 2099.42 3303.72 2098.45 3303.61 2096.88C3303.02 2088.4 3302.35 2079.93 3301.9 2071.45C3301.69 2067.62 3302.76 2064.01 3304.83 2060.74C3308.95 2054.25 3311.7 2047.16 3313.98 2039.88C3316.99 2030.28 3323.04 2023.6 3332.54 2020.17C3334.96 2019.3 3336.17 2017.84 3336.61 2015.16C3337.02 2012.61 3338.19 2010.15 3339.3 2007.77C3340.71 2004.74 3342.15 2001.81 3341.56 1998.29C3341.45 1997.63 3342.03 1996.86 3342.51 1995.54C3345.13 1999.21 3346.84 2002.93 3351.19 2003.49C3353.57 2003.8 3355.76 2003.16 3357.9 2001.8C3357.46 2000.96 3357.03 2000.21 3356.65 1999.43C3354.94 1995.97 3355.58 1993.86 3358.86 1991.98C3361.11 1990.7 3361.11 1990.7 3361.33 1987.77C3360.11 1987.46 3358.86 1987.13 3357.62 1986.81C3356.45 1981.7 3353.03 1980.04 3348.32 1982.48C3346.7 1983.32 3345.36 1984.74 3343.96 1985.96C3343.16 1986.66 3342.49 1987.52 3341.52 1988.57C3340.36 1985.37 3340.45 1982.56 3341.12 1979.75C3342.04 1975.89 3344.33 1972.78 3346.67 1969.68C3351.44 1963.33 3356.14 1956.93 3360.76 1950.46C3361.63 1949.26 3361.97 1947.68 3362.65 1946.04C3363.46 1946 3364.41 1945.95 3365.44 1945.9C3365.6 1945.67 3365.87 1945.43 3365.94 1945.14C3368.59 1934.94 3372.91 1925.38 3376.98 1915.72C3379.17 1910.52 3380.47 1905.08 3381.46 1899.49C3382.58 1893.21 3384.35 1887.03 3386.08 1880.88C3387.74 1874.99 3388.63 1869.03 3389.03 1862.94C3389.83 1850.38 3390.82 1837.83 3391.56 1825.27C3391.79 1821.54 3391.5 1817.78 3391.39 1814.03C3391.21 1808.06 3393.3 1803.04 3397.67 1798.98C3397.98 1798.68 3398.39 1798.46 3398.79 1798.28C3399.07 1798.16 3399.41 1798.17 3400.1 1798.06C3400.87 1803.04 3401.63 1807.96 3402.39 1812.87C3402.67 1812.91 3402.95 1812.94 3403.22 1812.97C3403.99 1811.04 3404.76 1809.12 3405.84 1806.42C3411.94 1823.61 3417.77 1840.08 3423.72 1856.83C3427 1856.28 3430.28 1855.83 3433.51 1855.24V1809.09C3431.62 1806.77 3429.68 1804.5 3427.66 1802.3C3424.42 1798.76 3420.25 1796.09 3416.47 1793.06C3415.61 1792.37 3414.6 1791.86 3413.79 1791.13C3411.65 1789.18 3411.21 1787.39 3412.63 1784.95C3413.68 1783.14 3413.74 1781.44 3413.18 1779.56C3412.4 1776.93 3411.65 1774.3 3410.8 1771.36C3408.89 1771.51 3407.14 1771.53 3405.43 1771.81C3402.61 1772.28 3400.63 1773.92 3399.58 1776.62C3399.22 1777.54 3398.78 1778.46 3398.57 1779.42C3396.82 1787.38 3391.06 1790.67 3383.78 1792.14C3379.22 1793.06 3375.02 1792.14 3371.21 1789.45C3368.59 1787.6 3366.01 1785.7 3363.28 1784.03C3361.62 1783.02 3361.2 1781.74 3361.26 1779.93C3361.37 1776.52 3361.29 1773.1 3361.29 1769.32C3360.39 1769.64 3359.69 1769.78 3359.09 1770.12C3354.97 1772.46 3350.85 1774.81 3346.78 1777.26C3345.67 1777.92 3344.62 1778.79 3343.77 1779.77C3338.63 1785.69 3333.57 1791.67 3328.47 1797.63C3325.61 1800.97 3323.53 1804.71 3323.07 1809.14C3322.86 1811.08 3321.87 1812.48 3320.49 1813.6C3317.34 1816.14 3316.37 1819.35 3316.85 1823.29C3317.45 1828.25 3318.42 1833.09 3320.18 1837.77C3321.1 1840.21 3322.72 1841.47 3325.3 1841.79C3327.15 1842.02 3329 1842.43 3330.78 1842.98C3333.08 1843.69 3333.63 1844.67 3333.27 1846.91C3333.11 1847.89 3332.84 1848.85 3332.56 1849.81C3332.35 1850.53 3332.05 1851.22 3331.75 1852.07C3324.81 1851.09 3318.06 1850.28 3312.73 1845.16C3311.2 1843.7 3309.07 1842.86 3306.95 1841.57C3306.12 1843.19 3305.49 1844.45 3304.84 1845.7C3286.17 1881.51 3265.72 1916.16 3239.47 1947.1C3223.73 1965.63 3205.92 1981.89 3186.72 1996.72C3173.26 2007.12 3159.49 2017.07 3145.44 2026.66C3137.18 2032.29 3128.27 2036.48 3119.07 2040.18C3117.66 2040.75 3116.13 2041.02 3114.63 2041.44C3114.38 2040.98 3114.1 2040.7 3114.11 2040.45C3114.36 2036.61 3112.55 2033.51 3110.86 2030.24C3107.47 2023.68 3104.53 2016.88 3101.3 2010.24C3100.45 2008.48 3099.43 2006.7 3098.11 2005.29C3088.8 1995.4 3079.57 1985.41 3069.97 1975.81C3056.85 1962.71 3050.27 1946.81 3048.54 1928.59C3047.35 1915.97 3048.26 1903.42 3049.71 1890.9C3050.65 1882.79 3051.45 1874.63 3053.01 1866.63C3055.78 1852.37 3061.01 1838.84 3066.89 1825.62C3075.49 1806.26 3084.48 1787.06 3093.3 1767.79C3094.36 1765.48 3095.47 1763.2 3096.42 1760.84C3105.66 1737.97 3118.8 1717.28 3132.32 1696.82C3153.29 1665.12 3175.59 1634.36 3198.36 1603.95C3198.89 1603.26 3199.46 1602.6 3200.45 1601.4C3201.33 1604.65 3202.07 1607.44 3202.86 1610.36C3204.01 1610.25 3204.98 1610.15 3205.95 1610.07C3209.47 1609.75 3212.52 1610.86 3213.97 1614.11C3215.84 1618.3 3218.54 1621.19 3222.61 1623.47C3227.01 1625.93 3228.44 1630.76 3229.4 1635.51C3229.89 1637.89 3230.27 1640.29 3230.69 1642.68C3231.36 1646.43 3233.58 1648.77 3237.19 1649.87C3238.03 1650.12 3238.85 1650.51 3239.71 1650.66C3241.67 1650.99 3243.28 1651.92 3244.43 1653.47C3245.82 1655.33 3247.49 1656.2 3250.2 1655.3C3250.55 1658.43 3250.66 1661.36 3251.27 1664.18C3251.89 1667.06 3253.01 1669.84 3254.04 1673.07C3255.72 1671.24 3257.11 1669.74 3258.59 1668.13C3258.22 1667.6 3257.59 1666.94 3257.24 1666.16C3256.89 1665.4 3256.47 1664.4 3256.69 1663.7C3258.23 1658.78 3260.41 1654.13 3262.68 1649.07C3263.97 1651.77 3263.92 1653.94 3263.08 1656.21C3261.72 1659.93 3260.49 1663.7 3259.03 1667.94C3260.33 1667.48 3261.23 1667.16 3262.39 1666.75C3262.71 1669.63 3263 1672.32 3263.35 1675.49C3271.61 1672.77 3279.68 1670.1 3288.1 1667.32C3288.48 1669.1 3288.8 1670.64 3289.18 1672.46C3287.2 1672.27 3285.62 1672.13 3283.6 1671.94C3284.01 1672.94 3284.07 1673.68 3284.47 1673.99C3290 1678.39 3295.57 1682.73 3301.15 1687.06C3301.75 1687.52 3302.5 1687.81 3303.17 1688.17C3305.71 1689.54 3308.21 1689.67 3310.67 1687.97C3311.1 1687.67 3311.59 1687.46 3311.9 1687.29C3313.71 1689.02 3315.32 1690.63 3317 1692.17C3318.44 1693.48 3319.64 1694.93 3319.54 1696.97C3319.44 1698.92 3320.5 1700.1 3321.91 1701.03C3326.79 1704.26 3331.7 1707.46 3337.39 1709.15C3337.91 1709.31 3338.45 1709.45 3338.96 1709.65C3341.51 1710.62 3341.97 1711.3 3342.06 1714.07C3342.19 1718.05 3342.64 1718.69 3346.44 1719.29C3349.68 1719.8 3352.97 1720.08 3356.52 1720.49C3357.07 1717.83 3357.55 1715.5 3358.17 1712.51C3360.07 1714.81 3361.64 1716.72 3363.22 1718.63C3363.85 1719.4 3364.42 1720.23 3365.13 1720.92C3366.84 1722.6 3367.66 1724.46 3366.74 1726.86C3366.56 1727.33 3366.72 1727.92 3366.72 1728.65C3369.23 1729.27 3371.65 1729.86 3374.78 1730.63C3373.51 1726.72 3372.4 1723.34 3371.3 1719.96L3371.37 1720.05C3369.69 1719.62 3368.01 1719.19 3366.46 1718.8C3366.38 1718.26 3366.3 1718.04 3366.33 1717.84C3366.93 1713.87 3366.6 1713.15 3362.93 1711.41C3360.92 1710.46 3358.9 1709.58 3357.94 1707.15C3354.45 1708.54 3351.1 1709.87 3347.46 1711.32C3347.01 1709.56 3346.6 1707.99 3346.15 1706.21C3349.69 1704.71 3353.57 1705.75 3357.42 1704.57C3355.79 1701.7 3354.28 1699.05 3352.71 1696.28C3354.51 1692.64 3356.31 1688.98 3358.16 1685.35C3358.43 1684.81 3359.06 1683.96 3359.4 1684.02C3361.46 1684.35 3361.75 1682.72 3362.37 1681.52C3364.79 1676.81 3367.16 1672.07 3369.54 1667.33C3369.96 1666.49 3370.29 1665.6 3370.94 1664.1C3367.68 1665.65 3365.01 1666.88 3362.38 1668.16C3361.36 1668.65 3360.49 1668.95 3360.18 1667.07C3364.05 1664.83 3368.03 1662.53 3372.71 1659.82C3373.49 1661.09 3374.29 1662.39 3375.4 1664.19C3375.89 1662.44 3376.01 1661.56 3376.38 1660.8C3376.75 1660.07 3377.23 1659.21 3377.9 1658.85C3384.7 1655.23 3391.55 1651.71 3398.62 1648.03C3399.78 1650.26 3400.84 1652.28 3402.12 1654.73C3405.85 1651.14 3409.46 1647.67 3413.32 1643.95C3416.25 1646.29 3419.14 1648.59 3422.38 1651.18C3423.71 1647.69 3425.12 1644.6 3426.04 1641.37C3426.77 1638.86 3428.1 1637.67 3430.65 1637.59C3431.61 1637.56 3432.56 1637.32 3433.51 1637.12V1591.81L3429.87 1603.99C3428.88 1603.64 3428.29 1603.44 3427.37 1603.12ZM3164.86 1411.64C3166.14 1412.11 3166.98 1412.16 3167.29 1412.6C3167.71 1413.17 3167.75 1414.03 3167.9 1414.77C3168.6 1418.16 3169.28 1421.55 3170.03 1425.25C3168.58 1425.36 3167.57 1425.44 3166.35 1425.54C3165.86 1420.98 3165.41 1416.75 3164.86 1411.64ZM3272.98 1603.81C3270.49 1602.45 3270.22 1602.01 3271.34 1599.66C3272.4 1597.43 3273.72 1595.33 3274.92 1593.19C3279.07 1595.47 3279.26 1596.62 3276.3 1599.36C3275.98 1599.66 3275.57 1599.89 3275.33 1600.24C3274.56 1601.33 3273.86 1602.46 3272.98 1603.81ZM3230.39 1541.3C3233.94 1539.16 3237.24 1537.18 3240.79 1535.04C3239.94 1538.8 3238.79 1542.11 3236.39 1545.02C3234.76 1544.03 3233.35 1543.2 3231.96 1542.34C3231.5 1542.06 3231.06 1541.75 3230.39 1541.3ZM3377.2 1604.52C3375.58 1606.25 3374.16 1607.63 3372.9 1609.13C3371.61 1610.68 3370.4 1610.6 3368.92 1609.21C3369.76 1606.12 3370.61 1603.03 3371.57 1599.51C3373.62 1601.34 3375.24 1602.78 3377.2 1604.52ZM3190.18 1154.57C3189.93 1154.52 3189.68 1154.47 3189.43 1154.42C3190.87 1151.13 3189.16 1148.25 3188.85 1145.19C3188.79 1144.65 3188.78 1144.08 3188.87 1143.55C3189.34 1140.78 3190.95 1139.97 3194.03 1141.14C3193.22 1145.27 3192.43 1149.45 3191.52 1153.61C3191.44 1154.01 3190.65 1154.25 3190.18 1154.57ZM3209.62 1361.54C3208.35 1360.79 3207.39 1360.27 3206.48 1359.68C3205.46 1359.03 3204.53 1358.23 3203.48 1357.67C3201.97 1356.87 3202.13 1355.56 3202.25 1354.25C3202.37 1352.91 3202.06 1351.28 3204.34 1350.92C3206.65 1353.67 3209.03 1356.48 3211.42 1359.32C3210.72 1360.18 3210.25 1360.76 3209.62 1361.54ZM3195.94 1241.02C3194.4 1241.08 3192.67 1241.7 3192.18 1240.2C3191.45 1237.95 3190.94 1235.46 3191.11 1233.13C3191.26 1230.97 3193.8 1230.87 3195.44 1230.1C3195.77 1229.95 3196.23 1230.04 3196.87 1230C3196.55 1233.78 3196.25 1237.36 3195.94 1241.02ZM3247.46 1188.84C3243.38 1188.08 3239.93 1187.47 3236.49 1186.76C3235.98 1186.65 3235.57 1186.05 3235.1 1185.68C3235.5 1185.22 3235.82 1184.51 3236.31 1184.36C3239.43 1183.38 3242.58 1182.53 3246.07 1181.53C3246.53 1183.95 3246.95 1186.15 3247.46 1188.84ZM3403.86 1788.75C3403.66 1787.4 3403.52 1786.22 3403.31 1785.05C3403.07 1783.75 3402.7 1782.48 3402.52 1781.18C3402.1 1778.16 3403.1 1776.75 3405.86 1775.92C3406.4 1777.56 3406.9 1779.19 3407.47 1780.8C3407.73 1781.52 3408.16 1782.17 3408.44 1782.88C3409.39 1785.35 3408.81 1786.85 3406.43 1787.95C3405.66 1788.31 3404.8 1788.47 3403.86 1788.75ZM3193.48 1195.68C3191 1191.65 3189.49 1188.17 3189.07 1184.27C3188.8 1181.73 3189.58 1179.49 3191.21 1177.53C3191.86 1176.75 3192.58 1176.44 3193.6 1177.21C3192.99 1178.53 3192.36 1179.87 3191.72 1181.24C3193.2 1182.14 3194.49 1182.93 3195.93 1183.81C3195.15 1187.59 3194.39 1191.24 3193.48 1195.68ZM3348.96 1669.77C3351.65 1673.34 3353.96 1676.39 3356.44 1679.69C3354.06 1681.26 3351.91 1682.68 3349.64 1684.18C3347.7 1681.39 3351.54 1680.52 3351.18 1678.3C3349.25 1679.2 3347.48 1680.08 3345.66 1680.82C3345.18 1681.02 3344.44 1680.92 3343.97 1680.67C3343.76 1680.56 3343.76 1679.64 3343.97 1679.24C3345.51 1676.21 3347.13 1673.22 3348.96 1669.77ZM3203.57 1176.33C3203.27 1176.3 3202.96 1176.28 3202.66 1176.25C3202.63 1174.88 3202.39 1173.46 3202.62 1172.13C3204.26 1162.49 3212.65 1157.19 3222.26 1159.62C3225.14 1160.34 3228.03 1161 3230.9 1161.71C3231.73 1161.91 3232.73 1161.93 3232.76 1163.18C3232.78 1164.37 3231.9 1164.56 3231.04 1164.82C3227.77 1165.79 3224.49 1166.72 3221.24 1167.76C3217.17 1169.06 3213.05 1169.44 3208.83 1168.85C3208.2 1168.77 3207.57 1168.74 3206.84 1168.68C3205.71 1171.31 3204.64 1173.82 3203.57 1176.33ZM3234.42 1372.01C3238.39 1377.26 3236.88 1382.53 3230.81 1384.53C3227.79 1385.53 3224.64 1386.14 3221.53 1386.89C3221.12 1386.99 3220.62 1387.04 3220.23 1386.91C3217.76 1386.07 3215.31 1385.17 3212.49 1384.17C3214.18 1382.3 3215.63 1380.8 3216.95 1379.2C3217.48 1378.57 3218.12 1377.69 3218.07 1376.97C3217.85 1373.97 3219.63 1372.92 3222.09 1372.22C3224.91 1371.41 3227.67 1370.42 3230.59 1369.47C3231.15 1370.8 3231.82 1372.38 3232.61 1374.25C3233.36 1373.32 3233.88 1372.68 3234.42 1372.01ZM3226.21 1458.79C3223.35 1465.78 3220.79 1472.06 3218.22 1478.33C3222.63 1473.51 3225.07 1467.71 3227.2 1461.8C3227.73 1460.31 3227.31 1458.31 3226.87 1456.67C3226.18 1454.13 3227.07 1451.47 3229.52 1450.93C3232.47 1450.29 3235.51 1450.04 3238.57 1450.7C3237.85 1453.27 3237.85 1453.27 3235.86 1454.74C3232.37 1457.3 3232.23 1458.71 3235.05 1461.93C3235.53 1462.47 3236.05 1463.18 3236.1 1463.85C3236.26 1466.11 3231.13 1473.25 3228.81 1474.2C3228.73 1474.24 3228.68 1474.36 3228.53 1474.57C3231.62 1479.82 3234.94 1485.16 3231.05 1491.68C3227.47 1490.84 3224.11 1490.05 3220.71 1489.26C3221.38 1487.28 3221.89 1485.78 3222.45 1484.12C3220.24 1483.71 3218.39 1483.44 3216.58 1483.02C3214.88 1482.63 3213.22 1481.79 3213.19 1479.89C3213.16 1477.62 3212.98 1474.92 3214.06 1473.15C3216.98 1468.36 3220.52 1463.94 3223.89 1459.43C3224.17 1459.06 3225.01 1459.1 3226.21 1458.79ZM3343.64 1850.57C3343.11 1846.47 3343.09 1842.81 3344.42 1839.18C3345.91 1835.15 3347.37 1831.11 3348.71 1827.03C3351.94 1817.19 3355.12 1807.33 3358.24 1797.46C3359.03 1794.97 3360.55 1793.4 3362.93 1792.54C3364.58 1794.76 3365.28 1797.1 3365.09 1799.56C3364.7 1804.71 3364.4 1809.9 3363.53 1814.98C3361.65 1826.04 3355.42 1835.59 3352.33 1846.55C3350.82 1845.44 3349.49 1844.46 3348.21 1843.51C3346.21 1845.7 3347.43 1849.53 3343.64 1850.57ZM3369.99 1879.59C3369.73 1877.86 3369.44 1876.78 3369.41 1875.69C3369.3 1871.67 3368.37 1867.85 3367 1864.08C3366.18 1861.82 3365.65 1859.42 3365.24 1857.03C3363.86 1849.02 3364.47 1840.97 3364.88 1832.92C3365.16 1827.58 3367.53 1822.94 3369.44 1818.14C3369.61 1817.73 3369.74 1817.3 3369.9 1816.89C3370.23 1817.02 3370.56 1817.16 3370.88 1817.29C3371.41 1819.58 3372.09 1821.86 3372.45 1824.17C3374.55 1837.58 3376.58 1850.99 3378.61 1864.41C3379.06 1867.35 3379.36 1870.32 3379.89 1873.25C3380.22 1875.08 3380.94 1875.37 3382.73 1874.86C3383.4 1874.66 3384.08 1874.47 3385.01 1874.2C3385.01 1874.96 3385.18 1875.54 3384.99 1875.73C3382.03 1878.44 3378.9 1880.95 3375.49 1883.35C3374.31 1880.98 3373.31 1878.98 3372.17 1876.71C3371.4 1877.74 3370.89 1878.41 3369.99 1879.59ZM3297.83 1435.25C3296.44 1437.36 3295.05 1439.47 3293.68 1441.58C3292.76 1443 3291.76 1444.3 3289.98 1444.67C3284.38 1445.84 3278.79 1447.05 3273.17 1448.15C3271.19 1448.54 3269.54 1447.9 3268.27 1446.19C3266.69 1444.06 3265.05 1441.98 3263.31 1439.99C3261.28 1437.67 3259.29 1435.27 3256.97 1433.27C3253.61 1430.37 3249.61 1429.44 3245.22 1430.64C3244.24 1430.91 3243.23 1431.05 3241.76 1431.35C3244.22 1427.23 3246.4 1423.58 3248.68 1419.77C3252.18 1421.86 3255.36 1423.75 3258.63 1425.7C3261.23 1422.63 3263.62 1419.75 3266.05 1416.91C3268.43 1414.13 3270.61 1411.16 3273.73 1408.12C3273.59 1410.94 3273.48 1412.95 3273.39 1414.79C3276.35 1415.78 3279.64 1412.23 3281.83 1416.47C3278.7 1418.88 3275.68 1421.21 3272.25 1423.86C3275.37 1424.71 3278.01 1425.3 3280.57 1426.17C3282.44 1426.81 3283.84 1426.5 3285.35 1425.23C3288.11 1422.9 3291.03 1420.76 3294.04 1418.42C3299.8 1424.58 3305.34 1430.5 3310.99 1436.54C3310.23 1437.26 3309.7 1437.76 3309.09 1438.33C3307.29 1437.07 3305.61 1435.9 3303.9 1434.7C3300.05 1443.87 3300.03 1443.89 3296.71 1443.65C3297.6 1441.6 3298.46 1439.57 3299.37 1437.57C3300.03 1436.11 3299.31 1435.59 3297.83 1435.25ZM3433.51 1544.17C3429.79 1546.66 3429.09 1551.4 3432.43 1556.04L3433.51 1555.27V1544.17ZM3382.22 2041.32C3384.38 2047.23 3386.5 2053.04 3388.68 2059.01C3387.46 2059.36 3386.68 2059.58 3385.7 2059.86C3383.61 2053.71 3381.26 2047.88 3379.41 2041.57C3380.61 2041.47 3381.33 2041.4 3382.22 2041.32Z" fill="#EBEBEB"/>
</g>
<defs>
<filter id="filter0_d_20_755" x="386" y="-16" width="3068" height="2200" filterUnits="userSpaceOnUse" color-interpolation-filters="sRGB">
<feFlood flood-opacity="0" result="BackgroundImageFix"/>
<feColorMatrix in="SourceAlpha" type="matrix" values="0 0 0 0 0 0 0 0 0 0 0 0 0 0 0 0 0 0 127 0" result="hardAlpha"/>
<feOffset dy="4"/>
<feGaussianBlur stdDeviation="10"/>
<feComposite in2="hardAlpha" operator="out"/>
<feColorMatrix type="matrix" values="0 0 0 0 0 0 0 0 0 0 0 0 0 0 0 0 0 0 0.3 0"/>
<feBlend mode="normal" in2="BackgroundImageFix" result="effect1_dropShadow_20_755"/>
<feBlend mode="normal" in="SourceGraphic" in2="effect1_dropShadow_20_755" result="shape"/>
</filter>
</defs>
</svg>
