<svg width="3840" height="2160" viewBox="0 0 3840 2160" fill="none" xmlns="http://www.w3.org/2000/svg">
<rect width="3840" height="2160" fill="#FEF5E0"/>
<g filter="url(#filter0_d_20_1493)">
<rect x="397" y="-4" width="3028" height="2160" fill="white"/>
</g>
<g opacity="0.75">
<path d="M3764.61 1941.72C3760.82 1946.77 3757.45 1951.26 3753.69 1956.28C3744.85 1949.16 3737.2 1943.01 3725.8 1933.84C3741.27 1936.98 3751.41 1939.04 3764.61 1941.72ZM3541.16 1220.31C3541.95 1219.31 3542.73 1218.31 3543.53 1217.33L3543.55 1217.35C3550.07 1212.81 3556.58 1208.27 3565.54 1202.03C3567.97 1209.79 3572.06 1221.57 3575.31 1233.57C3579.2 1247.91 3581.58 1262.7 3586.07 1276.84C3590.95 1292.21 3584.89 1300.23 3571.08 1305.32C3550.21 1313 3529.5 1321.12 3509.9 1332.87C3523.76 1330.25 3537.62 1327.62 3553.32 1324.65C3550.3 1345.38 3549.09 1358.44 3531.11 1368.62C3517.86 1376.12 3512.69 1397.88 3504.21 1412.79C3516.61 1413.41 3526.81 1412.83 3536.43 1414.91C3540.38 1415.76 3544.82 1421.91 3545.97 1426.43C3547.81 1433.69 3544.68 1442.91 3547.97 1448.96C3555.25 1462.38 3549.97 1467.7 3539.6 1470.02C3540.16 1475.74 3542.69 1483.27 3540.73 1484.72C3532.12 1491.08 3522.21 1495.69 3510.75 1502.06C3512.27 1503.48 3517.93 1511.19 3520.03 1510.32C3542.38 1501.03 3560.89 1524.19 3583.91 1518.63C3567.95 1531.15 3553.47 1550.08 3535.58 1554.19C3520.91 1557.57 3511.08 1566.7 3493.06 1570.16C3500.69 1576.81 3505.23 1580.76 3511.39 1586.13C3501.99 1588.95 3493.39 1591.53 3480.9 1595.28C3484.9 1587.35 3486.91 1583.37 3489.05 1579.12C3478.47 1579.39 3472.09 1581.11 3467.68 1593.19C3464.12 1602.94 3452.27 1611.15 3442.25 1616.71C3439.52 1618.23 3436.73 1619.63 3433.89 1620.97V1655.43L3439.55 1654.63C3439.8 1656.83 3440.05 1659.03 3440.3 1661.23L3433.89 1661.94V1731.79C3453.82 1714.61 3474.89 1698.53 3496.72 1683.16C3492.88 1688.19 3488.76 1693.04 3485.25 1698.29C3468.02 1724.06 3450.82 1749.85 3433.89 1775.81V1910.57C3447.32 1924.05 3446.85 1929.28 3441.66 1950.25C3446.27 1946.8 3449.26 1944.57 3454.08 1940.96C3457.36 1948.09 3460.43 1954.76 3463.38 1961.16C3469.69 1955.28 3477.6 1947.91 3484.15 1941.8C3490.08 1947.64 3494.21 1953.39 3499.76 1956.89C3519.64 1969.44 3543.62 1976.08 3555.3 1999.92C3558 2005.43 3566.66 2008.02 3574.65 2009.01C3571.7 2006.2 3568.75 2003.38 3565.8 2000.57C3566.09 1999.89 3566.38 1999.22 3566.67 1998.55C3587.51 2008.34 3608.34 2018.12 3626.2 2026.51C3645.18 2011.3 3664.07 1996.16 3683.07 1980.94C3696.92 1993.01 3707.81 2002.51 3718.71 2012.01C3703.69 2044.69 3702 2056 3712.12 2076C3719.25 2050.25 3725.4 2028.09 3731.52 2005.93C3733.96 1997.09 3738.49 1990.77 3748.84 1991.4C3750.45 1991.5 3753.38 1992.1 3753.45 1991.86C3757.04 1978.55 3757.38 1963.25 3764.44 1952.25C3775.72 1934.7 3767.54 1927.18 3753.99 1919.68C3751.73 1918.44 3749.01 1918.05 3746.5 1917.27C3747.94 1915.39 3749.38 1913.52 3750.83 1911.65C3759.93 1915.35 3769.04 1919.05 3780.84 1923.85C3784.47 1920.64 3790.04 1915.71 3798.51 1908.21C3799.15 1908.4 3804.74 1910.08 3810.33 1911.75C3811.81 1910.74 3813.29 1909.74 3814.77 1908.73C3808.81 1898.62 3802.85 1888.51 3796.5 1877.74C3799.31 1877.95 3803.05 1878.23 3807.93 1878.6C3809.74 1848.54 3821.39 1824.65 3852.32 1814.81C3863.8 1811.15 3875.91 1809.22 3887.02 1804.71C3897.57 1800.43 3907.43 1796.15 3907.18 1779.66C3907.1 1774.98 3914.05 1748.68 3936.09 1757.25C3937.66 1757.85 3939.82 1757.25 3941.61 1756.82C3942.74 1756.55 3943.7 1755.57 3947.98 1752.82C3940.56 1743.02 3934.81 1731.34 3925.61 1723.96C3890.4 1695.71 3855.51 1666.62 3817.68 1642.2C3791.53 1625.32 3770.99 1605.41 3756.16 1578.76C3753.8 1574.53 3751.17 1570 3750.49 1565.34C3743.97 1520.24 3732.13 1477.79 3696.75 1445.46C3694.14 1443.07 3695.7 1434.03 3697.7 1429.03C3708.81 1401.21 3721.92 1374.13 3731.92 1345.94C3744.16 1311.47 3746.3 1275.71 3744.58 1238.9C3743.4 1213.8 3749.8 1188.23 3753.88 1163.04C3758.93 1131.88 3750.76 1103.76 3736.08 1076.94C3723.56 1054.08 3711.29 1031.04 3697.52 1008.94C3692.07 1000.2 3683.52 992.982 3675.29 986.443C3650.02 966.369 3623.54 947.761 3598.79 927.066C3572.29 904.902 3543.89 888.909 3508.47 887.326C3501.37 887.007 3494.53 881.21 3487.41 880.829C3467.54 879.769 3450.64 871.192 3433.89 862.375V916.177C3434.25 916.166 3434.63 916.149 3435.01 916.125C3449.17 915.239 3467.6 929.777 3475.48 904.999C3475.78 904.072 3481.58 904.039 3484.4 904.913C3496.4 908.628 3508.25 912.85 3520.15 916.882C3519.98 917.565 3519.81 918.244 3519.64 918.925C3512.48 918.925 3505.32 918.925 3498.16 918.925C3497.98 920.034 3497.79 921.142 3497.61 922.253C3506.07 925.465 3514.54 928.679 3522.56 931.725C3504.65 934.646 3486.27 937.642 3465.37 941.049C3471.54 945.598 3474.76 947.961 3477.97 950.324C3461.34 948.044 3447.5 951.759 3433.89 960.38V1046.4C3455.14 1046.34 3475.98 1042.23 3497.25 1029.96C3521.41 1016.03 3552.08 1013.39 3578.38 1006.11C3575.03 1015.67 3573.08 1024.06 3569.06 1031.31C3567.38 1034.34 3561.41 1035.87 3557.19 1036.42C3550.73 1037.25 3544.09 1036.63 3538.22 1036.63C3522.77 1061.12 3545.45 1080.23 3548.18 1103.94C3541.53 1103.15 3536.41 1102.54 3526.09 1101.31C3532.25 1141.23 3538.15 1179.53 3544.03 1217.8C3542.57 1218.09 3541.08 1218.35 3539.59 1218.62C3536.47 1223.02 3533.24 1227.36 3530.28 1231.87C3528.29 1234.9 3526.56 1240.92 3524.96 1240.84C3521.2 1240.65 3515.58 1238.5 3514.25 1235.54C3504.04 1212.87 3487.41 1209.13 3464.78 1214.71C3456.97 1216.63 3445.52 1213.86 3439 1208.92C3437.3 1207.63 3435.6 1206.59 3433.89 1205.74V1248.29C3446.59 1250.18 3459.29 1252.8 3472.02 1254.47C3481.36 1255.69 3490.87 1255.6 3503.35 1256.26C3504.78 1259.1 3508.47 1266.45 3512.2 1273.86C3527.63 1266.41 3544.62 1262.64 3547.25 1244.71C3548.37 1237.04 3543.38 1228.47 3541.16 1220.31ZM3433.89 1351.09C3436.38 1348.04 3439.02 1344.66 3442.19 1341.2C3440.99 1340.16 3436.77 1336.47 3433.98 1334.03L3433.89 1334.12V1351.09ZM3433.89 1310.07L3435.59 1294.21C3442.39 1297.55 3447.83 1300.22 3455.43 1303.96C3449.3 1308.09 3444.47 1309.71 3442.62 1313C3440.19 1317.34 3440.1 1322.99 3439.01 1328.08C3443.41 1328.68 3448.41 1330.93 3452.1 1329.58C3463.89 1325.3 3477.4 1322.02 3486.02 1313.87C3493.35 1306.94 3498.67 1293.44 3497.7 1283.54C3496.92 1275.55 3485.44 1268.59 3475.12 1257.22C3478.64 1272.77 3480.78 1282.2 3482.85 1291.35C3465.86 1281.95 3449.87 1273.11 3433.89 1264.27V1270.2C3441.67 1274.79 3449.45 1279.38 3457.23 1283.97C3456.77 1285.14 3456.3 1286.32 3455.84 1287.5L3433.89 1283.23V1310.07ZM3640.36 1340.8C3649.88 1354.89 3653.19 1368.14 3635.6 1378.48C3637.18 1365.92 3638.77 1353.36 3640.36 1340.8ZM3625.66 1417.26C3639.42 1406.44 3649.13 1398.81 3662.31 1388.46C3654.52 1404.15 3649.55 1414.19 3643.44 1426.52C3641.06 1425.28 3634.46 1421.84 3625.66 1417.26ZM3701.78 1970.98C3696.57 1973.32 3689.24 1976.62 3681.91 1979.92C3680.29 1978.62 3678.68 1977.32 3677.07 1976.02C3681.35 1965.06 3685.63 1954.1 3691.07 1940.2C3695.65 1953.36 3698.33 1961.07 3701.78 1970.98ZM3696.29 1311.84C3698.55 1312.32 3700.81 1312.79 3703.06 1313.27C3696.1 1334.99 3703.34 1360.24 3681.42 1383.21C3687.02 1356.31 3691.66 1334.08 3696.29 1311.84ZM3544.21 1638.85C3545.26 1650.07 3506.29 1698.04 3488.86 1706.16C3508.17 1682.68 3525.98 1661.01 3544.21 1638.85ZM3664.39 1311.14C3661.94 1309.91 3659.49 1308.67 3657.03 1307.45C3662.36 1298.53 3666.64 1288.72 3673.26 1280.92C3684.07 1268.19 3697.63 1273.49 3711.2 1278.35C3684.93 1274.22 3675.78 1294.3 3664.39 1311.14ZM3643.16 1506.27C3619.29 1523.12 3594.58 1540.57 3569.87 1558.03C3585.5 1526.61 3606.9 1503.95 3643.16 1506.27ZM3433.89 942.945H3452.65C3452.78 942.27 3452.92 941.596 3453.05 940.921C3448.63 939.38 3444.22 937.831 3439.82 936.293C3441.18 931.91 3442.38 928.028 3443.58 924.15L3433.89 921.329V942.945Z" fill="#BAA989"/>
<path fill-rule="evenodd" clip-rule="evenodd" d="M3279.76 1528.88C3282.49 1536.74 3293.11 1543.14 3300.88 1544.19C3316.56 1546.31 3318.55 1544.52 3331.86 1543.85C3335.31 1543.67 3336.59 1542.93 3340.5 1538.95C3350.8 1528.47 3341.85 1528.89 3334.4 1527.23C3330.21 1526.29 3319.47 1529.78 3312.58 1529.78C3305.12 1529.78 3294.02 1528.14 3287.14 1525.46C3283.49 1524.04 3279.2 1527.29 3279.76 1528.88Z" fill="white"/>
</g>
<g opacity="0.4">
<path fill-rule="evenodd" clip-rule="evenodd" d="M3279.67 1528.88C3282.41 1536.74 3293.03 1543.14 3300.79 1544.19C3316.47 1546.31 3318.46 1544.52 3331.76 1543.85C3335.21 1543.67 3336.5 1542.93 3340.4 1538.95C3350.7 1528.46 3341.76 1528.89 3334.3 1527.23C3330.11 1526.29 3319.38 1529.78 3312.49 1529.78C3305.03 1529.78 3293.93 1528.14 3287.06 1525.46C3283.41 1524.04 3279.12 1527.29 3279.67 1528.88Z" fill="white"/>
<path d="M3433.77 1620.97C3421.58 1626.68 3408.42 1631.02 3394.85 1636.56C3398.11 1608.44 3401.15 1582.2 3404.18 1555.97C3402.06 1555.71 3399.93 1555.46 3397.81 1555.2C3395.55 1571.96 3393.29 1588.72 3390.52 1609.26C3388.96 1600.47 3388.05 1595.38 3387.44 1591.97C3382.89 1596.42 3378.2 1601.01 3373.51 1605.59C3371.89 1603.77 3370.26 1601.96 3368.63 1600.14C3368.41 1631.46 3338.23 1620.4 3323.58 1633.93C3326.4 1637.67 3328.93 1641.03 3334.94 1649.02C3317.34 1645.94 3304.59 1644.56 3292.3 1641.37C3268.1 1635.09 3258.44 1638.5 3242.61 1657.32C3234.46 1667.01 3222.53 1673.57 3214.6 1683.39C3200.01 1701.47 3187.37 1721.12 3173.32 1739.66C3169.74 1744.39 3164.26 1747.97 3159.09 1751.16C3145.83 1759.34 3128.65 1764.24 3119.92 1775.7C3112.54 1785.39 3114.81 1802.45 3112.79 1816.4C3088.05 1832.66 3060.97 1850.47 3033.47 1868.56C3036.31 1874.52 3038.56 1879.26 3041.37 1885.16C3029.9 1893.61 3018.85 1901.76 3007.8 1909.91C3008.2 1911.09 3008.6 1912.26 3009 1913.44C3022.9 1913.44 3036.79 1913.44 3053.77 1913.44C3051.62 1918.79 3048.45 1926.65 3044.7 1935.96C3045.89 1937.89 3048.51 1942.11 3051.67 1947.21C3057.29 1942.3 3063.07 1937.24 3071.63 1929.75C3068.58 1938.16 3066.85 1942.96 3065.1 1947.77C3066.06 1948.5 3067.03 1949.23 3067.99 1949.97C3074.74 1942.5 3081.48 1935.04 3088.23 1927.58C3089.42 1928.32 3090.6 1929.06 3091.78 1929.81C3083.92 1941.77 3076.05 1953.73 3068.18 1965.69C3069.27 1967.07 3070.36 1968.45 3071.46 1969.82C3079.07 1964.83 3086.68 1959.84 3096.37 1953.5C3095.39 1959.73 3094.66 1964.37 3093.7 1970.45C3096.27 1968.48 3098.12 1967.71 3098.93 1966.34C3129.42 1914.66 3158.62 1862.16 3190.76 1811.52C3206.42 1786.85 3228 1766 3246.1 1742.8C3268.43 1714.19 3289.93 1684.93 3312.31 1655.26C3317.9 1669.78 3323.71 1684.87 3328.18 1696.47C3318.01 1699.14 3305.31 1700.07 3295.67 1705.98C3290.67 1709.05 3292.23 1721.48 3288.79 1728.72C3279.13 1749.07 3268.28 1768.87 3258.15 1789.01C3252.66 1799.91 3247.67 1811.07 3242.12 1822.84C3269.82 1812.74 3279.53 1787.65 3293.13 1766.05C3296.65 1760.47 3299.55 1751.06 3304.03 1750.2C3316.42 1747.83 3329.77 1747.3 3342.23 1749.3C3356.84 1751.65 3370.9 1757.43 3387.29 1762.35C3367.01 1790.53 3345.25 1820.77 3323.49 1851C3325.15 1852.45 3326.81 1853.9 3328.47 1855.34C3356.55 1807.19 3392.75 1767.16 3433.77 1731.79V1661.94C3420.8 1663.38 3407.84 1664.83 3394.87 1666.28C3394.83 1664.5 3394.78 1662.73 3394.73 1660.96C3407.74 1659.11 3420.76 1657.27 3433.77 1655.43V1620.97ZM3433.77 1775.81C3431.57 1779.18 3429.39 1782.54 3427.2 1785.91C3425.2 1789.01 3426.08 1793.86 3425.14 1797.79C3424.09 1802.22 3423.63 1809.38 3420.96 1810.44C3392.72 1821.7 3388.46 1849.7 3377.2 1872.44C3366.72 1893.58 3358.19 1915.68 3351.48 1939.19C3362.56 1921.09 3373.64 1903 3384.74 1884.86C3389.26 1889.83 3388.76 1889.66 3378.9 1918.47C3374.98 1929.93 3373.84 1942.35 3370.56 1958.72C3383.71 1940.68 3400.35 1936.16 3416.22 1929.19C3425.8 1924.98 3433.53 1912.71 3422.09 1899.59C3426.81 1903.89 3430.66 1907.45 3433.77 1910.57V1775.81ZM3433.77 862.375C3420.46 855.368 3407.25 848.209 3392.71 844.549C3383.91 842.329 3373.42 845.574 3363.94 847.485C3330.9 854.141 3299.47 864.785 3276.56 888.364C3274.04 894.623 3271.63 900.933 3268.96 907.128C3267.75 909.959 3265.43 912.402 3264.6 915.303C3251.4 961.839 3214.41 998.195 3211.81 1050.39C3210.58 1075.04 3205.99 1095.77 3226.64 1113.98C3229.9 1116.85 3229.74 1125.67 3228.51 1131.15C3225.96 1142.53 3221.63 1153.51 3222.19 1166.31C3226.74 1154.89 3231.4 1143.51 3235.8 1132.03C3241.12 1118.13 3243.88 1102.5 3252.14 1090.71C3258.72 1081.33 3271.9 1076.6 3281.64 1070.14C3282.44 1070.43 3279.59 1069.38 3275.74 1067.95C3295.52 1051.61 3318.41 1055.32 3340.7 1055.27C3347.01 1055.26 3353.43 1053.26 3359.58 1051.44C3369.71 1048.43 3380.33 1040.69 3389.58 1042.17C3404.67 1044.6 3419.32 1046.44 3433.77 1046.4V960.38C3432.92 960.919 3432.07 961.477 3431.22 962.054C3424.17 966.845 3413.38 967.443 3404.25 967.556C3390.12 967.734 3375.94 966.166 3361.84 964.79C3348.89 963.527 3335.87 962.205 3323.21 959.408C3320.13 958.729 3315.69 949.387 3316.39 948.716C3325.59 939.851 3334.53 927.289 3345.66 924.643C3362.63 920.61 3381.27 923.588 3399.19 923.588C3399.22 926.212 3399.25 928.838 3399.28 931.465C3384.18 933.119 3369.07 934.774 3353.97 936.428C3354.15 938.599 3354.33 940.77 3354.52 942.945H3433.77V921.329C3420.86 917.574 3408.6 914.005 3396.34 910.438C3395.98 911.712 3395.63 912.982 3395.27 914.255C3402.43 917.414 3409.59 920.577 3416.75 923.735C3416.54 924.202 3416.33 924.67 3416.12 925.137C3395.16 921.971 3374.2 918.801 3352.84 915.575C3348.78 911.976 3343.61 907.392 3335.63 900.314C3351.56 900.314 3364.32 900.314 3377.45 900.314C3365.42 894.088 3354.75 888.563 3344.08 883.038C3344.71 881.284 3345.34 879.529 3345.97 877.773C3372.49 885.8 3399.08 893.584 3425.39 902.256C3427.84 903.07 3428.45 909.518 3430.97 916.147C3430.1 916.147 3431.74 916.242 3433.77 916.177V862.375ZM3433.77 1205.74C3419.63 1198.75 3405.2 1205.59 3391.2 1205.32C3369.6 1204.91 3360.52 1219.67 3366.47 1240.71C3367.14 1243.05 3366.65 1247.33 3365.08 1248.45C3343.42 1263.85 3351.78 1286.46 3350.22 1307.1C3339.44 1304.3 3328.21 1301.38 3317.22 1298.52C3322.72 1305.51 3331.66 1312.02 3330.83 1316.83C3329.14 1326.55 3322.25 1335.42 3317.3 1344.52C3314.29 1350.04 3308.73 1355.1 3308.09 1360.79C3306.34 1376.17 3306.03 1391.78 3306.22 1407.29C3306.44 1425.3 3300.61 1437.01 3280.5 1437.04C3275.77 1437.05 3271.05 1437.72 3266.33 1438.08C3265.36 1439.68 3264.4 1441.28 3263.44 1442.87C3272.81 1447.88 3282.17 1452.89 3291.23 1457.74C3290 1464.97 3288.51 1473.77 3287.02 1482.57C3288.34 1483.55 3289.65 1484.53 3290.96 1485.51C3296.83 1467.92 3306.89 1461.89 3324.42 1466.94C3335.39 1470.11 3362 1451.94 3364.46 1440.06C3366.78 1428.85 3370.52 1415.44 3357.18 1405.78C3351.23 1429.25 3349.53 1430.14 3320.06 1425.78C3320.65 1404.73 3333.88 1398.1 3352.97 1397.9C3350.89 1392.4 3348.38 1388.12 3347.72 1383.56C3345.48 1368.08 3350.95 1363.51 3365.92 1367.94C3373.62 1370.22 3381.73 1376.09 3388.67 1374.83C3400.66 1372.68 3412.51 1367.35 3423.17 1361.19C3427.12 1358.91 3430.31 1355.32 3433.77 1351.09V1334.12C3422.72 1344.01 3413.71 1355.1 3402.09 1361.29C3394.99 1365.07 3383.46 1362.55 3374.78 1359.97C3372.43 1359.26 3373.37 1347.98 3372.55 1341.59C3371.68 1334.86 3370.5 1328.17 3369.25 1320.05C3379.63 1320.05 3389.86 1320.05 3401 1320.05C3397.35 1312.42 3394.34 1306.16 3391.34 1299.9C3401.84 1307.4 3406.94 1324.42 3423.94 1310.33C3426.35 1314.92 3428.49 1318.98 3432.08 1325.8L3433.77 1310.07V1283.23L3398.42 1276.36C3402.79 1273.9 3407.44 1271.27 3412.09 1268.65C3410.86 1266.83 3409.64 1265 3408.42 1263.17C3393.25 1272.13 3378.07 1281.09 3360.62 1291.39C3368 1279.48 3372.29 1268.52 3380.02 1261.2C3387.7 1253.93 3398.89 1245.9 3408.45 1246.02C3416.9 1246.12 3425.34 1247.04 3433.77 1248.29V1205.74ZM3433.77 1264.27L3433.07 1263.88C3432.21 1265.35 3431.35 1266.81 3430.5 1268.27L3433.77 1270.2V1264.27ZM3269.2 1625.46C3259.48 1588.79 3250.5 1554.9 3241.52 1521.01C3238.77 1521.02 3236.02 1521.04 3233.27 1521.06C3230.93 1529.49 3228.59 1537.92 3226.25 1546.35C3224.94 1546.23 3223.64 1546.11 3222.33 1546C3223.74 1535.84 3225.16 1525.68 3226.34 1517.15C3206.73 1528.31 3206.8 1541.09 3228.11 1559.97C3231.95 1563.36 3235.68 1568.11 3236.97 1572.91C3242.44 1593.2 3251.78 1610.79 3269.2 1625.46ZM3292.62 1246.16C3273.44 1223.16 3255.33 1209.04 3227.64 1217.6C3222.97 1219.04 3217.61 1219.78 3212.84 1219.06C3204.38 1217.76 3195.19 1213.18 3193.69 1227.2C3192.28 1240.29 3194.04 1254.07 3207.5 1258.44C3215.61 1261.08 3228.17 1258.57 3235.35 1253.55C3247.04 1245.38 3256.93 1245.59 3269.52 1249.6C3275.43 1251.48 3283.11 1247.77 3292.62 1246.16ZM3226.15 1348.92C3240.52 1364.28 3242.3 1363.81 3279.68 1334.81C3280.05 1342.7 3280.33 1348.76 3280.6 1354.83C3292.89 1324.61 3308.91 1295.06 3300.66 1264.86C3285.2 1265.73 3272.83 1267.74 3260.69 1266.78C3246.01 1265.63 3233.16 1262.75 3223.78 1279.85C3219.63 1287.41 3206.56 1289.66 3198.58 1295.69C3192.76 1300.09 3188.64 1306.74 3183.76 1312.39C3190.24 1316.07 3196.64 1319.9 3203.25 1323.34C3205.22 1324.37 3207.76 1324.3 3210.66 1324.85C3211.16 1317.99 3211.61 1311.87 3212.39 1301.24C3228.95 1318.4 3246.01 1324.29 3265.65 1310.72C3267.12 1311.75 3268.59 1312.79 3270.05 1313.82C3267.98 1322.37 3267.41 1331.68 3263.53 1339.3C3255.32 1355.4 3241.26 1354.61 3226.15 1348.92ZM3336.97 1529.99C3336.96 1531.34 3336.95 1532.7 3336.94 1534.05C3319.1 1534.05 3301.27 1534.05 3283.43 1534.05C3283.44 1532.7 3283.45 1531.34 3283.46 1529.99C3301.3 1529.99 3319.13 1529.99 3336.97 1529.99ZM3408.94 1515.79C3404.74 1509.59 3401.71 1505.13 3398.16 1499.88C3379.7 1515.43 3360.64 1508.23 3340.96 1504.71C3329.18 1502.6 3316.44 1506.2 3304.11 1506.74C3298.88 1506.96 3292.47 1507.67 3288.51 1505.15C3272.28 1494.82 3260.79 1502.55 3251.14 1510.47C3264.3 1525.81 3274.97 1542.09 3289.39 1553.74C3299.17 1561.63 3317.37 1569.93 3326.24 1565.88C3345.97 1556.87 3360.33 1573.53 3379.36 1569.17C3382.86 1549.82 3384.61 1527.49 3408.94 1515.79ZM3286.39 1004.15C3299.7 984.973 3318.6 981.238 3336.02 991.915C3320.08 995.847 3304.72 999.631 3286.39 1004.15ZM3323.07 1014.62C3312.64 1023.51 3303.99 1027.3 3301.91 1033.35C3297.02 1047.61 3298.28 1048.05 3287.15 1043.44C3287.15 1033.36 3287.15 1024.74 3287.15 1014.62C3295.3 1014.62 3306.46 1014.62 3323.07 1014.62Z" fill="#EBEBEB"/>
</g>
<defs>
<filter id="filter0_d_20_1493" x="377" y="-20" width="3068" height="2200" filterUnits="userSpaceOnUse" color-interpolation-filters="sRGB">
<feFlood flood-opacity="0" result="BackgroundImageFix"/>
<feColorMatrix in="SourceAlpha" type="matrix" values="0 0 0 0 0 0 0 0 0 0 0 0 0 0 0 0 0 0 127 0" result="hardAlpha"/>
<feOffset dy="4"/>
<feGaussianBlur stdDeviation="10"/>
<feComposite in2="hardAlpha" operator="out"/>
<feColorMatrix type="matrix" values="0 0 0 0 0 0 0 0 0 0 0 0 0 0 0 0 0 0 0.3 0"/>
<feBlend mode="normal" in2="BackgroundImageFix" result="effect1_dropShadow_20_1493"/>
<feBlend mode="normal" in="SourceGraphic" in2="effect1_dropShadow_20_1493" result="shape"/>
</filter>
</defs>
</svg>
