<svg width="3840" height="2160" viewBox="0 0 3840 2160" fill="none" xmlns="http://www.w3.org/2000/svg">
<rect width="3840" height="2160" fill="#FEF5E0"/>
<g filter="url(#filter0_d_20_384)">
<rect x="406" width="3028" height="2160" fill="white"/>
</g>
<g opacity="0.7">
<path d="M3384.2 1726.07C3375.79 1736.62 3367.39 1747.16 3358.99 1757.7C3357.77 1756.74 3356.55 1755.79 3355.33 1754.84C3359.72 1741.11 3370.65 1732.3 3380.48 1722.67C3381.72 1723.8 3382.96 1724.94 3384.2 1726.07V1726.07ZM3287.74 1755.62C3299.86 1746.23 3309.97 1738.39 3320.08 1730.56C3319.47 1729.32 3318.85 1728.09 3318.23 1726.85C3320.03 1728.4 3323.63 1730.83 3323.37 1731.36C3316.81 1744.59 3316.7 1762.23 3297.98 1768.42C3298.33 1765.22 3298.63 1762.46 3299 1759.03C3296.68 1758.33 3294.27 1757.61 3287.72 1755.65C3284.57 1762.03 3285.41 1768.79 3289.51 1776.94C3291.06 1780.03 3291.58 1785.18 3289.99 1787.86C3288.56 1790.29 3283.66 1790.81 3280.18 1791.82C3278.14 1792.42 3275.89 1792.33 3273.59 1792.56C3273.31 1788.76 3273.07 1785.6 3272.84 1782.44C3272.28 1782.46 3271.72 1782.47 3271.16 1782.49C3271.16 1801.26 3271.16 1820.04 3271.16 1839.38C3273.83 1834.64 3275.89 1830.99 3279.41 1824.74C3280.56 1837.38 3281.94 1846.59 3282.08 1855.81C3282.22 1865.81 3288.89 1870.75 3295.19 1876.74C3301.65 1882.87 3307.06 1878.4 3312.4 1876.19C3323.88 1871.43 3334.81 1864.41 3347.98 1869.65C3352.59 1871.47 3356.97 1873.9 3361.59 1876.13C3369.66 1852.63 3371.67 1818.01 3364.7 1803.89C3364.7 1817.09 3364.7 1827.7 3364.7 1838.31C3364.13 1838.32 3363.57 1838.33 3363 1838.34C3362.17 1833 3361.34 1827.66 3360.51 1822.32C3359.91 1822.37 3359.31 1822.43 3358.71 1822.49C3358.06 1825.22 3357.42 1827.95 3356.8 1830.56C3352.96 1827.22 3349.76 1824.45 3345.77 1820.98C3360.43 1805.42 3368.45 1784.74 3372.75 1762.18C3373.99 1755.64 3377.86 1749.64 3379.93 1743.2C3382.47 1735.28 3391.29 1730.7 3383.26 1717.93C3376.76 1707.6 3371.65 1709.07 3364 1709.12C3364 1701.64 3364 1694.2 3364 1686.77C3363.13 1686.75 3362.25 1686.74 3361.38 1686.72C3360.87 1688.35 3360.35 1689.98 3360.01 1691.08C3357.81 1689.52 3354.96 1686.21 3353.57 1686.73C3344.24 1690.27 3330.63 1686.93 3327.91 1701.83C3327.69 1703.01 3326 1704.95 3325.2 1704.85C3310.85 1703.07 3314.53 1713.99 3312.85 1721.59C3311.76 1726.55 3309.96 1731.83 3306.9 1735.73C3302.99 1740.73 3297.25 1744.25 3292.74 1748.84C3290.53 1751.08 3288.87 1753.33 3287.74 1755.62V1755.62ZM3387.81 1891.53C3387.81 1875.55 3387.81 1859.56 3387.81 1843.58C3389.22 1843.58 3390.63 1843.57 3392.04 1843.57C3390.21 1859.94 3392.57 1876.29 3389.2 1892.67C3392.16 1896.96 3395.12 1901.25 3398.08 1905.53C3399 1905.17 3399.92 1904.81 3400.84 1904.45C3400.84 1896.76 3400.84 1889.08 3400.84 1881.39C3401.71 1881.35 3402.57 1881.3 3403.43 1881.26C3403.74 1887.58 3403.38 1894.02 3404.52 1900.18C3406.59 1911.4 3409.64 1922.45 3412.11 1933.6C3413.63 1940.48 3413.07 1947.47 3424.63 1946.17C3427.76 1945.81 3430.93 1945.82 3434.13 1946.03V2116.46C3422.23 2116.51 3410.3 2116.15 3398.4 2116.16C3392.33 2116.17 3386.25 2116.23 3380.18 2116.2C3337.52 2115.98 3296.18 2107.29 3256.07 2093.91C3209.13 2078.25 3166.01 2054.71 3125.55 2026.01C3093.71 2003.43 3065.22 1977.27 3038.42 1949.19C3006.74 1915.98 2980.07 1878.99 2956.09 1839.79C2926.92 1792.11 2904.73 1741.34 2885.41 1689.16C2879.63 1673.53 2874.8 1657.5 2870.47 1641.39C2869.49 1637.75 2871.06 1631.43 2873.8 1629.08C2926.16 1584.01 2984.23 1548.2 3048.4 1522.38C3053.44 1520.35 3058.2 1518.46 3059.22 1510.99C3060.94 1498.42 3071.31 1492.04 3081.44 1486.38C3090.41 1481.36 3095.47 1473.96 3097.63 1464.02C3101.64 1445.5 3107.96 1428.95 3130.28 1425.75C3137.13 1424.76 3140.84 1420.75 3144.07 1413.49C3148.73 1403.03 3157.25 1394.86 3166.52 1386.75C3176.27 1378.22 3183.79 1380.28 3193.28 1380.62C3197.81 1370.18 3202.51 1359.31 3207.21 1348.45C3205.87 1349.79 3204.53 1351.12 3203.19 1352.46C3193.13 1340.18 3183.55 1327.45 3172.79 1315.81C3168.15 1310.8 3161.44 1307.2 3155.03 1304.45C3143.11 1299.34 3136.58 1290.06 3136.37 1277.12C3136.31 1273.5 3134.74 1269.09 3132.33 1266.44C3117.03 1249.69 3120.06 1214.79 3138.14 1201.63C3141.56 1199.14 3144.25 1195.64 3147.53 1192.36C3128.73 1180.78 3125.12 1166.58 3134.6 1146.27C3135.33 1144.68 3136.57 1142.91 3136.37 1141.38C3133.4 1118.54 3146.16 1101.4 3156.26 1082.91C3162.26 1071.93 3164.95 1059.15 3169.17 1047.19C3170.91 1042.25 3172.75 1037.34 3174.62 1032.23C3171.6 1030.68 3168.06 1028.87 3162.69 1026.12C3166.86 1024.38 3168.94 1023.51 3171.81 1022.31C3169.71 1020.51 3167.73 1018.82 3164.85 1016.36C3171.94 1006.57 3179.03 996.791 3186.59 986.35C3170.28 974.005 3178.56 957.506 3184.67 942.182C3191.89 924.07 3201.12 906.773 3209.21 888.996C3219.8 865.71 3240.17 859.273 3263.13 856.888C3266.29 856.561 3269.71 855.777 3272.38 854.162C3283.42 847.485 3294.68 843.812 3307.96 846.616C3315.32 848.171 3323.21 847.411 3330.86 847.463C3344.1 847.552 3351.34 853.604 3350.21 869.081C3361.29 849.414 3372.66 844.376 3394.03 846.97C3398.13 847.469 3402.61 844.2 3407.01 843.01C3415.14 840.812 3423.23 837.719 3431.52 837.021C3432.39 836.948 3433.26 836.883 3434.13 836.824V904.742L3426.37 891.665C3427.59 890.589 3429.97 888.486 3432.62 886.147C3426.55 886.619 3421.16 887.033 3415.77 887.45C3415.69 886.944 3415.6 886.44 3415.52 885.937C3421.87 882.703 3428.21 879.47 3433.56 876.748C3432.13 873.449 3431.16 871.201 3429.08 866.376C3420.07 872.392 3411.07 878.402 3402.06 884.413C3401.4 883.714 3400.73 883.017 3400.06 882.321C3406.95 876.892 3413.84 871.46 3420.51 866.203C3414.3 860.209 3405.16 872.806 3402.32 857.166C3392.89 864.601 3384.33 871.056 3376.11 877.927C3368.1 884.617 3359.45 890.923 3353 898.946C3348.74 904.247 3340.49 910.114 3344.89 918.226C3352.98 917.529 3360.22 918.663 3365.76 916.101C3383.12 908.069 3400.14 902.289 3418.06 912.526C3413.02 913.837 3407.29 915.322 3401.54 916.817C3401.54 921.678 3401.54 925.993 3401.54 930.385C3406.03 933.424 3410.62 936.53 3415.21 939.636C3415.44 939.365 3415.67 939.091 3415.9 938.82C3413.85 936.601 3411.8 934.383 3408.8 931.14C3413.71 930.423 3416.99 929.946 3422.87 929.089C3416.94 926.204 3413.44 924.5 3409.08 922.379C3417.45 920.008 3427.19 925.462 3434.13 921.141V954.683C3433.13 954.778 3432.14 954.863 3431.23 954.846C3432.13 957.755 3432.19 961.467 3434.08 963.401L3434.13 963.446V979.568C3433.24 979.371 3432.41 979.088 3431.67 978.737C3425.72 975.926 3419.54 969.976 3417.25 963.939C3413.98 955.285 3407.56 951.646 3400.54 950.939C3390.38 949.913 3379.63 953.489 3369.71 951.768C3359.92 950.066 3352.78 952.06 3345.38 957.629C3344.28 958.459 3339.38 956.73 3338.61 955.076C3335.23 947.858 3329.71 950.027 3324.12 950.47C3315.02 951.191 3305.84 952.031 3296.76 951.582C3284.31 950.965 3276.27 959.188 3268.52 966.043C3251.23 981.338 3236.87 999.344 3229.62 1021.83C3227.68 1027.84 3226.84 1034.33 3226.32 1040.66C3224.48 1063.17 3223.01 1085.72 3221.4 1108.26C3223.52 1118 3225.64 1127.73 3227.32 1135.51C3240.77 1126.89 3252.36 1119.45 3267.25 1109.9C3250.37 1111.29 3236.2 1112.45 3221.46 1113.66C3221.4 1112.24 3221.3 1110.15 3221.21 1108.06C3235.84 1089.91 3272.09 1084.76 3292.59 1097.96C3293.79 1098.73 3294.68 1100.37 3295.92 1100.65C3310.14 1103.81 3305.58 1116.39 3309.31 1124.78C3308.73 1125.64 3308.15 1126.51 3307.57 1127.38C3302.07 1125.25 3296.56 1123.12 3291.55 1121.19C3292.07 1123.34 3292.76 1126.22 3293.45 1129.11C3291.05 1128.5 3288.61 1128.01 3286.24 1127.28C3280.63 1125.54 3275.06 1123.7 3268.96 1123.35C3275.08 1126.22 3281.52 1128.58 3287.24 1132.1C3292.45 1135.3 3296.88 1139.76 3301.66 1143.66C3300.54 1145.32 3299.43 1146.98 3298.31 1148.64C3290.7 1144.53 3283.08 1140.42 3276 1136.6C3272.34 1142.98 3270.23 1151.58 3265.06 1154.27C3259.92 1156.93 3251.7 1153.62 3244.34 1152.88C3244.45 1153.66 3244.85 1156.54 3245.26 1159.42C3244.43 1160.27 3243.61 1161.11 3242.78 1161.96C3238.73 1158.17 3234.67 1154.38 3231.45 1151.38C3221.76 1178.12 3219.14 1207.56 3229.48 1238.4C3235.65 1256.82 3238.77 1276.53 3241.16 1295.92C3246.2 1336.92 3252.93 1376.83 3288.25 1405.31C3286.28 1406.63 3285.62 1407.41 3284.93 1407.44C3283.95 1407.49 3282.94 1406.99 3280.94 1406.46C3279.31 1420.79 3277.72 1434.75 3276.53 1445.24C3261.66 1456.5 3249.16 1465.96 3236.43 1475.59C3232.03 1472.65 3227.59 1469.69 3223.93 1467.25C3225.86 1462.87 3228.41 1459.04 3229.22 1454.88C3231.36 1443.8 3231.09 1443.89 3242.71 1442.19C3244.43 1441.94 3245.98 1439.57 3247.33 1437.95C3252.32 1432 3257.18 1425.95 3262.69 1419.2C3251.3 1424.63 3240.02 1430.34 3228.46 1435.44C3203.17 1446.59 3198.08 1467.01 3203.36 1491.96C3188.09 1491.08 3194.89 1505.74 3188.29 1510.52C3179.64 1499.88 3180.18 1497.26 3194.56 1479.52C3177.69 1485.45 3155.86 1513.86 3154.59 1531.43C3153.2 1550.73 3149.75 1570.13 3150.82 1589.29C3152.05 1611.56 3156.58 1633.73 3160.89 1655.71C3163.65 1669.78 3164.86 1683.24 3162.38 1697.65C3159.81 1712.55 3160.5 1728.01 3159.77 1743.22C3160.76 1743.76 3161.74 1744.3 3162.73 1744.84C3169.05 1740.74 3176.73 1737.8 3181.42 1732.31C3191.17 1720.87 3204.87 1721.54 3217.23 1718.27C3243.32 1711.38 3269.99 1706.37 3295.56 1697.95C3304.12 1695.13 3310.12 1684.36 3317.13 1677.07C3319.6 1674.5 3321.33 1671.21 3323.84 1668.69C3330.14 1662.37 3336.68 1658.35 3345.22 1665.86C3347.99 1668.3 3352.28 1669.01 3356.68 1670.85C3357.39 1667.11 3357.96 1664.11 3358.79 1659.81C3360.4 1662.86 3361.55 1665.03 3363.99 1669.65C3365.81 1661.41 3367.14 1655.35 3368.69 1648.31C3391.75 1670.34 3401.07 1695.76 3396 1726.4C3386.93 1729.92 3388.37 1740.43 3384.95 1748.13C3384.63 1748.86 3387.91 1751.17 3389.63 1752.86C3389.63 1764.29 3391.29 1776.94 3389.25 1788.96C3386.05 1807.85 3380.68 1826.41 3375.6 1844.94C3372.22 1857.29 3368.69 1869.65 3375.64 1881.49C3378.14 1885.75 3383.66 1888.23 3387.81 1891.53V1891.53ZM3434.13 1935.88C3429.1 1935.88 3423.93 1935.9 3418.39 1935.9C3419.77 1924.78 3427.09 1922.35 3433.97 1924.83L3434.13 1924.89V1935.88ZM3434.13 1499.37C3421.99 1494.33 3409.88 1489.21 3397.58 1484.63C3392.61 1482.78 3387.19 1482.03 3382.37 1479.89C3380.05 1478.85 3379.04 1475.05 3376.73 1473.73C3371.28 1470.64 3365.14 1468.75 3359.77 1465.55C3340.53 1454.05 3321.44 1442.29 3302.45 1430.38C3299.95 1428.81 3298.39 1425.75 3294.17 1420.74C3314.92 1420.74 3332.11 1420.95 3349.3 1420.67C3363.42 1420.45 3374.95 1415.69 3384.39 1403.89C3388.54 1398.7 3397.68 1397.03 3404.88 1394.85C3415.67 1391.59 3425.62 1387.38 3434.13 1381.22V1499.37V1499.37ZM3434.13 1111.62C3428.35 1111.73 3422.52 1112.26 3416.79 1112.41C3412.29 1112.52 3407.92 1118.23 3404.5 1120.66C3410.3 1123.06 3417.8 1126.16 3426.43 1129.73C3425.47 1126.8 3424.71 1124.51 3423.21 1119.97L3434.13 1124.85V1155.82L3431.61 1157.26C3430.93 1156.76 3430.25 1156.27 3429.57 1155.77C3430.58 1152.82 3431.6 1149.86 3432.83 1146.27C3429.51 1143.71 3425.45 1140.55 3420.97 1137.08C3417.81 1142.73 3415.6 1148.93 3411.43 1153.22C3409.21 1155.51 3403.14 1155.81 3399.62 1154.61C3396.03 1153.38 3393.44 1149.21 3392.42 1148.24C3385.96 1149.88 3381.29 1151.07 3376.62 1152.25C3375.97 1151.44 3375.32 1150.63 3374.66 1149.82C3377.8 1144.95 3380.94 1140.07 3385.59 1132.85C3379.16 1136.88 3375.16 1139.39 3370.65 1142.22C3369.05 1138.8 3367.89 1136.33 3366.92 1134.25C3361.67 1130.83 3341.23 1151.69 3337.74 1163.24C3336.74 1162.91 3335.73 1162.57 3334.73 1162.24C3338.27 1151.69 3340.92 1140.72 3345.6 1130.71C3350.39 1120.44 3357.16 1111.11 3363.25 1101.07C3369.81 1098.72 3377.56 1094.45 3385.74 1093.36C3400.5 1091.4 3415.52 1091.53 3430.41 1090.46C3431.67 1090.37 3432.91 1090.32 3434.13 1090.31V1111.62V1111.62ZM3434.13 1168.78C3429.32 1170.49 3423.78 1171.33 3418.6 1172.2C3423.53 1168.84 3429.29 1166.76 3434.13 1163.34V1168.78V1168.78ZM3406.05 1816.19C3409 1801.63 3411.95 1787.07 3414.9 1772.51C3416.09 1772.71 3417.29 1772.91 3418.48 1773.12C3416.02 1787.79 3413.55 1802.46 3411.09 1817.14C3409.41 1816.82 3407.73 1816.51 3406.05 1816.19ZM3332.25 1587.98C3341.34 1591.42 3358.88 1616.36 3366.28 1635.25C3357.66 1632.73 3339.04 1607.2 3332.25 1587.98V1587.98ZM3365.13 1326.05C3346.72 1343.28 3315.82 1345.98 3300.29 1329.81C3322.66 1329.38 3344.76 1339.97 3363.99 1324.69C3366.63 1318.64 3363.06 1318.72 3359.09 1320.04C3354.28 1321.63 3349.64 1323.74 3342.46 1326.62C3346.15 1316.09 3342.79 1312.66 3335.11 1312.98C3318.7 1313.66 3301.83 1310.22 3286.27 1318.58C3284.82 1319.36 3282.78 1319.22 3281.04 1319.15C3280.09 1319.1 3279.18 1318.29 3276.55 1316.98C3279.04 1314.42 3280.87 1312.25 3282.99 1310.43C3286.43 1307.5 3290.37 1305.1 3293.55 1301.93C3298.38 1297.08 3302.56 1293.92 3310.28 1297.53C3313.79 1299.18 3320.33 1297.17 3324.13 1294.71C3329.28 1291.39 3333.45 1290.21 3338.67 1293.61C3350.24 1301.14 3362.88 1305.2 3376.74 1305.94C3379.66 1306.09 3382.8 1308.12 3385.2 1310.06C3386.94 1311.46 3389 1314.68 3388.45 1316.17C3387.64 1318.35 3384.88 1320.44 3382.5 1321.28C3376.85 1323.27 3370.94 1324.51 3365.13 1326.05V1326.05ZM3434.13 1844.29C3430.32 1850.51 3431.3 1860.54 3426.96 1866.24C3420.9 1858.33 3421 1835.5 3427.48 1829.5C3429.62 1827.52 3431.84 1825.58 3434.13 1823.73V1844.29ZM3290.13 1244.76C3300.46 1249.6 3308.07 1245.97 3315.64 1239.16C3318.54 1236.56 3324.38 1236.2 3328.77 1236.5C3336.84 1237.05 3344.8 1239.33 3352.87 1239.82C3355.12 1239.95 3358.08 1236.67 3359.8 1234.29C3361.04 1232.58 3360.76 1229.77 3361.41 1226.01C3369.81 1232.5 3371.52 1240.54 3369.34 1248.16C3368.1 1252.53 3362.68 1256.31 3358.32 1259.04C3352.38 1262.75 3345.61 1265.12 3339.26 1268.19C3327.13 1274.05 3317.43 1272.42 3307.2 1263.26C3301.26 1257.95 3294.83 1253.18 3288.62 1248.17C3289.13 1247.03 3289.63 1245.9 3290.13 1244.76V1244.76ZM3434.13 1674.18C3425.04 1671.8 3418.08 1669.81 3411.03 1668.22C3404.51 1666.76 3397.88 1665.78 3389.83 1664.32C3383.56 1629.06 3361.36 1601.75 3337.38 1575.18C3328.42 1565.25 3322.04 1552.99 3315.67 1540.85C3358.73 1580.1 3398.31 1622.38 3434.13 1672.82V1674.18V1674.18ZM3207.93 1192.05C3203.73 1201.42 3199.53 1210.81 3195.32 1220.2C3200.03 1216.08 3202.45 1209.67 3207.05 1206.94C3216.59 1201.28 3212.84 1196.97 3207.93 1192.05ZM3161.71 1198.75C3161.58 1198.19 3161.45 1197.63 3161.33 1197.07C3159.09 1198.74 3156.68 1200.23 3154.66 1202.13C3151.83 1204.78 3149.1 1210.32 3146.66 1210.13C3132.03 1209.03 3137.05 1216.05 3140.43 1222.26C3147.4 1214.55 3154.56 1206.65 3161.71 1198.75V1198.75ZM3188.43 1108.26C3187.56 1107.73 3186.69 1107.21 3185.82 1106.69C3184.25 1109.09 3181.06 1113.33 3181.37 1113.6C3189.57 1120.8 3180.61 1124.52 3178.52 1129.65C3176.4 1134.85 3174.97 1140.33 3173.23 1145.68C3174.51 1146.28 3175.78 1146.88 3177.06 1147.48C3183.58 1137.31 3190.09 1127.15 3196.61 1116.98C3195.71 1116.37 3194.82 1115.77 3193.93 1115.16C3191.71 1116.44 3189.5 1117.72 3186.19 1119.63C3187.12 1114.89 3187.78 1111.57 3188.43 1108.26V1108.26ZM3214.69 1102.75C3209.67 1102.75 3205.18 1102.75 3200.7 1102.75C3201.33 1106.45 3201.96 1110.16 3202.63 1114.13C3205.16 1112.63 3206.45 1111.86 3208.83 1110.44C3207.74 1124.39 3206.77 1136.78 3205.8 1149.18C3207.25 1149.26 3208.7 1149.33 3210.15 1149.42C3211.68 1133.69 3213.2 1117.97 3214.69 1102.75V1102.75ZM3262.78 869.101C3260.76 874.282 3258.96 878.88 3257.16 883.48C3257.93 883.738 3258.7 883.996 3259.48 884.257C3257.13 885.644 3254.78 887.033 3252.43 888.42C3252.4 889.475 3252.37 890.53 3252.34 891.583C3258.54 892.49 3265.27 895.269 3270.75 893.682C3274.77 892.514 3277.13 885.629 3279.79 881.908C3274.32 877.788 3269.76 874.354 3262.78 869.101V869.101ZM3278.81 948.74C3274.61 947.219 3273.14 946.376 3271.58 946.172C3260.34 944.701 3249.09 943.161 3237.81 942.072C3233.64 941.67 3229.28 941.954 3225.16 942.738C3213.8 944.893 3215.99 955.144 3213.81 961.179C3219.32 958.491 3225.54 955.457 3231.76 952.424C3233.5 956.572 3235.24 960.718 3237.66 966.499C3242.29 963.69 3247.9 960.291 3254.41 956.338C3246.85 954.616 3241.48 953.394 3233.39 951.553C3247.95 943.489 3258.91 944.08 3263.41 950.585C3267.81 950.058 3271.87 949.572 3278.81 948.74V948.74ZM3184.35 1080.21C3185.26 1080.28 3186.17 1080.36 3187.08 1080.44C3189 1070.83 3190.93 1061.23 3192.85 1051.62C3193.83 1051.76 3194.81 1051.9 3195.8 1052.04C3196.15 1055.08 3196.5 1058.13 3196.76 1060.35C3203.5 1060.35 3209.57 1060.35 3215.46 1060.35C3216.26 1051.27 3215.92 1040.27 3218.52 1030.01C3221.1 1019.84 3226.64 1010.42 3230.88 1000.66C3229.97 1000.18 3229.06 999.685 3228.16 999.194C3217.93 1011.57 3206.42 1023.14 3197.83 1036.57C3189.53 1049.56 3181.99 1063.93 3184.35 1080.21V1080.21ZM3333.38 903.765C3330.13 897.413 3327.17 891.633 3324.21 885.854C3323.56 886.191 3322.91 886.525 3322.26 886.862C3323.15 888.717 3324.04 890.576 3326.61 895.942C3318.82 894.561 3312.7 894.643 3308.09 892.041C3306.43 891.099 3308.39 883.729 3308.72 878.884C3306.02 876.667 3302.77 874 3299.51 871.334C3300.08 870.156 3300.64 868.977 3301.2 867.798C3304.25 869.014 3307.38 870.043 3310.31 871.484C3314.36 873.477 3318.26 875.778 3325.07 879.505C3324.17 872.409 3324.32 867.232 3322.58 862.79C3321.83 860.856 3316.85 858.987 3314.41 859.593C3306.13 861.653 3298.16 864.92 3290 867.499C3288.51 867.967 3286.69 867.368 3288.18 867.464C3291.04 876.266 3294.06 885.555 3297.91 897.4C3292.28 895.093 3289.64 894.012 3286.34 892.655C3287.3 896.018 3288.1 898.838 3289.28 902.975C3285.57 901.462 3283.3 900.535 3280.4 899.354C3283.76 911.466 3283.58 911.795 3277.74 912.437C3275.27 918.268 3274.18 922.804 3271.65 926.293C3269.06 929.855 3265.06 932.388 3261.67 935.371C3261.64 936.233 3261.6 937.094 3261.57 937.956C3272.83 936.899 3284.09 935.842 3296.09 934.715C3294.57 932.84 3293.01 930.914 3290.14 927.374C3294.98 928.654 3297.8 929.401 3298.67 929.629C3302.96 924.956 3306.74 920.853 3309.04 918.352C3316.89 919.652 3324.49 920.912 3332.1 922.171C3332.66 921.031 3333.21 919.891 3333.77 918.751C3329.44 913.123 3325.11 907.494 3320.78 901.863C3321.17 901.158 3321.57 900.452 3321.96 899.747C3325.42 900.965 3328.87 902.178 3333.38 903.765V903.765Z" fill="#EBEBEB"/>
</g>
<g opacity="0.75">
<path d="M3570.91 1969.62C3569.13 1969.47 3567.36 1969.32 3565.58 1969.17C3565.22 1972.68 3564.37 1976.24 3564.76 1979.66C3564.89 1980.72 3568.35 1981.41 3570.28 1982.27C3570.49 1978.05 3570.7 1973.84 3570.91 1969.62V1969.62ZM3588.93 1054.09C3571.22 1051.03 3579.14 1037.02 3571.43 1031.36C3572.85 1030.61 3574.26 1029.86 3575.67 1029.11C3579.71 1036.72 3583.75 1044.34 3588.93 1054.09V1054.09ZM3562.51 988.871C3558.21 994.152 3556.21 996.576 3554.25 999.029C3553.83 999.557 3553.55 1000.19 3552.46 1002.03C3549.28 996.201 3546.47 991.06 3543.66 985.922C3544.48 984.891 3545.29 983.861 3546.11 982.831C3551.06 984.655 3556.02 986.481 3562.51 988.871V988.871ZM3434.45 1946.03C3441.94 1946.51 3449.59 1948.11 3457.29 1948.86C3456.61 1939.83 3450.95 1935.97 3441.93 1935.91C3439.44 1935.89 3436.96 1935.89 3434.45 1935.88V1924.89C3446.25 1929.08 3456.52 1925.75 3466.42 1920.87C3469.35 1919.43 3470.96 1913.42 3471.42 1909.31C3472.1 1903.28 3471.63 1897.02 3470.83 1890.97C3470.36 1887.43 3468.3 1884.1 3465.77 1877.67C3466.72 1870.46 3473.55 1859.02 3462.11 1848.77C3465.4 1850.99 3468.7 1853.21 3470.61 1854.5C3479.43 1849.47 3487.25 1844.35 3495.64 1840.43C3503 1836.99 3501.97 1832.85 3498.54 1827.76C3504.2 1827.15 3509.96 1826.52 3517.75 1825.68C3514.76 1823.02 3513.5 1820.95 3511.9 1820.63C3496.53 1817.64 3481.06 1815.12 3465.7 1812.06C3461.26 1811.18 3457.09 1808.98 3452.8 1807.39C3454.44 1803.99 3456.17 1800.64 3457.71 1797.2C3459.76 1792.65 3461.67 1788.02 3464.36 1781.76C3458.26 1782.64 3454.62 1783.17 3448.39 1784.07C3450.97 1779 3452.66 1775.68 3455.73 1769.65C3467.11 1783.2 3477.05 1795.04 3488.79 1809.02C3478.83 1788.55 3470.07 1770.57 3460.68 1751.28C3471.87 1754.93 3471.95 1754.88 3480.06 1768.82C3484.52 1776.49 3488.67 1784.34 3494.41 1791.48C3489.93 1780.61 3485.46 1769.74 3479.78 1755.95C3484.39 1758.22 3485.79 1758.91 3487.28 1759.64C3487.31 1759.01 3487.57 1758.32 3487.35 1757.85C3482.67 1747.83 3477.28 1738.25 3479.82 1726.18C3480.63 1722.34 3477.41 1717.65 3475.37 1711.25C3479.4 1712.82 3482.53 1714.02 3485.65 1715.27C3486.31 1715.54 3486.93 1715.96 3487.51 1716.38C3506.99 1730.58 3506.99 1730.58 3522.26 1712.39C3519.93 1721.27 3516.76 1730.03 3515.5 1739.06C3514.18 1748.53 3515.78 1757.73 3526.32 1762.18C3528.39 1756.69 3530.44 1751.2 3532.77 1744.97C3533.81 1760.56 3534.78 1775.28 3535.75 1790.01C3537.09 1790.74 3538.43 1791.48 3539.77 1792.21C3540.34 1789.33 3540.91 1786.44 3541.48 1783.56C3542.71 1784.39 3543.95 1785.22 3545.19 1786.06C3543.93 1791.99 3542.68 1797.92 3541.26 1804.63C3543.3 1804.3 3545.07 1804.02 3548.25 1803.51C3546.96 1808.94 3545.85 1813.6 3544.73 1818.27C3545.25 1818.77 3545.76 1819.27 3546.28 1819.77C3557.61 1804.66 3568.94 1789.55 3580.27 1774.44C3581.04 1774.89 3581.81 1775.33 3582.58 1775.77C3577.05 1789.07 3578.81 1804.87 3565.6 1815.67C3559.65 1820.54 3555.87 1827.97 3550.66 1833.85C3545.49 1839.67 3543.76 1844.83 3552.97 1849.76C3552.49 1850.61 3552.02 1851.47 3551.55 1852.33C3547.71 1852.58 3543.18 1854.22 3540.2 1852.74C3536.26 1850.76 3533.53 1846.35 3530.28 1842.99C3531.04 1842.18 3531.8 1841.37 3532.57 1840.55C3534.75 1841.53 3536.92 1842.51 3539.5 1843.66C3540.34 1841.08 3541.09 1838.77 3541.89 1836.33C3535.71 1835.37 3529.79 1833.8 3523.86 1833.77C3520.2 1833.76 3516.53 1836.09 3512.86 1837.37C3515.13 1840.15 3517.3 1843.03 3519.73 1845.67C3520.35 1846.35 3521.78 1846.29 3521.46 1847.78C3511.28 1848.25 3501.11 1848.71 3488.05 1849.31C3504.65 1861.76 3504.87 1861.76 3534.34 1851.86C3537.25 1854.95 3540.33 1858.22 3545.13 1863.34C3533.55 1863.34 3524.07 1863.34 3511.94 1863.34C3523.41 1876.28 3539.89 1882.18 3540.65 1901.38C3527.56 1894.71 3515.33 1888.47 3505.13 1883.28C3501.18 1890.39 3498.2 1897.17 3493.98 1903.04C3486.91 1912.88 3485.89 1922.23 3493.05 1932.42C3496.1 1936.77 3498.64 1941.61 3500.57 1946.56C3501.75 1949.6 3502.86 1954.49 3501.33 1956.38C3498.13 1960.34 3493.42 1960.79 3489.79 1955.63C3488.84 1954.28 3487.27 1953.37 3485.9 1952.19C3490.31 1969.66 3494.64 1986.85 3498.66 2002.8C3490.62 2005.71 3482.89 2007.86 3475.9 2011.44C3473.94 2012.44 3474.13 2017.65 3473.09 2021.97C3479.04 2020.16 3483.44 2018.83 3487.85 2017.5C3488.35 2018.74 3488.84 2019.99 3489.34 2021.23C3485.54 2022.96 3481.73 2024.69 3477.57 2026.59C3480.84 2027.88 3484.55 2029.36 3488.27 2030.83C3488.24 2031.44 3488.21 2032.04 3488.17 2032.64C3485.88 2032.87 3483.58 2033.1 3481.23 2033.34C3481.6 2034.92 3482.74 2036.87 3482.2 2038.06C3480.76 2041.23 3476.38 2044.91 3477.13 2046.88C3479.22 2052.34 3483.09 2057.21 3486.68 2062C3493.53 2071.15 3500.67 2080.08 3507.7 2089.1C3506.58 2090.23 3505.47 2091.36 3504.36 2092.48C3499.85 2089.68 3495.34 2086.88 3490.83 2084.07C3489.96 2084.32 3489.09 2084.58 3488.22 2084.83C3490.57 2092.34 3492.93 2099.86 3495.69 2108.67C3482.15 2111.17 3468.81 2114.92 3455.27 2115.81C3448.34 2116.27 3441.4 2116.43 3434.45 2116.46V1946.03V1946.03ZM3434.45 836.824C3462.48 834.933 3490.06 840.401 3517.25 845.774C3549.13 852.075 3572 873.942 3593.11 897.259C3600.79 905.742 3607.44 915.233 3615.62 923.171C3651.87 958.352 3676.57 999.893 3689.77 1048.88C3699.61 1085.39 3718.96 1117.85 3738.38 1150.02C3742.62 1157.03 3749.12 1163.17 3751.46 1170.69C3754.07 1179.1 3752.99 1188.63 3753.83 1197.64C3754.06 1200.11 3755.45 1202.47 3756.27 1204.89C3758.35 1211.07 3760.12 1217.38 3762.6 1223.4C3763.8 1226.33 3766.29 1228.73 3768.47 1231.75C3771.01 1228.03 3772.69 1225.56 3774.43 1223.01C3791.31 1237.95 3781.82 1280.36 3755.27 1311.08C3762.86 1318.08 3761.91 1326.95 3758.8 1335.16C3755.43 1344.09 3750.47 1352.44 3745.95 1360.92C3737.96 1375.92 3725.66 1388.98 3725.56 1407.49C3725.55 1409.84 3724.22 1412.28 3723.15 1414.51C3719.75 1421.62 3713.58 1426.07 3712.86 1436.21C3712.09 1446.88 3698.44 1451.54 3687.29 1453.97C3684.53 1454.57 3681.57 1454.29 3677.09 1456.63C3679.86 1459.02 3682.34 1461.93 3685.46 1463.69C3699.86 1471.85 3711.34 1481.69 3710.78 1500.33C3710.72 1502.6 3713.62 1505.52 3715.86 1507.18C3719.54 1509.89 3723.81 1511.82 3727.92 1512.39C3730.47 1512.39 3734.23 1511.29 3735.37 1512.56C3746.32 1524.79 3750.43 1538.25 3745.15 1554.99C3742.11 1564.63 3743.15 1575.55 3742.41 1585.05C3762.68 1598.52 3783.92 1609.31 3787.55 1635.71C3787.84 1637.83 3789.17 1640.29 3788.49 1641.96C3783.79 1653.37 3791.21 1657.11 3799.38 1661.9C3826.52 1677.81 3853.39 1694.19 3880.03 1710.92C3887.84 1715.82 3894.95 1722.07 3901.49 1728.59C3903.73 1730.82 3904.95 1736.45 3903.76 1739.37C3886.05 1783.11 3863.8 1824.49 3837.74 1863.84C3814.3 1899.22 3787.91 1932.28 3757.82 1962.08C3716.7 2002.8 3672.49 2039.43 3619.16 2064.05C3606.79 2069.76 3595.98 2074.65 3582.36 2071.43C3579.28 2070.7 3575.5 2072.88 3570.58 2075.61C3572.59 2076.05 3574.6 2076.49 3577.39 2077.1C3567.92 2084.88 3561.69 2079.02 3555.44 2076.85C3549.75 2074.88 3544.41 2070.32 3538.63 2075.89C3537.54 2076.95 3537.61 2081.3 3537.91 2081.38C3543.29 2082.88 3548.76 2084.2 3554.28 2085.02C3557.63 2085.52 3561.11 2085.11 3565.78 2085.11C3555.71 2097.03 3537.5 2097.53 3527.73 2088.22C3521.65 2082.42 3513.63 2076.8 3517.51 2067.65C3522 2057.1 3532.12 2051.7 3543.36 2050.47C3552.64 2049.45 3562.13 2050.36 3571.52 2050.07C3579.72 2049.82 3588.15 2050.17 3596.03 2048.33C3607.65 2045.62 3612.06 2038.19 3606.81 2027.9C3600.55 2015.62 3591.7 2004.64 3583.58 1993.37C3582.94 1992.49 3578.91 1994.62 3577.05 1993.87C3574.74 1992.95 3573.05 1990.48 3570.86 1988.46C3568.14 1995.97 3550.63 1985.96 3557.03 2005.95C3550.38 2002.3 3546.21 2001.06 3543.53 1998.35C3535.21 1989.92 3527.45 1980.94 3519.48 1972.16C3512.62 1964.62 3512.48 1962.27 3519.09 1954.18C3523.43 1959.41 3527.65 1964.5 3532.5 1970.34C3534.96 1968.79 3537.55 1967.15 3540.69 1965.16C3538.88 1962.51 3537.85 1960.17 3536.11 1958.61C3529.08 1952.26 3530.78 1947.26 3537.57 1941.9C3546.81 1934.62 3555.6 1926.76 3564.21 1919.45C3569.18 1926.42 3575.83 1935.73 3582.47 1945.04C3583.68 1944.65 3584.89 1944.27 3586.1 1943.88C3584.56 1938.04 3583.83 1931.82 3581.33 1926.42C3573.97 1910.47 3576.02 1906.59 3593.37 1904.48C3596.24 1904.13 3598.83 1901.44 3602.4 1899.32C3588.1 1886.03 3578.22 1897.97 3567.14 1902.86C3566.21 1895.05 3564.11 1887.83 3564.97 1880.97C3565.55 1876.36 3569.39 1870.18 3573.4 1868.41C3580.71 1865.2 3591.86 1860.73 3594.5 1873.12C3597.97 1889.4 3614.46 1894.24 3620.79 1907.45C3621.86 1909.69 3624.09 1911.38 3625.07 1913.64C3626.62 1917.17 3627.56 1920.97 3628.75 1924.66C3625.1 1924.7 3621.35 1925.31 3617.83 1924.65C3613.12 1923.76 3608.6 1921.88 3603.59 1921.86C3617.76 1927.28 3629.78 1940.32 3646.87 1934.97C3652.19 1933.3 3657.38 1929.58 3661.32 1925.52C3667.57 1919.08 3672.71 1911.57 3678 1904.92C3658.41 1900.54 3635.87 1895.49 3615.2 1890.87C3613.64 1885.21 3612.13 1879.73 3609.86 1871.5C3614.17 1870.44 3619.17 1868.46 3624.13 1868.56C3625.31 1868.58 3626.05 1875.69 3627.53 1879.32C3628.84 1882.53 3630.89 1885.44 3632.61 1888.48C3633.5 1887.98 3634.39 1887.48 3635.27 1886.98C3635.8 1882.95 3636.33 1878.93 3637.08 1873.28C3646.95 1882.7 3654.6 1879.26 3661.81 1871.61C3668.01 1865.03 3667.41 1859.64 3660.62 1853.52C3654.58 1848.07 3648.69 1842.22 3643.87 1835.7C3638.94 1829.04 3648.19 1810.98 3656.42 1811.87C3666.07 1812.9 3675.61 1816.22 3684.86 1819.5C3690.84 1821.61 3696.13 1825.58 3701.88 1828.44C3711.87 1833.42 3717.41 1830.23 3718.28 1818.35C3711.92 1812.86 3705.64 1806.47 3698.41 1801.43C3691.65 1796.71 3683.89 1793.42 3677.15 1788.55C3692.71 1786.09 3704.25 1792.91 3714.02 1803.38C3718.85 1808.55 3723.91 1811.56 3729.31 1805.33C3733.93 1800 3737.18 1792.55 3730.57 1787.16C3720.67 1779.07 3710.23 1770.96 3698.74 1765.64C3675.01 1754.66 3650.67 1744.93 3623.63 1745.11C3615.63 1745.17 3605.39 1745.14 3603.8 1734.59C3602.07 1723.13 3612.82 1722.53 3620.33 1720.35C3638.33 1715.1 3656.24 1708.46 3674.67 1706.09C3687.62 1704.42 3701.36 1708.84 3714.75 1710.55C3716.77 1710.81 3718.79 1711.11 3720.97 1710.6C3701.27 1695.17 3678.15 1693.71 3654.47 1696.13C3657.79 1688.29 3660.37 1681.95 3663.15 1675.7C3665.62 1670.14 3669.2 1670.08 3674.57 1672.43C3677.61 1673.76 3682.92 1673.51 3685.45 1671.63C3689.79 1668.38 3692.75 1664.4 3690.72 1657C3681.3 1622.7 3658.33 1598.53 3633.14 1575.5C3624.02 1567.17 3616.55 1557.04 3606.85 1546.05C3606.85 1553.88 3606.85 1560.29 3606.85 1566.7C3605.31 1566.59 3603.77 1566.48 3602.23 1566.37C3603.98 1550.72 3605.73 1535.06 3607.48 1519.4C3592.15 1534.83 3586.47 1555.96 3576.26 1574.39C3565.8 1593.27 3557.6 1613.4 3547.99 1633.87C3547.32 1630.2 3546.79 1627.28 3546.56 1626.05C3541.75 1630 3536.63 1635.11 3530.64 1638.85C3525.06 1642.35 3518.48 1644.24 3512.48 1647.12C3510.05 1648.29 3507.93 1650.15 3505.76 1651.82C3503.52 1653.54 3501.39 1655.41 3499.21 1657.22C3498.24 1656.63 3497.27 1656.04 3496.31 1655.45C3500.76 1640.22 3505.65 1625.1 3509.57 1609.73C3514.53 1590.32 3519.32 1570.81 3523.05 1551.13C3526.17 1534.64 3520.14 1525.84 3503.95 1522.63C3479.7 1517.82 3457.02 1508.74 3434.45 1499.37V1381.22C3442.46 1375.42 3449.19 1367.9 3454.12 1357.84C3456.1 1353.8 3461.28 1351.43 3464.7 1348C3480.86 1331.8 3483.54 1312 3482.83 1289.91C3482.12 1267.26 3474.59 1244.31 3484.04 1221.68C3490.45 1206.31 3496.14 1190.64 3502.17 1175.11C3508.22 1159.54 3501.72 1143.77 3484.76 1133.12C3478.4 1129.13 3471.24 1126.08 3465.71 1121.18C3456.16 1112.73 3445.4 1111.41 3434.45 1111.62V1090.31C3461.15 1090.04 3477.41 1108.01 3492.57 1126.7C3499.8 1135.6 3508.55 1133.48 3516.34 1132.65C3525.49 1131.68 3531.4 1124.56 3531.77 1114.53C3531.99 1108.6 3531.81 1102.67 3531.81 1095.29C3548.81 1113.33 3544.11 1131.6 3537.13 1150.84C3546.44 1150.31 3547.2 1155.58 3547.99 1163.46C3548.65 1169.94 3554.13 1175.94 3558.76 1184.53C3559.73 1179.18 3560.24 1176.34 3561.08 1171.68C3567.33 1178.3 3572.53 1183.83 3577.74 1189.35C3575.31 1181.15 3574.21 1174.35 3576.79 1165.32C3579.55 1155.63 3576.48 1144.04 3574.97 1133.42C3572.35 1115.08 3572.41 1114.3 3589.16 1103.61C3592.4 1106.55 3595.77 1109.62 3601.27 1114.63C3602.48 1100.24 3608.9 1088.07 3598.04 1076.24C3601.63 1079.03 3605.21 1081.83 3608.8 1084.62C3602.51 1075.79 3590.49 1069.56 3601.54 1055.69C3604.47 1056.91 3607.6 1058.21 3612.42 1060.22C3602.7 1044.34 3604.81 1023.85 3587.4 1013.64C3575.38 1020.11 3587.46 1027.5 3586.38 1034.19C3585.19 1034.68 3584 1035.17 3582.82 1035.66C3577.63 1025.59 3566.34 1013.94 3568.45 1005.77C3574.03 984.282 3553.07 981.144 3547.7 967.345C3549.18 967.081 3550.67 966.811 3552.17 966.545C3552.52 965.559 3552.86 964.573 3553.21 963.588C3544.78 960.319 3536.42 956.822 3527.78 954.276C3527.18 954.097 3524.5 960.955 3523.32 963.425C3516.3 964.187 3509.59 964.917 3501.71 965.774C3506.6 970.895 3510.12 974.587 3513.65 978.28C3512.68 979.453 3511.71 980.628 3510.74 981.805C3503.52 976.262 3497.02 968.85 3488.87 965.728C3481.28 962.82 3471.94 964.48 3461.64 964.057C3461.11 964.502 3458.39 966.777 3455.11 969.523C3450.37 964.573 3446.18 959.296 3441.02 955.272C3439.57 954.135 3436.98 954.441 3434.45 954.683V921.141C3436.57 919.822 3438.43 917.591 3439.91 913.946L3434.45 904.742V836.824V836.824ZM3434.45 1124.85L3483.02 1146.59C3478.61 1148.19 3476.01 1149.74 3473.27 1150.03C3461.56 1151.24 3451.78 1154.96 3442.91 1163.8C3440.66 1166.05 3437.72 1167.62 3434.45 1168.78V1163.34C3438.46 1160.51 3441.84 1156.76 3443.58 1150.6C3440.25 1152.51 3437.3 1154.19 3434.45 1155.82V1124.85V1124.85ZM3434.45 963.446C3438.12 967.185 3442.79 969.943 3447.86 973.706C3445 979.376 3438.99 980.579 3434.45 979.568V963.446ZM3636.49 1901.31C3645.15 1903.58 3652.38 1905.48 3661.59 1907.9C3637.15 1915.72 3637.15 1915.72 3636.49 1901.31ZM3562.67 1718.03C3561.78 1729.7 3560.87 1741.36 3559.72 1756.34C3558.21 1750.72 3557.49 1748.03 3556.37 1743.9C3554.63 1746.48 3553.67 1747.91 3552.7 1749.33C3551.89 1749.05 3551.09 1748.77 3550.28 1748.49C3553.66 1738.13 3557.05 1727.76 3560.43 1717.39C3561.18 1717.6 3561.93 1717.81 3562.67 1718.03V1718.03ZM3558.66 1111.15L3555.45 1136.37C3556.29 1134.55 3557.31 1132.73 3558.54 1130.92C3561.6 1126.36 3558.79 1117.85 3558.66 1111.15ZM3555.27 1136.77C3554.01 1137 3552.75 1137.24 3551.48 1137.48C3549.96 1135.58 3547.1 1133.64 3547.15 1131.78C3547.3 1125.44 3547.93 1118.98 3549.62 1112.9C3550.09 1111.19 3554.8 1110.65 3557.57 1109.58C3555.05 1098.63 3548.15 1090.71 3540.15 1083.31C3531.31 1075.14 3525.34 1065.32 3524.89 1054.05C3535.96 1067.29 3547.62 1080.81 3558.82 1094.71C3568.52 1106.77 3571.71 1120.18 3568.03 1135.79C3565.37 1147.08 3565.21 1158.96 3563.94 1170.57C3563.03 1170.55 3562.11 1170.52 3561.2 1170.5C3560.46 1168.34 3559.71 1166.18 3558.38 1162.33C3557 1166.22 3556.18 1168.51 3554.89 1172.13C3551.88 1159.14 3550.29 1147.86 3555.27 1136.77V1136.77ZM3575.02 1090.64C3563.02 1091.33 3548.05 1073.58 3545.1 1053.81C3556.66 1065.84 3567.23 1076.84 3577.8 1087.85C3576.87 1088.78 3575.94 1089.71 3575.02 1090.64ZM3601.48 1757.55C3607.03 1749.78 3596.84 1752.69 3593.98 1750.45C3600.52 1746.96 3638.84 1760.43 3654.03 1774.01C3636.53 1768.53 3619.03 1763.05 3601.48 1757.55ZM3448.33 1875.18C3456.48 1885.76 3462.25 1893.28 3468.03 1900.79C3467.34 1901.57 3466.66 1902.36 3465.97 1903.14C3455.33 1898.95 3442.36 1899.11 3435.75 1884.46C3439.96 1881.36 3444.41 1878.07 3448.33 1875.18ZM3466.3 1826.1C3457.42 1827.23 3450.35 1828.13 3440.93 1829.33C3445.38 1833.48 3447.75 1835.69 3451.7 1839.38C3441.74 1837.65 3437.01 1840.11 3434.45 1844.29V1823.73C3438.02 1820.84 3441.76 1818.16 3445.67 1815.85C3455.95 1809.77 3460.07 1818.42 3466.3 1826.1V1826.1ZM3435.63 1674.48L3434.45 1674.18V1672.82C3434.84 1673.37 3435.24 1673.93 3435.63 1674.48V1674.48ZM3571.36 1961.22C3582.69 1953.49 3573.59 1949.34 3570.49 1943.68C3567.78 1945.3 3565.44 1946.68 3562.45 1948.46C3565.57 1952.93 3568.35 1956.9 3571.36 1961.22V1961.22ZM3626.97 1157.69C3620.66 1162.09 3615.04 1166.01 3609.55 1169.84C3611.82 1177.79 3616.62 1174.26 3620.92 1173.07C3630.89 1170.32 3626.36 1162.6 3626.97 1157.69V1157.69ZM3681.16 1135.65C3681.48 1141.22 3681.78 1146.3 3682.09 1151.55C3683.5 1151.73 3685.79 1152.02 3688.27 1152.34C3687.05 1155.5 3686.1 1157.98 3684.57 1161.93C3697.06 1152.26 3691.03 1143.2 3687 1134.12C3684.67 1134.73 3682.67 1135.25 3681.16 1135.65V1135.65ZM3451.21 1997.6C3454.31 2001.51 3456.41 2004.15 3459.86 2008.47C3464.14 1999.86 3467.77 1992.54 3471.4 1985.23C3470.61 1984.58 3469.81 1983.93 3469.02 1983.28C3463.39 1987.81 3457.77 1992.33 3451.21 1997.6V1997.6ZM3593.32 1217.29C3592.42 1225.08 3591.17 1230.68 3591.27 1236.26C3591.42 1244.73 3594.59 1247.04 3601.45 1246.1C3600.99 1243.03 3600.53 1239.98 3600.07 1236.93C3601.98 1237.04 3603.89 1237.14 3607.67 1237.35C3602.62 1230.28 3598.32 1224.28 3593.32 1217.29V1217.29ZM3592.29 1941.56C3590.01 1948.95 3590.06 1953.89 3597.97 1955.66C3607.36 1957.75 3617.81 1951.33 3622.94 1939.5C3619.97 1937.79 3616.95 1936.05 3613.85 1934.26C3609.48 1944.43 3602.64 1947.25 3592.29 1941.56V1941.56ZM3594.88 1005.86C3598.66 1006.76 3600.82 1007.27 3603.31 1007.86C3596.39 985.217 3595.2 984.008 3577.01 979.729C3579.99 992.832 3582.07 1007.64 3598.51 1013.6C3597.54 1011.51 3596.58 1009.47 3594.88 1005.86ZM3665.46 1209.46C3663.95 1194.29 3651.21 1182.48 3631.93 1181.22C3637.41 1185.44 3640.51 1188.57 3644.23 1190.51C3651.35 1194.24 3651.24 1195.86 3644.79 1201.55C3642.28 1203.77 3641.76 1208.24 3640.34 1211.68C3641.38 1212.41 3642.43 1213.13 3643.48 1213.85C3640.2 1217.4 3636.93 1220.96 3633.85 1224.29C3647.5 1226.51 3650.3 1225.36 3651.19 1216.88C3652.1 1208.2 3657.06 1205.62 3665.46 1209.46V1209.46ZM3647.4 2008.69C3651.8 1983.93 3662.2 1967.12 3687.14 1963.41C3702.39 1961.14 3706.27 1954.47 3702.99 1942.73C3691.53 1945.55 3680.23 1948.65 3668.78 1951.04C3662.18 1952.42 3655.2 1952.08 3648.66 1953.66C3645.79 1954.35 3642.77 1957.42 3641.25 1960.2C3637.89 1966.39 3635.43 1973.07 3633.94 1976.48C3638.76 1988.01 3642.64 1997.3 3647.4 2008.69V2008.69Z" fill="#BAA989"/>
</g>
<defs>
<filter id="filter0_d_20_384" x="386" y="-16" width="3068" height="2200" filterUnits="userSpaceOnUse" color-interpolation-filters="sRGB">
<feFlood flood-opacity="0" result="BackgroundImageFix"/>
<feColorMatrix in="SourceAlpha" type="matrix" values="0 0 0 0 0 0 0 0 0 0 0 0 0 0 0 0 0 0 127 0" result="hardAlpha"/>
<feOffset dy="4"/>
<feGaussianBlur stdDeviation="10"/>
<feComposite in2="hardAlpha" operator="out"/>
<feColorMatrix type="matrix" values="0 0 0 0 0 0 0 0 0 0 0 0 0 0 0 0 0 0 0.3 0"/>
<feBlend mode="normal" in2="BackgroundImageFix" result="effect1_dropShadow_20_384"/>
<feBlend mode="normal" in="SourceGraphic" in2="effect1_dropShadow_20_384" result="shape"/>
</filter>
</defs>
</svg>
