<svg width="3840" height="2160" viewBox="0 0 3840 2160" fill="none" xmlns="http://www.w3.org/2000/svg">
<rect width="3840" height="2160" fill="#FEF5E0"/>
<g filter="url(#filter0_d_20_3)">
<rect x="406" width="3028" height="2160" fill="white"/>
</g>
<g opacity="0.7">
<path fill-rule="evenodd" clip-rule="evenodd" d="M3119.14 1562.97C3123.07 1574.25 3138.31 1583.43 3149.46 1584.94C3171.96 1587.99 3174.82 1585.42 3193.91 1584.44C3198.87 1584.19 3200.71 1583.13 3206.32 1577.42C3221.1 1562.37 3208.26 1562.99 3197.57 1560.6C3191.55 1559.26 3176.14 1564.25 3166.25 1564.25C3155.55 1564.25 3139.61 1561.91 3129.74 1558.06C3124.5 1556.02 3118.35 1560.69 3119.14 1562.97Z" fill="white"/>
<path d="M2889.11 1787.25C2879.68 1789.47 2870.13 1790.64 2861.94 1797.06C2856.76 1801.12 2849.48 1799.69 2843.22 1797.37C2840.07 1796.2 2839.68 1792.89 2842.43 1790.95C2844.05 1789.82 2846.07 1789.19 2847.99 1788.58C2852.72 1787.09 2857.48 1785.72 2862.24 1784.35C2863.25 1784.06 2864.83 1783.47 2865.26 1783.9C2868.97 1787.63 2872.27 1784.52 2875.97 1784.02C2880.22 1783.44 2884.77 1785 2889.18 1785.63C2889.16 1786.17 2889.14 1786.71 2889.11 1787.25Z" fill="#FEFEFE"/>
<path d="M2865.08 1743.31C2871.13 1742.6 2876.3 1741.22 2881.3 1741.68C2884.62 1741.99 2887.69 1744.94 2891.33 1746.95C2886.05 1749.6 2869.85 1747.4 2865.08 1743.31Z" fill="#FEFEFE"/>
<path d="M2831.08 1805.07C2831.61 1808.9 2832.14 1812.73 2832.66 1816.56C2831.83 1816.68 2830.99 1816.79 2830.15 1816.91C2829.56 1813.13 2828.97 1809.35 2828.38 1805.57C2829.28 1805.4 2830.18 1805.23 2831.08 1805.07Z" fill="#FEFEFE"/>
<path d="M3597 1803.95C3596.49 1801.23 3595.89 1798.52 3595.59 1795.77C3595.56 1795.48 3597.31 1795 3598.24 1794.61C3598.8 1797.57 3599.36 1800.54 3599.91 1803.5C3598.94 1803.65 3597.97 1803.8 3597 1803.95Z" fill="#FEFEFE"/>
<path d="M3601.23 1764.78C3601.66 1762.18 3602.08 1759.57 3602.51 1756.97C3603.34 1757.1 3604.17 1757.23 3605 1757.36C3604.57 1759.95 3604.14 1762.53 3603.71 1765.11C3602.88 1765 3602.06 1764.89 3601.23 1764.78Z" fill="#FEFEFE"/>
<path d="M3011.51 2076.09C3009.13 2074.25 3007.82 2073.23 3006.51 2072.22C3007.89 2070.88 3009.27 2069.53 3011.51 2067.37C3011.51 2070.77 3011.51 2072.53 3011.51 2076.09ZM3361.72 1342.85C3358.63 1340.8 3355.18 1338.51 3350.57 1335.46C3352.5 1333.69 3353.82 1332.48 3355.31 1331.11C3361.06 1335.93 3366.29 1335.83 3372.02 1332.51C3373.31 1331.77 3375.99 1333.43 3378.03 1333.99C3377.03 1335.86 3376.48 1338.36 3374.94 1339.45C3372.29 1341.32 3369.02 1342.3 3366.35 1343.49C3366.53 1346.42 3366.68 1348.7 3366.86 1351.54C3363.24 1351 3360.52 1350.6 3355.9 1349.91C3358.29 1347.02 3359.83 1345.15 3361.72 1342.85ZM3333.7 1244.29C3340.31 1244.08 3340.95 1245.3 3338.64 1251.57C3337.92 1253.54 3338.53 1256.01 3338.53 1259.21C3342.91 1256.37 3343.78 1253.69 3343.55 1249.42C3343.24 1243.48 3344.21 1237.41 3345.22 1231.49C3345.93 1227.31 3347.76 1223.31 3348.71 1219.15C3348.96 1218.06 3348.13 1216.24 3347.21 1215.52C3346.6 1215.06 3344.55 1215.58 3343.8 1216.32C3340.3 1219.81 3336.34 1222.83 3336.25 1228.79C3336.17 1233.82 3334.66 1238.83 3333.7 1244.29ZM3346.4 1390.75C3347.9 1398.84 3349.25 1406.15 3350.58 1413.29C3356.8 1409.88 3362.43 1406.79 3368.35 1403.55C3364.33 1399.8 3367.32 1398.46 3370.79 1397.27C3372.91 1396.55 3375.47 1396.27 3376.98 1394.87C3378.52 1393.45 3379.34 1390.98 3379.87 1388.82C3380.4 1386.62 3380.19 1384.25 3380.35 1380.9C3377.2 1379.95 3373.42 1378.5 3369.51 1377.69C3361.66 1376.06 3353.73 1374.8 3345.85 1373.33C3339.67 1372.18 3337.9 1373.82 3338.81 1380.08C3339.59 1385.43 3341.93 1389.64 3346.4 1390.75ZM3433.91 1123.09C3428.35 1125.2 3422.78 1127.31 3417.5 1129.99C3415.71 1130.9 3414.19 1133.99 3414.15 1136.11C3414.14 1137.37 3417.07 1139.13 3418.99 1139.87C3421.38 1140.79 3424.09 1140.9 3427.36 1142.6C3425.59 1143.72 3423.92 1145.06 3422.03 1145.92C3412.87 1150.07 3407.93 1157.33 3406.14 1166.98C3405.59 1169.95 3406.31 1172.57 3409.86 1172.47C3413.12 1172.39 3417.14 1173.66 3418.39 1168.38C3418.96 1165.97 3421.02 1163.91 3422.74 1161.16C3424.46 1165.74 3424.84 1170.52 3427.05 1171.61C3428.74 1172.45 3431.21 1171.71 3433.91 1170.91V1123.09ZM3315 1150.8C3312.71 1150.38 3310.4 1150.05 3308.12 1149.55C3297.17 1147.12 3286.89 1149.08 3277.32 1154.62C3275.55 1155.65 3274.65 1158.16 3273.34 1159.99C3273.72 1160.26 3274.09 1160.54 3274.46 1160.81C3279.75 1159.22 3285.03 1157.62 3291.33 1155.72C3291.33 1159.24 3291.29 1161.08 3291.34 1162.91C3291.58 1171.38 3298.84 1176.34 3306.97 1173.59C3311.91 1171.92 3316.3 1169.86 3318.9 1164.63C3320.17 1162.09 3323.48 1160.56 3325.86 1158.58C3325.69 1157.98 3325.51 1157.38 3325.34 1156.77C3326.25 1157.41 3327.54 1157.85 3328.01 1158.73C3330.17 1162.74 3333.1 1165.25 3337.79 1166.38C3343.1 1167.66 3341.88 1173.32 3342.16 1176.75C3342.91 1185.54 3341.89 1194.47 3342.33 1203.31C3342.47 1206.11 3344.97 1208.79 3347.37 1211.33C3351.9 1204.15 3354.88 1197.16 3353.6 1188.92C3353.09 1185.62 3352.32 1182.01 3353.12 1178.93C3355.25 1170.77 3351.6 1164.34 3348.1 1157.7C3346.64 1154.93 3345.24 1152.12 3343.93 1149.27C3341.58 1144.17 3337.83 1140.94 3332.66 1140.28C3331.84 1137.79 3330.9 1135.63 3330.49 1133.37C3330.25 1132.07 3330.43 1130.33 3331.16 1129.3C3333.82 1125.54 3332.21 1123.12 3329.1 1120.89C3325.75 1118.47 3322.45 1115.98 3319.13 1113.52C3313.88 1109.61 3308.19 1108.46 3301.61 1109.51C3292.03 1111.03 3282.58 1110.05 3273.68 1105.69C3270.82 1104.3 3267.54 1106.83 3266.59 1110.43C3266.01 1112.66 3264.58 1114.67 3263.53 1116.78C3263.01 1116.63 3262.48 1116.49 3261.95 1116.34C3261.71 1114.45 3261.47 1112.55 3261.1 1109.64C3254.55 1111.21 3248.25 1112.72 3241.79 1114.27C3241.82 1114.71 3241.76 1115.29 3241.92 1115.8C3244.29 1123.84 3244.29 1123.78 3252.97 1122.77C3254.8 1122.55 3256.71 1122.9 3258.56 1123.14C3263.71 1123.81 3268.84 1124.68 3274 1125.24C3276.39 1125.5 3279.44 1124.83 3279.29 1128.41C3279.19 1130.67 3278.51 1133.74 3276.94 1134.94C3270.62 1139.78 3263.83 1143.98 3257.3 1148.56C3256.39 1149.2 3255.3 1150.82 3255.54 1151.61C3256.04 1153.28 3257.27 1155.93 3258.38 1156.02C3262.66 1156.35 3266.93 1158.33 3271.06 1153.63C3275.01 1149.14 3280.49 1145.57 3285.93 1142.9C3295.75 1138.09 3307.23 1141.11 3315 1150.8ZM3314.91 1339.7C3316.06 1342.85 3317.14 1345.79 3318.38 1349.18C3326.16 1344.46 3331.86 1348.37 3337.32 1353.26C3337.46 1353.38 3337.58 1353.59 3337.73 1353.63C3345.45 1355.8 3353.09 1358.3 3360.91 1359.92C3363.76 1360.5 3367.17 1359.33 3370.13 1358.37C3381.11 1354.79 3392.06 1356.32 3402.81 1358.85C3412.19 1361.06 3420.31 1358.13 3428.56 1354.66C3430.33 1353.92 3432.11 1353.21 3433.91 1352.53V1326.27C3432.01 1325.7 3429.9 1325.49 3427.54 1325.78C3425.47 1326.03 3423.02 1323.17 3419.07 1319.73C3416.49 1323.14 3414.02 1326.64 3411.26 1329.9C3410.14 1331.22 3407.65 1333.21 3407.03 1332.83C3402.43 1330.03 3398.69 1333.53 3394.68 1333.71C3390.74 1333.89 3386.66 1330.77 3382.63 1329.1C3383.89 1326.17 3384.42 1322.45 3386.56 1320.48C3391.13 1316.26 3395.39 1312.61 3396.15 1305.59C3396.43 1303.07 3400.97 1300.57 3404.03 1298.92C3407.62 1296.98 3411.33 1296.15 3412.44 1291.06C3413.53 1286.04 3411.2 1285.35 3407.87 1286.49C3401.01 1288.82 3394.37 1291.8 3387.66 1294.56C3385.94 1295.27 3384.31 1296.75 3382.6 1296.82C3374.53 1297.14 3368.75 1301.58 3362.87 1306.45C3356.03 1312.11 3347.42 1310.93 3342.3 1303.66C3336.93 1296.04 3331.92 1288.13 3327.27 1280.06C3325.93 1277.72 3326.36 1274.36 3326.01 1271.46C3325.71 1268.93 3325.47 1266.39 3325.21 1263.86C3324.34 1263.8 3323.48 1263.74 3322.61 1263.68C3322.04 1266.51 3320.65 1269.45 3321.04 1272.12C3322.26 1280.37 3322.48 1288.75 3327.06 1296.45C3329.23 1300.11 3328.65 1305.53 3328.9 1310.18C3329.16 1315.14 3331.02 1318.3 3337.4 1318.65C3335.23 1319.45 3333.97 1319.91 3332.36 1320.49C3335.35 1324.6 3332.84 1326.31 3329.14 1326.99C3324.69 1327.8 3323.07 1324.21 3322.57 1321.11C3322.09 1318.14 3323.28 1314.9 3323.91 1310.62C3319.55 1309.05 3314.77 1307.12 3309.83 1305.75C3308.92 1305.49 3307.12 1307.32 3306.18 1308.54C3304.64 1310.51 3303.98 1313.79 3302.06 1314.73C3294.73 1318.32 3291.88 1324.19 3291.63 1331.87C3291.58 1333.56 3291.18 1335.29 3291.43 1336.93C3291.77 1339.19 3292.1 1342.88 3293.3 1343.27C3295.52 1343.98 3298.37 1342.77 3300.94 1342.3C3305.53 1341.46 3310.11 1340.59 3314.91 1339.7ZM3216.95 1764.78C3216.12 1764.89 3215.3 1765 3214.47 1765.11C3214.04 1762.53 3213.61 1759.95 3213.18 1757.36C3214.01 1757.23 3214.84 1757.1 3215.67 1756.97C3216.1 1759.57 3216.52 1762.18 3216.95 1764.78ZM2972.63 2022.85C2972.05 2023.69 2971.47 2024.54 2970.89 2025.38C2969.37 2024.34 2967.7 2023.44 2966.44 2022.15C2966.15 2021.86 2967.25 2020.21 2967.72 2019.19C2969.36 2020.41 2970.99 2021.63 2972.63 2022.85ZM3317.91 908.497C3317.42 907.84 3316.94 907.185 3316.45 906.527C3318.11 904.94 3319.77 903.35 3321.42 901.76C3321.92 903.003 3323.14 904.968 3322.77 905.353C3321.45 906.698 3319.57 907.493 3317.91 908.497ZM3201.11 1841.86C3200.24 1842.5 3199.37 1843.13 3198.49 1843.76C3197.26 1841.51 3195.98 1839.29 3194.93 1836.95C3194.87 1836.81 3196.73 1835.82 3197.69 1835.22C3198.83 1837.44 3199.97 1839.65 3201.11 1841.86ZM3168.96 2078.65C3168.96 2077.62 3168.96 2076.59 3168.97 2075.56C3171.18 2075.34 3173.38 2075.12 3175.59 2074.9C3175.34 2076.33 3175.29 2078.88 3174.8 2078.97C3172.93 2079.29 3170.92 2078.82 3168.96 2078.65ZM3263.04 1936.7C3262.05 1939.5 3261.28 1941.67 3260.51 1943.83C3259.38 1943.15 3257.56 1942.72 3257.23 1941.77C3256.1 1938.51 3257.81 1936.92 3263.04 1936.7ZM3221.18 1803.95C3220.21 1803.8 3219.24 1803.65 3218.27 1803.5C3218.82 1800.54 3219.38 1797.57 3219.94 1794.61C3220.87 1795 3222.62 1795.48 3222.59 1795.77C3222.29 1798.52 3221.69 1801.23 3221.18 1803.95ZM2999.88 2038.99C2995.9 2045.09 2993.7 2041.97 2991.87 2039.85C2991.06 2038.91 2991.3 2037.07 2991.06 2035.63C2993.8 2036.68 2996.54 2037.72 2999.88 2038.99ZM3137.38 1208.28C3131.16 1203.24 3131.57 1198.19 3138.05 1195.57C3137.83 1199.77 3137.62 1203.72 3137.38 1208.28ZM3082.06 1962.61C3082.74 1962.27 3083.41 1961.92 3084.09 1961.57C3086.17 1963.78 3090.43 1966.79 3089.96 1968.05C3087.46 1974.78 3084.38 1966.04 3080.41 1969.13C3081.2 1966 3081.64 1964.3 3082.06 1962.61ZM2964.34 2021.46C2959.68 2021.18 2956.35 2020.98 2953.03 2020.77C2953.33 2019.15 2953.19 2016.42 2954 2016.1C2957.83 2014.61 2961.12 2015.72 2964.34 2021.46ZM3003.17 2020.82C3003.46 2021.39 3003.74 2021.96 3004.03 2022.53C2999.77 2024.58 2995.51 2026.63 2991.25 2028.68C2991.01 2028.18 2990.78 2027.68 2990.55 2027.18C2996.85 2020.01 2997.81 2019.52 3003.17 2020.82ZM3057.66 1993.36C3064.77 1987.99 3069.5 1987.19 3075.91 1991.34C3069.9 1992.75 3065.17 1993.94 3060.38 1994.88C3059.64 1995.03 3058.67 1993.96 3057.66 1993.36ZM3150.29 1209.2C3149.48 1209.11 3148.66 1209.01 3147.84 1208.92C3147.43 1205.93 3146.6 1202.9 3146.81 1199.94C3146.9 1198.7 3149.06 1197.2 3150.57 1196.68C3151.14 1196.49 3153.56 1198.94 3153.39 1199.84C3152.77 1203.04 3151.39 1206.09 3150.29 1209.2ZM3246.69 1891.59C3250.38 1896.19 3251.08 1902.14 3248.61 1905.86C3242.03 1896.79 3242.03 1896.79 3246.69 1891.59ZM3207.57 1888.91C3201.44 1885.14 3198.9 1872.44 3202.69 1865.73C3204.35 1873.63 3205.86 1880.79 3207.57 1888.91ZM3196.16 1830.27C3189.41 1826.44 3188.61 1818.81 3195.17 1815.29C3198.97 1820.07 3198.27 1825.08 3196.16 1830.27ZM3256.94 1985.46C3263.24 1985.09 3266.9 1987.47 3267.69 1992.02C3268.2 1995.02 3268.15 1997.92 3264.52 1998.65C3261.94 1994.17 3259.61 1990.12 3256.94 1985.46ZM3259.97 2005.94C3256.31 2007.74 3251.88 2006.09 3249.61 2001.25C3247.51 1996.78 3249.85 1994.35 3253.04 1992.96C3255.45 1997.47 3257.72 2001.71 3259.97 2005.94ZM3255.74 2044.85C3260.61 2042.53 3264.48 2043.33 3266.4 2047.72C3268.72 2053.05 3271.43 2052.8 3275.34 2048.9C3275.99 2051.02 3276.46 2052.55 3276.9 2053.97C3266.83 2058.22 3262.27 2050.39 3255.74 2044.85ZM3255.23 1932.3C3251.23 1930.01 3248.66 1925.93 3250.62 1922.89C3254.04 1917.57 3250.52 1916.32 3247.5 1913.51C3249.71 1913.34 3251.92 1913.53 3253.13 1914.73C3258.35 1919.89 3259.08 1926.08 3255.23 1932.3ZM3322.12 2065.49C3318.06 2059.32 3314.36 2053.94 3311 2048.36C3310.37 2047.31 3311.06 2045.45 3311.14 2043.96C3312.36 2044.55 3313.91 2044.86 3314.75 2045.79C3318.93 2050.46 3322.92 2055.3 3326.47 2059.48C3325.3 2061.1 3324.12 2062.73 3322.12 2065.49ZM3273.65 1968.94C3272.99 1971.89 3272.66 1973.54 3272.23 1975.17C3272.01 1976 3271.62 1976.79 3271.3 1977.6C3270.45 1976.91 3269.18 1976.4 3268.82 1975.52C3266.57 1970.11 3268.4 1963.07 3261.79 1959.25C3260.82 1958.69 3261.66 1955 3261.66 1952.76C3263.49 1953.02 3266.48 1952.69 3266.97 1953.65C3269.67 1958.91 3271.77 1964.48 3273.65 1968.94ZM3202.53 1891.91C3203.46 1891.66 3204.38 1891.42 3205.3 1891.18C3206.95 1895.4 3208.92 1899.53 3210.18 1903.87C3211.42 1908.13 3211.72 1912.65 3212.83 1916.95C3214.02 1921.58 3211.83 1924.32 3206.99 1924.17C3205.5 1913.35 3204.02 1902.63 3202.53 1891.91ZM3235.81 1852.75C3239.33 1864.19 3242.57 1874.53 3245.64 1884.93C3245.99 1886.12 3245.83 1888.33 3245.11 1888.77C3243.84 1889.55 3241.75 1889.91 3240.38 1889.41C3237.38 1888.32 3235.75 1880.84 3237.08 1877.7C3237.72 1876.17 3238.08 1873.42 3237.24 1872.57C3232.5 1867.84 3234.71 1861.61 3233.27 1856.22C3233.11 1855.62 3234.39 1854.63 3235.81 1852.75ZM3430.27 1567.93C3426.48 1573.75 3399.26 1589.75 3394.81 1588.77C3400.29 1569.78 3412.18 1569.85 3430.27 1567.93ZM3177.96 1179.5C3182.59 1195.93 3181.83 1211.92 3178.71 1228.27C3175.14 1224.28 3172.14 1220.17 3170.88 1215.58C3170.03 1212.49 3171.69 1208.75 3172.15 1205.28C3173.04 1198.48 3173.7 1191.64 3174.85 1184.88C3175.18 1182.97 3176.88 1181.29 3177.96 1179.5ZM3362.59 1570.27C3373.84 1562.69 3383.38 1567.11 3392.55 1571.85C3393.85 1572.52 3393.83 1577.27 3393.11 1579.75C3392.65 1581.32 3389.75 1583.21 3387.99 1583.17C3384.15 1583.08 3380.37 1581.54 3376.5 1581.14C3369.38 1580.39 3366.93 1574.47 3362.59 1570.27ZM3310.31 2039.52C3309.6 2040.11 3308.9 2040.7 3308.2 2041.28C3306.98 2040.41 3305.35 2039.79 3304.59 2038.61C3297.02 2026.94 3285.08 2018.16 3281.55 2003.81C3281.4 2003.19 3280.69 2002.64 3280.12 2002.22C3275.07 1998.46 3273.67 1991.43 3277.31 1984.45C3288.51 2003.14 3299.41 2021.33 3310.31 2039.52ZM3250.83 1357.11C3256.23 1354.7 3258.94 1351.77 3254.85 1346.67C3254.2 1345.86 3254.62 1344.11 3254.7 1342.81C3255.05 1337.42 3254.33 1332.42 3250.74 1327.99C3249.47 1326.43 3249.17 1324.08 3248.08 1321.15C3244.34 1319.17 3239.25 1316.88 3237.56 1311.62C3240.17 1310.83 3242.18 1310.22 3244.19 1309.61C3242.05 1306.35 3239.91 1303.1 3237.77 1299.84C3236.52 1300.11 3236.54 1299.43 3236.89 1299.11C3240.79 1295.59 3241.44 1292.52 3236.31 1289.32C3235.14 1288.59 3234.41 1286.04 3234.58 1284.45C3235.14 1279.41 3233.68 1275.95 3229.23 1273.08C3227.73 1272.12 3226.83 1266.85 3227.59 1266.32C3232.38 1262.97 3231.21 1259.46 3228.81 1255.65C3226.69 1252.3 3226.53 1249.89 3230.42 1247.3C3234.75 1244.43 3234.13 1242.34 3229.01 1239.57C3228.56 1239.33 3228.26 1238.56 3228.15 1237.98C3227.1 1232.85 3222.11 1228.95 3223.97 1222.77C3224.8 1219.97 3224.25 1216.63 3223.81 1213.61C3223 1208.07 3221.65 1202.6 3220.79 1197.06C3219.52 1188.94 3224.57 1181.91 3225.02 1174.04C3225.17 1171.47 3226.04 1168.95 3226.44 1166.38C3227.24 1161.3 3226.7 1155.53 3228.98 1151.27C3231.83 1145.95 3233 1141.37 3230.6 1135.9C3230.24 1135.08 3229.97 1134.08 3230.06 1133.21C3230.77 1126.22 3232.42 1119.22 3232.16 1112.28C3231.84 1103.55 3230.96 1095.13 3238.09 1088.77C3237.15 1085.7 3237.29 1082.82 3237.46 1079.94C3237.52 1079.01 3237.65 1078.08 3237.75 1077.15C3238.81 1067.68 3239.8 1058.19 3240.99 1048.74C3241.29 1046.38 3241.88 1043.9 3242.98 1041.82C3246.35 1035.44 3250.29 1029.36 3253.46 1022.89C3254.61 1020.55 3254.14 1017.44 3254.49 1014.69C3255.09 1009.99 3255.71 1005.29 3256.41 1000.6C3256.64 999.065 3257.95 996.963 3257.36 996.195C3256.39 994.936 3254.35 994.234 3252.63 993.893C3251.16 993.601 3249.52 994.135 3249.11 994.179C3247.86 990.633 3247.55 986.99 3245.59 984.851C3242.77 981.756 3240.96 975.574 3244.03 972.29C3247.74 968.334 3249.18 973.734 3251.68 974.854C3252 974.997 3252.4 974.975 3252.77 975.027C3255.24 972.62 3258.03 970.306 3261.11 969.82C3264.75 969.242 3268.65 970.241 3273.1 970.612C3273.21 971.019 3273.62 972.557 3274.33 975.214C3276.29 972.823 3277.85 971.275 3278.99 969.456C3281.07 966.136 3282.08 961.215 3285.02 959.542C3291.65 955.757 3293.56 949.48 3296.51 943.483C3297.38 941.7 3299.9 939.12 3301.1 939.395C3305.19 940.328 3307.11 937.778 3308.38 935.279C3310.4 931.299 3311.54 926.865 3313.73 920.752C3315.17 925.693 3316.85 929.202 3317.09 932.809C3317.53 939.186 3318.67 945.375 3323.48 949.606C3330.7 955.958 3338.58 961.553 3346.18 967.479C3346.6 967.812 3347.34 968.343 3347.28 968.62C3345.65 975.275 3351.37 974.204 3354.47 974.926C3359.98 976.21 3365.72 976.518 3371.34 977.371C3372.98 977.621 3374.72 978.05 3376.12 978.892C3382.62 982.809 3389.2 986.644 3395.41 990.998C3402.49 995.964 3409.21 1001.45 3416.08 1006.71C3421.86 1011.15 3428.6 1014.48 3433.91 1019.46V851.343C3430.16 852.54 3426.42 853.22 3422.24 850.811C3420.57 849.854 3417.33 850.549 3415.31 851.526C3411.08 853.583 3407.34 853.507 3403.82 850.467C3401.16 848.167 3398.56 847.804 3395.71 849.964C3395.56 850.076 3395.4 850.227 3395.23 850.252C3383.89 851.823 3374.16 857.251 3364.43 862.807C3362.46 863.935 3359.68 863.902 3357.27 863.963C3353.63 864.053 3350.2 864.161 3347.88 867.663C3347.33 868.501 3345.8 869.517 3345.08 869.291C3338.67 867.289 3335.11 873.39 3329.82 874.535C3328.1 874.906 3326.72 876.886 3325.19 878.132C3325.41 878.834 3325.64 879.538 3325.86 880.24C3328.11 879.736 3330.33 879.06 3332.61 878.777C3335.12 878.465 3337.68 878.521 3340.22 878.413C3339.35 880.776 3338.85 883.373 3337.53 885.444C3335.57 888.512 3333.03 891.205 3330.2 894.734C3327.34 889.051 3327.21 881.924 3319.76 881.719C3318.49 881.684 3317.15 884.319 3316.7 884.803C3313.52 885.554 3310.78 885.628 3308.67 886.811C3302.21 890.412 3295.41 893.744 3289.86 898.489C3283.83 903.641 3279.06 910.26 3273.75 916.246C3272.18 918.012 3270.93 920.826 3269.02 921.387C3261.1 923.715 3258.42 931.393 3253 936.221C3251.93 937.177 3251.32 939.318 3251.43 940.845C3252.32 952.761 3246.9 961.504 3239.3 967.734C3237.88 973.655 3236.73 978.457 3235.72 982.683C3236.35 987.28 3237.97 991.887 3237.31 996.14C3236.56 1000.93 3233.76 1005.4 3231.86 1010.02C3231.08 1009.81 3230.3 1009.61 3229.52 1009.41C3229.85 1006.52 3230.17 1003.63 3230.56 1000.16C3227.25 998.795 3223.52 1002.12 3223.24 1004.26C3222.47 1010.16 3219.04 1009.97 3214.92 1009.8C3213.46 1009.75 3211.99 1010.01 3210.53 1010.13C3210.42 1010.78 3210.31 1011.42 3210.2 1012.07C3212.78 1012.63 3215.36 1013.2 3218.12 1013.8C3217.95 1014.04 3217.43 1015.18 3217.11 1015.13C3211.99 1014.25 3209.31 1017.21 3208.03 1021.41C3206.07 1027.82 3204.6 1034.38 3203 1040.89C3202.74 1041.96 3202.41 1043.47 3202.93 1044.19C3206.82 1049.54 3203.09 1053.69 3200.73 1057.82C3198.06 1062.48 3196.97 1066.78 3200.93 1070.95C3200.81 1071.57 3200.87 1072.03 3200.66 1072.26C3194.88 1079 3189.11 1085.74 3183.26 1092.41C3181.92 1093.93 3180.28 1095.19 3178.79 1096.54C3174.49 1094.73 3175.88 1092.56 3177.49 1089.84C3178.74 1087.74 3182.38 1085.53 3177.88 1081.75C3176.11 1088.33 3168.88 1091.68 3170.15 1099.3C3170.22 1099.77 3169.92 1100.57 3169.55 1100.79C3164.12 1103.95 3161.61 1109.11 3159.82 1114.79C3159.77 1114.95 3159.46 1115.09 3159.48 1115.21C3160.91 1124.34 3150.39 1127.94 3149.73 1136.55C3149.49 1139.81 3144.67 1142.57 3142.35 1145.84C3139.61 1149.69 3137.29 1153.84 3134.83 1157.88C3134.07 1159.13 3133.49 1160.49 3132.72 1161.74C3132.03 1162.85 3130.59 1163.83 3130.52 1164.93C3129.7 1178.24 3122.85 1190.92 3126.4 1204.68C3127.72 1209.8 3129.2 1214.93 3129.91 1220.16C3130.2 1222.22 3128.05 1224.52 3127.95 1226.75C3127.7 1232.72 3127.09 1238.88 3128.21 1244.65C3130.05 1254.09 3131.35 1263.55 3134.77 1272.87C3139.47 1285.7 3148.46 1293.51 3158.92 1300.53C3163.56 1303.65 3168.81 1305.83 3173.46 1308.93C3175.81 1310.5 3177.43 1313.14 3179.39 1315.3C3182.02 1318.2 3184.65 1321.1 3188.3 1323.33C3187.2 1311.96 3179.07 1303.74 3175.77 1293.55C3176.17 1293.27 3176.57 1293 3176.97 1292.72C3178.41 1294.62 3180.31 1296.33 3181.2 1298.45C3184.51 1306.33 3191.7 1308.2 3198.77 1310.24C3201.81 1311.11 3205.14 1311.04 3208.09 1312.09C3213.87 1314.15 3219.14 1314.72 3224.68 1311.02C3227.89 1308.88 3231.1 1310.21 3231.72 1314.4C3232.81 1321.72 3233.1 1329.18 3234.53 1336.42C3235.68 1342.21 3238.02 1347.77 3239.96 1353.86C3234.75 1355.8 3229.04 1357.22 3224.04 1359.94C3210.57 1367.3 3197.36 1375.16 3184.11 1382.93C3173.44 1389.2 3162.74 1395.42 3152.3 1402.06C3144.13 1407.25 3136.36 1413.08 3128.37 1418.57C3125.03 1420.87 3121.4 1422.8 3118.2 1425.28C3106.7 1434.18 3095.32 1443.25 3083.9 1452.26C3083.01 1452.95 3082.12 1453.64 3081.27 1454.38C3063.55 1469.99 3046.35 1486.25 3027.87 1500.91C3019.63 1507.45 3010.79 1513.82 3000.04 1517.21C2991.45 1519.92 2983.93 1525.91 2975.74 1530.08C2952.83 1541.73 2929.84 1553.23 2906.83 1564.7C2899.81 1568.2 2892.19 1570.7 2885.7 1574.96C2879.84 1578.8 2875 1584.27 2869.97 1589.29C2861.86 1597.38 2854.05 1605.78 2845.94 1613.88C2839.64 1620.16 2835.7 1627.27 2834.15 1636.29C2832.5 1645.86 2829.07 1655.11 2826.66 1664.56C2824.68 1672.32 2822.73 1680.13 2821.44 1688.03C2821.07 1690.32 2822.43 1693.53 2824.06 1695.39C2828.87 1700.88 2833.93 1706.24 2839.45 1711C2843.19 1714.21 2847.58 1717.16 2852.19 1718.74C2861.84 1722.05 2871.87 1724.19 2881.65 1727.14C2891.81 1730.2 2901.87 1733.62 2911.95 1736.94C2914.91 1737.91 2917.81 1739.08 2920.73 1740.16C2920.63 1740.73 2920.54 1741.3 2920.44 1741.88C2918.08 1742.82 2915.79 1743.96 2913.36 1744.65C2905.47 1746.93 2897.41 1748.7 2889.66 1751.38C2885.35 1752.87 2881.09 1755.25 2877.61 1758.18C2871.88 1763 2866.62 1768.44 2861.52 1773.94C2859.33 1776.31 2858.09 1779.54 2856.29 1782.29C2855.21 1783.92 2854.03 1786.54 2852.64 1786.73C2846.24 1787.59 2843.56 1792.92 2839.44 1796.55C2833.58 1801.73 2833.54 1806.26 2838.02 1813.2C2847.65 1828.1 2855.82 1843.95 2864.58 1859.41C2870.76 1870.31 2877.61 1880.9 2882.95 1892.2C2889.16 1905.34 2893.97 1919.13 2899.55 1932.58C2903.22 1941.4 2907.19 1950.1 2911.02 1958.86C2912.13 1961.4 2913.21 1963.94 2914.44 1966.8C2915.74 1965.9 2917.04 1964.99 2918.26 1964.14C2919.41 1966.76 2920.54 1969.33 2921.98 1972.58C2921.41 1973.48 2920.33 1975.17 2918.95 1977.32C2925.54 1978.76 2926.36 1982.8 2924.27 1986.42C2926.58 1989.29 2928.15 1991.02 2929.46 1992.91C2932.28 1996.98 2935 2001.13 2937.7 2005.28C2938.19 2006.03 2938.68 2006.93 2938.74 2007.78C2939.01 2011.84 2941.54 2013.39 2945.46 2012.08C2946.93 2011.58 2948.64 2011.79 2950.25 2011.67C2950.33 2012.4 2950.41 2013.12 2950.5 2013.84C2948.61 2014.19 2946.6 2014.27 2944.85 2014.98C2943.28 2015.62 2941.99 2016.96 2939.86 2018.5C2943.02 2019.31 2945.11 2019.84 2947.64 2020.49C2946.3 2022.76 2945.37 2024.33 2945.19 2024.65C2947.15 2028.3 2948.26 2031.43 2950.26 2033.79C2952.51 2036.43 2955.42 2038.44 2954.67 2042.5C2957.35 2042.35 2960.63 2043.13 2962.59 2041.86C2966.72 2039.19 2970.16 2035.46 2973.88 2032.17C2974.56 2032.76 2975.24 2033.36 2975.91 2033.95C2972.04 2039.85 2968.16 2045.76 2964.07 2051.99C2965.08 2052.69 2966.55 2053.71 2966.79 2053.87C2966.79 2058.24 2966.79 2061.58 2966.79 2064.93C2968.7 2063.77 2970.52 2062.4 2972.55 2061.53C2973.93 2060.94 2975.62 2061.05 2977.17 2060.84C2977.36 2062.32 2977.55 2063.8 2977.78 2065.57C2973.58 2065.28 2970.22 2065.04 2966.87 2064.81C2965.6 2065.19 2964.34 2065.57 2961.99 2066.27C2964.15 2068.11 2965.44 2069.07 2966.56 2070.2C2968.65 2072.33 2969.64 2074.25 2969.16 2077.91C2968.19 2085.21 2968.29 2092.89 2972.48 2099.56C2973.3 2100.86 2975.34 2101.39 2976.81 2102.27C2976.96 2102.09 2977.12 2101.91 2977.27 2101.72C2976.14 2098.23 2976.67 2096.17 2981 2095.59C2983.1 2095.32 2986.06 2093.62 2986.73 2091.85C2989.28 2085.03 2991.07 2077.93 2993.43 2069.97C2996.87 2071.61 3000.98 2073.58 3004.11 2075.09C3003.3 2079.61 3002.12 2082.67 3002.44 2085.56C3002.69 2087.71 3004.47 2090.59 3006.32 2091.39C3007.92 2092.08 3010.72 2090.56 3012.76 2089.55C3017.58 2087.16 3022.65 2085.01 3026.81 2081.74C3028.85 2080.14 3029.44 2076.3 3029.96 2073.35C3030.21 2071.98 3028.7 2070.32 3028.05 2068.77C3025.28 2062.11 3026.83 2059.11 3033.87 2057.15C3036.56 2056.41 3039.29 2055.68 3041.83 2054.55C3043.36 2053.87 3044.56 2052.43 3045.9 2051.33C3044.78 2050 3043.66 2048.66 3042.08 2046.78C3043.01 2046.02 3044.31 2044.08 3045.66 2044.04C3050.04 2043.91 3050.62 2041.14 3051.28 2037.82C3051.86 2034.96 3053.05 2032.23 3054.26 2028.56C3050.43 2028.07 3046.54 2027.58 3042.64 2027.08C3042.43 2026.59 3042.22 2026.1 3042.01 2025.61C3043.7 2024.82 3045.44 2024.13 3047.06 2023.22C3048.66 2022.32 3051.53 2021.05 3051.44 2020.21C3050.94 2015.67 3052.65 2012.8 3056.62 2011.03C3057.43 2010.66 3058.37 2010.63 3059.2 2010.31C3061.01 2009.62 3062.78 2008.84 3064.57 2008.1C3064.33 2007.58 3064.09 2007.07 3063.85 2006.56C3061.02 2006.42 3058.19 2006.28 3055.37 2006.13C3055.2 2005.59 3055.04 2005.05 3054.87 2004.5C3062.87 1999.32 3072.01 1996.97 3083.28 1995.71C3080.44 1993.16 3078.83 1991.71 3076.9 1989.99C3080.31 1984.72 3086.26 1986.94 3091.63 1985.54C3091.2 1988.17 3090.85 1990.29 3090.31 1993.55C3093.88 1992.29 3097.25 1992.72 3095.32 1987.43C3094.78 1985.93 3096.23 1982.22 3097.47 1981.85C3100.24 1981.02 3103.22 1977.42 3106.45 1981.08C3106.62 1981.24 3106.78 1981.4 3106.95 1981.56C3108.73 1984.03 3110.52 1986.51 3112.06 1988.64C3109.55 1991.01 3107.25 1992.48 3106.01 1994.58C3105.22 1995.91 3105.3 1998.72 3106.23 1999.91C3110.63 2005.6 3110.78 2005.49 3106.94 2012.6C3109.27 2011.26 3110.27 2010.45 3111.41 2010.09C3112.81 2009.65 3114.33 2009.58 3115.8 2009.36C3115.89 2010.92 3116.46 2012.66 3115.96 2013.99C3115.14 2016.15 3113.62 2018.03 3111.58 2021.35C3116.71 2019.7 3120.52 2018.82 3124.01 2017.24C3126.59 2016.06 3128.76 2013.96 3131.11 2012.27C3131.31 2012.71 3131.5 2013.15 3131.69 2013.59C3130.85 2016.11 3130.01 2018.62 3128.83 2022.14C3127.59 2023.01 3122.62 2022.58 3125.47 2028.33C3126.79 2028 3128.4 2027.87 3129.74 2027.2C3132.74 2025.73 3135.53 2023.84 3138.54 2022.4C3144.51 2019.55 3144.55 2019.63 3148.68 2027.81C3144.7 2026.56 3142.09 2025.73 3139.11 2024.79C3138.33 2027.74 3136.07 2030.82 3140 2033.9C3140.83 2034.54 3140.8 2036.45 3140.93 2037.81C3141.16 2040.37 3140.9 2043.03 3141.42 2045.52C3142.28 2049.65 3144.52 2051.62 3149.14 2049.93C3151.29 2049.14 3153.84 2049.45 3155.55 2049.32C3156.36 2052.01 3156.97 2054.03 3157.57 2056.05C3159.16 2054.89 3160.75 2053.72 3162.45 2052.48C3168.38 2050.54 3174.65 2048.48 3180.55 2046.54C3182.45 2050.27 3184.22 2053.74 3186.58 2058.39C3189.2 2055.41 3190.88 2053.56 3192.48 2051.65C3192.82 2051.25 3192.68 2050.4 3193.05 2050.1C3195.05 2048.44 3200.54 2049.53 3197.76 2044.19C3194 2036.97 3190.21 2034.85 3183.39 2035.77C3182.68 2035.87 3181.95 2035.78 3180.75 2035.78C3181.01 2034.22 3181.22 2032.88 3181.4 2031.76C3177.45 2029.39 3173.79 2026.86 3169.83 2024.98C3167.95 2024.09 3164.39 2023.46 3163.5 2024.44C3161.35 2026.8 3160.12 2030.11 3158.89 2033.19C3158.04 2035.34 3157.79 2037.74 3156.08 2039.53C3155.12 2036.13 3154.16 2032.73 3153.16 2029.2C3156.93 2026.05 3161.23 2022.45 3165.52 2018.85C3165.33 2018.28 3165.14 2017.7 3164.94 2017.13C3160.84 2017.84 3156.75 2018.55 3152.57 2019.27C3156.14 2012.23 3162.39 2011.36 3167.68 2016.27C3173.24 2021.44 3178.65 2026.86 3186.92 2028.34C3191.54 2029.16 3195.85 2032.05 3200.1 2034.37C3201.41 2035.08 3202.15 2036.92 3203.04 2038.32C3205.1 2041.57 3206.87 2045.03 3209.25 2048.02C3210 2048.98 3212.26 2049.01 3213.83 2048.97C3215.62 2048.93 3217.41 2048.35 3219.4 2047.96C3218.12 2054.3 3217.96 2052.18 3201.93 2057.83C3202.44 2055.76 3202.84 2054.15 3203.3 2052.3C3199.43 2049.69 3197.28 2052.57 3195.8 2055.21C3193.96 2058.5 3197.19 2058.5 3199.06 2059.95C3201.53 2061.85 3203.46 2065.21 3204.25 2068.3C3205.13 2071.71 3204.45 2075.51 3204.45 2080.16C3203.29 2080.63 3200.93 2081.58 3198.18 2082.69C3196.87 2079.94 3195.51 2077.38 3194.41 2074.72C3191.42 2067.42 3183.54 2065.94 3178.47 2061.12C3176.58 2059.33 3174.66 2057.57 3172.02 2055.12C3171.28 2055.5 3169.55 2056.35 3167.34 2057.45C3168.63 2059.21 3170.07 2060.51 3170.61 2062.12C3171.29 2064.13 3172.21 2067.23 3171.26 2068.36C3169.6 2070.32 3166.57 2071.12 3164.13 2072.43C3161.71 2073.73 3159.3 2075.05 3155.49 2077.13C3159.14 2078.67 3161.21 2079.34 3163.04 2080.42C3163.98 2080.97 3164.75 2082.2 3165.02 2083.27C3165.12 2083.66 3163.5 2084.41 3162.76 2085.11C3161.33 2086.46 3159.97 2087.88 3158.59 2089.28C3160.57 2089.41 3162.81 2090.21 3164.48 2089.55C3168.04 2088.15 3171.31 2085.99 3175.74 2083.57C3176.82 2084.05 3179.11 2085.08 3180.9 2085.87C3179.7 2091.18 3178.45 2095.8 3177.76 2100.5C3177.57 2101.77 3178.89 2104.26 3179.88 2104.47C3181.81 2104.88 3184.69 2104.79 3185.93 2103.61C3188.98 2100.66 3190.72 2101.86 3192.42 2104.27C3191.57 2106.5 3189.61 2109.09 3190.26 2110.39C3191.83 2113.55 3194.17 2116.69 3197 2118.73C3199.83 2120.76 3202.15 2118.79 3203.26 2115.7C3196.26 2110.55 3194.09 2104.58 3196.47 2096.89C3198.32 2097.39 3200.21 2097.9 3202.62 2098.55C3203.08 2095.94 3203.51 2093.47 3203.95 2090.95C3200.85 2090.58 3198.27 2090.28 3195.7 2089.97C3195.69 2089.54 3195.68 2089.1 3195.68 2088.67C3198.59 2087.97 3201.5 2087.28 3204.46 2086.57C3204.87 2087.15 3205.55 2088.11 3206.23 2089.07C3206.83 2088.07 3207.29 2086.94 3208.08 2086.12C3209.11 2085.05 3210.4 2084.24 3211.58 2083.32C3214.97 2088.72 3218.4 2085.54 3222.4 2082.64C3224.21 2085.16 3225.87 2087.47 3227.82 2090.2C3231.26 2084.61 3228.61 2075.38 3237.91 2073.12C3237.64 2072.66 3237.36 2072.19 3237.08 2071.73C3235.27 2072.22 3233.45 2072.72 3230.93 2073.4C3230.93 2068.92 3230.93 2064.54 3230.93 2058.78C3234.11 2061.45 3236.29 2063.28 3238.75 2065.35C3237.5 2066.39 3236.7 2067.06 3235.89 2067.73C3235.98 2068.18 3236.06 2068.63 3236.15 2069.08C3237.91 2068.67 3239.7 2068.38 3241.42 2067.82C3243.67 2067.09 3245.87 2065.44 3248.07 2065.48C3251.59 2065.54 3255.09 2066.72 3258.62 2067.31C3261.14 2067.73 3263.63 2066.46 3263.74 2071.5C3263.93 2080.34 3275.66 2086.97 3284.39 2084.48C3287.19 2083.68 3290.23 2083.72 3293.77 2083.3C3293.9 2081.43 3291.12 2076.61 3297.12 2076.71C3299.7 2076.75 3302.92 2077.35 3301.59 2081.53C3312.49 2083.84 3313.56 2084.48 3318.27 2091.82C3319.66 2091.2 3321.26 2090.74 3322.57 2089.85C3325.45 2087.87 3327.81 2087.35 3331.14 2089.67C3335.62 2092.8 3339.92 2091.4 3344.57 2086.17C3343.21 2085.74 3342.01 2085.48 3340.91 2084.99C3338.96 2084.14 3336.46 2083.64 3335.3 2082.13C3332.71 2078.79 3330.54 2075.04 3328.75 2071.21C3328.01 2069.63 3328.66 2067.39 3328.68 2065.46C3330.63 2066.07 3333.14 2066.13 3334.4 2067.42C3337.1 2070.16 3338.79 2073.91 3341.55 2076.57C3345.24 2080.11 3349.6 2082.94 3353.56 2086.22C3355.6 2087.9 3357.52 2089.78 3359.27 2091.75C3360.35 2092.97 3360.78 2095.5 3361.92 2095.79C3369.15 2097.66 3373.58 2103.23 3378.76 2107.8C3382.08 2110.73 3385.22 2113.84 3388.83 2117.24C3390.33 2116.05 3392.27 2114.51 3394.1 2113.04C3396.83 2115.96 3399.31 2118.6 3402.06 2121.54C3398.67 2123.07 3395.08 2124.7 3391.54 2126.31C3393.46 2129.05 3394.78 2131.46 3396.62 2133.37C3397.57 2134.35 3399.84 2135.23 3400.8 2134.74C3402.18 2134.04 3403.6 2132.12 3403.76 2130.6C3403.95 2128.73 3402.86 2126.72 3402.53 2125.51C3408.33 2119.95 3413.82 2114.69 3419.02 2109.71C3422.57 2110.94 3426.16 2111.98 3429.55 2113.48C3430.63 2113.96 3431.77 2115.66 3431.78 2116.81C3431.79 2117.77 3430.21 2118.76 3429.29 2119.71C3428.14 2120.9 3425.78 2122.77 3425.99 2123.12C3427.34 2125.37 3429.04 2127.57 3431.12 2129.12C3431.45 2129.36 3432.77 2128.69 3433.91 2127.81V1445.37C3432.32 1446.23 3430.88 1447.25 3429.68 1448.5C3421.83 1456.7 3412.48 1459.1 3402.66 1461.58C3390.37 1464.7 3377.82 1465.26 3366.99 1457.86C3360.49 1453.41 3353.87 1454.61 3347.26 1454.21C3332.39 1453.32 3318.1 1451.45 3308.4 1438.25C3304.98 1433.59 3301.94 1428.64 3298.51 1423.98C3293.93 1417.76 3289.2 1411.65 3284.4 1405.6C3282.41 1403.09 3280.06 1400.85 3277.87 1398.49C3277.51 1398.8 3277.14 1399.1 3276.78 1399.4C3276.69 1399.24 3276.56 1399.09 3276.5 1398.91C3274.77 1393.54 3277.7 1385.42 3267.82 1384.75C3266.73 1384.68 3265.9 1381.35 3264.88 1379.57C3261.85 1374.3 3258.85 1369.01 3255.71 1363.8C3254.47 1361.74 3252.88 1359.9 3250.83 1357.11ZM3229.63 2050.11C3230.71 2049.22 3231.8 2048.33 3232.88 2047.44C3234.11 2049.35 3235.33 2051.26 3236.55 2053.17C3236.05 2053.55 3235.54 2053.92 3235.03 2054.3C3233.21 2052.87 3231.38 2051.43 3229.56 2050C3227.75 2056.2 3222.46 2058.24 3217.22 2060.33C3215.72 2062.88 3214.23 2065.44 3212.65 2068.16C3213.67 2069.23 3214.74 2070.36 3215.98 2071.66C3214.59 2073.14 3213.47 2074.33 3211.42 2076.51C3210.42 2073.21 3208.96 2070.74 3209.14 2068.4C3209.37 2065.57 3210.66 2062.65 3212.21 2060.22C3212.67 2059.5 3215.53 2060.3 3217.3 2060.4C3218.68 2058.18 3219.63 2055.43 3221.55 2053.88C3223.8 2052.07 3226.9 2051.32 3229.63 2050.11Z" fill="#EBEBEB"/>
</g>
<g opacity="0.75">
<path fill-rule="evenodd" clip-rule="evenodd" d="M3119.22 1562.97C3123.15 1574.25 3138.39 1583.43 3149.54 1584.94C3172.05 1587.99 3174.91 1585.42 3194.01 1584.44C3198.97 1584.19 3200.81 1583.13 3206.41 1577.42C3221.2 1562.37 3208.36 1562.99 3197.66 1560.6C3191.64 1559.26 3176.23 1564.25 3166.34 1564.25C3155.63 1564.25 3139.69 1561.91 3129.82 1558.06C3124.58 1556.02 3118.43 1560.69 3119.22 1562.97Z" fill="white"/>
<path d="M3440.91 1179.73C3445.74 1176.91 3450.11 1174.35 3454.34 1171.87C3457.4 1177.86 3459.9 1182.74 3462.62 1188.06C3466.99 1181.34 3468.81 1181.26 3474.61 1186.66C3477.38 1189.24 3484.01 1186.97 3485.88 1182.62C3486.89 1180.29 3487.42 1177.75 3488.65 1173.76C3490.63 1176.66 3491.96 1178.61 3493.47 1180.84C3496.45 1174.14 3490.72 1165.87 3482.51 1164.53C3476.62 1163.56 3470.54 1163.78 3464.59 1163.06C3462.41 1162.8 3458.63 1161.51 3458.56 1160.46C3458.24 1156.27 3461.62 1156.16 3465.06 1155.59C3477.07 1153.58 3485.16 1161.19 3494.07 1166.78C3496.43 1168.26 3498.3 1170.51 3500.62 1172.09C3502.63 1173.46 3505.73 1175.83 3506.98 1175.17C3509.56 1173.82 3511.23 1170.73 3512.77 1168.94C3509.19 1166.11 3506.88 1164.04 3504.33 1162.33C3501.1 1160.16 3497.75 1158.15 3494.3 1156.35C3488.96 1153.55 3483.57 1150.8 3478.04 1148.39C3475.7 1147.37 3472.87 1146.55 3470.42 1146.86C3463.1 1147.77 3457.86 1145.54 3455.33 1138.88C3461.44 1137.08 3467.68 1135.12 3474 1133.47C3475.23 1133.14 3476.77 1134.17 3478.18 1134.23C3482 1134.36 3485.9 1134.71 3489.62 1134.12C3490.94 1133.92 3492.8 1131.19 3492.71 1129.71C3492.62 1128.21 3490.6 1125.81 3489.14 1125.58C3474.77 1123.28 3460.37 1121.09 3445.91 1119.51C3442.7 1119.16 3439.14 1121.16 3435.86 1122.41L3434.05 1123.09V1170.91C3435.28 1170.55 3436.56 1170.17 3437.82 1169.92C3438.74 1172.83 3439.81 1176.24 3440.91 1179.73ZM3434.05 1352.53C3436.04 1351.78 3438.03 1351.05 3440.03 1350.33C3450.66 1346.51 3450.21 1341.25 3444.13 1333.84C3441.38 1330.5 3438.2 1327.52 3434.05 1326.27V1352.53ZM3880.31 1923.82C3879.45 1924.2 3878.6 1924.58 3877.75 1924.96C3876.73 1923.28 3875.72 1921.6 3874.71 1919.92C3876.01 1919.53 3878.25 1918.54 3878.45 1918.85C3879.38 1920.31 3879.74 1922.13 3880.31 1923.82ZM3592.44 1840.82C3599.06 1841.49 3600.6 1843.25 3598.87 1848.56C3596.64 1845.87 3594.77 1843.63 3592.44 1840.82ZM3637.91 1036.79C3638.7 1036.48 3639.49 1036.18 3640.28 1035.87C3641.86 1037.72 3643.44 1039.57 3645.02 1041.43C3644.78 1041.93 3644.52 1042.43 3644.28 1042.93C3642.77 1042.62 3640.72 1042.81 3639.88 1041.89C3638.74 1040.63 3638.53 1038.53 3637.91 1036.79ZM3987.37 1805.07C3988.27 1805.23 3989.17 1805.4 3990.07 1805.57C3989.48 1809.35 3988.89 1813.13 3988.3 1816.91C3987.46 1816.79 3986.62 1816.68 3985.79 1816.56C3986.31 1812.73 3986.84 1808.9 3987.37 1805.07ZM3890.24 1908.76C3886.52 1908.99 3883.34 1909.19 3880.16 1909.38C3879.97 1909.13 3879.79 1908.87 3879.6 1908.62C3882.56 1906.93 3885.53 1905.24 3888.9 1903.32C3889.47 1905.64 3889.86 1907.22 3890.24 1908.76ZM3590.18 2080.82C3593.44 2081.68 3595.83 2082.32 3598.22 2082.96C3597.62 2083.99 3597.27 2085.47 3596.38 2085.95C3594.93 2086.74 3593.12 2086.88 3591.4 2087.32C3590.99 2085.14 3590.72 2083.7 3590.18 2080.82ZM3914.95 1909.6C3917.61 1903.82 3919.3 1903.52 3924.32 1908.02C3921.61 1910.52 3919.33 1913.81 3914.95 1909.6ZM3661.08 2108.78C3659.26 2110.67 3658.21 2111.76 3657.16 2112.86C3655.79 2111.21 3653.92 2109.73 3653.25 2107.83C3652.87 2106.75 3654.44 2104.98 3655.14 2103.52C3656.87 2105.05 3658.6 2106.59 3661.08 2108.78ZM3517.54 2048.38C3517.05 2048.23 3516.55 2048.09 3516.04 2047.94C3517.4 2042.99 3518.77 2038.03 3520.12 2033.08C3522.96 2038.09 3521.45 2044.22 3517.54 2048.38ZM3571.35 1840.04C3569.8 1837.46 3568.06 1835.9 3568.2 1834.53C3568.61 1830.57 3569.29 1826.37 3574.98 1824.67C3576.89 1830.02 3574.46 1834.07 3571.35 1840.04ZM3568.23 1978.54C3570.26 1975.53 3571.07 1975.62 3577.52 1980.54C3581.7 1983.72 3581.69 1985.66 3577.9 1989.88C3574.78 1986.23 3571.61 1982.51 3568.23 1978.54ZM3662.12 2091.13C3661.95 2091.1 3661.37 2091.12 3660.9 2090.9C3659.65 2090.32 3657.81 2089.9 3657.39 2088.92C3656.86 2087.67 3656.98 2085.41 3657.81 2084.55C3658.54 2083.8 3661.3 2083.76 3662.02 2084.51C3664.26 2086.82 3666.17 2089.52 3667.78 2092.32C3668.63 2093.79 3668.57 2095.77 3668.92 2097.53C3667.33 2096.92 3665.43 2096.66 3664.23 2095.6C3663.16 2094.66 3662.87 2092.84 3662.12 2091.13ZM3513.53 2050.54C3514.71 2050.61 3515.89 2050.69 3517.07 2050.76C3516.59 2057.57 3516.15 2064.39 3515.54 2071.19C3515.5 2071.67 3513.99 2072.49 3513.38 2072.33C3512.55 2072.11 3511.27 2071.03 3511.33 2070.43C3511.94 2063.79 3512.76 2057.17 3513.53 2050.54ZM3718.82 1203.52C3728.21 1198.98 3736.4 1200.43 3740.64 1208.65C3737.05 1207.52 3734.72 1206.78 3732.27 1206C3726.87 1209.96 3722.76 1209.35 3718.82 1203.52ZM3689.6 1144.75C3697.91 1143.3 3709.02 1149.23 3711.76 1156.35C3701.99 1156.33 3696.56 1149.08 3689.6 1144.75ZM3953.36 1743.31C3948.59 1747.4 3932.39 1749.6 3927.1 1746.95C3930.74 1744.94 3933.82 1741.99 3937.14 1741.68C3942.14 1741.22 3947.32 1742.6 3953.36 1743.31ZM3523.27 2029.62C3522.53 2029.34 3521.8 2029.06 3521.07 2028.78C3522.32 2022.86 3523.4 2016.9 3524.93 2011.06C3525.26 2009.8 3527.22 2008.11 3528.35 2008.17C3529.51 2008.23 3531.58 2010.24 3531.52 2011.3C3531.09 2018.45 3527.55 2024.26 3523.27 2029.62ZM3582.96 1309.28C3579.67 1304.17 3581.97 1301.1 3585.16 1298.51C3591.36 1293.48 3595.44 1293.35 3600.46 1297.8C3594.64 1301.62 3588.89 1305.39 3582.96 1309.28ZM3477.49 2118.11C3474.02 2119.01 3470.34 2120.51 3466.58 2120.74C3464.2 2120.89 3461.7 2119.14 3459.26 2118.24C3460.35 2116.41 3461.4 2114.56 3462.56 2112.77C3463.05 2112.01 3463.69 2110.87 3464.38 2110.78C3466.45 2110.49 3469.16 2109.81 3470.57 2110.79C3473.25 2112.66 3475.2 2115.58 3477.49 2118.11ZM3815.08 1981.96C3819.24 1981.76 3823.27 1981.58 3828.47 1981.34C3820 1990.15 3816.39 1991.03 3807.95 1985.91C3806.4 1984.97 3805.57 1981.02 3806.09 1978.87C3807 1975.1 3809.97 1977.15 3811.89 1978.27C3813.17 1979.02 3813.96 1980.61 3815.08 1981.96ZM3612.58 1368.8C3607.27 1376.34 3600.39 1378.9 3594.97 1376.27C3587.64 1372.71 3584.26 1366.76 3586.4 1359.32C3590.99 1366.89 3598.02 1365.3 3604.64 1365.72C3607.15 1365.89 3609.56 1367.58 3612.58 1368.8ZM3929.32 1787.25C3929.3 1786.71 3929.28 1786.17 3929.25 1785.63C3933.67 1785 3938.21 1783.44 3942.47 1784.02C3946.17 1784.52 3949.47 1787.63 3953.18 1783.9C3953.61 1783.47 3955.2 1784.06 3956.2 1784.35C3960.96 1785.72 3965.73 1787.09 3970.45 1788.58C3972.37 1789.19 3974.4 1789.82 3976.02 1790.95C3978.77 1792.89 3978.38 1796.2 3975.23 1797.37C3968.96 1799.69 3961.69 1801.12 3956.51 1797.06C3948.32 1790.64 3938.76 1789.47 3929.32 1787.25ZM3578.43 1283.39C3582.31 1282.94 3585.64 1282.3 3588.96 1282.27C3590.55 1282.26 3592.14 1283.4 3593.72 1284.02C3592.65 1285.31 3591.75 1286.82 3590.46 1287.84C3586.85 1290.7 3582.54 1292.85 3579.49 1296.17C3573.83 1302.33 3571.82 1302.96 3564.41 1298.52C3565.38 1296.61 3566.35 1294.71 3567.55 1292.34C3564.39 1291.98 3562.04 1291.71 3558.92 1291.36C3559.62 1289.13 3559.62 1286.53 3560.88 1285.56C3564.83 1282.5 3568.99 1279.46 3573.54 1277.53C3579.08 1275.18 3580.07 1276.43 3578.43 1283.39ZM3713.1 1193.17C3716.15 1188.05 3714.16 1185.21 3711.24 1182.45C3706.46 1177.95 3701.68 1173.44 3697.22 1168.65C3695.94 1167.27 3695.75 1164.89 3695.05 1162.96C3697.45 1162.59 3700.01 1161.51 3702.23 1161.99C3708.81 1163.39 3712.54 1168.69 3716.76 1173.43C3721.96 1179.26 3727.65 1184.64 3733 1190.08C3726.91 1198.66 3720.29 1192.73 3713.1 1193.17ZM3532.83 2004.7C3531.98 2004.56 3531.12 2004.42 3530.27 2004.28C3530.27 2002.24 3530.01 2000.17 3530.31 1998.18C3531.18 1992.49 3532.32 1986.84 3533.25 1981.16C3533.55 1979.32 3533.22 1977.33 3533.75 1975.58C3535.26 1970.56 3538.27 1965.66 3538.4 1960.66C3538.53 1955.68 3540.64 1951.33 3541.15 1946.49C3542.08 1937.67 3546.07 1929.19 3548.61 1920.52C3549.76 1916.61 3550.25 1912.5 3551.55 1908.66C3552.2 1906.77 3554.11 1905.34 3555.24 1903.56C3556.07 1902.26 3557.4 1899.71 3557.1 1899.47C3552.52 1895.8 3554.86 1891.4 3555.7 1887.33C3557.64 1878.03 3559.87 1868.79 3562 1859.53C3563.08 1854.8 3563.83 1849.93 3565.56 1845.44C3566.12 1844 3569.28 1843.37 3571.36 1842.9C3571.68 1842.83 3573.42 1845.77 3573.19 1847.09C3571.83 1855.2 3570.25 1863.27 3568.44 1871.29C3564.35 1889.44 3560.12 1907.57 3555.86 1925.69C3554.76 1930.35 3553.15 1934.9 3552.06 1939.56C3549.44 1950.77 3547.01 1962.02 3544.43 1973.24C3544.19 1974.3 3543.35 1975.2 3542.92 1976.23C3541.08 1980.62 3539.11 1984.96 3537.53 1989.44C3535.77 1994.46 3534.38 1999.61 3532.83 2004.7ZM3434.05 1019.46C3436.55 1021.8 3438.73 1024.51 3440.35 1027.86C3440.8 1028.81 3441.75 1029.52 3442.83 1030.76C3443.83 1029.54 3445.4 1028.39 3445.21 1027.71C3444.09 1023.51 3443.17 1019.06 3441.01 1015.39C3438.5 1011.12 3436.68 1007.27 3439.21 1000.53C3443.55 1005.01 3446.91 1008.6 3450.43 1012.03C3451.51 1013.09 3453.03 1013.7 3454.34 1014.52C3454.43 1012.65 3455.21 1009.54 3454.48 1009.13C3449.9 1006.57 3448.42 1002.22 3447.09 997.788C3446.37 995.375 3446.26 992.779 3445.72 989.244C3452.6 993.948 3455.8 986.377 3461.41 985.335C3461.9 988.017 3462.34 990.429 3462.92 993.582C3464.72 992.204 3465.74 990.908 3467 990.597C3468.33 990.272 3470.39 990.369 3471.25 991.194C3475.1 994.902 3478.54 999.037 3482.38 1002.76C3483.07 1003.43 3484.95 1002.89 3486.28 1002.91C3486.26 1001.63 3486.62 1000.17 3486.11 999.128C3485.48 997.843 3483.65 997.086 3483.19 995.796C3482.05 992.674 3481.41 989.373 3480.57 986.144C3482.89 985.681 3485.28 985.458 3487.47 984.66C3488.73 984.199 3489.56 982.661 3490.76 981.858C3494.2 979.544 3497.54 976.941 3501.29 975.272C3503.59 974.246 3507.44 975.673 3509 974.251C3510.59 972.807 3510.23 969.211 3510.83 966.002C3511.85 966.37 3513.32 967.308 3514.81 967.355C3518.89 967.481 3524.02 968.752 3526.86 966.818C3532.91 962.684 3537.94 962.727 3543.98 966.098C3548.76 968.761 3552.68 965.891 3553.45 960.514C3553.68 958.857 3555.98 956.747 3557.74 956.238C3560.26 955.507 3563.15 956.052 3565.86 956.052C3566.07 954.594 3566.05 953.809 3566.31 953.13C3567.04 951.202 3567.47 948.198 3568.79 947.71C3570.27 947.163 3572.85 948.547 3574.51 949.711C3578.88 952.756 3583.35 954.225 3588.78 953.135C3598.01 951.281 3608.14 959.57 3608.66 968.78C3608.76 970.411 3610.15 972.205 3611.39 973.492C3616.71 979.021 3622.72 983.979 3627.42 989.973C3630.12 993.417 3630.65 998.506 3632.43 1002.74C3633.22 1004.59 3634.69 1006.16 3635.84 1007.86C3636.52 1007.52 3637.2 1007.18 3637.87 1006.84C3636.25 1002.82 3634.52 998.847 3633.06 994.77C3632.23 992.462 3630.75 989.536 3631.52 987.703C3632.82 984.567 3633.06 982.512 3631.15 979.47C3630.17 977.907 3631.57 974.843 3631.9 972.455C3634.01 973.176 3636.4 973.514 3638.16 974.746C3639.32 975.564 3639.28 977.938 3640.32 979.134C3647.08 986.883 3652.29 994.831 3651.42 1006.11C3650.95 1012.23 3653.68 1018.57 3654.58 1024.86C3654.83 1026.54 3653.67 1028.41 3653.16 1030.2C3651.98 1028.66 3650.73 1027.18 3649.64 1025.58C3645.95 1020.17 3642.31 1014.72 3638.66 1009.29C3637.99 1009.71 3637.32 1010.13 3636.65 1010.55C3637.41 1012.39 3638.17 1014.24 3639.03 1016.32C3637.25 1016.71 3635.65 1017.06 3633.75 1017.47C3633.53 1022.85 3631.43 1026.09 3625.45 1023.7C3623.41 1028.2 3619.76 1028.94 3616.92 1025.67C3613.24 1021.43 3609.56 1017.21 3605.82 1012.92C3602.92 1015.34 3600.31 1017.52 3598.31 1019.18C3595.55 1017.49 3593.25 1016.33 3591.23 1014.81C3587.68 1012.12 3583.44 1009.8 3581 1006.29C3575.48 998.339 3571.81 997.878 3566.78 1005.71C3566.58 1006.03 3566.35 1006.33 3566.13 1006.63C3562.18 1012.09 3560.75 1012.13 3556.94 1006.84C3555.32 1009.94 3553.92 1013.18 3552.02 1016.08C3549.08 1020.59 3546.85 1022.81 3546.85 1022.81C3546.41 1020.5 3546.69 1017.46 3545.4 1016.46C3544 1015.39 3541.13 1016.22 3537.44 1016.22C3540.08 1019.56 3541.69 1021.61 3542.96 1023.21C3541.38 1025.8 3539.92 1028.19 3538.33 1030.8C3535.18 1028.81 3535.58 1022.66 3532.06 1023.39C3529.13 1028.82 3526.3 1032.66 3524.91 1036.97C3523.34 1041.85 3519.91 1041.03 3516.47 1041.26C3512.79 1041.5 3509.51 1041.35 3507.19 1037.65C3505.33 1034.67 3502.8 1032.12 3500.41 1029.18C3499.9 1033.64 3499.35 1037.07 3499.17 1040.53C3499.06 1042.54 3498.79 1045.17 3499.85 1046.51C3505.79 1053.94 3505.87 1062.69 3506.24 1071.62C3500.93 1073.18 3499.75 1068.88 3497.44 1065.05C3495.55 1066.16 3492.83 1066.82 3491.91 1068.49C3489.64 1072.57 3486.23 1073.7 3483.02 1070.49C3481.37 1068.84 3480 1066.92 3477.52 1063.95C3476.28 1069.94 3475.35 1074.44 3474.43 1078.94C3473.91 1079.02 3473.39 1079.09 3472.88 1079.17C3470.43 1075.57 3468.17 1071.8 3465.43 1068.44C3464.47 1067.27 3462.29 1067.08 3460.66 1066.45C3460.64 1068.15 3460.01 1070.18 3460.7 1071.51C3464.83 1079.41 3468.89 1087.38 3473.69 1094.87C3478.52 1102.4 3484.15 1109.4 3489.48 1116.6C3493.12 1121.53 3499.49 1124.87 3498.49 1132.53C3498.38 1133.33 3500.04 1135.17 3500.83 1135.14C3510.23 1134.75 3512.34 1144.41 3518.85 1148.12C3524.37 1151.26 3528.89 1156.17 3533.79 1160.38C3535.88 1162.18 3537.97 1164.04 3539.76 1166.13C3542.06 1168.79 3544.06 1171.7 3546.17 1174.52C3548.52 1177.66 3551.04 1180.69 3553.12 1184C3555.7 1188.09 3557.44 1192.76 3560.34 1196.57C3567.43 1205.86 3575.11 1214.69 3582.21 1223.97C3583.47 1225.61 3583.71 1228.65 3583.3 1230.83C3582.11 1237.05 3580.94 1243.41 3578.59 1249.24C3577.28 1252.5 3574.07 1256.46 3570.95 1257.3C3552.7 1262.21 3545.6 1276.85 3541.28 1292.47C3537.41 1306.5 3539.19 1321.45 3540.12 1336.01C3540.48 1341.71 3545.36 1346.47 3550.71 1347.49C3553.95 1348.1 3555.54 1349.78 3553.13 1352.93C3549.95 1357.11 3546.65 1361.19 3543.4 1365.31C3543.16 1365.19 3542.92 1365.06 3542.68 1364.93C3543.1 1363.66 3543.52 1362.39 3543.94 1361.12C3543.67 1360.66 3543.41 1360.2 3543.15 1359.74C3539.66 1361.49 3536.18 1363.25 3532.7 1365C3532.86 1365.53 3533.03 1366.07 3533.19 1366.61C3534.6 1366.92 3535.99 1367.24 3537.4 1367.52C3538.83 1367.8 3540.26 1368.02 3541.58 1368.25C3542.49 1375.51 3539.24 1378.09 3532.98 1375.8C3531.21 1375.15 3529.1 1375.46 3527.13 1375.33C3526.85 1375.95 3526.57 1376.57 3526.28 1377.2C3527.92 1378.24 3529.55 1379.28 3531.83 1380.74C3532.1 1382.79 3532.51 1386.05 3532.96 1389.59C3529.83 1390.03 3526.98 1390.1 3524.37 1390.94C3522.62 1391.5 3519.74 1393.37 3519.87 1394.27C3520.7 1399.76 3516.62 1401.58 3513.46 1404.25C3512.19 1405.32 3510.76 1406.62 3510.27 1408.11C3508.7 1412.81 3505.19 1413.47 3501.27 1412.49C3497.39 1411.52 3495.05 1412.75 3492.67 1415.77C3491.37 1417.42 3488.46 1419.35 3486.82 1418.94C3480.56 1417.4 3477.88 1421.97 3473.85 1424.86C3466.91 1429.83 3459.58 1434.39 3452.01 1438.33C3446.41 1441.24 3439.38 1442.47 3434.05 1445.37V2127.81C3434.68 2127.32 3435.24 2126.77 3435.55 2126.28C3437 2123.95 3437.69 2121.16 3439.19 2117.29C3437.98 2116.68 3436.15 2115.76 3434.31 2114.84C3434.63 2114 3434.95 2113.15 3435.26 2112.3C3441.61 2112.79 3448 2112.98 3454.25 2114.05C3455.39 2114.25 3456.29 2118.02 3456.57 2120.23C3456.72 2121.43 3455.67 2123.47 3454.58 2124.04C3447.13 2127.96 3441.97 2133.71 3438.85 2143.39C3440.95 2141.94 3442.8 2141.26 3442.82 2140.54C3442.92 2136.26 3445.99 2136 3448.98 2135.46C3449.87 2135.3 3450.93 2135.34 3451.62 2134.86C3458.41 2130.15 3465.29 2127.41 3472.69 2133.9C3473.29 2135.19 3474.07 2136.86 3474.85 2138.54C3476.35 2137.32 3477.85 2136.1 3479.92 2134.41C3480.72 2135.51 3482.04 2137.33 3484.34 2140.52C3479.43 2141.93 3475.21 2143.15 3469.66 2144.74C3474.23 2147.13 3478.24 2149.23 3483.37 2151.92C3482.72 2149.2 3482.37 2147.74 3482.03 2146.29C3482.52 2146.54 3483.01 2146.79 3483.49 2147.05C3485.83 2143.1 3488.5 2139.3 3490.36 2135.15C3491.61 2132.37 3489.83 2130.83 3486.81 2131.52C3485.38 2131.84 3484.04 2132.59 3482.24 2133.31C3481.04 2131.21 3479.87 2129.15 3478.66 2127.04C3480.74 2124.03 3482.76 2121.12 3485.38 2117.34C3487.55 2121.31 3489.42 2124.73 3491.69 2128.88C3497.86 2120.76 3502.01 2111.92 3503.05 2101.66C3503.23 2099.86 3503.1 2097.96 3503.63 2096.27C3505.29 2090.97 3507.15 2085.73 3509.02 2080.49C3509.62 2078.82 3510.48 2077.25 3511.23 2075.63C3511.73 2075.7 3512.24 2075.77 3512.75 2075.84C3512.75 2078.18 3512.94 2080.55 3512.71 2082.87C3512.08 2089.16 3510.88 2095.43 3510.74 2101.72C3510.68 2103.96 3513.01 2106.26 3514.14 2108.31C3513.23 2109.42 3511.95 2110.96 3510.67 2112.52C3511.39 2113.13 3512.12 2113.75 3512.84 2114.37C3515 2111.86 3517.16 2109.35 3520.39 2105.6C3521.08 2109.86 3521.54 2112.79 3521.92 2115.12C3529.22 2114.44 3536.53 2114.09 3543.72 2112.99C3548.81 2112.22 3553.8 2110.6 3558.71 2108.99C3559.68 2108.67 3559.96 2106.54 3560.78 2105.4C3561.78 2104.03 3562.82 2102.16 3564.2 2101.76C3565.24 2101.46 3567.22 2102.85 3568.14 2104C3571.44 2108.15 3574.34 2108.34 3578.2 2104.82C3579.43 2103.7 3581.47 2103.38 3583.2 2102.93C3584.73 2102.53 3586.34 2102.45 3587.95 2102.22C3586.12 2098.72 3584.73 2096.05 3583.33 2093.38C3583.73 2092.97 3584.12 2092.56 3584.52 2092.15C3585.53 2093.25 3587.2 2094.22 3587.46 2095.48C3589.25 2104.21 3597.17 2103.43 3603.07 2105.69C3603.68 2105.93 3604.83 2104.84 3605.7 2104.32C3607.49 2103.23 3609.26 2102.11 3611.24 2100.88C3613.37 2105.68 3612.03 2111.24 3617.45 2113.47C3617.89 2113.65 3617.51 2115.83 3617.51 2117.14C3611.11 2116.33 3611.25 2116.35 3610.74 2122.49C3609.88 2133.08 3608.83 2143.65 3607.85 2154.23C3608.79 2154.38 3609.73 2154.53 3610.67 2154.68C3612.26 2147.39 3613.85 2140.1 3615.81 2131.08C3617.67 2131.19 3621.16 2131.39 3625.2 2131.62C3625.46 2129.92 3625.73 2128.17 3626.07 2125.97C3623.07 2125.97 3620.55 2125.97 3617.12 2125.97C3621.24 2122.25 3624.91 2118.94 3628.61 2115.6C3629.23 2121.33 3630.48 2128.16 3630.58 2135C3630.69 2143.8 3631.24 2144.37 3639.92 2140.13C3638.21 2137.18 3637.75 2134.39 3642.43 2133.71C3642.49 2133.19 3642.55 2132.67 3642.6 2132.15C3641.28 2132 3639.93 2131.92 3638.62 2131.68C3636.91 2131.36 3635.23 2130.92 3632.94 2130.4C3635.03 2126.36 3635.35 2121.64 3641.73 2122.89C3641.43 2124.59 3641.16 2126.07 3640.99 2127.06C3643.42 2126.67 3647.24 2125.1 3648.14 2126.12C3649.87 2128.08 3649.94 2131.5 3650.78 2134.64C3654.75 2133.87 3655.34 2131.61 3655.11 2127.8C3654.85 2123.47 3655.83 2119.05 3656.27 2114.67C3657.11 2114.67 3657.95 2114.67 3658.8 2114.68C3659.13 2116.85 3659.43 2119.03 3659.79 2121.2C3660.08 2122.94 3660.35 2124.7 3660.89 2126.36C3660.95 2126.53 3663.37 2126.47 3663.75 2125.89C3664.91 2124.12 3666.01 2122.11 3666.33 2120.07C3666.52 2118.86 3665.4 2117.26 3664.53 2116.09C3660.68 2110.85 3661.65 2105.09 3667.67 2104.03C3672.87 2103.11 3674.89 2100.19 3676.89 2096.36C3677.33 2095.52 3677.74 2094.67 3678.8 2092.53C3681.14 2097.98 3682.68 2101.56 3684.97 2106.87C3685.99 2099.55 3688.24 2095.96 3692.91 2097.82C3696.21 2095.45 3698.62 2093.73 3701.01 2092.02C3701.17 2090.64 3701.39 2088.63 3701.62 2086.61C3702.7 2087.03 3704.44 2087.18 3704.74 2087.92C3705.57 2089.95 3705.79 2092.23 3706.25 2094.41C3706.76 2094.45 3707.27 2094.48 3707.78 2094.52C3708.22 2093.3 3709.16 2092.01 3709.01 2090.86C3708.36 2085.93 3707.48 2081.03 3706.49 2076.16C3706.22 2074.83 3705.34 2073.6 3704.56 2072.45C3704.46 2072.3 3703.31 2072.86 3702.65 2073.09C3703.31 2074.45 3703.97 2075.81 3704.62 2077.17C3704.76 2077.47 3704.86 2077.8 3705.04 2078.27C3704 2079.52 3702.79 2080.72 3701.88 2082.12C3699.64 2085.56 3697.98 2085.55 3694.38 2082.97C3691.13 2080.63 3686.23 2080.58 3680.79 2079.2C3681.15 2083.45 3681.62 2085.98 3681.46 2088.46C3681.38 2089.83 3680.23 2091.14 3679.56 2092.47C3678.64 2091.47 3677.16 2090.6 3676.89 2089.44C3676.2 2086.54 3675.82 2083.51 3675.77 2080.52C3675.75 2078.82 3676.61 2077.11 3677.07 2075.4C3678.52 2076.24 3679.97 2077.08 3681.54 2077.99C3687.4 2070.75 3693.43 2063.3 3699.25 2056.12C3701.1 2057.47 3704.51 2058.76 3705.71 2061.15C3706.93 2063.58 3705.98 2067.11 3705.98 2070.29C3708.7 2069.5 3712.47 2070.71 3715.68 2067.3C3716.7 2066.21 3721.04 2068.23 3724.82 2069.04C3724.82 2058.35 3724.82 2047.81 3724.82 2037.27C3725.43 2037.23 3726.03 2037.19 3726.64 2037.15C3727.42 2038.75 3728.21 2040.35 3728.53 2041.01C3735.63 2038.7 3742.47 2036.64 3749.15 2034.15C3750.43 2033.67 3751.28 2031.6 3751.98 2030.1C3753.22 2027.46 3753.9 2024.51 3755.39 2022.04C3756.06 2020.95 3758.14 2020.71 3759.83 2020.7C3756.76 2025.62 3756.76 2025.62 3759.56 2028.58C3763.06 2027.03 3766.26 2025.62 3769.45 2024.2C3769.65 2024.59 3769.86 2024.98 3770.07 2025.37C3771.24 2023.49 3772.42 2021.61 3773.41 2020.03C3775.44 2021.1 3777.27 2022.06 3779.1 2023.03C3779.19 2020.91 3779.25 2018.8 3779.39 2016.69C3779.5 2014.99 3779.58 2013.26 3779.92 2011.6C3780.32 2009.62 3780.99 2007.71 3781.7 2005.24C3787.01 2005.96 3788.59 2002.43 3788.49 1997.23C3788.45 1994.96 3787.76 1991.3 3791.57 1992.23C3794.68 1993 3797.35 1995.57 3800.21 1997.34C3798.15 2000.57 3801.32 2005.34 3796.99 2008C3796.3 2008.43 3796.28 2009.96 3795.96 2010.95C3801.68 2014.27 3809.03 2008.31 3814.44 2014.98C3812.3 2016.55 3810.43 2017.92 3808.14 2019.6C3809.42 2020.67 3810.45 2021.53 3811.79 2022.66C3811.06 2023.27 3810.43 2024.16 3810.03 2024.06C3808.94 2023.81 3807.29 2023.36 3807.03 2022.6C3806.06 2019.67 3805.46 2016.08 3801.39 2017.42C3799.34 2018.09 3796.81 2020.59 3796.49 2022.59C3795.89 2026.27 3798.33 2028.69 3802.28 2029.42C3803.52 2029.65 3804.59 2030.86 3805.73 2031.62C3808.47 2030.59 3811.37 2029.49 3814.17 2028.43C3815.83 2031.21 3817.19 2033.49 3817.72 2034.37C3821.97 2035.14 3824.84 2035.54 3827.64 2036.21C3829.68 2036.7 3831.63 2037.56 3833.62 2038.25C3833.62 2036.22 3833.62 2034.2 3833.62 2031.19C3837.08 2028.99 3837.96 2025.43 3833.94 2021.19C3833.47 2020.7 3833.02 2019.64 3833.24 2019.15C3835.04 2015.17 3837 2011.26 3839.5 2006.11C3840.45 2008.59 3840.87 2009.66 3841.28 2010.73C3852.73 2008.4 3862.14 2002.36 3862.54 1996.22C3856.13 1999.91 3850.14 2003.37 3843.15 2007.4C3842.37 2004.22 3841.71 2001.58 3841.08 1999.02C3844.71 1998.75 3847.44 1998.54 3850.17 1998.33C3849.81 1995.73 3849.46 1993.13 3849.29 1991.87C3851.09 1988.56 3852.07 1985.58 3854.03 1983.56C3855.44 1982.1 3858.13 1981.5 3860.31 1981.31C3861.68 1981.2 3863.18 1982.57 3864.62 1983.27C3864.96 1982.9 3865.29 1982.52 3865.64 1982.15C3863.46 1979.47 3861.29 1976.8 3858.1 1972.88C3857.03 1975.22 3856.32 1976.78 3855.06 1979.53C3852.97 1976.45 3851.15 1974.9 3851.14 1973.34C3851.13 1972.32 3853.66 1971.1 3855.21 1970.27C3858.95 1968.27 3865.08 1968.43 3863.12 1961.33C3861.01 1961.53 3859.08 1961.72 3857.11 1961.91C3857.06 1961.02 3856.91 1960.4 3857.04 1960.34C3862.18 1957.77 3867.54 1955.59 3872.43 1952.63C3877.37 1949.66 3881.88 1945.98 3886.47 1942.46C3887.19 1941.9 3887.88 1940.15 3887.54 1939.55C3884.75 1934.63 3888.71 1932.66 3891.58 1930.71C3894.5 1928.72 3897.1 1926.53 3895.3 1923.14C3894.45 1921.54 3891.13 1921.26 3888.92 1920.39C3888.26 1920.12 3887.59 1919.9 3886.78 1919.61C3890.04 1914.33 3893.16 1909.27 3896.28 1904.22C3896.65 1904.21 3897.02 1904.2 3897.38 1904.19C3897.38 1907.25 3896.98 1910.38 3897.52 1913.34C3897.91 1915.47 3899.11 1918.31 3900.78 1919.11C3902.6 1919.98 3905.37 1918.86 3909.23 1918.44C3907.11 1916.42 3905.95 1915.83 3905.73 1914.98C3905.4 1913.75 3905.75 1912.34 3905.81 1911C3907.45 1911.28 3909.52 1911.04 3910.65 1911.95C3912.69 1913.59 3914.17 1915.92 3915.1 1917.04C3922.34 1913.94 3928.47 1911.31 3934.86 1908.57C3934.54 1907.44 3934.15 1906.1 3933.79 1904.85C3936.91 1902.9 3939.81 1901.08 3941.51 1900.02C3941.04 1896.54 3940.38 1894.4 3940.58 1892.35C3940.79 1890.22 3941.85 1888.17 3942.17 1887.18C3939.28 1885.45 3937.14 1884.17 3935 1882.89C3935.11 1882.22 3935.22 1881.55 3935.33 1880.89C3939.63 1879.28 3943.93 1877.67 3948.23 1876.07C3948.69 1876.71 3949.14 1877.36 3949.6 1878C3947.78 1880.27 3945.95 1882.54 3944.13 1884.82C3949.45 1890.02 3949.85 1889.96 3953.23 1883.54C3953.48 1883.06 3953.74 1882.31 3954.12 1882.23C3963.2 1880.15 3961.88 1871.28 3965.17 1865.44C3966.23 1863.55 3967.37 1861.71 3968.48 1859.85C3969.24 1860.08 3970.01 1860.32 3970.77 1860.55C3970.59 1864.32 3970.3 1868.09 3970.28 1871.86C3970.27 1873.3 3970.89 1874.74 3971.22 1876.18C3972.31 1875.38 3973.81 1874.79 3974.4 1873.71C3976.03 1870.76 3978.08 1867.69 3978.41 1864.5C3978.71 1861.59 3977.79 1857.78 3975.94 1855.62C3973.57 1852.85 3972.78 1850.52 3974.52 1847.62C3976.78 1843.87 3979.4 1840.33 3982.93 1837.36C3982.37 1840.62 3981.8 1843.88 3981.23 1847.14C3981.71 1847.36 3982.19 1847.57 3982.67 1847.79C3984.56 1844.71 3986.53 1841.67 3988.33 1838.54C3991.88 1832.37 3995.21 1826.27 3994.94 1818.61C3994.74 1812.89 3995.78 1807.07 3996.76 1801.39C3998.1 1793.61 3995.16 1789.79 3987.38 1787.88C3978.87 1785.79 3970.67 1782.45 3962.21 1780.1C3951.98 1777.27 3941.63 1774.89 3931.31 1772.36C3929.49 1771.91 3927.61 1771.76 3925.77 1771.38C3916.22 1769.43 3914.23 1765.22 3918.94 1756.61C3919.58 1755.44 3920.94 1754.13 3922.14 1753.92C3928.02 1752.89 3933.96 1752.19 3939.88 1751.42C3948.59 1750.29 3957.77 1750.49 3965.86 1747.6C3970.93 1745.79 3974.45 1739.45 3978.4 1734.9C3978.84 1734.4 3977.86 1732.12 3977 1731.12C3960.77 1712.29 3945.19 1692.82 3927.87 1675.03C3918.62 1665.52 3908.79 1655.39 3894.84 1651.87C3893.47 1651.52 3892.22 1650.51 3891 1649.69C3881.88 1643.57 3873.13 1636.83 3863.62 1631.41C3846.18 1621.47 3828.33 1612.25 3810.6 1602.82C3795.19 1594.63 3779.66 1586.68 3764.33 1578.36C3760.42 1576.24 3756.73 1573.47 3753.49 1570.41C3740.55 1558.16 3727.51 1545.99 3715.13 1533.18C3705.95 1523.67 3697.5 1513.41 3689.14 1503.15C3679.12 1490.86 3670.25 1477.57 3659.61 1465.87C3643.55 1448.2 3627.04 1430.82 3609.47 1414.69C3598.1 1404.25 3584.6 1396.07 3571.81 1387.25C3568.63 1385.06 3567.72 1383.04 3569.38 1379.88C3571.22 1376.37 3573.31 1372.99 3576.21 1367.97C3581.83 1379.05 3589.95 1383.05 3600.04 1382.34C3603.24 1382.11 3606.43 1380 3609.35 1378.29C3612.36 1376.52 3615.4 1374.52 3617.77 1371.99C3620.6 1368.97 3622.73 1365.29 3625.02 1362.09C3630.37 1362.09 3636.43 1362.42 3642.42 1361.94C3644.98 1361.74 3647.96 1360.42 3649.78 1358.62C3652.42 1356.03 3654.62 1355.51 3658.2 1356.49C3665.46 1358.48 3672.6 1358.84 3677.86 1351.58C3678.73 1350.37 3681.49 1349.3 3682.71 1349.8C3687.16 1351.63 3689.3 1348.97 3691.74 1346.25C3695.24 1342.33 3698.88 1338.53 3702.41 1334.63C3704.6 1332.2 3705.97 1329.75 3702.7 1326.95C3699.38 1324.11 3697.48 1327.05 3695.5 1328.67C3690.79 1332.52 3686.6 1337.06 3681.66 1340.56C3675.44 1344.97 3668.71 1348.76 3659.79 1342.17C3678.53 1335.36 3693.82 1324.82 3703.34 1306.91C3704.39 1312.59 3701.58 1318.82 3709.38 1322.94C3710.27 1319.03 3711.07 1315.64 3711.83 1312.23C3712.35 1309.87 3712.49 1307.37 3713.38 1305.16C3714.79 1301.67 3714.74 1298.97 3713.04 1295.21C3711.78 1292.45 3713.47 1287.69 3715.08 1284.44C3717.48 1279.58 3719.56 1274.95 3718.3 1269.43C3713.45 1272.13 3708.6 1274.83 3703.83 1277.48C3702.07 1270.56 3700.07 1262.66 3698.06 1254.76C3698.58 1254.6 3699.1 1254.45 3699.62 1254.29C3700.55 1255.14 3701.48 1255.99 3702.84 1257.24C3703.7 1252.4 3704.43 1248.25 3705.44 1242.5C3707.39 1244.96 3709.17 1246.29 3708.96 1247.08C3707.04 1254.14 3712.47 1257.93 3715.47 1262.83C3716.72 1264.86 3717.32 1267.28 3718.22 1269.52C3723.55 1263.77 3725.42 1257.15 3724 1249.33C3722.92 1243.47 3722.48 1237.48 3722.07 1231.53C3721.97 1230.15 3723.11 1228.68 3724.26 1225.8C3731.52 1240.39 3734.87 1254.14 3734.06 1268.83C3733.84 1272.8 3734.51 1275.31 3737.65 1274.03C3739.89 1269.81 3740.89 1266.32 3743.13 1264.07C3746.79 1260.43 3747.51 1257.03 3747.28 1251.72C3746.99 1245.33 3748.43 1237.79 3751.87 1232.55C3757.88 1223.39 3755.91 1213.91 3753.22 1205.81C3749.94 1195.95 3742.8 1187.34 3737.12 1178.32C3736.09 1176.68 3733.87 1175.84 3732.48 1174.37C3730.83 1172.64 3729.48 1170.62 3728.75 1167.93C3736.6 1172.72 3745.57 1175.23 3751.39 1183.13C3759.43 1194.03 3763.57 1206.67 3768.84 1218.83C3769.5 1220.35 3770.46 1221.75 3771.28 1223.2L3771.25 1223.24C3773.75 1215.37 3773.72 1207.82 3768.75 1200.75C3767.6 1199.1 3766.57 1197.24 3765.99 1195.32C3761.28 1179.73 3753.69 1166.03 3740.07 1156.49C3734.83 1152.83 3729.29 1149.34 3723.42 1146.89C3720.61 1145.71 3716.71 1147.13 3714.2 1147.32C3715.97 1139.3 3717.82 1131.44 3719.32 1123.52C3719.51 1122.5 3717.9 1121.15 3716.28 1118.63C3715.49 1121.89 3715.22 1123.81 3714.53 1125.58C3713.99 1126.96 3713 1129.12 3712.1 1129.18C3710.82 1129.26 3709.06 1128 3708.2 1126.81C3707.28 1125.53 3707.23 1123.65 3706.68 1122.07C3703.84 1113.92 3702.4 1105.06 3692.93 1100.89C3691.09 1100.08 3690.77 1095.83 3689.54 1092.63C3695.19 1091.97 3694 1088.58 3693.7 1085.08C3693.21 1079.17 3689.15 1073.74 3691.52 1067.35C3691.88 1066.37 3689.78 1064.33 3688.61 1062.97C3686.34 1060.33 3682.89 1058.39 3683.9 1054.01C3684 1053.57 3683.64 1052.88 3683.29 1052.52C3676.74 1045.8 3673.97 1037.18 3671 1028.63C3670.33 1026.71 3669.3 1024.91 3668.43 1023.04C3672.55 1017.79 3671.86 1014.29 3665.95 1010.37C3665.05 1009.77 3663.7 1009.23 3663.44 1008.39C3661.13 1001.1 3658.63 993.838 3656.98 986.394C3655.49 979.703 3657.13 978.598 3664.27 980.188C3665.78 987.712 3670.01 991.477 3677.79 991.318C3678.03 993.915 3678.69 996.616 3678.45 999.232C3677.66 1007.64 3677.54 1007.63 3685.06 1011.42C3682.61 1013.85 3680.28 1016.49 3683.97 1019.63C3684.4 1019.99 3684.59 1021.16 3684.35 1021.73C3681.38 1028.6 3686.96 1033.01 3689.03 1038.42C3689.92 1040.73 3690.65 1043.1 3691.47 1045.51C3689.16 1046.17 3687.74 1046.57 3686.32 1046.98C3686.32 1047.34 3686.32 1047.7 3686.32 1048.06C3687.42 1048.24 3688.67 1048.16 3689.57 1048.68C3690.97 1049.5 3692.71 1050.5 3693.28 1051.85C3694.6 1055.04 3695.28 1058.49 3696.28 1061.81C3696.76 1063.4 3697.82 1064.95 3697.84 1066.52C3697.92 1072.93 3702.69 1073.9 3709 1076.02C3707.29 1069.41 3706.17 1063.87 3704.43 1058.54C3699.85 1044.5 3694.9 1030.57 3690.32 1016.53C3688.79 1011.83 3687.98 1006.9 3686.75 1002.1C3686.43 1000.85 3686.1 999.142 3685.2 998.575C3678.75 994.542 3679.39 986.997 3676.36 981.305C3674.89 978.559 3674.01 975.355 3672.06 973.036C3662.82 962.027 3653.58 950.976 3643.78 940.473C3634.09 930.099 3623.73 920.348 3613.62 910.37C3612.57 909.331 3611.28 908.458 3609.97 907.743C3599.86 902.195 3589.72 896.687 3579.58 891.199C3569.32 885.656 3559.42 879.189 3548.67 874.862C3533.8 868.879 3519.94 860.351 3503.76 857.495C3491.87 855.394 3480.09 853.523 3467.95 854.024C3462.37 854.252 3456.72 853.601 3451.16 852.879C3448.74 852.566 3446.54 850.844 3444.13 850.183C3442.33 849.692 3440.17 849.325 3438.47 849.861C3436.98 850.332 3435.51 850.877 3434.05 851.343V1019.46Z" fill="#BAA989"/>
<path d="M2889.14 1787.25C2879.7 1789.47 2870.15 1790.64 2861.96 1797.06C2856.78 1801.12 2849.5 1799.69 2843.24 1797.37C2840.09 1796.2 2839.69 1792.89 2842.45 1790.95C2844.06 1789.82 2846.09 1789.19 2848.01 1788.58C2852.74 1787.09 2857.5 1785.72 2862.26 1784.35C2863.27 1784.06 2864.86 1783.47 2865.28 1783.9C2868.99 1787.63 2872.29 1784.52 2876 1784.02C2880.25 1783.44 2884.79 1785 2889.21 1785.63C2889.19 1786.17 2889.16 1786.71 2889.14 1787.25Z" fill="#FEFEFE"/>
<path d="M2865.1 1743.31C2871.15 1742.6 2876.32 1741.22 2881.32 1741.68C2884.64 1741.99 2887.72 1744.94 2891.36 1746.95C2886.08 1749.6 2869.87 1747.4 2865.1 1743.31Z" fill="#FEFEFE"/>
<path d="M2831.1 1805.07C2831.62 1808.9 2832.15 1812.73 2832.68 1816.56C2831.84 1816.68 2831 1816.79 2830.16 1816.91C2829.57 1813.13 2828.98 1809.35 2828.39 1805.57C2829.29 1805.4 2830.19 1805.23 2831.1 1805.07Z" fill="#FEFEFE"/>
<path d="M3597.19 1803.95C3596.67 1801.23 3596.07 1798.52 3595.77 1795.77C3595.74 1795.48 3597.5 1795 3598.42 1794.61C3598.98 1797.57 3599.54 1800.54 3600.09 1803.5C3599.13 1803.65 3598.16 1803.8 3597.19 1803.95Z" fill="#FEFEFE"/>
<path d="M3601.42 1764.78C3601.84 1762.18 3602.27 1759.57 3602.69 1756.97C3603.52 1757.1 3604.36 1757.23 3605.19 1757.36C3604.76 1759.95 3604.33 1762.53 3603.89 1765.11C3603.07 1765 3602.24 1764.89 3601.42 1764.78Z" fill="#FEFEFE"/>
</g>
<defs>
<filter id="filter0_d_20_3" x="386" y="-16" width="3068" height="2200" filterUnits="userSpaceOnUse" color-interpolation-filters="sRGB">
<feFlood flood-opacity="0" result="BackgroundImageFix"/>
<feColorMatrix in="SourceAlpha" type="matrix" values="0 0 0 0 0 0 0 0 0 0 0 0 0 0 0 0 0 0 127 0" result="hardAlpha"/>
<feOffset dy="4"/>
<feGaussianBlur stdDeviation="10"/>
<feComposite in2="hardAlpha" operator="out"/>
<feColorMatrix type="matrix" values="0 0 0 0 0 0 0 0 0 0 0 0 0 0 0 0 0 0 0.3 0"/>
<feBlend mode="normal" in2="BackgroundImageFix" result="effect1_dropShadow_20_3"/>
<feBlend mode="normal" in="SourceGraphic" in2="effect1_dropShadow_20_3" result="shape"/>
</filter>
</defs>
</svg>
