<svg width="366" height="139" viewBox="0 0 366 139" fill="none" xmlns="http://www.w3.org/2000/svg">
<rect x="2" y="2" width="362" height="135" rx="28" fill="white" stroke="#C9C9C9" stroke-width="4"/>
<path d="M116.344 56.1016V68.2041H132.533V56.1016H136.91V85H132.533V71.9746H116.344V85H111.967V56.1016H116.344ZM163.963 85L163.093 80.8867H162.882C161.44 82.6973 159.999 83.9277 158.558 84.5781C157.134 85.2109 155.35 85.5273 153.205 85.5273C150.34 85.5273 148.09 84.7891 146.455 83.3125C144.838 81.8359 144.029 79.7354 144.029 77.0107C144.029 71.1748 148.696 68.1162 158.03 67.835L162.935 67.6768V65.8838C162.935 63.6162 162.442 61.9463 161.458 60.874C160.491 59.7842 158.936 59.2393 156.791 59.2393C154.383 59.2393 151.658 59.9775 148.617 61.4541L147.272 58.1055C148.696 57.332 150.252 56.7256 151.939 56.2861C153.645 55.8467 155.35 55.627 157.055 55.627C160.5 55.627 163.049 56.3916 164.701 57.9209C166.371 59.4502 167.206 61.9023 167.206 65.2773V85H163.963ZM154.075 81.915C156.8 81.915 158.936 81.168 160.482 79.6738C162.047 78.1797 162.829 76.0879 162.829 73.3984V70.7881L158.452 70.9727C154.972 71.0957 152.458 71.6406 150.911 72.6074C149.382 73.5566 148.617 75.042 148.617 77.0635C148.617 78.6455 149.092 79.8496 150.041 80.6758C151.008 81.502 152.353 81.915 154.075 81.915ZM181.761 68.0986C187.228 68.0986 189.961 66.5869 189.961 63.5635C189.961 60.7158 187.746 59.292 183.316 59.292C181.963 59.292 180.732 59.415 179.625 59.6611C178.518 59.9072 177.067 60.3994 175.274 61.1377L173.719 57.5781C176.707 56.2422 179.968 55.5742 183.501 55.5742C186.823 55.5742 189.442 56.2598 191.358 57.6309C193.274 58.9844 194.232 60.8389 194.232 63.1943C194.232 66.4287 192.431 68.5469 188.827 69.5488V69.7598C191.042 70.4102 192.659 71.3418 193.679 72.5547C194.698 73.75 195.208 75.2529 195.208 77.0635C195.208 79.7354 194.127 81.8184 191.965 83.3125C189.82 84.7891 186.85 85.5273 183.053 85.5273C178.887 85.5273 175.67 84.9033 173.402 83.6553V79.6475C176.619 81.1592 179.871 81.915 183.158 81.915C185.689 81.915 187.597 81.4844 188.88 80.623C190.181 79.7441 190.831 78.4873 190.831 76.8525C190.831 73.4951 188.098 71.8164 182.631 71.8164H178.623V68.0986H181.761ZM220.125 85L219.255 80.8867H219.044C217.603 82.6973 216.161 83.9277 214.72 84.5781C213.296 85.2109 211.512 85.5273 209.367 85.5273C206.502 85.5273 204.252 84.7891 202.617 83.3125C201 81.8359 200.191 79.7354 200.191 77.0107C200.191 71.1748 204.858 68.1162 214.192 67.835L219.097 67.6768V65.8838C219.097 63.6162 218.604 61.9463 217.62 60.874C216.653 59.7842 215.098 59.2393 212.953 59.2393C210.545 59.2393 207.82 59.9775 204.779 61.4541L203.435 58.1055C204.858 57.332 206.414 56.7256 208.102 56.2861C209.807 55.8467 211.512 55.627 213.217 55.627C216.662 55.627 219.211 56.3916 220.863 57.9209C222.533 59.4502 223.368 61.9023 223.368 65.2773V85H220.125ZM210.237 81.915C212.962 81.915 215.098 81.168 216.645 79.6738C218.209 78.1797 218.991 76.0879 218.991 73.3984V70.7881L214.614 70.9727C211.134 71.0957 208.62 71.6406 207.073 72.6074C205.544 73.5566 204.779 75.042 204.779 77.0635C204.779 78.6455 205.254 79.8496 206.203 80.6758C207.17 81.502 208.515 81.915 210.237 81.915ZM257.514 94.9932H253.269V85H233.071V94.9932H228.853V81.2295H231.12C233.476 78.0303 235.321 74.2773 236.657 69.9707C237.993 65.6641 238.688 61.041 238.74 56.1016H253.374V81.2295H257.514V94.9932ZM249.155 81.2295V59.5557H242.669C242.44 63.458 241.685 67.4131 240.401 71.4209C239.136 75.4111 237.554 78.6807 235.655 81.2295H249.155Z" fill="#C9C9C9"/>
</svg>
