<svg width="943" height="1326" viewBox="0 0 943 1326" fill="none" xmlns="http://www.w3.org/2000/svg">
<g filter="url(#filter0_d_1_6810)">
<rect x="25" y="1158" width="893" height="139" rx="35" fill="#EFC26D"/>
</g>
<circle cx="59.5" cy="1228.5" r="10.5" fill="#181E21"/>
<circle cx="883.5" cy="1228.5" r="10.5" fill="#181E21"/>
<path d="M182.783 1235.43H184.607L183.999 1252H182.023C182.023 1251.85 181.997 1251.65 181.947 1251.39C181.896 1251.14 181.82 1250.89 181.719 1250.63C181.567 1250.18 181.313 1249.8 180.959 1249.49C180.655 1249.14 180.199 1248.96 179.591 1248.96C179.084 1248.96 178.552 1249.09 177.995 1249.34C177.488 1249.54 176.956 1249.82 176.399 1250.18C176.145 1250.33 175.841 1250.51 175.487 1250.71C175.132 1250.91 174.701 1251.11 174.195 1251.32C173.333 1251.67 172.269 1252 171.003 1252.3C169.787 1252.61 168.368 1252.76 166.747 1252.76C161.173 1252.76 156.411 1250.68 152.459 1246.53C148.557 1242.37 146.379 1236.98 145.923 1230.34C145.923 1229.93 145.897 1229.53 145.847 1229.12C145.847 1228.72 145.847 1228.31 145.847 1227.91C145.847 1227.5 145.847 1227.1 145.847 1226.69C145.897 1226.29 145.923 1225.88 145.923 1225.48C146.379 1218.74 148.633 1213.04 152.687 1208.38C156.74 1203.71 161.933 1201.38 168.267 1201.38C169.533 1201.38 170.673 1201.51 171.687 1201.76C172.7 1202.02 173.612 1202.27 174.423 1202.52C175.233 1202.83 175.968 1203.11 176.627 1203.36C177.285 1203.61 177.868 1203.74 178.375 1203.74C178.577 1203.74 178.805 1203.74 179.059 1203.74C179.312 1203.69 179.591 1203.59 179.895 1203.44C180.199 1203.28 180.477 1203.06 180.731 1202.75C180.984 1202.45 181.212 1201.99 181.415 1201.38H183.239L183.391 1217.57H181.719C181.212 1213.16 180.021 1209.62 178.147 1206.93C176.323 1204.2 173.181 1202.83 168.723 1202.83C168.013 1202.83 167.228 1202.9 166.367 1203.06C165.556 1203.21 164.695 1203.49 163.783 1203.89C161.705 1204.8 159.805 1206.65 158.083 1209.44C156.36 1212.18 155.499 1216.43 155.499 1222.21V1234.52C155.499 1239.18 156.259 1242.7 157.779 1245.08C159.349 1247.47 161.072 1249.11 162.947 1250.02C164.011 1250.58 165.024 1250.96 165.987 1251.16C167 1251.32 167.861 1251.39 168.571 1251.39C169.027 1251.39 169.483 1251.37 169.939 1251.32C170.445 1251.27 170.952 1251.19 171.459 1251.09C173.789 1250.48 176.019 1249.01 178.147 1246.68C180.275 1244.35 181.82 1240.6 182.783 1235.43ZM204.279 1223.96H211.575C214.767 1223.96 216.768 1223.2 217.579 1221.68C218.389 1220.11 218.972 1217.67 219.327 1214.38C219.377 1214.18 219.403 1213.97 219.403 1213.77C219.453 1213.57 219.479 1213.37 219.479 1213.16C219.479 1213.06 219.479 1212.99 219.479 1212.94C219.529 1212.83 219.555 1212.73 219.555 1212.63C219.96 1208.78 220.619 1205.94 221.531 1204.12C222.443 1202.3 224.672 1201.38 228.219 1201.38C230.144 1201.38 231.791 1202.04 233.159 1203.36C234.577 1204.63 235.287 1206.15 235.287 1207.92C235.287 1208.17 235.261 1208.45 235.211 1208.76C235.211 1209.01 235.16 1209.29 235.059 1209.59C234.856 1210.5 234.375 1211.37 233.615 1212.18C232.905 1212.94 231.816 1213.32 230.347 1213.32C229.181 1213.32 228.219 1213.04 227.459 1212.48C226.749 1211.87 226.268 1211.24 226.015 1210.58C225.964 1210.43 225.913 1210.28 225.863 1210.12C225.863 1209.97 225.863 1209.82 225.863 1209.67C225.863 1209.11 225.913 1208.55 226.015 1208C226.167 1207.39 226.344 1206.7 226.547 1205.94C226.597 1205.69 226.623 1205.46 226.623 1205.26C226.623 1205.01 226.623 1204.75 226.623 1204.5C226.623 1204.45 226.623 1204.37 226.623 1204.27C226.623 1204.17 226.623 1204.09 226.623 1204.04C226.623 1203.89 226.521 1203.77 226.319 1203.66C226.167 1203.56 225.964 1203.49 225.711 1203.44C225.66 1203.44 225.584 1203.44 225.483 1203.44C225.381 1203.44 225.305 1203.44 225.255 1203.44C224.089 1203.44 223.228 1204.04 222.671 1205.26C222.113 1206.43 221.733 1207.74 221.531 1209.21C221.429 1209.87 221.353 1210.55 221.303 1211.26C221.252 1211.92 221.201 1212.51 221.151 1213.01C221.151 1213.21 221.125 1213.42 221.075 1213.62C221.075 1213.77 221.075 1213.92 221.075 1214.08C220.821 1216.96 220.391 1219.29 219.783 1221.07C219.175 1222.84 217.655 1224.01 215.223 1224.56V1224.94C215.425 1224.99 215.628 1225.05 215.831 1225.1C216.033 1225.1 216.211 1225.12 216.363 1225.17C216.616 1225.22 216.869 1225.27 217.123 1225.32C217.376 1225.37 217.629 1225.4 217.883 1225.4C219.859 1225.75 221.759 1226.29 223.583 1227C225.457 1227.65 227.053 1229.3 228.371 1231.94C228.827 1232.9 229.156 1234.09 229.359 1235.51C229.612 1236.88 229.789 1238.29 229.891 1239.76C229.941 1240.02 229.967 1240.27 229.967 1240.52C230.017 1240.78 230.043 1241.06 230.043 1241.36C230.043 1241.46 230.043 1241.59 230.043 1241.74C230.093 1241.84 230.119 1241.97 230.119 1242.12C230.271 1244.3 230.499 1246.2 230.803 1247.82C231.107 1249.44 231.74 1250.25 232.703 1250.25C233.159 1250.25 233.64 1250.2 234.147 1250.1C234.653 1250 235.16 1249.77 235.667 1249.42C235.971 1249.26 236.249 1249.06 236.503 1248.81C236.756 1248.55 237.009 1248.28 237.263 1247.97L238.403 1249.04C237.997 1249.49 237.592 1249.9 237.187 1250.25C236.781 1250.61 236.376 1250.94 235.971 1251.24C235.16 1251.75 234.349 1252.13 233.539 1252.38C232.728 1252.63 231.841 1252.76 230.879 1252.76C226.521 1252.76 223.709 1251.49 222.443 1248.96C221.227 1246.38 220.517 1243.54 220.315 1240.45C220.315 1239.99 220.289 1239.51 220.239 1239C220.239 1238.5 220.213 1238.02 220.163 1237.56C220.163 1237.41 220.163 1237.26 220.163 1237.1C220.163 1236.95 220.163 1236.8 220.163 1236.65C220.163 1236.09 220.112 1235.36 220.011 1234.44C219.96 1233.48 219.783 1232.49 219.479 1231.48C219.073 1229.96 218.263 1228.59 217.047 1227.38C215.881 1226.11 214.057 1225.48 211.575 1225.48H204.279V1250.48H210.131V1252H189.915V1250.48H195.767V1203.74H189.915V1202.22H210.131V1203.74H204.279V1223.96ZM268.758 1235.28L278.106 1211.42C278.156 1211.31 278.207 1211.19 278.258 1211.04C278.308 1210.88 278.359 1210.73 278.41 1210.58C278.46 1210.38 278.511 1210.17 278.562 1209.97C278.663 1209.72 278.739 1209.47 278.79 1209.21C278.891 1208.76 278.967 1208.33 279.018 1207.92C279.119 1207.51 279.17 1207.16 279.17 1206.86C279.17 1205.94 278.891 1205.18 278.334 1204.58C277.776 1203.97 276.915 1203.66 275.75 1203.66H274.686V1202.22H287.606V1203.66C287.302 1203.66 286.795 1203.71 286.086 1203.82C285.376 1203.92 284.616 1204.22 283.806 1204.73C283.248 1205.13 282.716 1205.64 282.21 1206.25C281.703 1206.86 281.247 1207.67 280.842 1208.68L270.126 1236.42C270.024 1236.62 269.923 1236.83 269.822 1237.03C269.771 1237.18 269.72 1237.33 269.67 1237.48C269.67 1237.48 269.644 1237.51 269.594 1237.56C269.594 1237.61 269.594 1237.64 269.594 1237.64C269.391 1238.04 269.138 1238.52 268.834 1239.08C268.58 1239.64 268.15 1240.55 267.542 1241.82C265.515 1246.27 263.564 1249.21 261.69 1250.63C259.866 1252.05 258.067 1252.76 256.294 1252.76C253.406 1252.76 250.948 1251.9 248.922 1250.18C246.895 1248.45 245.882 1246.4 245.882 1244.02C245.882 1242.4 246.312 1241.01 247.174 1239.84C248.035 1238.62 249.276 1238.02 250.898 1238.02C252.367 1238.02 253.532 1238.42 254.394 1239.23C255.255 1239.99 255.736 1240.85 255.838 1241.82C255.888 1241.87 255.914 1241.94 255.914 1242.04C255.914 1242.15 255.914 1242.25 255.914 1242.35C255.914 1242.4 255.914 1242.47 255.914 1242.58C255.914 1242.68 255.888 1242.75 255.838 1242.8C255.787 1243.11 255.686 1243.44 255.534 1243.79C255.432 1244.1 255.306 1244.37 255.154 1244.63C255.002 1244.83 254.85 1245.03 254.698 1245.24C254.596 1245.39 254.52 1245.49 254.47 1245.54C254.368 1245.69 254.216 1245.82 254.014 1245.92C253.862 1246.02 253.71 1246.12 253.558 1246.22C253.507 1246.27 253.456 1246.33 253.406 1246.38C253.355 1246.38 253.304 1246.4 253.254 1246.45C252.848 1246.65 252.468 1246.93 252.114 1247.29C251.81 1247.59 251.658 1248 251.658 1248.5C251.658 1249.21 252.114 1249.87 253.026 1250.48C253.938 1251.09 255.23 1251.39 256.902 1251.39C258.371 1251.39 259.587 1250.89 260.55 1249.87C261.512 1248.81 262.374 1247.64 263.134 1246.38C263.286 1246.12 263.412 1245.89 263.514 1245.69C263.666 1245.44 263.818 1245.19 263.97 1244.93L244.514 1203.66H239.27V1202.22H260.17V1203.66H253.786L268.758 1235.28ZM304.103 1203.66V1250.48H309.423V1252H289.739V1250.48H295.591V1203.66H289.739V1202.22H340.887V1203.66H335.035V1250.48H340.887V1252H321.203V1250.48H326.523V1203.66H304.103ZM347.866 1227.07C347.866 1219.78 350.02 1213.92 354.326 1209.52C358.684 1205.06 363.446 1202.42 368.614 1201.61C369.172 1201.56 369.704 1201.51 370.21 1201.46C370.768 1201.41 371.3 1201.38 371.806 1201.38C377.988 1201.38 383.536 1203.79 388.45 1208.6C393.365 1213.42 395.822 1219.57 395.822 1227.07C395.822 1234.11 393.846 1239.76 389.894 1244.02C385.993 1248.28 381.686 1250.96 376.974 1252.08C376.113 1252.33 375.252 1252.51 374.39 1252.61C373.529 1252.71 372.668 1252.76 371.806 1252.76C370.54 1252.76 369.172 1252.61 367.702 1252.3C366.284 1252.05 364.814 1251.62 363.294 1251.01C359.444 1249.34 355.897 1246.55 352.654 1242.65C349.462 1238.75 347.866 1233.56 347.866 1227.07ZM371.806 1202.83C371.198 1202.83 370.565 1202.88 369.906 1202.98C369.248 1203.08 368.589 1203.23 367.93 1203.44C365.296 1204.25 362.889 1206.37 360.71 1209.82C358.532 1213.27 357.442 1219.02 357.442 1227.07C357.442 1235.08 358.506 1240.8 360.634 1244.25C362.813 1247.69 365.194 1249.85 367.778 1250.71C368.488 1250.96 369.172 1251.14 369.83 1251.24C370.489 1251.34 371.148 1251.39 371.806 1251.39C372.465 1251.39 373.124 1251.34 373.782 1251.24C374.492 1251.14 375.201 1250.96 375.91 1250.71C378.494 1249.8 380.85 1247.62 382.978 1244.17C385.157 1240.73 386.246 1235.03 386.246 1227.07C386.246 1219.78 385.334 1214.43 383.51 1211.04C381.686 1207.64 379.685 1205.36 377.506 1204.2C376.493 1203.64 375.48 1203.28 374.466 1203.13C373.504 1202.93 372.617 1202.83 371.806 1202.83ZM417.212 1243.18L439.632 1208.68V1203.74H434.312V1202.22H453.996V1203.74H448.144V1250.48H453.996V1252H434.312V1250.48H439.632V1211.42L417.212 1246.3V1250.48H422.532V1252H402.848V1250.48H408.7V1203.74H402.848V1202.22H422.532V1203.74H417.212V1243.18ZM428.384 1199.18C424.483 1199.18 421.418 1198.42 419.188 1196.9C417.01 1195.33 415.92 1193.45 415.92 1191.28C415.92 1190.06 416.275 1189.1 416.984 1188.39C417.694 1187.68 418.479 1187.22 419.34 1187.02C419.492 1186.97 419.67 1186.94 419.872 1186.94C420.075 1186.89 420.252 1186.87 420.404 1186.87C421.722 1186.87 422.71 1187.32 423.368 1188.24C424.027 1189.1 424.356 1190.06 424.356 1191.12C424.356 1191.68 424.23 1192.11 423.976 1192.42C423.774 1192.72 423.52 1193 423.216 1193.25C423.216 1193.25 423.191 1193.28 423.14 1193.33C423.14 1193.33 423.115 1193.35 423.064 1193.4C423.014 1193.45 422.938 1193.51 422.836 1193.56C422.786 1193.61 422.735 1193.66 422.684 1193.71C422.482 1193.91 422.304 1194.16 422.152 1194.47C422 1194.72 421.924 1195 421.924 1195.3C421.924 1196.01 422.304 1196.55 423.064 1196.9C423.824 1197.2 424.66 1197.43 425.572 1197.58C426.028 1197.63 426.434 1197.69 426.788 1197.74C427.194 1197.74 427.574 1197.74 427.928 1197.74C428.03 1197.74 428.106 1197.74 428.156 1197.74C428.258 1197.74 428.359 1197.74 428.46 1197.74C428.511 1197.74 428.587 1197.74 428.688 1197.74C428.79 1197.74 428.866 1197.74 428.916 1197.74C429.17 1197.74 429.448 1197.74 429.752 1197.74C430.056 1197.69 430.36 1197.66 430.664 1197.66C431.728 1197.56 432.691 1197.36 433.552 1197.05C434.464 1196.75 434.92 1196.17 434.92 1195.3C434.92 1195 434.844 1194.75 434.692 1194.54C434.591 1194.29 434.464 1194.09 434.312 1193.94C434.211 1193.78 434.11 1193.66 434.008 1193.56C433.907 1193.45 433.831 1193.38 433.78 1193.33C433.73 1193.28 433.654 1193.23 433.552 1193.18C433.451 1193.07 433.375 1193 433.324 1192.95C433.071 1192.75 432.843 1192.52 432.64 1192.26C432.488 1191.96 432.412 1191.58 432.412 1191.12C432.412 1190.01 432.767 1189.02 433.476 1188.16C434.186 1187.3 435.148 1186.87 436.364 1186.87C436.466 1186.87 436.567 1186.87 436.668 1186.87C436.82 1186.87 436.947 1186.89 437.048 1186.94C438.011 1187.1 438.898 1187.55 439.708 1188.31C440.519 1189.02 440.924 1190.01 440.924 1191.28C440.924 1193.86 439.632 1195.84 437.048 1197.2C434.464 1198.52 431.576 1199.18 428.384 1199.18ZM492.864 1250.48V1203.66H487.012V1202.22H508.9C509.964 1202.22 511.256 1202.3 512.776 1202.45C514.296 1202.6 515.867 1202.93 517.488 1203.44C520.174 1204.25 522.656 1205.72 524.936 1207.84C527.216 1209.92 528.356 1213.09 528.356 1217.34C528.356 1221.04 527.039 1224.46 524.404 1227.6C521.77 1230.69 516.576 1232.24 508.824 1232.24H501.376V1250.48H507.228V1252H487.012V1250.48H492.864ZM501.376 1230.8H506.62C510.319 1230.8 513.004 1230.14 514.676 1228.82C516.348 1227.5 517.463 1226.03 518.02 1224.41C518.274 1223.7 518.451 1222.99 518.552 1222.28C518.654 1221.52 518.73 1220.87 518.78 1220.31C518.78 1219.85 518.78 1219.4 518.78 1218.94C518.78 1218.48 518.78 1218 518.78 1217.5C518.78 1217.34 518.78 1217.19 518.78 1217.04C518.78 1216.89 518.78 1216.74 518.78 1216.58C518.78 1216.28 518.78 1215.98 518.78 1215.67C518.78 1215.37 518.78 1215.06 518.78 1214.76C518.78 1214.2 518.73 1213.47 518.628 1212.56C518.578 1211.64 518.375 1210.71 518.02 1209.74C517.463 1208.22 516.323 1206.83 514.6 1205.56C512.928 1204.3 510.268 1203.66 506.62 1203.66H501.376V1230.8ZM549.099 1224.49H555.635C556.75 1224.49 558.042 1224.54 559.511 1224.64C560.98 1224.69 562.475 1224.87 563.995 1225.17C566.984 1225.73 569.72 1226.92 572.203 1228.74C574.686 1230.57 575.927 1233.53 575.927 1237.64C575.927 1242.7 574.559 1246.2 571.823 1248.12C569.087 1250.05 566.098 1251.24 562.855 1251.7C561.74 1251.8 560.626 1251.87 559.511 1251.92C558.447 1251.97 557.434 1252 556.471 1252H534.735V1250.48H540.587V1203.66H534.735V1202.14L554.951 1202.22V1203.66H549.099V1224.49ZM549.099 1250.48H558.219C560.651 1250.48 562.424 1250 563.539 1249.04C564.654 1248.02 565.414 1246.91 565.819 1245.69C566.022 1245.08 566.148 1244.5 566.199 1243.94C566.3 1243.34 566.351 1242.8 566.351 1242.35V1236.5C566.351 1233.56 565.768 1231.07 564.603 1229.05C563.438 1226.97 560.524 1225.93 555.863 1225.93H549.099V1250.48ZM585.655 1250.48V1203.66H579.803V1202.22H599.487V1203.66H594.167V1250.48H599.487V1252H579.803V1250.48H585.655ZM642.317 1250.48V1203.66H636.997V1202.22H656.605V1203.66H650.829V1250.48H656.377L658.201 1265.83H656.377C655.566 1260.82 653.843 1257.24 651.209 1255.12C648.625 1253.04 644.622 1252 639.201 1252H605.837V1250.48H611.689V1203.66H605.837V1202.22H625.521V1203.66H620.201V1250.48H642.317ZM692.623 1250.48L686.999 1235.13H672.103L669.367 1241.89C669.266 1242.09 669.165 1242.32 669.063 1242.58C668.962 1242.83 668.861 1243.08 668.759 1243.34C668.557 1243.79 668.354 1244.32 668.151 1244.93C667.999 1245.54 667.923 1246.2 667.923 1246.91C667.923 1247.92 668.202 1248.76 668.759 1249.42C669.317 1250.02 670.659 1250.38 672.787 1250.48V1252H659.867V1250.48C661.235 1250.38 662.401 1249.9 663.363 1249.04C664.377 1248.17 665.137 1247.24 665.643 1246.22C665.745 1246.07 665.821 1245.92 665.871 1245.77C665.973 1245.62 666.049 1245.46 666.099 1245.31L682.895 1202.22H684.263L701.591 1250.48H706.759V1252H685.859V1250.48H692.623ZM686.467 1233.61L679.931 1214.76L672.483 1233.61H686.467ZM715.817 1250.48V1203.66H709.965V1202.22H731.853C732.917 1202.22 734.209 1202.3 735.729 1202.45C737.249 1202.6 738.82 1202.93 740.441 1203.44C743.127 1204.25 745.609 1205.72 747.889 1207.84C750.169 1209.92 751.309 1213.09 751.309 1217.34C751.309 1221.04 749.992 1224.46 747.357 1227.6C744.723 1230.69 739.529 1232.24 731.777 1232.24H724.329V1250.48H730.181V1252H709.965V1250.48H715.817ZM724.329 1230.8H729.573C733.272 1230.8 735.957 1230.14 737.629 1228.82C739.301 1227.5 740.416 1226.03 740.973 1224.41C741.227 1223.7 741.404 1222.99 741.505 1222.28C741.607 1221.52 741.683 1220.87 741.733 1220.31C741.733 1219.85 741.733 1219.4 741.733 1218.94C741.733 1218.48 741.733 1218 741.733 1217.5C741.733 1217.34 741.733 1217.19 741.733 1217.04C741.733 1216.89 741.733 1216.74 741.733 1216.58C741.733 1216.28 741.733 1215.98 741.733 1215.67C741.733 1215.37 741.733 1215.06 741.733 1214.76C741.733 1214.2 741.683 1213.47 741.581 1212.56C741.531 1211.64 741.328 1210.71 740.973 1209.74C740.416 1208.22 739.276 1206.83 737.553 1205.56C735.881 1204.3 733.221 1203.66 729.573 1203.66H724.329V1230.8ZM772.052 1224.49H778.664C779.779 1224.49 781.096 1224.54 782.616 1224.64C784.136 1224.69 785.707 1224.89 787.328 1225.25C790.267 1225.86 792.927 1227.07 795.308 1228.9C797.74 1230.72 798.956 1233.63 798.956 1237.64C798.956 1242.8 797.563 1246.35 794.776 1248.28C791.989 1250.15 788.924 1251.29 785.58 1251.7C784.567 1251.85 783.528 1251.95 782.464 1252C781.451 1252 780.463 1252 779.5 1252H757.688V1250.48H763.54V1203.66H757.688V1202.22H777.904V1203.66H772.052V1224.49ZM772.052 1250.48H781.248C783.528 1250.48 785.225 1250.05 786.34 1249.19C787.455 1248.28 788.215 1247.26 788.62 1246.15C788.924 1245.39 789.101 1244.65 789.152 1243.94C789.253 1243.23 789.304 1242.7 789.304 1242.35L789.38 1236.5C789.431 1233.56 788.848 1231.07 787.632 1229.05C786.416 1226.97 783.477 1225.93 778.816 1225.93H772.052V1250.48Z" fill="#181E21"/>
<g filter="url(#filter1_d_1_6810)">
<rect x="25" y="931" width="893" height="139" rx="35" fill="#EFC26D"/>
</g>
<circle cx="59.5" cy="1001.5" r="10.5" fill="#181E21"/>
<circle cx="883.5" cy="1001.5" r="10.5" fill="#181E21"/>
<path d="M186.577 976.664H208.997V1023.48H203.677V1025H223.361V1023.48H217.509V976.664H223.361V975.22H172.213V976.664H178.065V1023.48H172.213V1025H191.897V1023.48H186.577V976.664ZM244.097 1016.18V976.74H249.417V975.22H229.733V976.74H235.585V1023.48H229.733V1025H249.417V1023.48H244.097V1019.3L266.517 984.416V1023.48H261.197V1025H280.881V1023.48H275.029V976.74H280.881V975.22H261.197V976.74H266.517V981.68L244.097 1016.18ZM301.617 996.956V976.74H307.469V975.22H287.253V976.74H293.105V1023.48H287.253V1025H307.469V1023.48H301.617V998.476H308.913C311.345 998.476 313.169 999.16 314.385 1000.38C315.601 1001.59 316.361 1002.96 316.817 1004.48C317.121 1005.54 317.273 1006.53 317.349 1007.44C317.425 1008.36 317.501 1009.12 317.501 1009.65V1010.1V1010.56C317.501 1011.02 317.577 1011.55 317.577 1012C317.577 1012.54 317.653 1012.99 317.653 1013.45C317.805 1016.56 318.565 1019.38 319.781 1021.96C320.997 1024.54 323.809 1025.76 328.217 1025.76C329.129 1025.76 330.041 1025.68 330.877 1025.38C331.637 1025.15 332.473 1024.77 333.309 1024.24C333.689 1023.94 334.069 1023.63 334.525 1023.25C334.905 1022.95 335.285 1022.49 335.741 1022.04L334.601 1020.97C334.297 1021.28 334.069 1021.58 333.841 1021.81C333.537 1022.11 333.309 1022.26 333.005 1022.42C332.473 1022.8 331.941 1023.02 331.485 1023.1C330.953 1023.25 330.497 1023.25 330.041 1023.25C329.053 1023.25 328.445 1022.49 328.141 1020.82C327.837 1019.22 327.609 1017.32 327.457 1015.12C327.457 1014.97 327.381 1014.89 327.381 1014.74C327.381 1014.59 327.381 1014.51 327.381 1014.36C327.381 1014.06 327.305 1013.83 327.305 1013.52C327.305 1013.3 327.229 1013.07 327.229 1012.76C327.077 1011.32 326.925 1009.88 326.697 1008.51C326.469 1007.14 326.165 1005.92 325.709 1004.94C324.341 1002.35 322.745 1000.68 320.921 999.996C319.097 999.312 317.197 998.78 315.221 998.4C314.917 998.4 314.689 998.4 314.461 998.324L313.701 998.172C313.549 998.172 313.321 998.096 313.169 998.096C312.941 998.096 312.713 998.02 312.561 997.944V997.564C314.993 997.032 316.513 995.892 317.121 994.068C317.729 992.32 318.109 989.964 318.413 987.076C318.413 986.924 318.413 986.772 318.413 986.62C318.413 986.468 318.489 986.24 318.489 986.012C318.489 985.556 318.565 984.948 318.641 984.264C318.641 983.58 318.717 982.896 318.869 982.212C319.021 980.768 319.401 979.476 320.009 978.26C320.541 977.044 321.377 976.436 322.593 976.436H322.821H323.049C323.277 976.512 323.505 976.588 323.657 976.664C323.809 976.816 323.961 976.892 323.961 977.044V977.272V977.5V978.26C323.961 978.488 323.885 978.716 323.885 978.944C323.657 979.704 323.505 980.388 323.353 980.996C323.201 981.604 323.201 982.136 323.201 982.668C323.201 982.82 323.201 982.972 323.201 983.124C323.201 983.276 323.277 983.428 323.353 983.58C323.581 984.264 324.037 984.872 324.797 985.48C325.557 986.088 326.469 986.316 327.685 986.316C329.129 986.316 330.193 985.936 330.953 985.176C331.713 984.416 332.169 983.504 332.397 982.592C332.473 982.288 332.549 982.06 332.549 981.756C332.549 981.452 332.625 981.224 332.625 980.92C332.625 979.172 331.865 977.652 330.497 976.36C329.129 975.068 327.457 974.384 325.557 974.384C321.985 974.384 319.781 975.296 318.869 977.12C317.957 978.944 317.273 981.832 316.893 985.632C316.893 985.784 316.817 985.86 316.817 985.936C316.817 986.012 316.817 986.088 316.817 986.164C316.817 986.392 316.741 986.62 316.741 986.772C316.741 987 316.665 987.228 316.665 987.38C316.285 990.724 315.677 993.156 314.917 994.676C314.081 996.196 312.105 996.956 308.913 996.956H301.617ZM340.407 1000.07C340.407 1006.61 342.003 1011.78 345.195 1015.65C348.387 1019.6 351.959 1022.34 355.835 1024.01C357.355 1024.62 358.799 1025.08 360.243 1025.38C361.687 1025.68 363.055 1025.76 364.347 1025.76C365.183 1025.76 366.019 1025.76 366.931 1025.61C367.767 1025.53 368.603 1025.38 369.515 1025.08C374.227 1024.01 378.483 1021.28 382.435 1017.02C386.387 1012.76 388.363 1007.14 388.363 1000.07C388.363 992.624 385.855 986.468 380.991 981.604C376.051 976.816 370.503 974.384 364.347 974.384C363.815 974.384 363.283 974.46 362.751 974.46C362.219 974.536 361.687 974.612 361.155 974.612C355.987 975.448 351.199 978.108 346.867 982.516C342.535 986.924 340.407 992.776 340.407 1000.07ZM364.347 975.828C365.107 975.828 366.019 975.98 367.007 976.132C367.995 976.284 368.983 976.664 370.047 977.196C372.175 978.412 374.227 980.692 376.051 984.036C377.875 987.456 378.787 992.776 378.787 1000.07C378.787 1008.05 377.647 1013.75 375.519 1017.17C373.391 1020.67 371.035 1022.8 368.451 1023.71C367.691 1024.01 367.007 1024.16 366.323 1024.24C365.639 1024.39 364.955 1024.39 364.347 1024.39C363.663 1024.39 362.979 1024.39 362.371 1024.24C361.687 1024.16 361.003 1024.01 360.319 1023.71C357.735 1022.87 355.303 1020.74 353.175 1017.25C351.047 1013.83 349.983 1008.13 349.983 1000.07C349.983 992.016 351.047 986.316 353.251 982.82C355.379 979.4 357.811 977.272 360.471 976.436C361.079 976.284 361.763 976.132 362.447 975.98C363.055 975.904 363.739 975.828 364.347 975.828ZM395.389 975.22V976.74H401.241V1023.48H395.389V1025H419.405C426.625 1025 431.641 1023.63 434.453 1020.9C437.189 1018.16 438.633 1015.12 438.709 1011.78V1011.7V1011.55C438.709 1010.79 438.633 1010.03 438.481 1009.19C438.329 1008.43 438.025 1007.6 437.569 1006.68C436.657 1005.01 435.061 1003.34 432.629 1001.74C430.197 1000.22 426.397 999.008 421.305 998.172V997.792C421.609 997.792 421.837 997.716 422.141 997.716C422.445 997.716 422.749 997.64 423.053 997.564C426.321 997.108 429.361 995.892 432.097 994.068C434.833 992.244 436.277 989.736 436.277 986.544C436.277 985.936 436.201 985.252 436.049 984.416C435.897 983.58 435.593 982.744 435.213 981.908C434.301 980.236 432.553 978.716 430.121 977.348C427.613 975.98 423.737 975.22 418.417 975.22H395.389ZM409.753 1023.48V998.78H415.833C416.517 998.78 417.277 998.856 418.113 998.932C418.949 999.008 419.785 999.16 420.697 999.388C422.825 999.996 424.725 1001.29 426.473 1003.11C428.221 1004.94 429.133 1007.9 429.133 1012C429.133 1014.97 428.373 1017.63 426.929 1019.98C425.485 1022.34 422.597 1023.48 418.341 1023.48H409.753ZM409.753 997.26V976.74H416.213H417.429C417.885 976.74 418.341 976.816 418.797 976.816C420.697 977.044 422.445 977.728 424.117 978.944C425.789 980.16 426.625 982.744 426.625 986.62V987.532C426.625 987.836 426.549 988.064 426.549 988.368C426.321 990.648 425.485 992.7 424.041 994.524C422.597 996.348 419.709 997.26 415.301 997.26H409.753ZM475.496 1023.48H468.732V1025H489.632V1023.48H484.464L467.136 975.22H465.768L448.972 1018.31C448.896 1018.46 448.82 1018.62 448.744 1018.77C448.668 1018.92 448.592 1019.07 448.516 1019.22C447.984 1020.29 447.224 1021.2 446.236 1022.04C445.248 1022.95 444.108 1023.4 442.74 1023.48V1025H455.66V1023.48C453.532 1023.4 452.164 1023.02 451.632 1022.42C451.024 1021.81 450.796 1020.97 450.796 1019.91C450.796 1019.22 450.872 1018.54 451.024 1017.93C451.176 1017.32 451.404 1016.79 451.632 1016.34L451.936 1015.58C452.012 1015.35 452.088 1015.12 452.24 1014.89L454.976 1008.13H469.872L475.496 1023.48ZM469.34 1006.61H455.356L462.804 987.76L469.34 1006.61ZM524.986 1023.48H519.134V1025H539.35V1023.48H533.498V976.664H539.35V975.22H518.754H518.45H518.07C513.054 975.296 508.418 975.98 504.238 977.196C500.058 978.488 498.006 981.528 498.006 986.316C498.006 989.584 498.918 992.092 500.742 993.764C502.566 995.436 504.618 996.652 506.898 997.412C507.886 997.792 508.874 998.096 509.862 998.248C510.774 998.4 511.686 998.552 512.522 998.552V998.932C511.762 999.084 510.926 999.236 510.014 999.388C509.102 999.616 508.19 999.92 507.278 1000.22C505.53 1000.83 503.934 1001.74 502.414 1002.96C500.894 1004.18 499.906 1005.7 499.374 1007.6C499.222 1008.05 499.07 1008.66 498.994 1009.42C498.918 1010.18 498.842 1010.94 498.766 1011.85C498.69 1012.31 498.614 1012.84 498.614 1013.3L498.462 1014.82C498.158 1016.94 497.854 1018.84 497.474 1020.52C497.018 1022.26 496.41 1023.1 495.498 1023.1C495.194 1023.1 494.966 1023.1 494.662 1022.95C494.358 1022.8 494.13 1022.64 493.826 1022.49C493.522 1022.34 493.294 1022.19 493.066 1022.04C492.838 1021.88 492.686 1021.73 492.534 1021.5C492.23 1021.35 492.002 1021.2 491.85 1021.05C491.698 1020.9 491.546 1020.67 491.47 1020.52L490.254 1021.73C490.938 1022.8 491.774 1023.56 492.762 1024.16C493.674 1024.77 494.662 1025.15 495.726 1025.38C496.182 1025.53 496.562 1025.68 497.018 1025.68C497.474 1025.76 497.854 1025.76 498.31 1025.76C502.262 1025.76 504.694 1024.62 505.606 1022.34C506.518 1020.06 507.126 1017.32 507.506 1014.13C507.506 1013.9 507.506 1013.68 507.506 1013.37C507.506 1013.07 507.582 1012.76 507.658 1012.46C508.266 1006 509.406 1002.2 510.926 1001.14C512.446 1000.07 514.65 999.464 517.614 999.464H517.69H517.842H524.986V1023.48ZM524.986 997.944H519.666C515.182 997.944 512.142 997.108 510.546 995.284C508.95 993.536 508.038 991.56 507.734 989.356C507.658 988.9 507.582 988.368 507.582 987.836C507.582 987.304 507.582 986.772 507.582 986.24V985.1C507.582 984.72 507.582 984.34 507.658 983.884C507.81 982.06 508.646 980.464 510.09 978.944C511.534 977.424 514.574 976.664 519.21 976.664H524.986V997.944ZM614.306 1038.6L613.698 1023.48H606.934V976.664H612.786V975.22H572.506V976.664C575.926 976.816 577.978 977.424 578.662 978.412C579.346 979.476 579.726 981.072 579.726 983.2C579.726 1001.21 578.662 1012.46 576.534 1016.87C574.406 1021.28 571.974 1023.48 569.238 1023.48H566.274L565.438 1038.6L567.566 1038.53C568.63 1034.27 570.226 1031 572.354 1028.57C574.482 1026.22 577.37 1025 581.018 1025H596.826C597.662 1025 598.726 1025.08 599.942 1025.15C601.158 1025.3 602.374 1025.61 603.666 1026.06C605.414 1026.82 607.086 1028.19 608.682 1030.02C610.278 1031.92 611.418 1034.8 612.178 1038.6H614.306ZM598.422 1023.48H574.33C574.71 1023.1 575.166 1022.49 575.774 1021.66C576.306 1020.82 576.838 1019.3 577.446 1017.17C577.978 1015.2 578.51 1012.46 579.042 1008.96C579.498 1005.47 579.954 1000.76 580.41 994.98C580.41 993.916 580.486 992.852 580.562 991.864C580.638 990.952 580.714 990.04 580.79 989.204C581.246 983.124 582.006 979.552 583.222 978.412C584.362 977.272 587.25 976.664 591.886 976.664H598.422V1023.48ZM648.574 1023.48H641.81V1025H662.71V1023.48H657.542L640.214 975.22H638.846L622.05 1018.31C621.974 1018.46 621.898 1018.62 621.822 1018.77C621.746 1018.92 621.67 1019.07 621.594 1019.22C621.062 1020.29 620.302 1021.2 619.314 1022.04C618.326 1022.95 617.186 1023.4 615.818 1023.48V1025H628.738V1023.48C626.61 1023.4 625.242 1023.02 624.71 1022.42C624.102 1021.81 623.874 1020.97 623.874 1019.91C623.874 1019.22 623.95 1018.54 624.102 1017.93C624.254 1017.32 624.482 1016.79 624.71 1016.34L625.014 1015.58C625.09 1015.35 625.166 1015.12 625.318 1014.89L628.054 1008.13H642.95L648.574 1023.48ZM642.418 1006.61H628.434L635.882 987.76L642.418 1006.61ZM695.329 1013.75L680.509 975.22H666.145L666.069 976.664H667.437C667.665 976.664 667.969 976.74 668.273 976.74C668.577 976.74 668.881 976.816 669.185 976.816C669.869 976.968 670.553 977.348 671.161 977.956C671.769 978.564 672.073 979.628 672.073 980.996V1017.1C672.073 1017.48 671.997 1017.93 671.997 1018.39C671.921 1018.92 671.769 1019.45 671.617 1019.98C671.237 1020.9 670.629 1021.73 669.793 1022.49C668.957 1023.25 667.665 1023.63 665.917 1023.48V1025H679.445V1023.48C676.557 1023.18 674.809 1022.57 674.353 1021.5C673.897 1020.52 673.669 1019.07 673.669 1017.17V980.16L691.301 1025.91H692.669L709.541 979.78V1023.48H703.689V1025H723.905V1023.48H718.053V976.664H723.905V975.22H709.541L695.329 1013.75ZM759.828 1023.48H753.064V1025H773.964V1023.48H768.796L751.468 975.22H750.1L733.304 1018.31C733.228 1018.46 733.152 1018.62 733.076 1018.77C733 1018.92 732.924 1019.07 732.848 1019.22C732.316 1020.29 731.556 1021.2 730.568 1022.04C729.58 1022.95 728.44 1023.4 727.072 1023.48V1025H739.992V1023.48C737.864 1023.4 736.496 1023.02 735.964 1022.42C735.356 1021.81 735.128 1020.97 735.128 1019.91C735.128 1019.22 735.204 1018.54 735.356 1017.93C735.508 1017.32 735.736 1016.79 735.964 1016.34L736.268 1015.58C736.344 1015.35 736.42 1015.12 736.572 1014.89L739.308 1008.13H754.204L759.828 1023.48ZM753.672 1006.61H739.688L747.136 987.76L753.672 1006.61Z" fill="#181E21"/>
<g filter="url(#filter2_d_1_6810)">
<rect x="25" y="702" width="893" height="139" rx="35" fill="#EFC26D"/>
</g>
<circle cx="59.5" cy="772.5" r="10.5" fill="#181E21"/>
<circle cx="883.5" cy="772.5" r="10.5" fill="#181E21"/>
<path d="M117.758 784.752L102.938 746.22H88.5743L88.4983 747.664H89.8663C90.0943 747.664 90.3983 747.74 90.7023 747.74C91.0063 747.74 91.3103 747.816 91.6143 747.816C92.2983 747.968 92.9823 748.348 93.5903 748.956C94.1983 749.564 94.5023 750.628 94.5023 751.996V788.096C94.5023 788.476 94.4263 788.932 94.4263 789.388C94.3503 789.92 94.1983 790.452 94.0463 790.984C93.6663 791.896 93.0583 792.732 92.2223 793.492C91.3863 794.252 90.0943 794.632 88.3463 794.48V796H101.874V794.48C98.9863 794.176 97.2383 793.568 96.7823 792.504C96.3263 791.516 96.0983 790.072 96.0983 788.172V751.16L113.73 796.912H115.098L131.97 750.78V794.48H126.118V796H146.334V794.48H140.482V747.664H146.334V746.22H131.97L117.758 784.752ZM153.302 771.072C153.302 777.608 154.898 782.776 158.09 786.652C161.282 790.604 164.854 793.34 168.73 795.012C170.25 795.62 171.694 796.076 173.138 796.38C174.582 796.684 175.95 796.76 177.242 796.76C178.078 796.76 178.914 796.76 179.826 796.608C180.662 796.532 181.498 796.38 182.41 796.076C187.122 795.012 191.378 792.276 195.33 788.02C199.282 783.764 201.258 778.14 201.258 771.072C201.258 763.624 198.75 757.468 193.886 752.604C188.946 747.816 183.398 745.384 177.242 745.384C176.71 745.384 176.178 745.46 175.646 745.46C175.114 745.536 174.582 745.612 174.05 745.612C168.882 746.448 164.094 749.108 159.762 753.516C155.43 757.924 153.302 763.776 153.302 771.072ZM177.242 746.828C178.002 746.828 178.914 746.98 179.902 747.132C180.89 747.284 181.878 747.664 182.942 748.196C185.07 749.412 187.122 751.692 188.946 755.036C190.77 758.456 191.682 763.776 191.682 771.072C191.682 779.052 190.542 784.752 188.414 788.172C186.286 791.668 183.93 793.796 181.346 794.708C180.586 795.012 179.902 795.164 179.218 795.24C178.534 795.392 177.85 795.392 177.242 795.392C176.558 795.392 175.874 795.392 175.266 795.24C174.582 795.164 173.898 795.012 173.214 794.708C170.63 793.872 168.198 791.744 166.07 788.248C163.942 784.828 162.878 779.128 162.878 771.072C162.878 763.016 163.942 757.316 166.146 753.82C168.274 750.4 170.706 748.272 173.366 747.436C173.974 747.284 174.658 747.132 175.342 746.98C175.95 746.904 176.634 746.828 177.242 746.828ZM244.764 794.48H222.648V747.664H227.968V746.22H208.284V747.664H214.136V794.48H208.284V796H241.648C247.044 796 251.072 797.064 253.656 799.192C256.24 801.32 257.988 804.816 258.824 809.832H260.648L258.824 794.48H253.276V747.664H259.052V746.22H239.444V747.664H244.764V794.48ZM295.07 794.48H288.306V796H309.206V794.48H304.038L286.71 746.22H285.342L268.546 789.312C268.47 789.464 268.394 789.616 268.318 789.768C268.242 789.92 268.166 790.072 268.09 790.224C267.558 791.288 266.798 792.2 265.81 793.036C264.822 793.948 263.682 794.404 262.314 794.48V796H275.234V794.48C273.106 794.404 271.738 794.024 271.206 793.416C270.598 792.808 270.37 791.972 270.37 790.908C270.37 790.224 270.446 789.54 270.598 788.932C270.75 788.324 270.978 787.792 271.206 787.336L271.51 786.576C271.586 786.348 271.662 786.12 271.814 785.892L274.55 779.128H289.446L295.07 794.48ZM288.914 777.608H274.93L282.378 758.76L288.914 777.608ZM318.265 794.48H312.413V796H332.629V794.48H326.777V776.24H334.225C341.977 776.24 347.145 774.72 349.805 771.604C352.389 768.488 353.757 765.068 353.757 761.344C353.757 757.088 352.617 753.972 350.337 751.844C348.057 749.716 345.549 748.272 342.889 747.436C341.217 746.98 339.697 746.6 338.177 746.448C336.657 746.296 335.365 746.22 334.301 746.22H312.413V747.664H318.265V794.48ZM326.777 774.796V747.664H332.021C335.669 747.664 338.329 748.348 340.001 749.564C341.673 750.856 342.813 752.224 343.421 753.744C343.725 754.732 343.953 755.644 344.029 756.556C344.105 757.468 344.181 758.228 344.181 758.76V759.672V760.584V761.04V761.496V762.94V764.308C344.105 764.916 344.029 765.524 343.953 766.284C343.801 767.044 343.649 767.728 343.421 768.412C342.813 770.084 341.749 771.528 340.077 772.82C338.405 774.188 335.669 774.796 332.021 774.796H326.777ZM376.779 794.48H370.927V796H391.143V794.48H385.291V747.664C390.611 747.664 394.411 748.652 396.843 750.476C399.199 752.376 400.719 756.176 401.327 761.876H403.455L403.075 746.22H358.995L358.615 761.876H360.743C361.275 756.86 362.719 753.212 364.999 750.932C367.279 748.652 371.155 747.588 376.779 747.664V794.48ZM449.312 787.184V747.74H454.632V746.22H434.948V747.74H440.8V794.48H434.948V796H454.632V794.48H449.312V790.3L471.732 755.416V794.48H466.412V796H486.096V794.48H480.244V747.74H486.096V746.22H466.412V747.74H471.732V752.68L449.312 787.184ZM556.808 779.432C555.82 784.6 554.3 788.4 552.172 790.68C550.044 793.036 547.764 794.48 545.484 795.088C544.952 795.24 544.42 795.316 543.964 795.316C543.508 795.392 543.052 795.392 542.596 795.392C541.836 795.392 541 795.316 540.012 795.164C539.024 795.012 538.036 794.632 536.972 794.024C535.072 793.112 533.324 791.516 531.804 789.084C530.284 786.728 529.524 783.232 529.524 778.52V766.208C529.524 760.432 530.36 756.176 532.108 753.44C533.78 750.704 535.68 748.804 537.808 747.892C538.72 747.512 539.556 747.208 540.392 747.056C541.228 746.904 541.988 746.828 542.748 746.828C547.156 746.828 550.348 748.196 552.172 750.932C553.996 753.668 555.212 757.164 555.744 761.572H557.416L557.264 745.384H555.44C555.212 745.992 554.984 746.448 554.756 746.752C554.452 747.056 554.224 747.284 553.92 747.436C553.616 747.588 553.312 747.74 553.084 747.74C552.78 747.74 552.552 747.74 552.4 747.74C551.868 747.74 551.26 747.664 550.652 747.36C549.968 747.132 549.208 746.828 548.448 746.524C547.612 746.296 546.7 746.068 545.712 745.764C544.648 745.536 543.508 745.384 542.292 745.384C535.908 745.384 530.74 747.74 526.712 752.376C522.608 757.088 520.404 762.788 519.948 769.476C519.948 769.932 519.872 770.312 519.872 770.692C519.872 771.148 519.872 771.528 519.872 771.908C519.872 772.364 519.872 772.744 519.872 773.124C519.872 773.58 519.948 773.96 519.948 774.34C520.404 781.028 522.532 786.424 526.484 790.528C530.436 794.708 535.148 796.76 540.772 796.76C542.368 796.76 543.812 796.608 545.028 796.304C546.244 796 547.308 795.696 548.22 795.316C548.676 795.164 549.132 794.936 549.512 794.708C549.816 794.556 550.12 794.328 550.424 794.176C550.956 793.872 551.488 793.568 552.02 793.34C552.552 793.112 553.084 792.96 553.616 792.96C554.224 792.96 554.68 793.188 554.984 793.492C555.288 793.796 555.592 794.176 555.744 794.632C555.82 794.936 555.896 795.164 555.972 795.392C555.972 795.696 556.048 795.848 556.048 796H558.024L558.632 779.432H556.808ZM593.504 794.48H586.74V796H607.64V794.48H602.472L585.144 746.22H583.776L566.98 789.312C566.904 789.464 566.828 789.616 566.752 789.768C566.676 789.92 566.6 790.072 566.524 790.224C565.992 791.288 565.232 792.2 564.244 793.036C563.256 793.948 562.116 794.404 560.748 794.48V796H573.668V794.48C571.54 794.404 570.172 794.024 569.64 793.416C569.032 792.808 568.804 791.972 568.804 790.908C568.804 790.224 568.88 789.54 569.032 788.932C569.184 788.324 569.412 787.792 569.64 787.336L569.944 786.576C570.02 786.348 570.096 786.12 570.248 785.892L572.984 779.128H587.88L593.504 794.48ZM587.348 777.608H573.364L580.812 758.76L587.348 777.608ZM642.766 747.664V794.48H636.914V796H657.13V794.48H651.278V747.664H657.13V746.22H616.09V747.664C616.394 747.664 616.622 747.588 616.926 747.588H617.762C620.118 747.588 621.79 748.196 622.702 749.26C623.614 750.324 624.146 751.54 624.374 752.832C624.374 753.288 624.45 753.744 624.45 754.2C624.45 754.656 624.526 755.036 624.526 755.416V756.556V757.696V758.912V760.052C624.526 761.04 624.526 762.104 624.526 763.32C624.526 764.536 624.602 765.828 624.678 767.196C624.678 768.564 624.754 769.932 624.754 771.3C624.754 772.668 624.83 774.036 624.83 775.404C624.83 780.344 624.374 784.828 623.614 788.932C622.778 793.036 620.954 795.012 618.218 795.012H617.99C617.914 795.012 617.838 795.012 617.838 794.936C617.534 794.936 617.306 794.784 617.154 794.632C617.002 794.48 616.926 794.252 616.926 794.024C616.926 793.568 617.002 793.112 617.154 792.732C617.306 792.352 617.458 791.972 617.686 791.592C618.142 790.984 618.446 790.3 618.598 789.692C618.75 789.084 618.902 788.476 618.902 787.944V787.792V787.564C618.75 786.652 618.218 785.892 617.458 785.132C616.622 784.372 615.558 783.992 614.19 783.992C612.518 783.992 611.226 784.524 610.314 785.588C609.402 786.652 608.946 788.02 608.946 789.616C608.946 791.896 609.706 793.644 611.378 794.86C612.974 796.152 615.178 796.76 617.914 796.76C621.41 796.76 623.462 795.62 624.222 793.264C624.982 790.908 625.438 786.424 625.666 779.736V779.28V778.824C625.666 776.696 625.742 774.644 625.742 772.668C625.742 770.768 625.818 769.02 625.818 767.348C625.894 759.368 626.274 754.124 627.034 751.54C627.794 748.956 630.15 747.664 634.254 747.664H642.766ZM677.906 768.488V747.664H683.758V746.22H663.542V747.664H669.394V794.48H663.542V796H685.354C686.266 796 687.254 796 688.318 796C689.382 796 690.37 795.848 691.434 795.696C694.778 795.316 697.818 794.176 700.63 792.276C703.366 790.376 704.81 786.804 704.81 781.636C704.81 777.684 703.594 774.72 701.162 772.896C698.73 771.072 696.07 769.856 693.182 769.248C691.51 768.944 689.99 768.716 688.47 768.64C686.95 768.564 685.582 768.488 684.518 768.488H677.906ZM677.906 794.48V769.932H684.67C689.306 769.932 692.27 770.996 693.486 773.048C694.702 775.1 695.234 777.608 695.234 780.496L695.158 786.348C695.158 786.728 695.082 787.26 695.006 787.944C694.93 788.704 694.778 789.388 694.474 790.148C694.018 791.288 693.258 792.276 692.194 793.188C691.054 794.1 689.382 794.48 687.102 794.48H677.906ZM716.003 794.48H710.151V796H748.683L750.279 780.496H748.455C747.543 785.436 746.175 788.856 744.351 790.756C742.527 792.656 740.551 793.796 738.575 794.176C737.967 794.328 737.435 794.404 736.903 794.404C736.371 794.48 735.839 794.48 735.383 794.48H724.515V770.16H727.707C730.291 770.16 732.115 770.844 733.027 772.06C733.939 773.276 734.699 775.556 735.307 778.748C735.307 778.9 735.383 778.976 735.383 779.128C735.383 779.28 735.459 779.356 735.459 779.432H736.979V759.52H735.459C735.155 762.56 734.471 764.764 733.483 765.98C732.419 767.196 731.355 768.032 730.215 768.336C729.607 768.488 729.075 768.64 728.619 768.64C728.163 768.64 727.707 768.64 727.251 768.64H724.515V747.664H734.091C737.967 747.664 740.855 748.804 742.831 751.084C744.807 753.364 746.023 756.556 746.631 760.584H748.455L747.619 746.22H710.151V747.664H716.003V794.48ZM761.648 794.48H755.796V796H776.012V794.48H770.16V776.24H777.608C785.36 776.24 790.528 774.72 793.188 771.604C795.772 768.488 797.14 765.068 797.14 761.344C797.14 757.088 796 753.972 793.72 751.844C791.44 749.716 788.932 748.272 786.272 747.436C784.6 746.98 783.08 746.6 781.56 746.448C780.04 746.296 778.748 746.22 777.684 746.22H755.796V747.664H761.648V794.48ZM770.16 774.796V747.664H775.404C779.052 747.664 781.712 748.348 783.384 749.564C785.056 750.856 786.196 752.224 786.804 753.744C787.108 754.732 787.336 755.644 787.412 756.556C787.488 757.468 787.564 758.228 787.564 758.76V759.672V760.584V761.04V761.496V762.94V764.308C787.488 764.916 787.412 765.524 787.336 766.284C787.184 767.044 787.032 767.728 786.804 768.412C786.196 770.084 785.132 771.528 783.46 772.82C781.788 774.188 779.052 774.796 775.404 774.796H770.16ZM817.882 787.184V747.74H823.202V746.22H803.518V747.74H809.37V794.48H803.518V796H823.202V794.48H817.882V790.3L840.302 755.416V794.48H834.982V796H854.666V794.48H848.814V747.74H854.666V746.22H834.982V747.74H840.302V752.68L817.882 787.184Z" fill="#181E21"/>
<g filter="url(#filter3_d_1_6810)">
<rect x="25" y="475" width="893" height="139" rx="35" fill="#EFC26D"/>
</g>
<circle cx="59.5" cy="545.5" r="10.5" fill="#181E21"/>
<circle cx="883.5" cy="545.5" r="10.5" fill="#181E21"/>
<path d="M352.549 556.752L337.729 518.22H323.365L323.289 519.664H324.657C324.885 519.664 325.189 519.74 325.493 519.74C325.797 519.74 326.101 519.816 326.405 519.816C327.089 519.968 327.773 520.348 328.381 520.956C328.989 521.564 329.293 522.628 329.293 523.996V560.096C329.293 560.476 329.217 560.932 329.217 561.388C329.141 561.92 328.989 562.452 328.837 562.984C328.457 563.896 327.849 564.732 327.013 565.492C326.177 566.252 324.885 566.632 323.137 566.48V568H336.665V566.48C333.777 566.176 332.029 565.568 331.573 564.504C331.117 563.516 330.889 562.072 330.889 560.172V523.16L348.521 568.912H349.889L366.761 522.78V566.48H360.909V568H381.125V566.48H375.273V519.664H381.125V518.22H366.761L352.549 556.752ZM393.337 566.48H387.485V568H426.017L427.613 552.496H425.789C424.877 557.436 423.509 560.856 421.685 562.756C419.861 564.656 417.885 565.796 415.909 566.176C415.301 566.328 414.769 566.404 414.237 566.404C413.705 566.48 413.173 566.48 412.717 566.48H401.849V542.16H405.041C407.625 542.16 409.449 542.844 410.361 544.06C411.273 545.276 412.033 547.556 412.641 550.748C412.641 550.9 412.717 550.976 412.717 551.128C412.717 551.28 412.793 551.356 412.793 551.432H414.313V531.52H412.793C412.489 534.56 411.805 536.764 410.817 537.98C409.753 539.196 408.689 540.032 407.549 540.336C406.941 540.488 406.409 540.64 405.953 540.64C405.497 540.64 405.041 540.64 404.585 540.64H401.849V519.664H411.425C415.301 519.664 418.189 520.804 420.165 523.084C422.141 525.364 423.357 528.556 423.965 532.584H425.789L424.953 518.22H387.485V519.664H393.337V566.48ZM449.774 566.48H443.922V568H464.138V566.48H458.286V519.664C463.606 519.664 467.406 520.652 469.838 522.476C472.194 524.376 473.714 528.176 474.322 533.876H476.45L476.07 518.22H431.99L431.61 533.876H433.738C434.27 528.86 435.714 525.212 437.994 522.932C440.274 520.652 444.15 519.588 449.774 519.664V566.48ZM487.149 566.48H481.297V568H519.829L521.425 552.496H519.601C518.689 557.436 517.321 560.856 515.497 562.756C513.673 564.656 511.697 565.796 509.721 566.176C509.113 566.328 508.581 566.404 508.049 566.404C507.517 566.48 506.985 566.48 506.529 566.48H495.661V542.16H498.853C501.437 542.16 503.261 542.844 504.173 544.06C505.085 545.276 505.845 547.556 506.453 550.748C506.453 550.9 506.529 550.976 506.529 551.128C506.529 551.28 506.605 551.356 506.605 551.432H508.125V531.52H506.605C506.301 534.56 505.617 536.764 504.629 537.98C503.565 539.196 502.501 540.032 501.361 540.336C500.753 540.488 500.221 540.64 499.765 540.64C499.309 540.64 498.853 540.64 498.397 540.64H495.661V519.664H505.237C509.113 519.664 512.001 520.804 513.977 523.084C515.953 525.364 517.169 528.556 517.777 532.584H519.601L518.765 518.22H481.297V519.664H487.149V566.48ZM558.862 519.664V566.48H553.01V568H573.226V566.48H567.374V519.664H573.226V518.22H532.186V519.664C532.49 519.664 532.718 519.588 533.022 519.588H533.858C536.214 519.588 537.886 520.196 538.798 521.26C539.71 522.324 540.242 523.54 540.47 524.832C540.47 525.288 540.546 525.744 540.546 526.2C540.546 526.656 540.622 527.036 540.622 527.416V528.556V529.696V530.912V532.052C540.622 533.04 540.622 534.104 540.622 535.32C540.622 536.536 540.698 537.828 540.774 539.196C540.774 540.564 540.85 541.932 540.85 543.3C540.85 544.668 540.926 546.036 540.926 547.404C540.926 552.344 540.47 556.828 539.71 560.932C538.874 565.036 537.05 567.012 534.314 567.012H534.086C534.01 567.012 533.934 567.012 533.934 566.936C533.63 566.936 533.402 566.784 533.25 566.632C533.098 566.48 533.022 566.252 533.022 566.024C533.022 565.568 533.098 565.112 533.25 564.732C533.402 564.352 533.554 563.972 533.782 563.592C534.238 562.984 534.542 562.3 534.694 561.692C534.846 561.084 534.998 560.476 534.998 559.944V559.792V559.564C534.846 558.652 534.314 557.892 533.554 557.132C532.718 556.372 531.654 555.992 530.286 555.992C528.614 555.992 527.322 556.524 526.41 557.588C525.498 558.652 525.042 560.02 525.042 561.616C525.042 563.896 525.802 565.644 527.474 566.86C529.07 568.152 531.274 568.76 534.01 568.76C537.506 568.76 539.558 567.62 540.318 565.264C541.078 562.908 541.534 558.424 541.762 551.736V551.28V550.824C541.762 548.696 541.838 546.644 541.838 544.668C541.838 542.768 541.914 541.02 541.914 539.348C541.99 531.368 542.37 526.124 543.13 523.54C543.89 520.956 546.246 519.664 550.35 519.664H558.862ZM594.001 540.488V519.664H599.853V518.22H579.637V519.664H585.489V566.48H579.637V568H601.449C602.361 568 603.349 568 604.413 568C605.477 568 606.465 567.848 607.529 567.696C610.873 567.316 613.913 566.176 616.725 564.276C619.461 562.376 620.905 558.804 620.905 553.636C620.905 549.684 619.689 546.72 617.257 544.896C614.825 543.072 612.165 541.856 609.277 541.248C607.605 540.944 606.085 540.716 604.565 540.64C603.045 540.564 601.677 540.488 600.613 540.488H594.001ZM594.001 566.48V541.932H600.765C605.401 541.932 608.365 542.996 609.581 545.048C610.797 547.1 611.329 549.608 611.329 552.496L611.253 558.348C611.253 558.728 611.177 559.26 611.101 559.944C611.025 560.704 610.873 561.388 610.569 562.148C610.113 563.288 609.353 564.276 608.289 565.188C607.149 566.1 605.477 566.48 603.197 566.48H594.001Z" fill="#181E21"/>
<g filter="url(#filter4_d_1_6810)">
<rect x="25" y="21" width="893" height="139" rx="35" fill="#EFC26D"/>
</g>
<circle cx="59.5" cy="91.5" r="10.5" fill="#181E21"/>
<circle cx="883.5" cy="91.5" r="10.5" fill="#181E21"/>
<path d="M169.322 56.74H179.582C182.394 56.74 184.446 57.196 185.814 58.032C187.106 58.868 188.246 60.768 189.234 63.808C189.462 64.568 189.69 65.328 189.994 66.24C190.222 67.152 190.45 68.064 190.754 69.128H192.198L191.362 55.22H154.958V56.74H160.81V103.48H154.958V105H176.162C177.226 105 178.366 105 179.658 104.924C180.874 104.924 182.166 104.772 183.458 104.544C186.726 104.088 189.69 102.796 192.426 100.82C195.162 98.844 196.53 95.348 196.53 90.408C196.53 89.648 196.378 88.812 196.226 87.824C196.074 86.912 195.694 85.924 195.238 84.86C193.946 82.504 191.438 80.376 187.638 78.476C183.838 76.576 177.682 75.892 169.322 76.348V56.74ZM169.322 103.48V77.716C175.478 77.412 179.962 78.248 182.774 80.148C185.51 82.124 186.954 85.924 186.954 91.548C186.954 95.576 186.194 98.388 184.674 99.984C183.154 101.656 181.482 102.644 179.658 103.024C178.67 103.328 177.758 103.48 176.922 103.48C176.01 103.48 175.25 103.48 174.566 103.48H174.262H174.034H169.322ZM204.327 80.072C204.327 86.608 205.923 91.776 209.115 95.652C212.307 99.604 215.879 102.34 219.755 104.012C221.275 104.62 222.719 105.076 224.163 105.38C225.607 105.684 226.975 105.76 228.267 105.76C229.103 105.76 229.939 105.76 230.851 105.608C231.687 105.532 232.523 105.38 233.435 105.076C238.147 104.012 242.403 101.276 246.355 97.02C250.307 92.764 252.283 87.14 252.283 80.072C252.283 72.624 249.775 66.468 244.911 61.604C239.971 56.816 234.423 54.384 228.267 54.384C227.735 54.384 227.203 54.46 226.671 54.46C226.139 54.536 225.607 54.612 225.075 54.612C219.907 55.448 215.119 58.108 210.787 62.516C206.455 66.924 204.327 72.776 204.327 80.072ZM228.267 55.828C229.027 55.828 229.939 55.98 230.927 56.132C231.915 56.284 232.903 56.664 233.967 57.196C236.095 58.412 238.147 60.692 239.971 64.036C241.795 67.456 242.707 72.776 242.707 80.072C242.707 88.052 241.567 93.752 239.439 97.172C237.311 100.668 234.955 102.796 232.371 103.708C231.611 104.012 230.927 104.164 230.243 104.24C229.559 104.392 228.875 104.392 228.267 104.392C227.583 104.392 226.899 104.392 226.291 104.24C225.607 104.164 224.923 104.012 224.239 103.708C221.655 102.872 219.223 100.744 217.095 97.248C214.967 93.828 213.903 88.128 213.903 80.072C213.903 72.016 214.967 66.316 217.171 62.82C219.299 59.4 221.731 57.272 224.391 56.436C224.999 56.284 225.683 56.132 226.367 55.98C226.975 55.904 227.659 55.828 228.267 55.828ZM265.161 103.48H259.309V105H279.525V103.48H273.673V85.24H281.121C288.873 85.24 294.041 83.72 296.701 80.604C299.285 77.488 300.653 74.068 300.653 70.344C300.653 66.088 299.513 62.972 297.233 60.844C294.953 58.716 292.445 57.272 289.785 56.436C288.113 55.98 286.593 55.6 285.073 55.448C283.553 55.296 282.261 55.22 281.197 55.22H259.309V56.664H265.161V103.48ZM273.673 83.796V56.664H278.917C282.565 56.664 285.225 57.348 286.897 58.564C288.569 59.856 289.709 61.224 290.317 62.744C290.621 63.732 290.849 64.644 290.925 65.556C291.001 66.468 291.077 67.228 291.077 67.76V68.672V69.584V70.04V70.496V71.94V73.308C291.001 73.916 290.925 74.524 290.849 75.284C290.697 76.044 290.545 76.728 290.317 77.412C289.709 79.084 288.645 80.528 286.973 81.82C285.301 83.188 282.565 83.796 278.917 83.796H273.673ZM321.396 96.184V56.74H326.716V55.22H307.032V56.74H312.884V103.48H307.032V105H326.716V103.48H321.396V99.3L343.816 64.416V103.48H338.496V105H358.18V103.48H352.328V56.74H358.18V55.22H338.496V56.74H343.816V61.68L321.396 96.184ZM402.247 88.432C401.259 93.6 399.739 97.4 397.611 99.68C395.483 102.036 393.203 103.48 390.923 104.088C390.391 104.24 389.859 104.316 389.403 104.316C388.947 104.392 388.491 104.392 388.035 104.392C387.275 104.392 386.439 104.316 385.451 104.164C384.463 104.012 383.475 103.632 382.411 103.024C380.511 102.112 378.763 100.516 377.243 98.084C375.723 95.728 374.963 92.232 374.963 87.52V75.208C374.963 69.432 375.799 65.176 377.547 62.44C379.219 59.704 381.119 57.804 383.247 56.892C384.159 56.512 384.995 56.208 385.831 56.056C386.667 55.904 387.427 55.828 388.187 55.828C392.595 55.828 395.787 57.196 397.611 59.932C399.435 62.668 400.651 66.164 401.183 70.572H402.855L402.703 54.384H400.879C400.651 54.992 400.423 55.448 400.195 55.752C399.891 56.056 399.663 56.284 399.359 56.436C399.055 56.588 398.751 56.74 398.523 56.74C398.219 56.74 397.991 56.74 397.839 56.74C397.307 56.74 396.699 56.664 396.091 56.36C395.407 56.132 394.647 55.828 393.887 55.524C393.051 55.296 392.139 55.068 391.151 54.764C390.087 54.536 388.947 54.384 387.731 54.384C381.347 54.384 376.179 56.74 372.151 61.376C368.047 66.088 365.843 71.788 365.387 78.476C365.387 78.932 365.311 79.312 365.311 79.692C365.311 80.148 365.311 80.528 365.311 80.908C365.311 81.364 365.311 81.744 365.311 82.124C365.311 82.58 365.387 82.96 365.387 83.34C365.843 90.028 367.971 95.424 371.923 99.528C375.875 103.708 380.587 105.76 386.211 105.76C387.807 105.76 389.251 105.608 390.467 105.304C391.683 105 392.747 104.696 393.659 104.316C394.115 104.164 394.571 103.936 394.951 103.708C395.255 103.556 395.559 103.328 395.863 103.176C396.395 102.872 396.927 102.568 397.459 102.34C397.991 102.112 398.523 101.96 399.055 101.96C399.663 101.96 400.119 102.188 400.423 102.492C400.727 102.796 401.031 103.176 401.183 103.632C401.259 103.936 401.335 104.164 401.411 104.392C401.411 104.696 401.487 104.848 401.487 105H403.463L404.071 88.432H402.247ZM450.388 56.74H460.572C461.028 56.74 461.712 56.816 462.7 56.968C463.688 57.12 464.752 57.576 465.892 58.26C467.032 59.096 468.172 60.388 469.236 62.136C470.3 63.884 470.984 66.392 471.364 69.66H473.188L472.276 55.22H436.024V56.74H441.876V103.48H436.024V105H456.24V103.48H450.388V56.74ZM477.527 80.072C477.527 86.608 479.123 91.776 482.315 95.652C485.507 99.604 489.079 102.34 492.955 104.012C494.475 104.62 495.919 105.076 497.363 105.38C498.807 105.684 500.175 105.76 501.467 105.76C502.303 105.76 503.139 105.76 504.051 105.608C504.887 105.532 505.723 105.38 506.635 105.076C511.347 104.012 515.603 101.276 519.555 97.02C523.507 92.764 525.483 87.14 525.483 80.072C525.483 72.624 522.975 66.468 518.111 61.604C513.171 56.816 507.623 54.384 501.467 54.384C500.935 54.384 500.403 54.46 499.871 54.46C499.339 54.536 498.807 54.612 498.275 54.612C493.107 55.448 488.319 58.108 483.987 62.516C479.655 66.924 477.527 72.776 477.527 80.072ZM501.467 55.828C502.227 55.828 503.139 55.98 504.127 56.132C505.115 56.284 506.103 56.664 507.167 57.196C509.295 58.412 511.347 60.692 513.171 64.036C514.995 67.456 515.907 72.776 515.907 80.072C515.907 88.052 514.767 93.752 512.639 97.172C510.511 100.668 508.155 102.796 505.571 103.708C504.811 104.012 504.127 104.164 503.443 104.24C502.759 104.392 502.075 104.392 501.467 104.392C500.783 104.392 500.099 104.392 499.491 104.24C498.807 104.164 498.123 104.012 497.439 103.708C494.855 102.872 492.423 100.744 490.295 97.248C488.167 93.828 487.103 88.128 487.103 80.072C487.103 72.016 488.167 66.316 490.371 62.82C492.499 59.4 494.931 57.272 497.591 56.436C498.199 56.284 498.883 56.132 499.567 55.98C500.175 55.904 500.859 55.828 501.467 55.828ZM578.792 118.604L578.184 103.48H571.42V56.664H577.272V55.22H536.992V56.664C540.412 56.816 542.464 57.424 543.148 58.412C543.832 59.476 544.212 61.072 544.212 63.2C544.212 81.212 543.148 92.46 541.02 96.868C538.892 101.276 536.46 103.48 533.724 103.48H530.76L529.924 118.604L532.052 118.528C533.116 114.272 534.712 111.004 536.84 108.572C538.968 106.216 541.856 105 545.504 105H561.312C562.148 105 563.212 105.076 564.428 105.152C565.644 105.304 566.86 105.608 568.152 106.064C569.9 106.824 571.572 108.192 573.168 110.016C574.764 111.916 575.904 114.804 576.664 118.604H578.792ZM562.908 103.48H538.816C539.196 103.1 539.652 102.492 540.26 101.656C540.792 100.82 541.324 99.3 541.932 97.172C542.464 95.196 542.996 92.46 543.528 88.964C543.984 85.468 544.44 80.756 544.896 74.98C544.896 73.916 544.972 72.852 545.048 71.864C545.124 70.952 545.2 70.04 545.276 69.204C545.732 63.124 546.492 59.552 547.708 58.412C548.848 57.272 551.736 56.664 556.372 56.664H562.908V103.48ZM609.793 88.28L594.821 56.664H601.205V55.22H580.305V56.664H585.549L605.005 97.932C604.853 98.236 604.701 98.464 604.549 98.692C604.397 98.92 604.321 99.148 604.169 99.376C603.409 100.668 602.497 101.808 601.585 102.872C600.597 103.936 599.381 104.392 597.937 104.392C596.265 104.392 594.973 104.088 594.061 103.48C593.149 102.872 592.693 102.264 592.693 101.504C592.693 101.048 592.845 100.592 593.149 100.288C593.453 99.984 593.833 99.68 594.289 99.452C594.289 99.452 594.365 99.376 594.441 99.376C594.441 99.376 594.517 99.3 594.593 99.224C594.745 99.148 594.897 99.072 595.049 98.92C595.201 98.844 595.353 98.692 595.505 98.54C595.505 98.54 595.581 98.388 595.733 98.236C595.885 98.084 596.037 97.856 596.189 97.628C596.341 97.4 596.417 97.096 596.569 96.792C596.721 96.488 596.797 96.108 596.873 95.804C596.873 95.804 596.949 95.728 596.949 95.576V95.348V95.044C596.949 94.968 596.873 94.892 596.873 94.816C596.721 93.904 596.265 92.992 595.429 92.232C594.517 91.472 593.377 91.016 591.933 91.016C590.261 91.016 589.045 91.624 588.209 92.84C587.297 94.056 586.917 95.424 586.917 97.02C586.917 99.452 587.905 101.504 589.957 103.176C591.933 104.924 594.441 105.76 597.329 105.76C599.077 105.76 600.901 105.076 602.725 103.632C604.549 102.264 606.525 99.3 608.577 94.816C609.185 93.6 609.565 92.688 609.869 92.08L610.629 90.636V90.56L610.705 90.484C610.705 90.332 610.781 90.18 610.857 90.028C610.933 89.876 611.009 89.648 611.161 89.42L621.877 61.68C622.257 60.692 622.713 59.856 623.245 59.248C623.701 58.64 624.233 58.184 624.841 57.728C625.601 57.272 626.361 56.968 627.121 56.816C627.805 56.74 628.337 56.664 628.641 56.664V55.22H615.721V56.664H616.785C617.925 56.664 618.761 56.968 619.369 57.576C619.901 58.184 620.205 58.944 620.205 59.856C620.205 60.16 620.129 60.54 620.053 60.92C619.977 61.376 619.901 61.756 619.825 62.212C619.749 62.516 619.673 62.744 619.597 62.972C619.521 63.2 619.445 63.428 619.445 63.58L619.293 64.036C619.217 64.188 619.141 64.34 619.141 64.416L609.793 88.28ZM645.138 79.16H667.558V103.48H662.238V105H681.922V103.48H676.07V56.664H681.922V55.22H662.238V56.664H667.558V77.64H645.138V56.664H650.458V55.22H630.774V56.664H636.626V103.48H630.774V105H650.458V103.48H645.138V79.16ZM688.902 80.072C688.902 86.608 690.498 91.776 693.69 95.652C696.882 99.604 700.454 102.34 704.33 104.012C705.85 104.62 707.294 105.076 708.738 105.38C710.182 105.684 711.55 105.76 712.842 105.76C713.678 105.76 714.514 105.76 715.426 105.608C716.262 105.532 717.098 105.38 718.01 105.076C722.722 104.012 726.978 101.276 730.93 97.02C734.882 92.764 736.858 87.14 736.858 80.072C736.858 72.624 734.35 66.468 729.486 61.604C724.546 56.816 718.998 54.384 712.842 54.384C712.31 54.384 711.778 54.46 711.246 54.46C710.714 54.536 710.182 54.612 709.65 54.612C704.482 55.448 699.694 58.108 695.362 62.516C691.03 66.924 688.902 72.776 688.902 80.072ZM712.842 55.828C713.602 55.828 714.514 55.98 715.502 56.132C716.49 56.284 717.478 56.664 718.542 57.196C720.67 58.412 722.722 60.692 724.546 64.036C726.37 67.456 727.282 72.776 727.282 80.072C727.282 88.052 726.142 93.752 724.014 97.172C721.886 100.668 719.53 102.796 716.946 103.708C716.186 104.012 715.502 104.164 714.818 104.24C714.134 104.392 713.45 104.392 712.842 104.392C712.158 104.392 711.474 104.392 710.866 104.24C710.182 104.164 709.498 104.012 708.814 103.708C706.23 102.872 703.798 100.744 701.67 97.248C699.542 93.828 698.478 88.128 698.478 80.072C698.478 72.016 699.542 66.316 701.746 62.82C703.874 59.4 706.306 57.272 708.966 56.436C709.574 56.284 710.258 56.132 710.942 55.98C711.55 55.904 712.234 55.828 712.842 55.828ZM743.883 55.22V56.74H749.735V103.48H743.883V105H767.899C775.119 105 780.135 103.632 782.947 100.896C785.683 98.16 787.127 95.12 787.203 91.776V91.7V91.548C787.203 90.788 787.127 90.028 786.975 89.192C786.823 88.432 786.519 87.596 786.063 86.684C785.151 85.012 783.555 83.34 781.123 81.744C778.691 80.224 774.891 79.008 769.799 78.172V77.792C770.103 77.792 770.331 77.716 770.635 77.716C770.939 77.716 771.243 77.64 771.547 77.564C774.815 77.108 777.855 75.892 780.591 74.068C783.327 72.244 784.771 69.736 784.771 66.544C784.771 65.936 784.695 65.252 784.543 64.416C784.391 63.58 784.087 62.744 783.707 61.908C782.795 60.236 781.047 58.716 778.615 57.348C776.107 55.98 772.231 55.22 766.911 55.22H743.883ZM758.247 103.48V78.78H764.327C765.011 78.78 765.771 78.856 766.607 78.932C767.443 79.008 768.279 79.16 769.191 79.388C771.319 79.996 773.219 81.288 774.967 83.112C776.715 84.936 777.627 87.9 777.627 92.004C777.627 94.968 776.867 97.628 775.423 99.984C773.979 102.34 771.091 103.48 766.835 103.48H758.247ZM758.247 77.26V56.74H764.707H765.923C766.379 56.74 766.835 56.816 767.291 56.816C769.191 57.044 770.939 57.728 772.611 58.944C774.283 60.16 775.119 62.744 775.119 66.62V67.532C775.119 67.836 775.043 68.064 775.043 68.368C774.815 70.648 773.979 72.7 772.535 74.524C771.091 76.348 768.203 77.26 763.795 77.26H758.247Z" fill="#181E21"/>
<defs>
<filter id="filter0_d_1_6810" x="0" y="1137" width="943" height="189" filterUnits="userSpaceOnUse" color-interpolation-filters="sRGB">
<feFlood flood-opacity="0" result="BackgroundImageFix"/>
<feColorMatrix in="SourceAlpha" type="matrix" values="0 0 0 0 0 0 0 0 0 0 0 0 0 0 0 0 0 0 127 0" result="hardAlpha"/>
<feOffset dy="4"/>
<feGaussianBlur stdDeviation="12.5"/>
<feComposite in2="hardAlpha" operator="out"/>
<feColorMatrix type="matrix" values="0 0 0 0 0 0 0 0 0 0 0 0 0 0 0 0 0 0 0.4 0"/>
<feBlend mode="normal" in2="BackgroundImageFix" result="effect1_dropShadow_1_6810"/>
<feBlend mode="normal" in="SourceGraphic" in2="effect1_dropShadow_1_6810" result="shape"/>
</filter>
<filter id="filter1_d_1_6810" x="0" y="910" width="943" height="189" filterUnits="userSpaceOnUse" color-interpolation-filters="sRGB">
<feFlood flood-opacity="0" result="BackgroundImageFix"/>
<feColorMatrix in="SourceAlpha" type="matrix" values="0 0 0 0 0 0 0 0 0 0 0 0 0 0 0 0 0 0 127 0" result="hardAlpha"/>
<feOffset dy="4"/>
<feGaussianBlur stdDeviation="12.5"/>
<feComposite in2="hardAlpha" operator="out"/>
<feColorMatrix type="matrix" values="0 0 0 0 0 0 0 0 0 0 0 0 0 0 0 0 0 0 0.4 0"/>
<feBlend mode="normal" in2="BackgroundImageFix" result="effect1_dropShadow_1_6810"/>
<feBlend mode="normal" in="SourceGraphic" in2="effect1_dropShadow_1_6810" result="shape"/>
</filter>
<filter id="filter2_d_1_6810" x="0" y="681" width="943" height="189" filterUnits="userSpaceOnUse" color-interpolation-filters="sRGB">
<feFlood flood-opacity="0" result="BackgroundImageFix"/>
<feColorMatrix in="SourceAlpha" type="matrix" values="0 0 0 0 0 0 0 0 0 0 0 0 0 0 0 0 0 0 127 0" result="hardAlpha"/>
<feOffset dy="4"/>
<feGaussianBlur stdDeviation="12.5"/>
<feComposite in2="hardAlpha" operator="out"/>
<feColorMatrix type="matrix" values="0 0 0 0 0 0 0 0 0 0 0 0 0 0 0 0 0 0 0.4 0"/>
<feBlend mode="normal" in2="BackgroundImageFix" result="effect1_dropShadow_1_6810"/>
<feBlend mode="normal" in="SourceGraphic" in2="effect1_dropShadow_1_6810" result="shape"/>
</filter>
<filter id="filter3_d_1_6810" x="0" y="454" width="943" height="189" filterUnits="userSpaceOnUse" color-interpolation-filters="sRGB">
<feFlood flood-opacity="0" result="BackgroundImageFix"/>
<feColorMatrix in="SourceAlpha" type="matrix" values="0 0 0 0 0 0 0 0 0 0 0 0 0 0 0 0 0 0 127 0" result="hardAlpha"/>
<feOffset dy="4"/>
<feGaussianBlur stdDeviation="12.5"/>
<feComposite in2="hardAlpha" operator="out"/>
<feColorMatrix type="matrix" values="0 0 0 0 0 0 0 0 0 0 0 0 0 0 0 0 0 0 0.4 0"/>
<feBlend mode="normal" in2="BackgroundImageFix" result="effect1_dropShadow_1_6810"/>
<feBlend mode="normal" in="SourceGraphic" in2="effect1_dropShadow_1_6810" result="shape"/>
</filter>
<filter id="filter4_d_1_6810" x="0" y="0" width="943" height="189" filterUnits="userSpaceOnUse" color-interpolation-filters="sRGB">
<feFlood flood-opacity="0" result="BackgroundImageFix"/>
<feColorMatrix in="SourceAlpha" type="matrix" values="0 0 0 0 0 0 0 0 0 0 0 0 0 0 0 0 0 0 127 0" result="hardAlpha"/>
<feOffset dy="4"/>
<feGaussianBlur stdDeviation="12.5"/>
<feComposite in2="hardAlpha" operator="out"/>
<feColorMatrix type="matrix" values="0 0 0 0 0 0 0 0 0 0 0 0 0 0 0 0 0 0 0.4 0"/>
<feBlend mode="normal" in2="BackgroundImageFix" result="effect1_dropShadow_1_6810"/>
<feBlend mode="normal" in="SourceGraphic" in2="effect1_dropShadow_1_6810" result="shape"/>
</filter>
</defs>
</svg>
