<svg width="2021" height="456" viewBox="0 0 2021 456" fill="none" xmlns="http://www.w3.org/2000/svg">
<path d="M0 136H1803L1797 143H0V136Z" fill="#989A99"/>
<path d="M0 295H1731L1725.24 302H0V295Z" fill="#989A99"/>
<path d="M0 311H1805L1798.99 318H0V311Z" fill="#989A99"/>
<path d="M0 152H1791L1785.04 159H0V152Z" fill="#989A99"/>
<path d="M1943.5 159.578H1912L1917 152.078H1941C1943.5 152.078 1946.25 148.078 1946.5 147.078C1947 145.078 1948 142.078 1945 139.578C1942.42 137.43 1939.5 138.578 1938 140.578C1937.05 141.843 1938.5 145.578 1934 145.578C1931.45 145.578 1930.5 143.578 1930 141.578C1929.55 139.759 1929.94 136.639 1932 134.578C1934 132.578 1938 130.578 1942.5 131.078C1947 131.578 1950 132.578 1953 137.578C1955.1 141.078 1955.31 148.775 1953 152.078C1949.5 157.078 1946.5 158.578 1943.5 159.578Z" fill="#989A99"/>
<path fill-rule="evenodd" clip-rule="evenodd" d="M1956.99 70.8947L1950.02 71.3692C1940.38 72.4716 1928.82 76.2323 1921.73 81.5234L1907.89 93.0381L1910.66 85.5219L1907.61 86.3501L1900.35 88.9467C1899.47 89.5405 1891.19 92.7048 1889.27 93.4652C1884.61 95.3137 1882.45 96.7351 1879.02 98.5447C1877.28 100.62 1875.62 101.612 1873.55 104.542C1870.51 108.849 1864.97 124.016 1862.59 126.085L1869.16 103.47L1863.82 110.802C1862.8 112.417 1862.37 112.251 1861.84 114.182C1860.99 117.279 1860.76 122.548 1857.85 125.396C1857.59 121.203 1858.44 117.854 1857.48 113.664C1857.2 114.175 1857.02 114.657 1856.7 115.161C1854.13 119.181 1851.02 128.167 1848.97 133.083L1847.19 137.155C1846.77 137.813 1846.77 137.751 1846.39 138.109L1846.12 136.661C1846.14 134.528 1849.24 121.549 1848.43 115.719C1844.69 117.105 1832.2 126.947 1828.25 129.74C1826.18 131.235 1824.04 132.93 1821.9 134.336C1817.36 137.328 1812.95 140.565 1808.17 143.633C1801.75 147.759 1799.15 153.654 1797.76 154.873L1795.34 160.818C1792.4 167.937 1791.68 175.254 1790.26 183.047C1787.99 178.371 1791.12 165.625 1788.65 161.111C1787.3 170.13 1786.08 183.79 1786.2 192.899L1784.83 173.293C1783.89 174.242 1784.44 173.018 1783.95 174.931L1783.15 180.601C1781.89 177.685 1780.91 174.447 1780.74 171.063L1779.99 168.246C1772.34 179.3 1779.62 199.729 1778.9 212.002C1775.69 205.889 1774.12 191.149 1772.24 183.504C1772.11 181.121 1771.35 179.426 1771.86 177.031C1771.14 177.756 1771.55 177.047 1771.11 178.21C1770.7 179.302 1771.06 178.086 1770.87 179.141C1770.77 179.678 1770.79 181.422 1770.77 182.04C1770.57 189.054 1771.76 197.54 1772.87 204.541C1773.91 211.121 1777.3 219.637 1777.08 225.873C1776.14 224.161 1766.65 185.673 1766.79 183.9L1765.55 183.849C1765.51 188.368 1764.13 192.79 1763.93 197.836C1763.66 204.931 1764.83 212.091 1766.69 218.889C1767.82 220.338 1770.47 228.502 1770.13 230.466C1770.95 231.255 1770.12 235.333 1770.26 237.111C1770.57 241.148 1758.91 268.77 1753.32 279.088L1760.91 281.15C1762.24 273.129 1772.86 248.951 1776.09 242.062C1776.65 240.798 1777.19 240.042 1777.86 238.917C1778.94 237.106 1780.8 233.924 1781.96 232.26C1782.33 231.726 1782.34 231.725 1782.71 231.335C1783.22 230.791 1783.24 230.841 1783.71 230.514C1784.04 228.97 1789.86 220.762 1791.25 219.689C1792.36 216.824 1802.72 204.494 1804.96 202.364C1816.77 188.689 1823.38 183.594 1835.1 172.259C1865.96 144.815 1891.65 119.816 1928 98.114L1937.49 92.9574C1935.74 93.889 1933.64 95.4885 1931.62 96.7316C1919.2 106.171 1861.96 148.011 1854.18 159.38C1862.37 159.582 1890.16 155.63 1893.57 152.498L1883.51 151.269C1893.61 149.954 1897 152.993 1911.92 143.529C1916.09 141.405 1933.52 127.28 1933.71 124.256C1933.22 124.249 1932.06 124.307 1931.74 124.287L1930.56 124.098C1930.52 123.987 1930.32 124.048 1930.16 123.974L1934 119.669L1936.35 116.036L1934.97 116.103L1923.86 116.577C1925.26 115.264 1930.69 114.895 1932.7 114.32C1951.8 108.819 1955.47 100.279 1970.25 86.2487C1972.35 84.2571 1974.08 83.2177 1975.5 81.0417C1973.15 80.8924 1971.25 81.0679 1969.25 80.2569C1970.07 79.2056 1969.27 79.9686 1970.54 79.2431C1975.12 76.6176 1977.14 74.6323 1977.74 74.346L1977.71 72.7966L1963.83 75.3025C1966.58 74.4903 1968.02 73.2869 1971.25 73.1729C1969.8 71.9286 1971.7 72.9545 1969.7 72.4643C1969.51 72.4201 1968.33 72.3459 1968.1 72.3481C1967.46 72.3527 1965.92 72.5879 1965.11 72.6542C1956.45 73.5689 1951.74 75.2317 1944.5 77.8185C1947.71 74.8649 1957.15 71.4868 1963.27 70.6886L1956.99 70.8947ZM1749.8 301.248C1751.08 299.345 1754.05 297.42 1756.67 296.589C1756.74 296.491 1758.18 294.426 1758.22 294.36L1758.59 290.85C1759.07 288.078 1759.18 283.889 1761.01 282.038L1761 281.859L1753.32 280.09C1751.35 281.253 1749.39 282.418 1748.24 284.228C1747.09 286.038 1746.76 288.496 1747.16 291.441C1747.55 294.385 1748.68 297.818 1749.8 301.248ZM1753.22 286.853C1754.24 286.857 1755.06 287.685 1755.05 288.702C1755.05 289.721 1754.22 290.544 1753.2 290.54C1752.19 290.536 1751.36 289.707 1751.37 288.69C1751.37 287.671 1752.2 286.849 1753.22 286.853ZM1809.58 223.079C1805.92 224.142 1800.86 224.776 1796.94 225.631C1794.65 226.13 1792.32 226.353 1791.04 227.583C1788.34 230.175 1783.84 240.389 1781.06 242.43C1781.72 244.014 1780.07 243.865 1784.15 243.192C1785.86 242.911 1786.39 242.643 1788.34 242.46C1799.95 239.766 1823.15 233.335 1829.92 220.551L1828.2 220.78C1827.63 221.216 1827.91 221.053 1827.08 221.462L1824.15 222.432C1822.57 222.82 1821.49 223.015 1819.9 223.161C1820.71 222.271 1822.86 220.998 1823.97 220.274L1809.58 223.079ZM1793.73 224.228L1810.2 220.534L1824.19 216.123C1827.45 214.24 1831.33 213.781 1834.68 211.261C1837.13 209.418 1842.15 205.798 1843.41 204.145C1841.55 202.887 1839.66 203.083 1837.57 202.1C1847.12 201.477 1847.04 201.618 1852.1 196.514C1862.17 186.348 1870.39 178.782 1880.47 169.471C1881.39 168.624 1881.98 168.152 1883.07 167.143C1884.36 165.951 1884.08 165.68 1885.68 164.754L1887.6 162.416L1880.29 162.051C1881.25 161.691 1883.14 160.24 1883.89 159.544C1879.5 158.417 1860.63 160.45 1855.45 161.159C1847.2 162.286 1843.91 166.895 1838.11 172.937C1832.69 178.686 1797.64 214.583 1793.73 224.228Z" fill="#989A99"/>
<path d="M1738.84 298.388C1741.53 300.262 1744.22 302.135 1748.41 302.897C1752.59 303.657 1758.27 303.307 1765.09 301.316C1771.91 299.325 1779.87 295.696 1788.39 293.911C1796.91 292.124 1805.98 292.183 1813.86 292.651C1821.73 293.12 1828.4 293.998 1835.34 296.018C1842.28 298.038 1849.48 301.198 1854.92 304.419C1860.37 307.638 1864.06 310.916 1868.27 312.789C1872.49 314.663 1877.23 315.131 1882.44 314.488C1887.65 313.843 1893.33 312.087 1896.69 311.115C1900.05 310.143 1901.09 309.955 1902.13 309.767" stroke="#989A99" stroke-width="5" stroke-miterlimit="22.9256" stroke-linecap="round"/>
</svg>
