<svg width="198" height="21" viewBox="0 0 198 21" fill="none" xmlns="http://www.w3.org/2000/svg">
<path d="M5.92008 1.321V13.473H7.65608V14H0.929082V13.473H2.88208V1.321H0.929082V0.793999H16.1811V1.321H14.2281V13.473H16.1811V14H9.45408V13.473H11.1901V1.321H5.92008ZM22.3261 0.638999V2.499C22.3674 2.39567 22.4398 2.26133 22.5431 2.096C22.6464 1.91 22.7808 1.724 22.9461 1.538C23.1941 1.26933 23.5144 1.02133 23.9071 0.793999C24.3204 0.566666 24.8268 0.453 25.4261 0.453C25.4468 0.453 25.4571 0.453 25.4571 0.453C25.4778 0.453 25.4984 0.453 25.5191 0.453C27.0484 0.473666 28.4538 1.12467 29.7351 2.406C31.0164 3.68733 31.6571 5.36133 31.6571 7.428C31.6571 9.30867 31.0164 10.931 29.7351 12.295C28.4744 13.6383 26.9658 14.31 25.2091 14.31C24.6098 14.31 24.1241 14.2273 23.7521 14.062C23.3801 13.8967 23.0804 13.7003 22.8531 13.473C22.7291 13.3697 22.6258 13.2663 22.5431 13.163C22.4604 13.039 22.3881 12.9357 22.3261 12.853V20.076H24.2791V20.603H17.3351V20.076H19.2881V1.321H17.3351V0.793999H20.4041C20.5488 0.793999 20.6728 0.793999 20.7761 0.793999C20.9001 0.793999 21.0138 0.793999 21.1171 0.793999C21.2824 0.773333 21.4581 0.752666 21.6441 0.731999C21.8301 0.711333 22.0574 0.680333 22.3261 0.638999ZM28.1851 9.195V5.072C28.1851 3.48067 27.8958 2.41633 27.3171 1.879C26.7591 1.321 26.1184 1.042 25.3951 1.042C24.5684 1.042 23.8451 1.36233 23.2251 2.003C22.6258 2.623 22.3261 3.398 22.3261 4.328V11.241C22.3261 11.8817 22.5534 12.4293 23.0081 12.884C23.4834 13.318 24.0104 13.6073 24.5891 13.752C24.6924 13.7933 24.8061 13.8243 24.9301 13.845C25.0541 13.845 25.1678 13.845 25.2711 13.845C25.4364 13.845 25.6121 13.8243 25.7981 13.783C26.0048 13.7417 26.2218 13.659 26.4491 13.535C26.8831 13.3077 27.2758 12.8737 27.6271 12.233C27.9991 11.5717 28.1851 10.559 28.1851 9.195ZM37.9494 11.179L43.2194 2.282V1.321H41.4834V0.793999H48.2104V1.321H46.2574V13.473H48.2104V14H41.4834V13.473H43.2194V3.336L37.9494 12.233V13.473H39.6854V14H32.9584V13.473H34.9114V1.321H32.9584V0.793999H39.6854V1.321H37.9494V11.179ZM62.3195 1.321V13.473H64.0555V14H57.3285V13.473H59.2815V1.321H57.3285V0.793999H72.5805V1.321H70.6275V13.473H72.5805V14H65.8535V13.473H67.5895V1.321H62.3195ZM73.8895 7.397C73.8895 5.537 74.5199 3.91467 75.7805 2.53C77.0619 1.14533 78.6635 0.453 80.5855 0.453C82.5489 0.453 84.1609 1.166 85.4215 2.592C86.6822 3.99733 87.3125 5.599 87.3125 7.397C87.3125 9.195 86.6822 10.7967 85.4215 12.202C84.1609 13.6073 82.5489 14.31 80.5855 14.31C78.6222 14.31 77.0102 13.6177 75.7495 12.233C74.5095 10.8277 73.8895 9.21567 73.8895 7.397ZM77.3925 5.165C77.3719 5.55767 77.3615 5.95033 77.3615 6.343C77.3615 6.715 77.3615 7.09733 77.3615 7.49C77.3615 9.598 77.5579 11.179 77.9505 12.233C78.3432 13.287 79.2319 13.814 80.6165 13.814C81.8565 13.814 82.7039 13.3283 83.1585 12.357C83.6132 11.3857 83.8405 9.753 83.8405 7.459C83.8405 7.43833 83.8405 7.428 83.8405 7.428C83.8405 7.40733 83.8405 7.38667 83.8405 7.366C83.8405 5.77467 83.6752 4.31767 83.3445 2.995C83.0345 1.65167 82.1252 0.979999 80.6165 0.979999C80.5545 0.979999 80.4925 0.979999 80.4305 0.979999C80.3892 0.979999 80.3375 0.990333 80.2755 1.011C79.5729 1.073 78.9322 1.42433 78.3535 2.065C77.7749 2.685 77.4545 3.71833 77.3925 5.165ZM88.849 18.061H88.167L88.539 13.473H89.004C90.058 13.473 90.771 12.8427 91.143 11.582C91.5356 10.3007 91.732 7.56233 91.732 3.367C91.732 2.51967 91.577 1.972 91.267 1.724C90.957 1.45533 90.2853 1.321 89.252 1.321V0.793999H101.528V1.321H99.575V13.473H101.652L101.931 18.061H101.28C101.094 16.4697 100.526 15.395 99.575 14.837C98.645 14.279 97.3946 14 95.824 14H93.251C91.7216 14 90.678 14.3307 90.12 14.992C89.562 15.6533 89.1383 16.666 88.849 18.03V18.061ZM96.537 13.473V1.321H94.305C93.3956 1.321 92.8376 1.51733 92.631 1.91C92.445 2.282 92.3313 3.12933 92.29 4.452C92.29 4.59667 92.2796 4.75167 92.259 4.917C92.259 5.08233 92.259 5.258 92.259 5.444C92.259 5.73333 92.2486 6.01233 92.228 6.281C92.228 6.529 92.2176 6.777 92.197 7.025C92.135 9.21567 92.0213 10.714 91.856 11.52C91.7113 12.326 91.3703 12.977 90.833 13.473H96.537ZM103.047 18.061H102.365L102.737 13.473H103.202C104.256 13.473 104.969 12.8427 105.341 11.582C105.734 10.3007 105.93 7.56233 105.93 3.367C105.93 2.51967 105.775 1.972 105.465 1.724C105.155 1.45533 104.484 1.321 103.45 1.321V0.793999H115.726V1.321H113.773V13.473H115.85L116.129 18.061H115.478C115.292 16.4697 114.724 15.395 113.773 14.837C112.843 14.279 111.593 14 110.022 14H107.449C105.92 14 104.876 14.3307 104.318 14.992C103.76 15.6533 103.337 16.666 103.047 18.03V18.061ZM110.735 13.473V1.321H108.503C107.594 1.321 107.036 1.51733 106.829 1.91C106.643 2.282 106.53 3.12933 106.488 4.452C106.488 4.59667 106.478 4.75167 106.457 4.917C106.457 5.08233 106.457 5.258 106.457 5.444C106.457 5.73333 106.447 6.01233 106.426 6.281C106.426 6.529 106.416 6.777 106.395 7.025C106.333 9.21567 106.22 10.714 106.054 11.52C105.91 12.326 105.569 12.977 105.031 13.473H110.735ZM128.808 10.311L129.335 10.652C128.571 11.8507 127.744 12.76 126.855 13.38C125.967 14 124.923 14.31 123.724 14.31C122.009 14.31 120.469 13.7107 119.105 12.512C117.741 11.3133 117.059 9.60833 117.059 7.397C117.059 5.537 117.648 3.91467 118.826 2.53C120.025 1.14533 121.513 0.453 123.29 0.453C123.621 0.453 123.993 0.484 124.406 0.546C124.82 0.607999 125.233 0.721666 125.646 0.887C126.473 1.21767 127.248 1.82733 127.971 2.716C128.695 3.584 129.108 4.89633 129.211 6.653H120.531L120.562 8.792C120.562 8.978 120.562 9.17433 120.562 9.381C120.583 9.58767 120.604 9.79433 120.624 10.001C120.707 10.931 120.945 11.7783 121.337 12.543C121.73 13.3077 122.484 13.69 123.6 13.69C124.324 13.69 125.13 13.4833 126.018 13.07C126.907 12.636 127.837 11.7163 128.808 10.311ZM120.531 6.157H125.987C126.029 4.75167 125.915 3.54267 125.646 2.53C125.398 1.49667 124.665 0.979999 123.445 0.979999C122.66 0.979999 122.071 1.166 121.678 1.538C121.286 1.88933 121.007 2.282 120.841 2.716C120.717 3.00533 120.635 3.28433 120.593 3.553C120.573 3.82167 120.562 4.03867 120.562 4.204L120.531 6.157ZM135.549 0.638999V2.499C135.59 2.39567 135.662 2.26133 135.766 2.096C135.869 1.91 136.003 1.724 136.169 1.538C136.417 1.26933 136.737 1.02133 137.13 0.793999C137.543 0.566666 138.049 0.453 138.649 0.453C138.669 0.453 138.68 0.453 138.68 0.453C138.7 0.453 138.721 0.453 138.742 0.453C140.271 0.473666 141.676 1.12467 142.958 2.406C144.239 3.68733 144.88 5.36133 144.88 7.428C144.88 9.30867 144.239 10.931 142.958 12.295C141.697 13.6383 140.188 14.31 138.432 14.31C137.832 14.31 137.347 14.2273 136.975 14.062C136.603 13.8967 136.303 13.7003 136.076 13.473C135.952 13.3697 135.848 13.2663 135.766 13.163C135.683 13.039 135.611 12.9357 135.549 12.853V20.076H137.502V20.603H130.558V20.076H132.511V1.321H130.558V0.793999H133.627C133.771 0.793999 133.895 0.793999 133.999 0.793999C134.123 0.793999 134.236 0.793999 134.34 0.793999C134.505 0.773333 134.681 0.752666 134.867 0.731999C135.053 0.711333 135.28 0.680333 135.549 0.638999ZM141.408 9.195V5.072C141.408 3.48067 141.118 2.41633 140.54 1.879C139.982 1.321 139.341 1.042 138.618 1.042C137.791 1.042 137.068 1.36233 136.448 2.003C135.848 2.623 135.549 3.398 135.549 4.328V11.241C135.549 11.8817 135.776 12.4293 136.231 12.884C136.706 13.318 137.233 13.6073 137.812 13.752C137.915 13.7933 138.029 13.8243 138.153 13.845C138.277 13.845 138.39 13.845 138.494 13.845C138.659 13.845 138.835 13.8243 139.021 13.783C139.227 13.7417 139.444 13.659 139.672 13.535C140.106 13.3077 140.498 12.8737 140.85 12.233C141.222 11.5717 141.408 10.559 141.408 9.195ZM158.829 1.321V6.808C160.09 6.82867 160.906 6.653 161.278 6.281C161.65 5.88833 161.939 5.289 162.146 4.483C162.167 4.37967 162.187 4.27633 162.208 4.173C162.249 4.049 162.28 3.925 162.301 3.801C162.301 3.78033 162.301 3.75967 162.301 3.739C162.322 3.69767 162.332 3.65633 162.332 3.615C162.539 2.82967 162.818 2.10633 163.169 1.445C163.541 0.783666 164.202 0.453 165.153 0.453C165.918 0.453 166.517 0.680333 166.951 1.135C167.385 1.569 167.602 2.065 167.602 2.623C167.602 3.119 167.488 3.51167 167.261 3.801C167.054 4.09033 166.817 4.28667 166.548 4.39C166.445 4.452 166.331 4.49333 166.207 4.514C166.104 4.53467 166.011 4.545 165.928 4.545C165.845 4.545 165.763 4.545 165.68 4.545C165.597 4.52433 165.504 4.50367 165.401 4.483C165.132 4.40033 164.884 4.266 164.657 4.08C164.43 3.87333 164.316 3.584 164.316 3.212C164.316 3.088 164.316 2.97433 164.316 2.871C164.337 2.747 164.357 2.63333 164.378 2.53C164.378 2.50933 164.378 2.48867 164.378 2.468C164.399 2.44733 164.409 2.42667 164.409 2.406C164.43 2.36467 164.44 2.32333 164.44 2.282C164.461 2.24067 164.471 2.19933 164.471 2.158C164.471 2.13733 164.471 2.11667 164.471 2.096C164.471 2.07533 164.471 2.05467 164.471 2.034C164.45 1.99267 164.43 1.95133 164.409 1.91C164.409 1.848 164.388 1.80667 164.347 1.786C164.306 1.74467 164.254 1.724 164.192 1.724C164.151 1.70333 164.099 1.693 164.037 1.693C163.975 1.693 163.913 1.70333 163.851 1.724C163.81 1.724 163.768 1.74467 163.727 1.786C163.706 1.786 163.686 1.79633 163.665 1.817C163.665 1.83767 163.655 1.848 163.634 1.848C163.572 1.93067 163.51 2.02367 163.448 2.127C163.407 2.23033 163.365 2.344 163.324 2.468C163.283 2.57133 163.241 2.67467 163.2 2.778C163.179 2.88133 163.169 2.964 163.169 3.026C163.128 3.19133 163.086 3.35667 163.045 3.522C163.024 3.68733 162.993 3.84233 162.952 3.987C162.807 4.607 162.632 5.14433 162.425 5.599C162.239 6.05367 161.95 6.436 161.557 6.746C161.619 6.76667 161.681 6.78733 161.743 6.808C161.805 6.808 161.867 6.81833 161.929 6.839C161.929 6.839 161.929 6.84933 161.929 6.87C161.95 6.87 161.97 6.87 161.991 6.87C162.962 7.118 163.851 7.46933 164.657 7.924C165.484 8.37867 165.928 9.36033 165.99 10.869C165.99 10.8897 165.99 10.9207 165.99 10.962C165.99 10.9827 165.99 11.0033 165.99 11.024C165.969 11.0447 165.959 11.0757 165.959 11.117C165.959 11.1377 165.959 11.1583 165.959 11.179C165.98 11.613 166.062 11.9953 166.207 12.326C166.372 12.6567 166.548 12.8737 166.734 12.977C166.775 12.9977 166.806 13.0183 166.827 13.039C166.868 13.039 166.91 13.039 166.951 13.039C167.034 13.039 167.127 13.0287 167.23 13.008C167.333 12.9667 167.437 12.915 167.54 12.853C167.685 12.7497 167.829 12.6463 167.974 12.543C168.119 12.419 168.232 12.2847 168.315 12.14L168.718 12.419C168.47 12.791 168.212 13.101 167.943 13.349C167.695 13.597 167.447 13.7933 167.199 13.938C166.889 14.0827 166.589 14.1757 166.3 14.217C166.011 14.279 165.732 14.31 165.463 14.31C164.698 14.31 164.14 14.093 163.789 13.659C163.438 13.225 163.2 12.7393 163.076 12.202C162.993 11.9127 162.931 11.6337 162.89 11.365C162.869 11.0757 162.849 10.8277 162.828 10.621C162.828 10.6003 162.828 10.5797 162.828 10.559C162.828 10.5177 162.818 10.4867 162.797 10.466C162.694 9.66 162.435 8.92633 162.022 8.265C161.629 7.60367 160.803 7.28333 159.542 7.304C159.439 7.304 159.325 7.304 159.201 7.304C159.077 7.304 158.953 7.31433 158.829 7.335V13.473H160.782V14H153.838V13.473H155.791V7.335C154.096 7.29367 153.042 7.521 152.629 8.017C152.236 8.513 151.957 9.381 151.792 10.621C151.771 10.8277 151.74 11.0653 151.699 11.334C151.678 11.6027 151.627 11.8713 151.544 12.14C151.42 12.698 151.182 13.2043 150.831 13.659C150.5 14.093 149.942 14.31 149.157 14.31C148.888 14.31 148.609 14.279 148.32 14.217C148.031 14.1757 147.731 14.0827 147.421 13.938C147.173 13.7933 146.915 13.6073 146.646 13.38C146.398 13.132 146.15 12.8117 145.902 12.419L146.274 12.14C146.274 12.1607 146.274 12.1813 146.274 12.202C146.295 12.202 146.315 12.2123 146.336 12.233C146.439 12.3363 146.553 12.45 146.677 12.574C146.822 12.6773 146.966 12.7703 147.111 12.853C147.194 12.915 147.287 12.9667 147.39 13.008C147.493 13.0287 147.586 13.039 147.669 13.039C147.71 13.039 147.752 13.039 147.793 13.039C147.834 13.0183 147.876 12.9873 147.917 12.946C148.103 12.8427 148.268 12.6257 148.413 12.295C148.578 11.9437 148.661 11.5613 148.661 11.148C148.661 11.1273 148.661 11.1067 148.661 11.086C148.661 11.0653 148.661 11.0343 148.661 10.993C148.64 10.9723 148.63 10.9517 148.63 10.931C148.63 10.9103 148.63 10.8897 148.63 10.869C148.692 9.36033 149.126 8.37867 149.932 7.924C150.759 7.46933 151.658 7.118 152.629 6.87C152.65 6.87 152.66 6.87 152.66 6.87C152.681 6.84933 152.691 6.839 152.691 6.839C152.753 6.81833 152.815 6.808 152.877 6.808C152.939 6.78733 153.001 6.76667 153.063 6.746C152.815 6.53933 152.598 6.29133 152.412 6.002C152.247 5.71267 152.081 5.30967 151.916 4.793C151.833 4.56567 151.751 4.30733 151.668 4.018C151.606 3.72867 151.534 3.398 151.451 3.026C151.451 2.964 151.43 2.88133 151.389 2.778C151.368 2.67467 151.348 2.57133 151.327 2.468C151.265 2.32333 151.193 2.189 151.11 2.065C151.048 1.92033 150.976 1.82733 150.893 1.786C150.852 1.74467 150.8 1.724 150.738 1.724C150.676 1.70333 150.614 1.693 150.552 1.693C150.531 1.693 150.511 1.693 150.49 1.693C150.49 1.693 150.48 1.693 150.459 1.693C150.418 1.71367 150.376 1.73433 150.335 1.755C150.314 1.755 150.294 1.76533 150.273 1.786C150.252 1.80667 150.232 1.848 150.211 1.91C150.19 1.95133 150.17 1.99267 150.149 2.034C150.149 2.05467 150.149 2.07533 150.149 2.096C150.149 2.11667 150.149 2.13733 150.149 2.158C150.149 2.19933 150.149 2.24067 150.149 2.282C150.17 2.32333 150.19 2.36467 150.211 2.406C150.211 2.42667 150.211 2.44733 150.211 2.468C150.232 2.48867 150.242 2.50933 150.242 2.53C150.283 2.63333 150.304 2.747 150.304 2.871C150.304 2.97433 150.304 3.088 150.304 3.212C150.304 3.60467 150.17 3.90433 149.901 4.111C149.632 4.31767 149.333 4.452 149.002 4.514C148.94 4.514 148.878 4.52433 148.816 4.545C148.754 4.545 148.692 4.545 148.63 4.545C148.609 4.545 148.578 4.545 148.537 4.545C148.516 4.545 148.496 4.545 148.475 4.545C148.103 4.483 147.762 4.28667 147.452 3.956C147.163 3.62533 147.018 3.181 147.018 2.623C147.018 2.065 147.235 1.569 147.669 1.135C148.103 0.680333 148.702 0.453 149.467 0.453C150.459 0.453 151.12 0.794 151.451 1.476C151.802 2.158 152.081 2.91233 152.288 3.739C152.288 3.75967 152.288 3.79067 152.288 3.832C152.309 3.85267 152.319 3.87333 152.319 3.894C152.36 4.03867 152.402 4.18333 152.443 4.328C152.484 4.47267 152.526 4.61733 152.567 4.762C152.815 5.568 153.135 6.11567 153.528 6.405C153.921 6.69433 154.675 6.82867 155.791 6.808V1.321H153.838V0.793999H160.782V1.321H158.829ZM174.664 6.746H175.78C176.586 6.746 177.155 6.53933 177.485 6.126C177.816 5.692 178.054 5.227 178.198 4.731C178.219 4.607 178.24 4.49333 178.26 4.39C178.302 4.266 178.333 4.15233 178.353 4.049C178.581 2.933 178.86 2.05467 179.19 1.414C179.542 0.773333 180.224 0.453 181.236 0.453C181.856 0.453 182.414 0.649333 182.91 1.042C183.406 1.414 183.654 1.941 183.654 2.623C183.654 3.119 183.51 3.56333 183.22 3.956C182.952 4.34867 182.538 4.545 181.98 4.545C181.505 4.545 181.112 4.421 180.802 4.173C180.513 3.90433 180.368 3.584 180.368 3.212C180.368 3.088 180.379 2.97433 180.399 2.871C180.42 2.747 180.441 2.63333 180.461 2.53C180.461 2.50933 180.461 2.48867 180.461 2.468C180.482 2.44733 180.492 2.42667 180.492 2.406C180.513 2.36467 180.523 2.32333 180.523 2.282C180.544 2.24067 180.554 2.19933 180.554 2.158C180.554 1.95133 180.492 1.82733 180.368 1.786C180.244 1.74467 180.1 1.724 179.934 1.724C179.934 1.724 179.924 1.724 179.903 1.724C179.903 1.724 179.893 1.724 179.872 1.724C179.852 1.724 179.831 1.724 179.81 1.724C179.666 1.724 179.542 1.85833 179.438 2.127C179.335 2.375 179.242 2.654 179.159 2.964C179.097 3.212 179.046 3.44967 179.004 3.677C178.984 3.88367 178.963 4.03867 178.942 4.142C178.942 4.18333 178.932 4.22467 178.911 4.266C178.911 4.30733 178.901 4.34867 178.88 4.39C178.715 5.17533 178.519 5.754 178.291 6.126C178.064 6.47733 177.733 6.715 177.299 6.839V6.932C178.849 7.01467 179.934 7.32467 180.554 7.862C181.174 8.37867 181.577 8.947 181.763 9.567C181.825 9.79433 181.877 10.0217 181.918 10.249C181.96 10.4557 181.991 10.6623 182.011 10.869C182.011 10.8897 182.011 10.9103 182.011 10.931C182.011 10.9517 182.011 10.9723 182.011 10.993C182.073 11.5303 182.156 12.0057 182.259 12.419C182.383 12.8323 182.642 13.039 183.034 13.039C183.303 13.039 183.551 12.9563 183.778 12.791C184.006 12.605 184.181 12.4087 184.305 12.202L184.708 12.419C184.44 12.9977 184.026 13.4627 183.468 13.814C182.91 14.1447 182.259 14.31 181.515 14.31C180.461 14.31 179.79 13.9793 179.5 13.318C179.211 12.6567 179.004 11.923 178.88 11.117C178.88 11.0757 178.88 11.0343 178.88 10.993C178.88 10.9517 178.87 10.9103 178.849 10.869C178.849 10.8277 178.839 10.7863 178.818 10.745C178.818 10.683 178.818 10.6313 178.818 10.59C178.612 9.08133 178.281 8.15133 177.826 7.8C177.392 7.428 176.783 7.242 175.997 7.242H175.346L174.664 7.273V13.473H176.617V14H169.673V13.473H171.626V1.321H169.673V0.793999H176.617V1.321H174.664V6.746ZM197.469 10.311L197.996 10.652C197.231 11.8507 196.404 12.76 195.516 13.38C194.627 14 193.583 14.31 192.385 14.31C190.669 14.31 189.13 13.7107 187.766 12.512C186.402 11.3133 185.72 9.60833 185.72 7.397C185.72 5.537 186.309 3.91467 187.487 2.53C188.685 1.14533 190.173 0.453 191.951 0.453C192.281 0.453 192.653 0.484 193.067 0.546C193.48 0.607999 193.893 0.721666 194.307 0.887C195.133 1.21767 195.908 1.82733 196.632 2.716C197.355 3.584 197.768 4.89633 197.872 6.653H189.192L189.223 8.792C189.223 8.978 189.223 9.17433 189.223 9.381C189.243 9.58767 189.264 9.79433 189.285 10.001C189.367 10.931 189.605 11.7783 189.998 12.543C190.39 13.3077 191.145 13.69 192.261 13.69C192.984 13.69 193.79 13.4833 194.679 13.07C195.567 12.636 196.497 11.7163 197.469 10.311ZM189.192 6.157H194.648C194.689 4.75167 194.575 3.54267 194.307 2.53C194.059 1.49667 193.325 0.979999 192.106 0.979999C191.32 0.979999 190.731 1.166 190.339 1.538C189.946 1.88933 189.667 2.282 189.502 2.716C189.378 3.00533 189.295 3.28433 189.254 3.553C189.233 3.82167 189.223 4.03867 189.223 4.204L189.192 6.157Z" fill="#2355D7"/>
</svg>
